<svg version="1.1" xmlns="http://www.w3.org/2000/svg" xmlns:xlink="http://www.w3.org/1999/xlink" width="600" height="400" style="width: 600px; height: 400px;"><defs><clipPath id="VtlLVWoIspDR"><path fill="none" stroke="none" d=" M 79 5 L 570 5 L 570 342 L 79 342 L 79 5 Z"/></clipPath><clipPath id="XTwlZZCRmQWl"><path fill="none" stroke="none" d=" M 79 5 L 570 5 L 570 342 L 79 342 L 79 5 Z"/></clipPath></defs><g><g transform="scale(1,1) translate(0.5,0.5)"><rect fill="#FFFFFF" stroke="none" x="0" y="0" width="600" height="400"/><rect fill="#ffffff" stroke="none" x="0" y="0" width="600" height="400"/><rect fill="#FFFFFF" stroke="none" x="79" y="5" width="491" height="337"/><rect fill="#ffffff" stroke="none" x="79" y="5" width="491" height="337"/><g><rect fill="none" stroke="#e5e5e5" x="79" y="5" width="491" height="337" stroke-linejoin="bevel" stroke-miterlimit="10"/></g><g clip-path="url(#VtlLVWoIspDR)"><g><g><path fill="none" stroke="#e5e5e5" paint-order="fill stroke markers" d=" M 101 342 L 101 5" stroke-linejoin="bevel" stroke-miterlimit="10"/><path fill="none" stroke="#e5e5e5" paint-order="fill stroke markers" d=" M 213 342 L 213 5" stroke-linejoin="bevel" stroke-miterlimit="10"/><path fill="none" stroke="#e5e5e5" paint-order="fill stroke markers" d=" M 325 342 L 325 5" stroke-linejoin="bevel" stroke-miterlimit="10"/><path fill="none" stroke="#e5e5e5" paint-order="fill stroke markers" d=" M 436 342 L 436 5" stroke-linejoin="bevel" stroke-miterlimit="10"/><path fill="none" stroke="#e5e5e5" paint-order="fill stroke markers" d=" M 548 342 L 548 5" stroke-linejoin="bevel" stroke-miterlimit="10"/></g><g><path fill="none" stroke="#e5e5e5" paint-order="fill stroke markers" d=" M 79 327 L 570 327" stroke-linejoin="bevel" stroke-miterlimit="10"/><path fill="none" stroke="#e5e5e5" paint-order="fill stroke markers" d=" M 79 244 L 570 244" stroke-linejoin="bevel" stroke-miterlimit="10"/><path fill="none" stroke="#e5e5e5" paint-order="fill stroke markers" d=" M 79 161 L 570 161" stroke-linejoin="bevel" stroke-miterlimit="10"/><path fill="none" stroke="#e5e5e5" paint-order="fill stroke markers" d=" M 79 78 L 570 78" stroke-linejoin="bevel" stroke-miterlimit="10"/></g><g><path fill="none" stroke="none"/><path fill="none" stroke="#1f77b4" paint-order="fill stroke markers" d=" M 101.31818181818181 326.6818181818182 L 123.63636363636363 323.42845779132824 L 145.95454545454544 315.7432238076709 L 168.27272727272725 305.8337536386786 L 190.59090909090907 295.79979263841756 L 212.9090909090909 284.8777970417728 L 235.22727272727272 268.6441926443281 L 257.5454545454545 263.06700340348823 L 279.8636363636364 249.90417284400598 L 302.18181818181813 246.64251306476478 L 324.5 241.26450915395492 L 346.8181818181818 236.2350795706975 L 369.1363636363636 228.10167859447267 L 391.45454545454544 221.27958104094532 L 413.77272727272725 213.79353238731795 L 436.09090909090907 199.86715806272076 L 458.4090909090909 181.93217897126988 L 480.7272727272727 146.06222078836808 L 503.0454545454545 105.51970673851264 L 525.3636363636364 62.6201662833023 L 547.6818181818182 20.31818181818187" stroke-linejoin="bevel" stroke-miterlimit="10" stroke-width="4"/></g><g><path fill="none" stroke="none"/><path fill="none" stroke="dodgerblue" paint-order="fill stroke markers" d=" M 101.31818181818181 326.6818181818182 L 123.63636363636363 326.6818181818182 L 145.95454545454544 326.6818181818182 L 168.27272727272725 326.6818181818182 L 190.59090909090907 326.6818181818182 L 212.9090909090909 323.36206268131826 L 235.22727272727272 310.0830406793185 L 257.5454545454545 290.1645076763189 L 279.8636363636364 295.1441409270688 L 302.18181818181813 268.58609692306936 L 324.5 256.9669526713196 L 346.8181818181818 253.64719717081965 L 369.1363636363636 248.66756392006977 L 391.45454545454544 245.34780841956984 L 413.77272727272725 245.34780841956984 L 436.09090909090907 243.68793066931988 L 458.4090909090909 243.68793066931988 L 480.7272727272727 243.68793066931988 L 503.0454545454545 243.68793066931988 L 525.3636363636364 243.68793066931988 L 547.6818181818182 243.68793066931988" stroke-linejoin="bevel" stroke-miterlimit="10" stroke-width="2"/></g><g><path fill="none" stroke="none"/><path fill="none" stroke="deepskyblue" paint-order="fill stroke markers" d=" M 101.31818181818181 326.6818181818182 L 123.63636363636363 323.42845779132824 L 145.95454545454544 315.7432238076709 L 168.27272727272725 305.8337536386786 L 190.59090909090907 295.79979263841756 L 212.9090909090909 288.1975525422727 L 235.22727272727272 285.24297014682776 L 257.5454545454545 299.5843139089875 L 279.8636363636364 281.44185009875537 L 302.18181818181813 304.7382343235136 L 324.5 310.97937466445353 L 346.8181818181818 309.26970058169604 L 369.1363636363636 306.1159328562211 L 391.45454545454544 302.6135908031937 L 413.77272727272725 295.12754214956635 L 436.09090909090907 282.86104557521907 L 458.4090909090909 264.9260664837682 L 480.7272727272727 229.0561083008664 L 503.0454545454545 188.51359425101097 L 525.3636363636364 145.6140537958006 L 547.6818181818182 103.3120693306802" stroke-linejoin="bevel" stroke-miterlimit="10" stroke-width="2" stroke-dasharray="6,4,2,4"/></g><g><path fill="none" stroke="none"/><path fill="none" stroke="red" paint-order="fill stroke markers" d=" M 101.31818181818181 326.6818181818182 L 123.63636363636363 323.42845779132824 L 145.95454545454544 315.7432238076709 L 168.27272727272725 305.8337536386786 L 190.59090909090907 295.79979263841756 L 212.9090909090909 284.81140193176276 L 235.22727272727272 265.48212553010194 L 257.5454545454545 248.277492648761 L 279.8636363636364 243.68793066931988 L 302.18181818181813 243.68793066931988 L 324.5 224.93961148024647 L 346.8181818181818 226.27581306919774 L 369.1363636363636 222.74857284991654 L 391.45454545454544 219.61970329069536 L 413.77272727272725 211.76018214326177 L 436.09090909090907 199.86715806272076 L 458.4090909090909 181.93217897126988 L 480.7272727272727 146.06222078836808 L 503.0454545454545 105.51970673851264 L 525.3636363636364 62.6201662833023 L 547.6818181818182 20.31818181818187" stroke-linejoin="bevel" stroke-miterlimit="10" stroke-width="2"/></g><g><path fill="none" stroke="none"/><path fill="none" stroke="tomato" paint-order="fill stroke markers" d=" M 101.31818181818181 326.6818181818182 L 123.63636363636363 326.6818181818182 L 145.95454545454544 326.6818181818182 L 168.27272727272725 326.6818181818182 L 190.59090909090907 326.6818181818182 L 212.9090909090909 326.6818181818182 L 235.22727272727272 326.6818181818182 L 257.5454545454545 268.58609692306936 L 279.8636363636364 243.68793066931988 L 302.18181818181813 243.68793066931988 L 324.5 243.68793066931988 L 346.8181818181818 243.68793066931988 L 369.1363636363636 243.68793066931988 L 391.45454545454544 243.68793066931988 L 413.77272727272725 243.68793066931988 L 436.09090909090907 243.68793066931988 L 458.4090909090909 243.68793066931988 L 480.7272727272727 243.68793066931988 L 503.0454545454545 243.68793066931988 L 525.3636363636364 243.68793066931988 L 547.6818181818182 243.68793066931988" stroke-linejoin="bevel" stroke-miterlimit="10"/></g><g><path fill="none" stroke="none"/><path fill="none" stroke="orange" paint-order="fill stroke markers" d=" M 101.31818181818181 326.6818181818182 L 123.63636363636363 323.42845779132824 L 145.95454545454544 315.7432238076709 L 168.27272727272725 305.8337536386786 L 190.59090909090907 295.79979263841756 L 212.9090909090909 284.81140193176276 L 235.22727272727272 265.48212553010194 L 257.5454545454545 306.37321390750986 L 279.8636363636364 326.6818181818182 L 302.18181818181813 326.6818181818182 L 324.5 307.93349899274483 L 346.8181818181818 309.26970058169604 L 369.1363636363636 305.7424603624149 L 391.45454545454544 302.6135908031937 L 413.77272727272725 294.7540696557601 L 436.09090909090907 282.86104557521907 L 458.4090909090909 264.9260664837682 L 480.7272727272727 229.0561083008664 L 503.0454545454545 188.51359425101097 L 525.3636363636364 145.6140537958006 L 547.6818181818182 103.3120693306802" stroke-linejoin="bevel" stroke-miterlimit="10"/></g><g><path fill="none" stroke="none"/><path fill="red" stroke="red" paint-order="fill stroke markers" d=" M 104.81818181818181 326.6818181818182 A 3.5 3.5 0 1 1 104.81818006818196 326.67831818240154" stroke-linejoin="bevel" stroke-miterlimit="10"/><path fill="red" stroke="red" paint-order="fill stroke markers" d=" M 127.13636363636363 323.42845779132824 A 3.5 3.5 0 1 1 127.13636188636377 323.4249577919116" stroke-linejoin="bevel" stroke-miterlimit="10"/><path fill="red" stroke="red" paint-order="fill stroke markers" d=" M 149.45454545454544 315.7432238076709 A 3.5 3.5 0 1 1 149.45454370454559 315.73972380825427" stroke-linejoin="bevel" stroke-miterlimit="10"/><path fill="red" stroke="red" paint-order="fill stroke markers" d=" M 171.77272727272725 305.8337536386786 A 3.5 3.5 0 1 1 171.7727255227274 305.83025363926197" stroke-linejoin="bevel" stroke-miterlimit="10"/><path fill="red" stroke="red" paint-order="fill stroke markers" d=" M 194.09090909090907 295.79979263841756 A 3.5 3.5 0 1 1 194.0909073409092 295.7962926390009" stroke-linejoin="bevel" stroke-miterlimit="10"/><path fill="red" stroke="red" paint-order="fill stroke markers" d=" M 216.4090909090909 284.81140193176276 A 3.5 3.5 0 1 1 216.40908915909105 284.8079019323461" stroke-linejoin="bevel" stroke-miterlimit="10"/><path fill="red" stroke="red" paint-order="fill stroke markers" d=" M 238.72727272727272 265.48212553010194 A 3.5 3.5 0 1 1 238.72727097727287 265.4786255306853" stroke-linejoin="bevel" stroke-miterlimit="10"/><path fill="red" stroke="red" paint-order="fill stroke markers" d=" M 261.0454545454545 248.277492648761 A 3.5 3.5 0 1 1 261.04545279545465 248.27399264934434" stroke-linejoin="bevel" stroke-miterlimit="10"/><path fill="red" stroke="red" paint-order="fill stroke markers" d=" M 283.3636363636364 243.68793066931988 A 3.5 3.5 0 1 1 283.3636346136365 243.6844306699032" stroke-linejoin="bevel" stroke-miterlimit="10"/><path fill="red" stroke="red" paint-order="fill stroke markers" d=" M 305.68181818181813 243.68793066931988 A 3.5 3.5 0 1 1 305.6818164318183 243.6844306699032" stroke-linejoin="bevel" stroke-miterlimit="10"/><path fill="red" stroke="red" paint-order="fill stroke markers" d=" M 328 224.93961148024647 A 3.5 3.5 0 1 1 327.99999825000015 224.9361114808298" stroke-linejoin="bevel" stroke-miterlimit="10"/><path fill="red" stroke="red" paint-order="fill stroke markers" d=" M 350.3181818181818 226.27581306919774 A 3.5 3.5 0 1 1 350.31818006818196 226.27231306978106" stroke-linejoin="bevel" stroke-miterlimit="10"/><path fill="red" stroke="red" paint-order="fill stroke markers" d=" M 372.6363636363636 222.74857284991654 A 3.5 3.5 0 1 1 372.6363618863638 222.74507285049987" stroke-linejoin="bevel" stroke-miterlimit="10"/><path fill="red" stroke="red" paint-order="fill stroke markers" d=" M 394.95454545454544 219.61970329069536 A 3.5 3.5 0 1 1 394.9545437045456 219.61620329127868" stroke-linejoin="bevel" stroke-miterlimit="10"/><path fill="red" stroke="red" paint-order="fill stroke markers" d=" M 417.27272727272725 211.76018214326177 A 3.5 3.5 0 1 1 417.2727255227274 211.7566821438451" stroke-linejoin="bevel" stroke-miterlimit="10"/><path fill="red" stroke="red" paint-order="fill stroke markers" d=" M 439.59090909090907 199.86715806272076 A 3.5 3.5 0 1 1 439.5909073409092 199.8636580633041" stroke-linejoin="bevel" stroke-miterlimit="10"/><path fill="red" stroke="red" paint-order="fill stroke markers" d=" M 461.9090909090909 181.93217897126988 A 3.5 3.5 0 1 1 461.909089159091 181.9286789718532" stroke-linejoin="bevel" stroke-miterlimit="10"/><path fill="red" stroke="red" paint-order="fill stroke markers" d=" M 484.2272727272727 146.06222078836808 A 3.5 3.5 0 1 1 484.22727097727284 146.0587207889514" stroke-linejoin="bevel" stroke-miterlimit="10"/><path fill="red" stroke="red" paint-order="fill stroke markers" d=" M 506.5454545454545 105.51970673851264 A 3.5 3.5 0 1 1 506.54545279545465 105.51620673909596" stroke-linejoin="bevel" stroke-miterlimit="10"/><path fill="red" stroke="red" paint-order="fill stroke markers" d=" M 528.8636363636364 62.6201662833023 A 3.5 3.5 0 1 1 528.8636346136365 62.61666628388563" stroke-linejoin="bevel" stroke-miterlimit="10"/><path fill="red" stroke="red" paint-order="fill stroke markers" d=" M 551.1818181818182 20.31818181818187 A 3.5 3.5 0 1 1 551.1818164318183 20.3146818187652" stroke-linejoin="bevel" stroke-miterlimit="10"/></g><g stroke="tomato" stroke-linejoin="bevel" stroke-miterlimit="10"><path fill="none" stroke="none"/><path fill="none" stroke="" d=""/><g transform="translate(101.31818181818181,326.6818181818182)"><path fill="none" stroke="" paint-order="fill stroke markers" d=" M -2.5 2.5 L 2.5 -2.5 M -2.5 -2.5 L 2.5 2.5"/><g transform="translate(-101.31818181818181,-326.6818181818182)"><path fill="none" stroke="" d=""/><g transform="translate(123.63636363636363,326.6818181818182)"><path fill="none" stroke="" paint-order="fill stroke markers" d=" M -2.5 2.5 L 2.5 -2.5 M -2.5 -2.5 L 2.5 2.5"/><g transform="translate(-123.63636363636363,-326.6818181818182)"><path fill="none" stroke="" d=""/><g transform="translate(145.95454545454544,326.6818181818182)"><path fill="none" stroke="" paint-order="fill stroke markers" d=" M -2.5 2.5 L 2.5 -2.5 M -2.5 -2.5 L 2.5 2.5"/><g transform="translate(-145.95454545454544,-326.6818181818182)"><path fill="none" stroke="" d=""/><g transform="translate(168.27272727272725,326.6818181818182)"><path fill="none" stroke="" paint-order="fill stroke markers" d=" M -2.5 2.5 L 2.5 -2.5 M -2.5 -2.5 L 2.5 2.5"/><g transform="translate(-168.27272727272725,-326.6818181818182)"><path fill="none" stroke="" d=""/><g transform="translate(190.59090909090907,326.6818181818182)"><path fill="none" stroke="" paint-order="fill stroke markers" d=" M -2.5 2.5 L 2.5 -2.5 M -2.5 -2.5 L 2.5 2.5"/><g transform="translate(-190.59090909090907,-326.6818181818182)"><path fill="none" stroke="" d=""/><g transform="translate(212.9090909090909,326.6818181818182)"><path fill="none" stroke="" paint-order="fill stroke markers" d=" M -2.5 2.5 L 2.5 -2.5 M -2.5 -2.5 L 2.5 2.5"/><g transform="translate(-212.9090909090909,-326.6818181818182)"><path fill="none" stroke="" d=""/><g transform="translate(235.22727272727272,326.6818181818182)"><path fill="none" stroke="" paint-order="fill stroke markers" d=" M -2.5 2.5 L 2.5 -2.5 M -2.5 -2.5 L 2.5 2.5"/><g transform="translate(-235.22727272727272,-326.6818181818182)"><path fill="none" stroke="" d=""/><g transform="translate(257.5454545454545,268.58609692306936)"><path fill="none" stroke="" paint-order="fill stroke markers" d=" M -2.5 2.5 L 2.5 -2.5 M -2.5 -2.5 L 2.5 2.5"/><g transform="translate(-257.5454545454545,-268.58609692306936)"><path fill="none" stroke="" d=""/><g transform="translate(279.8636363636364,243.68793066931988)"><path fill="none" stroke="" paint-order="fill stroke markers" d=" M -2.5 2.5 L 2.5 -2.5 M -2.5 -2.5 L 2.5 2.5"/><g transform="translate(-279.8636363636364,-243.68793066931988)"><path fill="none" stroke="" d=""/><g transform="translate(302.18181818181813,243.68793066931988)"><path fill="none" stroke="" paint-order="fill stroke markers" d=" M -2.5 2.5 L 2.5 -2.5 M -2.5 -2.5 L 2.5 2.5"/><g transform="translate(-302.18181818181813,-243.68793066931988)"><path fill="none" stroke="" d=""/><g transform="translate(324.5,243.68793066931988)"><path fill="none" stroke="" paint-order="fill stroke markers" d=" M -2.5 2.5 L 2.5 -2.5 M -2.5 -2.5 L 2.5 2.5"/><g transform="translate(-324.5,-243.68793066931988)"><path fill="none" stroke="" d=""/><g transform="translate(346.8181818181818,243.68793066931988)"><path fill="none" stroke="" paint-order="fill stroke markers" d=" M -2.5 2.5 L 2.5 -2.5 M -2.5 -2.5 L 2.5 2.5"/><g transform="translate(-346.8181818181818,-243.68793066931988)"><path fill="none" stroke="" d=""/><g transform="translate(369.1363636363636,243.68793066931988)"><path fill="none" stroke="" paint-order="fill stroke markers" d=" M -2.5 2.5 L 2.5 -2.5 M -2.5 -2.5 L 2.5 2.5"/><g transform="translate(-369.1363636363636,-243.68793066931988)"><path fill="none" stroke="" d=""/><g transform="translate(391.45454545454544,243.68793066931988)"><path fill="none" stroke="" paint-order="fill stroke markers" d=" M -2.5 2.5 L 2.5 -2.5 M -2.5 -2.5 L 2.5 2.5"/><g transform="translate(-391.45454545454544,-243.68793066931988)"><path fill="none" stroke="" d=""/><g transform="translate(413.77272727272725,243.68793066931988)"><path fill="none" stroke="" paint-order="fill stroke markers" d=" M -2.5 2.5 L 2.5 -2.5 M -2.5 -2.5 L 2.5 2.5"/><g transform="translate(-413.77272727272725,-243.68793066931988)"><path fill="none" stroke="" d=""/><g transform="translate(436.09090909090907,243.68793066931988)"><path fill="none" stroke="" paint-order="fill stroke markers" d=" M -2.5 2.5 L 2.5 -2.5 M -2.5 -2.5 L 2.5 2.5"/><g transform="translate(-436.09090909090907,-243.68793066931988)"><path fill="none" stroke="" d=""/><g transform="translate(458.4090909090909,243.68793066931988)"><path fill="none" stroke="" paint-order="fill stroke markers" d=" M -2.5 2.5 L 2.5 -2.5 M -2.5 -2.5 L 2.5 2.5"/><g transform="translate(-458.4090909090909,-243.68793066931988)"><path fill="none" stroke="" d=""/><g transform="translate(480.7272727272727,243.68793066931988)"><path fill="none" stroke="" paint-order="fill stroke markers" d=" M -2.5 2.5 L 2.5 -2.5 M -2.5 -2.5 L 2.5 2.5"/><g transform="translate(-480.7272727272727,-243.68793066931988)"><path fill="none" stroke="" d=""/><g transform="translate(503.0454545454545,243.68793066931988)"><path fill="none" stroke="" paint-order="fill stroke markers" d=" M -2.5 2.5 L 2.5 -2.5 M -2.5 -2.5 L 2.5 2.5"/><g transform="translate(-503.0454545454545,-243.68793066931988)"><path fill="none" stroke="" d=""/><g transform="translate(525.3636363636364,243.68793066931988)"><path fill="none" stroke="" paint-order="fill stroke markers" d=" M -2.5 2.5 L 2.5 -2.5 M -2.5 -2.5 L 2.5 2.5"/><g transform="translate(-525.3636363636364,-243.68793066931988)"><path fill="none" stroke="" d=""/><g transform="translate(547.6818181818182,243.68793066931988)"><path fill="none" stroke="" paint-order="fill stroke markers" d=" M -2.5 2.5 L 2.5 -2.5 M -2.5 -2.5 L 2.5 2.5"/><g transform="translate(-547.6818181818182,-243.68793066931988)"/></g></g></g></g></g></g></g></g></g></g></g></g></g></g></g></g></g></g></g></g></g></g></g></g></g></g></g></g></g></g></g></g></g></g></g></g></g></g></g></g></g></g><g><path fill="none" stroke="none"/><path fill="white" stroke="orange" paint-order="fill stroke markers" d=" M 103.81818181818181 326.6818181818182 A 2.5 2.5 0 1 1 103.81818056818192 326.67931818223485" stroke-linejoin="bevel" stroke-miterlimit="10"/><path fill="white" stroke="orange" paint-order="fill stroke markers" d=" M 126.13636363636363 323.42845779132824 A 2.5 2.5 0 1 1 126.13636238636373 323.4259577917449" stroke-linejoin="bevel" stroke-miterlimit="10"/><path fill="white" stroke="orange" paint-order="fill stroke markers" d=" M 148.45454545454544 315.7432238076709 A 2.5 2.5 0 1 1 148.45454420454556 315.7407238080876" stroke-linejoin="bevel" stroke-miterlimit="10"/><path fill="white" stroke="orange" paint-order="fill stroke markers" d=" M 170.77272727272725 305.8337536386786 A 2.5 2.5 0 1 1 170.77272602272737 305.8312536390953" stroke-linejoin="bevel" stroke-miterlimit="10"/><path fill="white" stroke="orange" paint-order="fill stroke markers" d=" M 193.09090909090907 295.79979263841756 A 2.5 2.5 0 1 1 193.09090784090918 295.7972926388342" stroke-linejoin="bevel" stroke-miterlimit="10"/><path fill="white" stroke="orange" paint-order="fill stroke markers" d=" M 215.4090909090909 284.81140193176276 A 2.5 2.5 0 1 1 215.40908965909102 284.8089019321794" stroke-linejoin="bevel" stroke-miterlimit="10"/><path fill="white" stroke="orange" paint-order="fill stroke markers" d=" M 237.72727272727272 265.48212553010194 A 2.5 2.5 0 1 1 237.72727147727284 265.4796255305186" stroke-linejoin="bevel" stroke-miterlimit="10"/><path fill="white" stroke="orange" paint-order="fill stroke markers" d=" M 260.0454545454545 306.37321390750986 A 2.5 2.5 0 1 1 260.0454532954546 306.37071390792653" stroke-linejoin="bevel" stroke-miterlimit="10"/><path fill="white" stroke="orange" paint-order="fill stroke markers" d=" M 282.3636363636364 326.6818181818182 A 2.5 2.5 0 1 1 282.36363511363646 326.67931818223485" stroke-linejoin="bevel" stroke-miterlimit="10"/><path fill="white" stroke="orange" paint-order="fill stroke markers" d=" M 304.68181818181813 326.6818181818182 A 2.5 2.5 0 1 1 304.6818169318182 326.67931818223485" stroke-linejoin="bevel" stroke-miterlimit="10"/><path fill="white" stroke="orange" paint-order="fill stroke markers" d=" M 327 307.93349899274483 A 2.5 2.5 0 1 1 326.9999987500001 307.9309989931615" stroke-linejoin="bevel" stroke-miterlimit="10"/><path fill="white" stroke="orange" paint-order="fill stroke markers" d=" M 349.3181818181818 309.26970058169604 A 2.5 2.5 0 1 1 349.3181805681819 309.2672005821127" stroke-linejoin="bevel" stroke-miterlimit="10"/><path fill="white" stroke="orange" paint-order="fill stroke markers" d=" M 371.6363636363636 305.7424603624149 A 2.5 2.5 0 1 1 371.6363623863637 305.73996036283154" stroke-linejoin="bevel" stroke-miterlimit="10"/><path fill="white" stroke="orange" paint-order="fill stroke markers" d=" M 393.95454545454544 302.6135908031937 A 2.5 2.5 0 1 1 393.9545442045455 302.61109080361035" stroke-linejoin="bevel" stroke-miterlimit="10"/><path fill="white" stroke="orange" paint-order="fill stroke markers" d=" M 416.27272727272725 294.7540696557601 A 2.5 2.5 0 1 1 416.27272602272734 294.75156965617674" stroke-linejoin="bevel" stroke-miterlimit="10"/><path fill="white" stroke="orange" paint-order="fill stroke markers" d=" M 438.59090909090907 282.86104557521907 A 2.5 2.5 0 1 1 438.59090784090915 282.85854557563573" stroke-linejoin="bevel" stroke-miterlimit="10"/><path fill="white" stroke="orange" paint-order="fill stroke markers" d=" M 460.9090909090909 264.9260664837682 A 2.5 2.5 0 1 1 460.90908965909097 264.92356648418485" stroke-linejoin="bevel" stroke-miterlimit="10"/><path fill="white" stroke="orange" paint-order="fill stroke markers" d=" M 483.2272727272727 229.0561083008664 A 2.5 2.5 0 1 1 483.2272714772728 229.05360830128308" stroke-linejoin="bevel" stroke-miterlimit="10"/><path fill="white" stroke="orange" paint-order="fill stroke markers" d=" M 505.5454545454545 188.51359425101097 A 2.5 2.5 0 1 1 505.5454532954546 188.51109425142764" stroke-linejoin="bevel" stroke-miterlimit="10"/><path fill="white" stroke="orange" paint-order="fill stroke markers" d=" M 527.8636363636364 145.6140537958006 A 2.5 2.5 0 1 1 527.8636351136365 145.61155379621727" stroke-linejoin="bevel" stroke-miterlimit="10"/><path fill="white" stroke="orange" paint-order="fill stroke markers" d=" M 550.1818181818182 103.3120693306802 A 2.5 2.5 0 1 1 550.1818169318184 103.30956933109687" stroke-linejoin="bevel" stroke-miterlimit="10"/></g></g></g><g clip-path="url(#XTwlZZCRmQWl)"><g><g/><g stroke="orange" stroke-linejoin="bevel" stroke-miterlimit="10" fill="#444444"><path fill="#ffffff" stroke="#e5e5e5" paint-order="fill stroke markers" d=" M 89 15 L 272.5625 15 L 272.5625 170 L 89 170 L 89 15 Z" fill-opacity="0.95" stroke-linejoin="bevel" stroke-miterlimit="10" stroke-opacity="0.5"/><text fill="#444444" stroke="none" font-family="helvetica" font-size="10pt" font-style="normal" font-weight="normal" text-decoration="normal" x="124" y="35" text-anchor="start" dominant-baseline="central">Total Cost multi-servers</text><g><path fill="none" stroke="#1f77b4" paint-order="fill stroke markers" d=" M 99 35 L 119 35" stroke-linejoin="bevel" stroke-miterlimit="10" stroke-width="4"/></g><text fill="#444444" stroke="none" font-family="helvetica" font-size="10pt" font-style="normal" font-weight="normal" text-decoration="normal" x="124" y="58" text-anchor="start" dominant-baseline="central">Edge Cost multi-servers</text><g><path fill="none" stroke="dodgerblue" paint-order="fill stroke markers" d=" M 99 58 L 119 58" stroke-linejoin="bevel" stroke-miterlimit="10" stroke-width="2"/></g><text fill="#444444" stroke="none" font-family="helvetica" font-size="10pt" font-style="normal" font-weight="normal" text-decoration="normal" x="124" y="81" text-anchor="start" dominant-baseline="central">Fog Cost multi-servers</text><g><path fill="none" stroke="deepskyblue" paint-order="fill stroke markers" d=" M 99 81 L 119 81" stroke-linejoin="bevel" stroke-miterlimit="10" stroke-width="2" stroke-dasharray="6,4,2,4"/></g><text fill="#444444" stroke="none" font-family="helvetica" font-size="10pt" font-style="normal" font-weight="normal" text-decoration="normal" x="124" y="104" text-anchor="start" dominant-baseline="central">Total Cost single server</text><g><path fill="none" stroke="red" paint-order="fill stroke markers" d=" M 99 104 L 119 104" stroke-linejoin="bevel" stroke-miterlimit="10" stroke-width="2"/></g><path fill="red" stroke="red" paint-order="fill stroke markers" d=" M 113 104 A 4 4 0 1 1 112.99999800000016 103.99600000066667" stroke-linejoin="bevel" stroke-miterlimit="10"/><text fill="#444444" stroke="none" font-family="helvetica" font-size="10pt" font-style="normal" font-weight="normal" text-decoration="normal" x="124" y="127" text-anchor="start" dominant-baseline="central">Edge Cost single server</text><g><path fill="none" stroke="tomato" paint-order="fill stroke markers" d=" M 99 127 L 119 127" stroke-linejoin="bevel" stroke-miterlimit="10"/></g><path fill="" stroke="" d=""/><g transform="translate(109,127)"><path fill="" stroke="" paint-order="fill stroke markers" d=" M -4 4 L 4 -4 M -4 -4 L 4 4"/><g transform="translate(-109,-127)"><text fill="" stroke="none" font-family="helvetica" font-size="10pt" font-style="normal" font-weight="normal" text-decoration="normal" x="124" y="150" text-anchor="start" dominant-baseline="central">Fog Cost single server</text><g><path fill="none" stroke="" paint-order="fill stroke markers" d=" M 99 150 L 119 150"/></g><path fill="white" stroke="orange" paint-order="fill stroke markers" d=" M 113 150 A 4 4 0 1 1 112.99999800000016 149.99600000066667" stroke-linejoin="bevel" stroke-miterlimit="10"/></g></g></g></g></g><g><g fill="#444444"><path fill="none" stroke="black" paint-order="fill stroke markers" d=" M 79 342 L 570 342" stroke-linejoin="bevel" stroke-miterlimit="10"/><path fill="none" stroke="black" paint-order="fill stroke markers" d=" M 101 348 L 101 340" stroke-linejoin="bevel" stroke-miterlimit="10"/><path fill="none" stroke="black" paint-order="fill stroke markers" d=" M 213 348 L 213 340" stroke-linejoin="bevel" stroke-miterlimit="10"/><path fill="none" stroke="black" paint-order="fill stroke markers" d=" M 325 348 L 325 340" stroke-linejoin="bevel" stroke-miterlimit="10"/><path fill="none" stroke="black" paint-order="fill stroke markers" d=" M 436 348 L 436 340" stroke-linejoin="bevel" stroke-miterlimit="10"/><path fill="none" stroke="black" paint-order="fill stroke markers" d=" M 548 348 L 548 340" stroke-linejoin="bevel" stroke-miterlimit="10"/><path fill="none" stroke="black" paint-order="fill stroke markers" d=" M 79 346 L 79 342" stroke-linejoin="bevel" stroke-miterlimit="10"/><path fill="none" stroke="black" paint-order="fill stroke markers" d=" M 101 346 L 101 342" stroke-linejoin="bevel" stroke-miterlimit="10"/><path fill="none" stroke="black" paint-order="fill stroke markers" d=" M 124 346 L 124 342" stroke-linejoin="bevel" stroke-miterlimit="10"/><path fill="none" stroke="black" paint-order="fill stroke markers" d=" M 146 346 L 146 342" stroke-linejoin="bevel" stroke-miterlimit="10"/><path fill="none" stroke="black" paint-order="fill stroke markers" d=" M 168 346 L 168 342" stroke-linejoin="bevel" stroke-miterlimit="10"/><path fill="none" stroke="black" paint-order="fill stroke markers" d=" M 191 346 L 191 342" stroke-linejoin="bevel" stroke-miterlimit="10"/><path fill="none" stroke="black" paint-order="fill stroke markers" d=" M 213 346 L 213 342" stroke-linejoin="bevel" stroke-miterlimit="10"/><path fill="none" stroke="black" paint-order="fill stroke markers" d=" M 235 346 L 235 342" stroke-linejoin="bevel" stroke-miterlimit="10"/><path fill="none" stroke="black" paint-order="fill stroke markers" d=" M 258 346 L 258 342" stroke-linejoin="bevel" stroke-miterlimit="10"/><path fill="none" stroke="black" paint-order="fill stroke markers" d=" M 280 346 L 280 342" stroke-linejoin="bevel" stroke-miterlimit="10"/><path fill="none" stroke="black" paint-order="fill stroke markers" d=" M 302 346 L 302 342" stroke-linejoin="bevel" stroke-miterlimit="10"/><path fill="none" stroke="black" paint-order="fill stroke markers" d=" M 325 346 L 325 342" stroke-linejoin="bevel" stroke-miterlimit="10"/><path fill="none" stroke="black" paint-order="fill stroke markers" d=" M 347 346 L 347 342" stroke-linejoin="bevel" stroke-miterlimit="10"/><path fill="none" stroke="black" paint-order="fill stroke markers" d=" M 369 346 L 369 342" stroke-linejoin="bevel" stroke-miterlimit="10"/><path fill="none" stroke="black" paint-order="fill stroke markers" d=" M 391 346 L 391 342" stroke-linejoin="bevel" stroke-miterlimit="10"/><path fill="none" stroke="black" paint-order="fill stroke markers" d=" M 414 346 L 414 342" stroke-linejoin="bevel" stroke-miterlimit="10"/><path fill="none" stroke="black" paint-order="fill stroke markers" d=" M 436 346 L 436 342" stroke-linejoin="bevel" stroke-miterlimit="10"/><path fill="none" stroke="black" paint-order="fill stroke markers" d=" M 458 346 L 458 342" stroke-linejoin="bevel" stroke-miterlimit="10"/><path fill="none" stroke="black" paint-order="fill stroke markers" d=" M 481 346 L 481 342" stroke-linejoin="bevel" stroke-miterlimit="10"/><path fill="none" stroke="black" paint-order="fill stroke markers" d=" M 503 346 L 503 342" stroke-linejoin="bevel" stroke-miterlimit="10"/><path fill="none" stroke="black" paint-order="fill stroke markers" d=" M 525 346 L 525 342" stroke-linejoin="bevel" stroke-miterlimit="10"/><path fill="none" stroke="black" paint-order="fill stroke markers" d=" M 548 346 L 548 342" stroke-linejoin="bevel" stroke-miterlimit="10"/><path fill="" stroke="black" paint-order="fill stroke markers" d=" M 570 346 L 570 342" stroke-linejoin="bevel" stroke-miterlimit="10"/><g transform="translate(101,353) rotate(0,0,0)"><text fill="" stroke="none" font-family="helvetica" font-size="11pt" font-style="normal" font-weight="normal" text-decoration="normal" x="0" y="0" text-anchor="middle" dominant-baseline="hanging">0</text><g transform="rotate(0,0,0) translate(-101,-353) translate(213,353) rotate(0,0,0)"><text fill="" stroke="none" font-family="helvetica" font-size="11pt" font-style="normal" font-weight="normal" text-decoration="normal" x="0" y="0" text-anchor="middle" dominant-baseline="hanging">500</text><g transform="rotate(0,0,0) translate(-213,-353) translate(325,353) rotate(0,0,0)"><text fill="" stroke="none" font-family="helvetica" font-size="11pt" font-style="normal" font-weight="normal" text-decoration="normal" x="0" y="0" text-anchor="middle" dominant-baseline="hanging">1000</text><g transform="rotate(0,0,0) translate(-325,-353) translate(436,353) rotate(0,0,0)"><text fill="" stroke="none" font-family="helvetica" font-size="11pt" font-style="normal" font-weight="normal" text-decoration="normal" x="0" y="0" text-anchor="middle" dominant-baseline="hanging">1500</text><g transform="rotate(0,0,0) translate(-436,-353) translate(548,353) rotate(0,0,0)"><text fill="" stroke="none" font-family="helvetica" font-size="11pt" font-style="normal" font-weight="normal" text-decoration="normal" x="0" y="0" text-anchor="middle" dominant-baseline="hanging">2000</text><g transform="rotate(0,0,0) translate(-548,-353) translate(325,376) rotate(0,0,0)"><text fill="" stroke="none" font-family="helvetica" font-size="15pt" font-style="italic" font-weight="normal" text-decoration="normal" x="0" y="0" text-anchor="middle" dominant-baseline="hanging">Araival Traffic (mb/s)</text><g transform="rotate(0,0,0) translate(-325,-376)"/></g></g></g></g></g></g></g><g fill="#444444"><path fill="none" stroke="black" paint-order="fill stroke markers" d=" M 79 342 L 79 5" stroke-linejoin="bevel" stroke-miterlimit="10"/><path fill="none" stroke="black" paint-order="fill stroke markers" d=" M 73 327 L 81 327" stroke-linejoin="bevel" stroke-miterlimit="10"/><path fill="none" stroke="black" paint-order="fill stroke markers" d=" M 73 244 L 81 244" stroke-linejoin="bevel" stroke-miterlimit="10"/><path fill="none" stroke="black" paint-order="fill stroke markers" d=" M 73 161 L 81 161" stroke-linejoin="bevel" stroke-miterlimit="10"/><path fill="none" stroke="black" paint-order="fill stroke markers" d=" M 73 78 L 81 78" stroke-linejoin="bevel" stroke-miterlimit="10"/><path fill="none" stroke="black" paint-order="fill stroke markers" d=" M 75 327 L 79 327" stroke-linejoin="bevel" stroke-miterlimit="10"/><path fill="none" stroke="black" paint-order="fill stroke markers" d=" M 75 310 L 79 310" stroke-linejoin="bevel" stroke-miterlimit="10"/><path fill="none" stroke="black" paint-order="fill stroke markers" d=" M 75 293 L 79 293" stroke-linejoin="bevel" stroke-miterlimit="10"/><path fill="none" stroke="black" paint-order="fill stroke markers" d=" M 75 277 L 79 277" stroke-linejoin="bevel" stroke-miterlimit="10"/><path fill="none" stroke="black" paint-order="fill stroke markers" d=" M 75 260 L 79 260" stroke-linejoin="bevel" stroke-miterlimit="10"/><path fill="none" stroke="black" paint-order="fill stroke markers" d=" M 75 244 L 79 244" stroke-linejoin="bevel" stroke-miterlimit="10"/><path fill="none" stroke="black" paint-order="fill stroke markers" d=" M 75 227 L 79 227" stroke-linejoin="bevel" stroke-miterlimit="10"/><path fill="none" stroke="black" paint-order="fill stroke markers" d=" M 75 210 L 79 210" stroke-linejoin="bevel" stroke-miterlimit="10"/><path fill="none" stroke="black" paint-order="fill stroke markers" d=" M 75 194 L 79 194" stroke-linejoin="bevel" stroke-miterlimit="10"/><path fill="none" stroke="black" paint-order="fill stroke markers" d=" M 75 177 L 79 177" stroke-linejoin="bevel" stroke-miterlimit="10"/><path fill="none" stroke="black" paint-order="fill stroke markers" d=" M 75 161 L 79 161" stroke-linejoin="bevel" stroke-miterlimit="10"/><path fill="none" stroke="black" paint-order="fill stroke markers" d=" M 75 144 L 79 144" stroke-linejoin="bevel" stroke-miterlimit="10"/><path fill="none" stroke="black" paint-order="fill stroke markers" d=" M 75 127 L 79 127" stroke-linejoin="bevel" stroke-miterlimit="10"/><path fill="none" stroke="black" paint-order="fill stroke markers" d=" M 75 111 L 79 111" stroke-linejoin="bevel" stroke-miterlimit="10"/><path fill="none" stroke="black" paint-order="fill stroke markers" d=" M 75 94 L 79 94" stroke-linejoin="bevel" stroke-miterlimit="10"/><path fill="none" stroke="black" paint-order="fill stroke markers" d=" M 75 78 L 79 78" stroke-linejoin="bevel" stroke-miterlimit="10"/><path fill="none" stroke="black" paint-order="fill stroke markers" d=" M 75 61 L 79 61" stroke-linejoin="bevel" stroke-miterlimit="10"/><path fill="none" stroke="black" paint-order="fill stroke markers" d=" M 75 45 L 79 45" stroke-linejoin="bevel" stroke-miterlimit="10"/><path fill="none" stroke="black" paint-order="fill stroke markers" d=" M 75 28 L 79 28" stroke-linejoin="bevel" stroke-miterlimit="10"/><path fill="" stroke="black" paint-order="fill stroke markers" d=" M 75 11 L 79 11" stroke-linejoin="bevel" stroke-miterlimit="10"/><g transform="translate(68,327) rotate(0,0,0)"><text fill="" stroke="none" font-family="helvetica" font-size="12pt" font-style="normal" font-weight="normal" text-decoration="normal" x="0" y="0" text-anchor="end" dominant-baseline="central">0</text><g transform="rotate(0,0,0) translate(-68,-327) translate(68,244) rotate(0,0,0)"><text fill="" stroke="none" font-family="helvetica" font-size="12pt" font-style="normal" font-weight="normal" text-decoration="normal" x="0" y="0" text-anchor="end" dominant-baseline="central">1000</text><g transform="rotate(0,0,0) translate(-68,-244) translate(68,161) rotate(0,0,0)"><text fill="" stroke="none" font-family="helvetica" font-size="12pt" font-style="normal" font-weight="normal" text-decoration="normal" x="0" y="0" text-anchor="end" dominant-baseline="central">2000</text><g transform="rotate(0,0,0) translate(-68,-161) translate(68,78) rotate(0,0,0)"><text fill="" stroke="none" font-family="helvetica" font-size="12pt" font-style="normal" font-weight="normal" text-decoration="normal" x="0" y="0" text-anchor="end" dominant-baseline="central">3000</text><g transform="rotate(0,0,0) translate(-68,-78) translate(24,174) rotate(-90,0,0)"><text fill="" stroke="none" font-family="helvetica" font-size="15pt" font-style="italic" font-weight="normal" text-decoration="normal" x="0" y="0" text-anchor="middle" dominant-baseline="alphabetic">Cost ($)</text><g transform="rotate(90,0,0) translate(-24,-174)"/></g></g></g></g></g></g></g></g></g></svg>