<svg version="1.1" xmlns="http://www.w3.org/2000/svg" xmlns:xlink="http://www.w3.org/1999/xlink" width="750" height="500" style="width: 750px; height: 500px;"><defs><clipPath id="xnqeUwESniqE"><path fill="none" stroke="none" d=" M 79 5 L 720 5 L 720 442 L 79 442 L 79 5 Z"/></clipPath><clipPath id="OvTkpCwmoCUh"><path fill="none" stroke="none" d=" M 79 5 L 720 5 L 720 442 L 79 442 L 79 5 Z"/></clipPath></defs><g><g transform="scale(1,1) translate(0.5,0.5)"><rect fill="#FFFFFF" stroke="none" x="0" y="0" width="750" height="500"/><rect fill="#ffffff" stroke="none" x="0" y="0" width="750" height="500"/><rect fill="#FFFFFF" stroke="none" x="79" y="5" width="641" height="437"/><rect fill="#ffffff" stroke="none" x="79" y="5" width="641" height="437"/><g/><g clip-path="url(#xnqeUwESniqE)"><g><g/><g><path fill="none" stroke="#e5e5e5" paint-order="fill stroke markers" d=" M 79 380 L 720 380" stroke-linejoin="bevel" stroke-miterlimit="10"/><path fill="none" stroke="#e5e5e5" paint-order="fill stroke markers" d=" M 79 317 L 720 317" stroke-linejoin="bevel" stroke-miterlimit="10"/><path fill="none" stroke="#e5e5e5" paint-order="fill stroke markers" d=" M 79 255 L 720 255" stroke-linejoin="bevel" stroke-miterlimit="10"/><path fill="none" stroke="#e5e5e5" paint-order="fill stroke markers" d=" M 79 192 L 720 192" stroke-linejoin="bevel" stroke-miterlimit="10"/><path fill="none" stroke="#e5e5e5" paint-order="fill stroke markers" d=" M 79 130 L 720 130" stroke-linejoin="bevel" stroke-miterlimit="10"/><path fill="none" stroke="#e5e5e5" paint-order="fill stroke markers" d=" M 79 67 L 720 67" stroke-linejoin="bevel" stroke-miterlimit="10"/></g><g><path fill="none" stroke="none"/><rect fill="#0D3331" stroke="none" x="111.77840909090907" y="442" width="29.136363636363654" height="0"/><path fill="none" stroke="white" paint-order="fill stroke markers" d=" M 111.77840909090907 442 L 140.91477272727272 442 L 140.91477272727272 442 L 111.77840909090907 442 L 111.77840909090907 442 Z" stroke-linejoin="bevel" stroke-miterlimit="10" stroke-width="0"/><rect fill="#0D3331" stroke="none" x="148.19886363636363" y="442" width="29.136363636363626" height="0"/><path fill="none" stroke="white" paint-order="fill stroke markers" d=" M 148.19886363636363 442 L 177.33522727272725 442 L 177.33522727272725 442 L 148.19886363636363 442 L 148.19886363636363 442 Z" stroke-linejoin="bevel" stroke-miterlimit="10" stroke-width="0"/><rect fill="#0D3331" stroke="none" x="184.61931818181816" y="442" width="29.136363636363626" height="0"/><path fill="none" stroke="white" paint-order="fill stroke markers" d=" M 184.61931818181816 442 L 213.75568181818178 442 L 213.75568181818178 442 L 184.61931818181816 442 L 184.61931818181816 442 Z" stroke-linejoin="bevel" stroke-miterlimit="10" stroke-width="0"/><rect fill="#0D3331" stroke="none" x="221.0397727272727" y="427.8804129464286" width="29.136363636363626" height="14.119587053571422"/><path fill="none" stroke="white" paint-order="fill stroke markers" d=" M 221.0397727272727 427.8804129464286 L 250.17613636363632 427.8804129464286 L 250.17613636363632 442 L 221.0397727272727 442 L 221.0397727272727 427.8804129464286 Z" stroke-linejoin="bevel" stroke-miterlimit="10" stroke-width="0"/><rect fill="#0D3331" stroke="none" x="257.46022727272725" y="402.8845982142857" width="29.136363636363626" height="39.11540178571431"/><path fill="none" stroke="white" paint-order="fill stroke markers" d=" M 257.46022727272725 402.8845982142857 L 286.5965909090909 402.8845982142857 L 286.5965909090909 442 L 257.46022727272725 442 L 257.46022727272725 402.8845982142857 Z" stroke-linejoin="bevel" stroke-miterlimit="10" stroke-width="0"/><rect fill="#0D3331" stroke="none" x="293.8806818181818" y="377.84344046456476" width="29.136363636363626" height="64.15655953543524"/><path fill="none" stroke="white" paint-order="fill stroke markers" d=" M 293.8806818181818 377.84344046456476 L 323.01704545454544 377.84344046456476 L 323.01704545454544 442 L 293.8806818181818 442 L 293.8806818181818 377.84344046456476 Z" stroke-linejoin="bevel" stroke-miterlimit="10" stroke-width="0"/><rect fill="#0D3331" stroke="none" x="330.30113636363626" y="317.31697433035714" width="29.13636363636374" height="124.68302566964286"/><path fill="none" stroke="white" paint-order="fill stroke markers" d=" M 330.30113636363626 317.31697433035714 L 359.4375 317.31697433035714 L 359.4375 442 L 330.30113636363626 442 L 330.30113636363626 317.31697433035714 Z" stroke-linejoin="bevel" stroke-miterlimit="10" stroke-width="0"/><rect fill="#0D3331" stroke="none" x="366.7215909090909" y="317.35087109375" width="29.136363636363626" height="124.64912890624998"/><path fill="none" stroke="white" paint-order="fill stroke markers" d=" M 366.7215909090909 317.35087109375 L 395.8579545454545 317.35087109375 L 395.8579545454545 442 L 366.7215909090909 442 L 366.7215909090909 317.35087109375 Z" stroke-linejoin="bevel" stroke-miterlimit="10" stroke-width="0"/><rect fill="#0D3331" stroke="none" x="403.1420454545454" y="317.29100306919645" width="29.136363636363626" height="124.70899693080355"/><path fill="none" stroke="white" paint-order="fill stroke markers" d=" M 403.1420454545454 317.29100306919645 L 432.278409090909 317.29100306919645 L 432.278409090909 442 L 403.1420454545454 442 L 403.1420454545454 317.29100306919645 Z" stroke-linejoin="bevel" stroke-miterlimit="10" stroke-width="0"/><rect fill="#0D3331" stroke="none" x="439.56249999999994" y="317.28234598214283" width="29.136363636363626" height="124.71765401785717"/><path fill="none" stroke="white" paint-order="fill stroke markers" d=" M 439.56249999999994 317.28234598214283 L 468.69886363636357 317.28234598214283 L 468.69886363636357 442 L 439.56249999999994 442 L 439.56249999999994 317.28234598214283 Z" stroke-linejoin="bevel" stroke-miterlimit="10" stroke-width="0"/><rect fill="#0D3331" stroke="none" x="475.9829545454545" y="317.32416824776783" width="29.136363636363626" height="124.67583175223217"/><path fill="none" stroke="white" paint-order="fill stroke markers" d=" M 475.9829545454545 317.32416824776783 L 505.11931818181813 317.32416824776783 L 505.11931818181813 442 L 475.9829545454545 442 L 475.9829545454545 317.32416824776783 Z" stroke-linejoin="bevel" stroke-miterlimit="10" stroke-width="0"/><rect fill="#0D3331" stroke="none" x="512.403409090909" y="317.3306915457589" width="29.136363636363512" height="124.6693084542411"/><path fill="none" stroke="white" paint-order="fill stroke markers" d=" M 512.403409090909 317.3306915457589 L 541.5397727272725 317.3306915457589 L 541.5397727272725 442 L 512.403409090909 442 L 512.403409090909 317.3306915457589 Z" stroke-linejoin="bevel" stroke-miterlimit="10" stroke-width="0"/><rect fill="#0D3331" stroke="none" x="548.8238636363635" y="317.33815980747767" width="29.13636363636374" height="124.66184019252233"/><path fill="none" stroke="white" paint-order="fill stroke markers" d=" M 548.8238636363635 317.33815980747767 L 577.9602272727273 317.33815980747767 L 577.9602272727273 442 L 548.8238636363635 442 L 548.8238636363635 317.33815980747767 Z" stroke-linejoin="bevel" stroke-miterlimit="10" stroke-width="0"/><rect fill="#0D3331" stroke="none" x="585.244318181818" y="317.3341665736607" width="29.13636363636374" height="124.6658334263393"/><path fill="none" stroke="white" paint-order="fill stroke markers" d=" M 585.244318181818 317.3341665736607 L 614.3806818181818 317.3341665736607 L 614.3806818181818 442 L 585.244318181818 442 L 585.244318181818 317.3341665736607 Z" stroke-linejoin="bevel" stroke-miterlimit="10" stroke-width="0"/><rect fill="#0D3331" stroke="none" x="621.6647727272727" y="317.3063663504464" width="29.136363636363512" height="124.69363364955359"/><path fill="none" stroke="white" paint-order="fill stroke markers" d=" M 621.6647727272727 317.3063663504464 L 650.8011363636363 317.3063663504464 L 650.8011363636363 442 L 621.6647727272727 442 L 621.6647727272727 317.3063663504464 Z" stroke-linejoin="bevel" stroke-miterlimit="10" stroke-width="0"/><rect fill="#0D3331" stroke="none" x="658.0852272727273" y="317.27292682756695" width="29.136363636363512" height="124.72707317243305"/><path fill="none" stroke="white" paint-order="fill stroke markers" d=" M 658.0852272727273 317.27292682756695 L 687.2215909090908 317.27292682756695 L 687.2215909090908 442 L 658.0852272727273 442 L 658.0852272727273 317.27292682756695 Z" stroke-linejoin="bevel" stroke-miterlimit="10" stroke-width="0"/></g><g><path fill="none" stroke="none"/><rect fill="darkslategray" stroke="none" x="111.77840909090907" y="442" width="29.136363636363654" height="0"/><path fill="none" stroke="white" paint-order="fill stroke markers" d=" M 111.77840909090907 442 L 140.91477272727272 442 L 140.91477272727272 442 L 111.77840909090907 442 L 111.77840909090907 442 Z" stroke-linejoin="bevel" stroke-miterlimit="10" stroke-width="0"/><rect fill="darkslategray" stroke="none" x="148.19886363636363" y="442" width="29.136363636363626" height="0"/><path fill="none" stroke="white" paint-order="fill stroke markers" d=" M 148.19886363636363 442 L 177.33522727272725 442 L 177.33522727272725 442 L 148.19886363636363 442 L 148.19886363636363 442 Z" stroke-linejoin="bevel" stroke-miterlimit="10" stroke-width="0"/><rect fill="darkslategray" stroke="none" x="184.61931818181816" y="442" width="29.136363636363626" height="0"/><path fill="none" stroke="white" paint-order="fill stroke markers" d=" M 184.61931818181816 442 L 213.75568181818178 442 L 213.75568181818178 442 L 184.61931818181816 442 L 184.61931818181816 442 Z" stroke-linejoin="bevel" stroke-miterlimit="10" stroke-width="0"/><rect fill="darkslategray" stroke="none" x="221.0397727272727" y="427.8804129464286" width="29.136363636363626" height="0"/><path fill="none" stroke="white" paint-order="fill stroke markers" d=" M 221.0397727272727 427.8804129464286 L 250.17613636363632 427.8804129464286 L 250.17613636363632 427.8804129464286 L 221.0397727272727 427.8804129464286 L 221.0397727272727 427.8804129464286 Z" stroke-linejoin="bevel" stroke-miterlimit="10" stroke-width="0"/><rect fill="darkslategray" stroke="none" x="257.46022727272725" y="402.8845982142857" width="29.136363636363626" height="0"/><path fill="none" stroke="white" paint-order="fill stroke markers" d=" M 257.46022727272725 402.8845982142857 L 286.5965909090909 402.8845982142857 L 286.5965909090909 402.8845982142857 L 257.46022727272725 402.8845982142857 L 257.46022727272725 402.8845982142857 Z" stroke-linejoin="bevel" stroke-miterlimit="10" stroke-width="0"/><rect fill="darkslategray" stroke="none" x="293.8806818181818" y="377.84344046456476" width="29.136363636363626" height="0"/><path fill="none" stroke="white" paint-order="fill stroke markers" d=" M 293.8806818181818 377.84344046456476 L 323.01704545454544 377.84344046456476 L 323.01704545454544 377.84344046456476 L 293.8806818181818 377.84344046456476 L 293.8806818181818 377.84344046456476 Z" stroke-linejoin="bevel" stroke-miterlimit="10" stroke-width="0"/><rect fill="darkslategray" stroke="none" x="330.30113636363626" y="317.31697433035714" width="29.13636363636374" height="0"/><path fill="none" stroke="white" paint-order="fill stroke markers" d=" M 330.30113636363626 317.31697433035714 L 359.4375 317.31697433035714 L 359.4375 317.31697433035714 L 330.30113636363626 317.31697433035714 L 330.30113636363626 317.31697433035714 Z" stroke-linejoin="bevel" stroke-miterlimit="10" stroke-width="0"/><rect fill="darkslategray" stroke="none" x="366.7215909090909" y="317.35087109375" width="29.136363636363626" height="0"/><path fill="none" stroke="white" paint-order="fill stroke markers" d=" M 366.7215909090909 317.35087109375 L 395.8579545454545 317.35087109375 L 395.8579545454545 317.35087109375 L 366.7215909090909 317.35087109375 L 366.7215909090909 317.35087109375 Z" stroke-linejoin="bevel" stroke-miterlimit="10" stroke-width="0"/><rect fill="darkslategray" stroke="none" x="403.1420454545454" y="316.8032798549107" width="29.136363636363626" height="0.4877232142857224"/><path fill="none" stroke="white" paint-order="fill stroke markers" d=" M 403.1420454545454 316.8032798549107 L 432.278409090909 316.8032798549107 L 432.278409090909 317.29100306919645 L 403.1420454545454 317.29100306919645 L 403.1420454545454 316.8032798549107 Z" stroke-linejoin="bevel" stroke-miterlimit="10" stroke-width="0"/><rect fill="darkslategray" stroke="none" x="439.56249999999994" y="316.8433950892857" width="29.136363636363626" height="0.43895089285712174"/><path fill="none" stroke="white" paint-order="fill stroke markers" d=" M 439.56249999999994 316.8433950892857 L 468.69886363636357 316.8433950892857 L 468.69886363636357 317.28234598214283 L 439.56249999999994 317.28234598214283 L 439.56249999999994 316.8433950892857 Z" stroke-linejoin="bevel" stroke-miterlimit="10" stroke-width="0"/><rect fill="darkslategray" stroke="none" x="475.9829545454545" y="316.83644503348216" width="29.136363636363626" height="0.48772321428566556"/><path fill="none" stroke="white" paint-order="fill stroke markers" d=" M 475.9829545454545 316.83644503348216 L 505.11931818181813 316.83644503348216 L 505.11931818181813 317.32416824776783 L 475.9829545454545 317.32416824776783 L 475.9829545454545 316.83644503348216 Z" stroke-linejoin="bevel" stroke-miterlimit="10" stroke-width="0"/><rect fill="darkslategray" stroke="none" x="512.403409090909" y="316.86125795200894" width="29.136363636363512" height="0.4694335937499545"/><path fill="none" stroke="white" paint-order="fill stroke markers" d=" M 512.403409090909 316.86125795200894 L 541.5397727272725 316.86125795200894 L 541.5397727272725 317.3306915457589 L 512.403409090909 317.3306915457589 L 512.403409090909 316.86125795200894 Z" stroke-linejoin="bevel" stroke-miterlimit="10" stroke-width="0"/><rect fill="darkslategray" stroke="none" x="548.8238636363635" y="316.89920891462054" width="29.13636363636374" height="0.43895089285712174"/><path fill="none" stroke="white" paint-order="fill stroke markers" d=" M 548.8238636363635 316.89920891462054 L 577.9602272727273 316.89920891462054 L 577.9602272727273 317.33815980747767 L 548.8238636363635 317.33815980747767 L 548.8238636363635 316.89920891462054 Z" stroke-linejoin="bevel" stroke-miterlimit="10" stroke-width="0"/><rect fill="darkslategray" stroke="none" x="585.244318181818" y="316.85863643973215" width="29.13636363636374" height="0.4755301339285438"/><path fill="none" stroke="white" paint-order="fill stroke markers" d=" M 585.244318181818 316.85863643973215 L 614.3806818181818 316.85863643973215 L 614.3806818181818 317.3341665736607 L 585.244318181818 317.3341665736607 L 585.244318181818 316.85863643973215 Z" stroke-linejoin="bevel" stroke-miterlimit="10" stroke-width="0"/><rect fill="darkslategray" stroke="none" x="621.6647727272727" y="316.8796085379464" width="29.136363636363512" height="0.4267578125"/><path fill="none" stroke="white" paint-order="fill stroke markers" d=" M 621.6647727272727 316.8796085379464 L 650.8011363636363 316.8796085379464 L 650.8011363636363 317.3063663504464 L 621.6647727272727 317.3063663504464 L 621.6647727272727 316.8796085379464 Z" stroke-linejoin="bevel" stroke-miterlimit="10" stroke-width="0"/><rect fill="darkslategray" stroke="none" x="658.0852272727273" y="316.8156863141741" width="29.136363636363512" height="0.4572405133928328"/><path fill="none" stroke="white" paint-order="fill stroke markers" d=" M 658.0852272727273 316.8156863141741 L 687.2215909090908 316.8156863141741 L 687.2215909090908 317.27292682756695 L 658.0852272727273 317.27292682756695 L 658.0852272727273 316.8156863141741 Z" stroke-linejoin="bevel" stroke-miterlimit="10" stroke-width="0"/></g><g><path fill="none" stroke="none"/><rect fill="#75968f" stroke="none" x="111.77840909090907" y="442" width="29.136363636363654" height="0"/><path fill="none" stroke="white" paint-order="fill stroke markers" d=" M 111.77840909090907 442 L 140.91477272727272 442 L 140.91477272727272 442 L 111.77840909090907 442 L 111.77840909090907 442 Z" stroke-linejoin="bevel" stroke-miterlimit="10" stroke-width="0"/><rect fill="#75968f" stroke="none" x="148.19886363636363" y="442" width="29.136363636363626" height="0"/><path fill="none" stroke="white" paint-order="fill stroke markers" d=" M 148.19886363636363 442 L 177.33522727272725 442 L 177.33522727272725 442 L 148.19886363636363 442 L 148.19886363636363 442 Z" stroke-linejoin="bevel" stroke-miterlimit="10" stroke-width="0"/><rect fill="#75968f" stroke="none" x="184.61931818181816" y="442" width="29.136363636363626" height="0"/><path fill="none" stroke="white" paint-order="fill stroke markers" d=" M 184.61931818181816 442 L 213.75568181818178 442 L 213.75568181818178 442 L 184.61931818181816 442 L 184.61931818181816 442 Z" stroke-linejoin="bevel" stroke-miterlimit="10" stroke-width="0"/><rect fill="#75968f" stroke="none" x="221.0397727272727" y="427.8804129464286" width="29.136363636363626" height="0"/><path fill="none" stroke="white" paint-order="fill stroke markers" d=" M 221.0397727272727 427.8804129464286 L 250.17613636363632 427.8804129464286 L 250.17613636363632 427.8804129464286 L 221.0397727272727 427.8804129464286 L 221.0397727272727 427.8804129464286 Z" stroke-linejoin="bevel" stroke-miterlimit="10" stroke-width="0"/><rect fill="#75968f" stroke="none" x="257.46022727272725" y="402.8845982142857" width="29.136363636363626" height="0"/><path fill="none" stroke="white" paint-order="fill stroke markers" d=" M 257.46022727272725 402.8845982142857 L 286.5965909090909 402.8845982142857 L 286.5965909090909 402.8845982142857 L 257.46022727272725 402.8845982142857 L 257.46022727272725 402.8845982142857 Z" stroke-linejoin="bevel" stroke-miterlimit="10" stroke-width="0"/><rect fill="#75968f" stroke="none" x="293.8806818181818" y="377.84344046456476" width="29.136363636363626" height="0"/><path fill="none" stroke="white" paint-order="fill stroke markers" d=" M 293.8806818181818 377.84344046456476 L 323.01704545454544 377.84344046456476 L 323.01704545454544 377.84344046456476 L 293.8806818181818 377.84344046456476 L 293.8806818181818 377.84344046456476 Z" stroke-linejoin="bevel" stroke-miterlimit="10" stroke-width="0"/><rect fill="#75968f" stroke="none" x="330.30113636363626" y="317.31697433035714" width="29.13636363636374" height="0"/><path fill="none" stroke="white" paint-order="fill stroke markers" d=" M 330.30113636363626 317.31697433035714 L 359.4375 317.31697433035714 L 359.4375 317.31697433035714 L 330.30113636363626 317.31697433035714 L 330.30113636363626 317.31697433035714 Z" stroke-linejoin="bevel" stroke-miterlimit="10" stroke-width="0"/><rect fill="#75968f" stroke="none" x="366.7215909090909" y="317.35087109375" width="29.136363636363626" height="0"/><path fill="none" stroke="white" paint-order="fill stroke markers" d=" M 366.7215909090909 317.35087109375 L 395.8579545454545 317.35087109375 L 395.8579545454545 317.35087109375 L 366.7215909090909 317.35087109375 L 366.7215909090909 317.35087109375 Z" stroke-linejoin="bevel" stroke-miterlimit="10" stroke-width="0"/><rect fill="#75968f" stroke="none" x="403.1420454545454" y="316.8032798549107" width="29.136363636363626" height="0"/><path fill="none" stroke="white" paint-order="fill stroke markers" d=" M 403.1420454545454 316.8032798549107 L 432.278409090909 316.8032798549107 L 432.278409090909 316.8032798549107 L 403.1420454545454 316.8032798549107 L 403.1420454545454 316.8032798549107 Z" stroke-linejoin="bevel" stroke-miterlimit="10" stroke-width="0"/><rect fill="#75968f" stroke="none" x="439.56249999999994" y="312.01493526785714" width="29.136363636363626" height="4.828459821428567"/><path fill="none" stroke="white" paint-order="fill stroke markers" d=" M 439.56249999999994 312.01493526785714 L 468.69886363636357 312.01493526785714 L 468.69886363636357 316.8433950892857 L 439.56249999999994 316.8433950892857 L 439.56249999999994 312.01493526785714 Z" stroke-linejoin="bevel" stroke-miterlimit="10" stroke-width="0"/><rect fill="#75968f" stroke="none" x="475.9829545454545" y="316.83644503348216" width="29.136363636363626" height="0"/><path fill="none" stroke="white" paint-order="fill stroke markers" d=" M 475.9829545454545 316.83644503348216 L 505.11931818181813 316.83644503348216 L 505.11931818181813 316.83644503348216 L 475.9829545454545 316.83644503348216 L 475.9829545454545 316.83644503348216 Z" stroke-linejoin="bevel" stroke-miterlimit="10" stroke-width="0"/><rect fill="#75968f" stroke="none" x="512.403409090909" y="312.0327981305803" width="29.136363636363512" height="4.828459821428623"/><path fill="none" stroke="white" paint-order="fill stroke markers" d=" M 512.403409090909 312.0327981305803 L 541.5397727272725 312.0327981305803 L 541.5397727272725 316.86125795200894 L 512.403409090909 316.86125795200894 L 512.403409090909 312.0327981305803 Z" stroke-linejoin="bevel" stroke-miterlimit="10" stroke-width="0"/><rect fill="#75968f" stroke="none" x="548.8238636363635" y="312.0707490931919" width="29.13636363636374" height="4.828459821428623"/><path fill="none" stroke="white" paint-order="fill stroke markers" d=" M 548.8238636363635 312.0707490931919 L 577.9602272727273 312.0707490931919 L 577.9602272727273 316.89920891462054 L 548.8238636363635 316.89920891462054 L 548.8238636363635 312.0707490931919 Z" stroke-linejoin="bevel" stroke-miterlimit="10" stroke-width="0"/><rect fill="#75968f" stroke="none" x="585.244318181818" y="312.024080078125" width="29.13636363636374" height="4.834556361607156"/><path fill="none" stroke="white" paint-order="fill stroke markers" d=" M 585.244318181818 312.024080078125 L 614.3806818181818 312.024080078125 L 614.3806818181818 316.85863643973215 L 585.244318181818 316.85863643973215 L 585.244318181818 312.024080078125 Z" stroke-linejoin="bevel" stroke-miterlimit="10" stroke-width="0"/><rect fill="#75968f" stroke="none" x="621.6647727272727" y="312.0999210379464" width="29.136363636363512" height="4.779687500000023"/><path fill="none" stroke="white" paint-order="fill stroke markers" d=" M 621.6647727272727 312.0999210379464 L 650.8011363636363 312.0999210379464 L 650.8011363636363 316.8796085379464 L 621.6647727272727 316.8796085379464 L 621.6647727272727 312.0999210379464 Z" stroke-linejoin="bevel" stroke-miterlimit="10" stroke-width="0"/><rect fill="#75968f" stroke="none" x="658.0852272727273" y="311.96893687220984" width="29.136363636363512" height="4.846749441964278"/><path fill="none" stroke="white" paint-order="fill stroke markers" d=" M 658.0852272727273 311.96893687220984 L 687.2215909090908 311.96893687220984 L 687.2215909090908 316.8156863141741 L 658.0852272727273 316.8156863141741 L 658.0852272727273 311.96893687220984 Z" stroke-linejoin="bevel" stroke-miterlimit="10" stroke-width="0"/></g><g><path fill="none" stroke="none"/><rect fill="#a5bab7" stroke="none" x="111.77840909090907" y="442" width="29.136363636363654" height="0"/><path fill="none" stroke="white" paint-order="fill stroke markers" d=" M 111.77840909090907 442 L 140.91477272727272 442 L 140.91477272727272 442 L 111.77840909090907 442 L 111.77840909090907 442 Z" stroke-linejoin="bevel" stroke-miterlimit="10" stroke-width="0"/><rect fill="#a5bab7" stroke="none" x="148.19886363636363" y="442" width="29.136363636363626" height="0"/><path fill="none" stroke="white" paint-order="fill stroke markers" d=" M 148.19886363636363 442 L 177.33522727272725 442 L 177.33522727272725 442 L 148.19886363636363 442 L 148.19886363636363 442 Z" stroke-linejoin="bevel" stroke-miterlimit="10" stroke-width="0"/><rect fill="#a5bab7" stroke="none" x="184.61931818181816" y="442" width="29.136363636363626" height="0"/><path fill="none" stroke="white" paint-order="fill stroke markers" d=" M 184.61931818181816 442 L 213.75568181818178 442 L 213.75568181818178 442 L 184.61931818181816 442 L 184.61931818181816 442 Z" stroke-linejoin="bevel" stroke-miterlimit="10" stroke-width="0"/><rect fill="#a5bab7" stroke="none" x="221.0397727272727" y="427.8804129464286" width="29.136363636363626" height="0"/><path fill="none" stroke="white" paint-order="fill stroke markers" d=" M 221.0397727272727 427.8804129464286 L 250.17613636363632 427.8804129464286 L 250.17613636363632 427.8804129464286 L 221.0397727272727 427.8804129464286 L 221.0397727272727 427.8804129464286 Z" stroke-linejoin="bevel" stroke-miterlimit="10" stroke-width="0"/><rect fill="#a5bab7" stroke="none" x="257.46022727272725" y="402.8845982142857" width="29.136363636363626" height="0"/><path fill="none" stroke="white" paint-order="fill stroke markers" d=" M 257.46022727272725 402.8845982142857 L 286.5965909090909 402.8845982142857 L 286.5965909090909 402.8845982142857 L 257.46022727272725 402.8845982142857 L 257.46022727272725 402.8845982142857 Z" stroke-linejoin="bevel" stroke-miterlimit="10" stroke-width="0"/><rect fill="#a5bab7" stroke="none" x="293.8806818181818" y="377.84344046456476" width="29.136363636363626" height="0"/><path fill="none" stroke="white" paint-order="fill stroke markers" d=" M 293.8806818181818 377.84344046456476 L 323.01704545454544 377.84344046456476 L 323.01704545454544 377.84344046456476 L 293.8806818181818 377.84344046456476 L 293.8806818181818 377.84344046456476 Z" stroke-linejoin="bevel" stroke-miterlimit="10" stroke-width="0"/><rect fill="#a5bab7" stroke="none" x="330.30113636363626" y="317.31697433035714" width="29.13636363636374" height="0"/><path fill="none" stroke="white" paint-order="fill stroke markers" d=" M 330.30113636363626 317.31697433035714 L 359.4375 317.31697433035714 L 359.4375 317.31697433035714 L 330.30113636363626 317.31697433035714 L 330.30113636363626 317.31697433035714 Z" stroke-linejoin="bevel" stroke-miterlimit="10" stroke-width="0"/><rect fill="#a5bab7" stroke="none" x="366.7215909090909" y="317.35087109375" width="29.136363636363626" height="0"/><path fill="none" stroke="white" paint-order="fill stroke markers" d=" M 366.7215909090909 317.35087109375 L 395.8579545454545 317.35087109375 L 395.8579545454545 317.35087109375 L 366.7215909090909 317.35087109375 L 366.7215909090909 317.35087109375 Z" stroke-linejoin="bevel" stroke-miterlimit="10" stroke-width="0"/><rect fill="#a5bab7" stroke="none" x="403.1420454545454" y="316.8032798549107" width="29.136363636363626" height="0"/><path fill="none" stroke="white" paint-order="fill stroke markers" d=" M 403.1420454545454 316.8032798549107 L 432.278409090909 316.8032798549107 L 432.278409090909 316.8032798549107 L 403.1420454545454 316.8032798549107 L 403.1420454545454 316.8032798549107 Z" stroke-linejoin="bevel" stroke-miterlimit="10" stroke-width="0"/><rect fill="#a5bab7" stroke="none" x="439.56249999999994" y="312.01493526785714" width="29.136363636363626" height="0"/><path fill="none" stroke="white" paint-order="fill stroke markers" d=" M 439.56249999999994 312.01493526785714 L 468.69886363636357 312.01493526785714 L 468.69886363636357 312.01493526785714 L 439.56249999999994 312.01493526785714 L 439.56249999999994 312.01493526785714 Z" stroke-linejoin="bevel" stroke-miterlimit="10" stroke-width="0"/><rect fill="#a5bab7" stroke="none" x="475.9829545454545" y="316.83644503348216" width="29.136363636363626" height="0"/><path fill="none" stroke="white" paint-order="fill stroke markers" d=" M 475.9829545454545 316.83644503348216 L 505.11931818181813 316.83644503348216 L 505.11931818181813 316.83644503348216 L 475.9829545454545 316.83644503348216 L 475.9829545454545 316.83644503348216 Z" stroke-linejoin="bevel" stroke-miterlimit="10" stroke-width="0"/><rect fill="#a5bab7" stroke="none" x="512.403409090909" y="312.0327981305803" width="29.136363636363512" height="0"/><path fill="none" stroke="white" paint-order="fill stroke markers" d=" M 512.403409090909 312.0327981305803 L 541.5397727272725 312.0327981305803 L 541.5397727272725 312.0327981305803 L 512.403409090909 312.0327981305803 L 512.403409090909 312.0327981305803 Z" stroke-linejoin="bevel" stroke-miterlimit="10" stroke-width="0"/><rect fill="#a5bab7" stroke="none" x="548.8238636363635" y="312.0707490931919" width="29.13636363636374" height="0"/><path fill="none" stroke="white" paint-order="fill stroke markers" d=" M 548.8238636363635 312.0707490931919 L 577.9602272727273 312.0707490931919 L 577.9602272727273 312.0707490931919 L 548.8238636363635 312.0707490931919 L 548.8238636363635 312.0707490931919 Z" stroke-linejoin="bevel" stroke-miterlimit="10" stroke-width="0"/><rect fill="#a5bab7" stroke="none" x="585.244318181818" y="312.024080078125" width="29.13636363636374" height="0"/><path fill="none" stroke="white" paint-order="fill stroke markers" d=" M 585.244318181818 312.024080078125 L 614.3806818181818 312.024080078125 L 614.3806818181818 312.024080078125 L 585.244318181818 312.024080078125 L 585.244318181818 312.024080078125 Z" stroke-linejoin="bevel" stroke-miterlimit="10" stroke-width="0"/><rect fill="#a5bab7" stroke="none" x="621.6647727272727" y="312.0999210379464" width="29.136363636363512" height="0"/><path fill="none" stroke="white" paint-order="fill stroke markers" d=" M 621.6647727272727 312.0999210379464 L 650.8011363636363 312.0999210379464 L 650.8011363636363 312.0999210379464 L 621.6647727272727 312.0999210379464 L 621.6647727272727 312.0999210379464 Z" stroke-linejoin="bevel" stroke-miterlimit="10" stroke-width="0"/><rect fill="#a5bab7" stroke="none" x="658.0852272727273" y="311.96893687220984" width="29.136363636363512" height="0"/><path fill="none" stroke="white" paint-order="fill stroke markers" d=" M 658.0852272727273 311.96893687220984 L 687.2215909090908 311.96893687220984 L 687.2215909090908 311.96893687220984 L 658.0852272727273 311.96893687220984 L 658.0852272727273 311.96893687220984 Z" stroke-linejoin="bevel" stroke-miterlimit="10" stroke-width="0"/></g><g><path fill="none" stroke="none"/><rect fill="#c9d9d3" stroke="none" x="111.77840909090907" y="442" width="29.136363636363654" height="0"/><path fill="none" stroke="white" paint-order="fill stroke markers" d=" M 111.77840909090907 442 L 140.91477272727272 442 L 140.91477272727272 442 L 111.77840909090907 442 L 111.77840909090907 442 Z" stroke-linejoin="bevel" stroke-miterlimit="10" stroke-width="0"/><rect fill="#c9d9d3" stroke="none" x="148.19886363636363" y="442" width="29.136363636363626" height="0"/><path fill="none" stroke="white" paint-order="fill stroke markers" d=" M 148.19886363636363 442 L 177.33522727272725 442 L 177.33522727272725 442 L 148.19886363636363 442 L 148.19886363636363 442 Z" stroke-linejoin="bevel" stroke-miterlimit="10" stroke-width="0"/><rect fill="#c9d9d3" stroke="none" x="184.61931818181816" y="426.5879464285714" width="29.136363636363626" height="15.4120535714286"/><path fill="none" stroke="white" paint-order="fill stroke markers" d=" M 184.61931818181816 426.5879464285714 L 213.75568181818178 426.5879464285714 L 213.75568181818178 442 L 184.61931818181816 442 L 184.61931818181816 426.5879464285714 Z" stroke-linejoin="bevel" stroke-miterlimit="10" stroke-width="0"/><rect fill="#c9d9d3" stroke="none" x="221.0397727272727" y="412.44397321428573" width="29.136363636363626" height="15.436439732142844"/><path fill="none" stroke="white" paint-order="fill stroke markers" d=" M 221.0397727272727 412.44397321428573 L 250.17613636363632 412.44397321428573 L 250.17613636363632 427.8804129464286 L 221.0397727272727 427.8804129464286 L 221.0397727272727 412.44397321428573 Z" stroke-linejoin="bevel" stroke-miterlimit="10" stroke-width="0"/><rect fill="#c9d9d3" stroke="none" x="257.46022727272725" y="387.47254464285714" width="29.136363636363626" height="15.412053571428544"/><path fill="none" stroke="white" paint-order="fill stroke markers" d=" M 257.46022727272725 387.47254464285714 L 286.5965909090909 387.47254464285714 L 286.5965909090909 402.8845982142857 L 257.46022727272725 402.8845982142857 L 257.46022727272725 387.47254464285714 Z" stroke-linejoin="bevel" stroke-miterlimit="10" stroke-width="0"/><rect fill="#c9d9d3" stroke="none" x="293.8806818181818" y="362.48015921456476" width="29.136363636363626" height="15.36328125"/><path fill="none" stroke="white" paint-order="fill stroke markers" d=" M 293.8806818181818 362.48015921456476 L 323.01704545454544 362.48015921456476 L 323.01704545454544 377.84344046456476 L 293.8806818181818 377.84344046456476 L 293.8806818181818 362.48015921456476 Z" stroke-linejoin="bevel" stroke-miterlimit="10" stroke-width="0"/><rect fill="#c9d9d3" stroke="none" x="330.30113636363626" y="301.88053459821424" width="29.13636363636374" height="15.436439732142901"/><path fill="none" stroke="white" paint-order="fill stroke markers" d=" M 330.30113636363626 301.88053459821424 L 359.4375 301.88053459821424 L 359.4375 317.31697433035714 L 330.30113636363626 317.31697433035714 L 330.30113636363626 301.88053459821424 Z" stroke-linejoin="bevel" stroke-miterlimit="10" stroke-width="0"/><rect fill="#c9d9d3" stroke="none" x="366.7215909090909" y="301.90223828125" width="29.136363636363626" height="15.448632812500023"/><path fill="none" stroke="white" paint-order="fill stroke markers" d=" M 366.7215909090909 301.90223828125 L 395.8579545454545 301.90223828125 L 395.8579545454545 317.35087109375 L 366.7215909090909 317.35087109375 L 366.7215909090909 301.90223828125 Z" stroke-linejoin="bevel" stroke-miterlimit="10" stroke-width="0"/><rect fill="#c9d9d3" stroke="none" x="403.1420454545454" y="301.3912262834821" width="29.136363636363626" height="15.4120535714286"/><path fill="none" stroke="white" paint-order="fill stroke markers" d=" M 403.1420454545454 301.3912262834821 L 432.278409090909 301.3912262834821 L 432.278409090909 316.8032798549107 L 403.1420454545454 316.8032798549107 L 403.1420454545454 301.3912262834821 Z" stroke-linejoin="bevel" stroke-miterlimit="10" stroke-width="0"/><rect fill="#c9d9d3" stroke="none" x="439.56249999999994" y="296.65165401785714" width="29.136363636363626" height="15.36328125"/><path fill="none" stroke="white" paint-order="fill stroke markers" d=" M 439.56249999999994 296.65165401785714 L 468.69886363636357 296.65165401785714 L 468.69886363636357 312.01493526785714 L 439.56249999999994 312.01493526785714 L 439.56249999999994 296.65165401785714 Z" stroke-linejoin="bevel" stroke-miterlimit="10" stroke-width="0"/><rect fill="#c9d9d3" stroke="none" x="475.9829545454545" y="301.47316378348216" width="29.136363636363626" height="15.36328125"/><path fill="none" stroke="white" paint-order="fill stroke markers" d=" M 475.9829545454545 301.47316378348216 L 505.11931818181813 301.47316378348216 L 505.11931818181813 316.83644503348216 L 475.9829545454545 316.83644503348216 L 475.9829545454545 301.47316378348216 Z" stroke-linejoin="bevel" stroke-miterlimit="10" stroke-width="0"/><rect fill="#c9d9d3" stroke="none" x="512.403409090909" y="296.60855147879465" width="29.136363636363512" height="15.424246651785666"/><path fill="none" stroke="white" paint-order="fill stroke markers" d=" M 512.403409090909 296.60855147879465 L 541.5397727272725 296.60855147879465 L 541.5397727272725 312.0327981305803 L 512.403409090909 312.0327981305803 L 512.403409090909 296.60855147879465 Z" stroke-linejoin="bevel" stroke-miterlimit="10" stroke-width="0"/><rect fill="#c9d9d3" stroke="none" x="548.8238636363635" y="296.6343093610491" width="29.13636363636374" height="15.436439732142844"/><path fill="none" stroke="white" paint-order="fill stroke markers" d=" M 548.8238636363635 296.6343093610491 L 577.9602272727273 296.6343093610491 L 577.9602272727273 312.0707490931919 L 548.8238636363635 312.0707490931919 L 548.8238636363635 296.6343093610491 Z" stroke-linejoin="bevel" stroke-miterlimit="10" stroke-width="0"/><rect fill="#c9d9d3" stroke="none" x="585.244318181818" y="296.5693507254464" width="29.13636363636374" height="15.454729352678612"/><path fill="none" stroke="white" paint-order="fill stroke markers" d=" M 585.244318181818 296.5693507254464 L 614.3806818181818 296.5693507254464 L 614.3806818181818 312.024080078125 L 585.244318181818 312.024080078125 L 585.244318181818 296.5693507254464 Z" stroke-linejoin="bevel" stroke-miterlimit="10" stroke-width="0"/><rect fill="#c9d9d3" stroke="none" x="621.6647727272727" y="296.6512882254464" width="29.136363636363512" height="15.448632812499966"/><path fill="none" stroke="white" paint-order="fill stroke markers" d=" M 621.6647727272727 296.6512882254464 L 650.8011363636363 296.6512882254464 L 650.8011363636363 312.0999210379464 L 621.6647727272727 312.0999210379464 L 621.6647727272727 296.6512882254464 Z" stroke-linejoin="bevel" stroke-miterlimit="10" stroke-width="0"/><rect fill="#c9d9d3" stroke="none" x="658.0852272727273" y="296.5142075195313" width="29.136363636363512" height="15.454729352678555"/><path fill="none" stroke="white" paint-order="fill stroke markers" d=" M 658.0852272727273 296.5142075195313 L 687.2215909090908 296.5142075195313 L 687.2215909090908 311.96893687220984 L 658.0852272727273 311.96893687220984 L 658.0852272727273 296.5142075195313 Z" stroke-linejoin="bevel" stroke-miterlimit="10" stroke-width="0"/></g><g><path fill="none" stroke="none"/><rect fill="#e2e2e2" stroke="none" x="111.77840909090907" y="442" width="29.136363636363654" height="0"/><path fill="none" stroke="white" paint-order="fill stroke markers" d=" M 111.77840909090907 442 L 140.91477272727272 442 L 140.91477272727272 442 L 111.77840909090907 442 L 111.77840909090907 442 Z" stroke-linejoin="bevel" stroke-miterlimit="10" stroke-width="0"/><rect fill="#e2e2e2" stroke="none" x="148.19886363636363" y="442" width="29.136363636363626" height="0"/><path fill="none" stroke="white" paint-order="fill stroke markers" d=" M 148.19886363636363 442 L 177.33522727272725 442 L 177.33522727272725 442 L 148.19886363636363 442 L 148.19886363636363 442 Z" stroke-linejoin="bevel" stroke-miterlimit="10" stroke-width="0"/><rect fill="#e2e2e2" stroke="none" x="184.61931818181816" y="426.5879464285714" width="29.136363636363626" height="0"/><path fill="none" stroke="white" paint-order="fill stroke markers" d=" M 184.61931818181816 426.5879464285714 L 213.75568181818178 426.5879464285714 L 213.75568181818178 426.5879464285714 L 184.61931818181816 426.5879464285714 L 184.61931818181816 426.5879464285714 Z" stroke-linejoin="bevel" stroke-miterlimit="10" stroke-width="0"/><rect fill="#e2e2e2" stroke="none" x="221.0397727272727" y="412.44397321428573" width="29.136363636363626" height="0"/><path fill="none" stroke="white" paint-order="fill stroke markers" d=" M 221.0397727272727 412.44397321428573 L 250.17613636363632 412.44397321428573 L 250.17613636363632 412.44397321428573 L 221.0397727272727 412.44397321428573 L 221.0397727272727 412.44397321428573 Z" stroke-linejoin="bevel" stroke-miterlimit="10" stroke-width="0"/><rect fill="#e2e2e2" stroke="none" x="257.46022727272725" y="387.47254464285714" width="29.136363636363626" height="0"/><path fill="none" stroke="white" paint-order="fill stroke markers" d=" M 257.46022727272725 387.47254464285714 L 286.5965909090909 387.47254464285714 L 286.5965909090909 387.47254464285714 L 257.46022727272725 387.47254464285714 L 257.46022727272725 387.47254464285714 Z" stroke-linejoin="bevel" stroke-miterlimit="10" stroke-width="0"/><rect fill="#e2e2e2" stroke="none" x="293.8806818181818" y="362.48015921456476" width="29.136363636363626" height="0"/><path fill="none" stroke="white" paint-order="fill stroke markers" d=" M 293.8806818181818 362.48015921456476 L 323.01704545454544 362.48015921456476 L 323.01704545454544 362.48015921456476 L 293.8806818181818 362.48015921456476 L 293.8806818181818 362.48015921456476 Z" stroke-linejoin="bevel" stroke-miterlimit="10" stroke-width="0"/><rect fill="#e2e2e2" stroke="none" x="330.30113636363626" y="301.88053459821424" width="29.13636363636374" height="0"/><path fill="none" stroke="white" paint-order="fill stroke markers" d=" M 330.30113636363626 301.88053459821424 L 359.4375 301.88053459821424 L 359.4375 301.88053459821424 L 330.30113636363626 301.88053459821424 L 330.30113636363626 301.88053459821424 Z" stroke-linejoin="bevel" stroke-miterlimit="10" stroke-width="0"/><rect fill="#e2e2e2" stroke="none" x="366.7215909090909" y="301.90223828125" width="29.136363636363626" height="0"/><path fill="none" stroke="white" paint-order="fill stroke markers" d=" M 366.7215909090909 301.90223828125 L 395.8579545454545 301.90223828125 L 395.8579545454545 301.90223828125 L 366.7215909090909 301.90223828125 L 366.7215909090909 301.90223828125 Z" stroke-linejoin="bevel" stroke-miterlimit="10" stroke-width="0"/><rect fill="#e2e2e2" stroke="none" x="403.1420454545454" y="301.3912262834821" width="29.136363636363626" height="0"/><path fill="none" stroke="white" paint-order="fill stroke markers" d=" M 403.1420454545454 301.3912262834821 L 432.278409090909 301.3912262834821 L 432.278409090909 301.3912262834821 L 403.1420454545454 301.3912262834821 L 403.1420454545454 301.3912262834821 Z" stroke-linejoin="bevel" stroke-miterlimit="10" stroke-width="0"/><rect fill="#e2e2e2" stroke="none" x="439.56249999999994" y="296.65165401785714" width="29.136363636363626" height="0"/><path fill="none" stroke="white" paint-order="fill stroke markers" d=" M 439.56249999999994 296.65165401785714 L 468.69886363636357 296.65165401785714 L 468.69886363636357 296.65165401785714 L 439.56249999999994 296.65165401785714 L 439.56249999999994 296.65165401785714 Z" stroke-linejoin="bevel" stroke-miterlimit="10" stroke-width="0"/><rect fill="#e2e2e2" stroke="none" x="475.9829545454545" y="301.47316378348216" width="29.136363636363626" height="0"/><path fill="none" stroke="white" paint-order="fill stroke markers" d=" M 475.9829545454545 301.47316378348216 L 505.11931818181813 301.47316378348216 L 505.11931818181813 301.47316378348216 L 475.9829545454545 301.47316378348216 L 475.9829545454545 301.47316378348216 Z" stroke-linejoin="bevel" stroke-miterlimit="10" stroke-width="0"/><rect fill="#e2e2e2" stroke="none" x="512.403409090909" y="285.00799386160713" width="29.136363636363512" height="11.600557617187519"/><path fill="none" stroke="white" paint-order="fill stroke markers" d=" M 512.403409090909 285.00799386160713 L 541.5397727272725 285.00799386160713 L 541.5397727272725 296.60855147879465 L 512.403409090909 296.60855147879465 L 512.403409090909 285.00799386160713 Z" stroke-linejoin="bevel" stroke-miterlimit="10" stroke-width="0"/><rect fill="#e2e2e2" stroke="none" x="548.8238636363635" y="273.6625459681919" width="29.13636363636374" height="22.971763392857156"/><path fill="none" stroke="white" paint-order="fill stroke markers" d=" M 548.8238636363635 273.6625459681919 L 577.9602272727273 273.6625459681919 L 577.9602272727273 296.6343093610491 L 548.8238636363635 296.6343093610491 L 548.8238636363635 273.6625459681919 Z" stroke-linejoin="bevel" stroke-miterlimit="10" stroke-width="0"/><rect fill="#e2e2e2" stroke="none" x="585.244318181818" y="273.58539425223216" width="29.13636363636374" height="22.98395647321422"/><path fill="none" stroke="white" paint-order="fill stroke markers" d=" M 585.244318181818 273.58539425223216 L 614.3806818181818 273.58539425223216 L 614.3806818181818 296.5693507254464 L 585.244318181818 296.5693507254464 L 585.244318181818 273.58539425223216 Z" stroke-linejoin="bevel" stroke-miterlimit="10" stroke-width="0"/><rect fill="#e2e2e2" stroke="none" x="621.6647727272727" y="273.6917179129464" width="29.136363636363512" height="22.959570312500034"/><path fill="none" stroke="white" paint-order="fill stroke markers" d=" M 621.6647727272727 273.6917179129464 L 650.8011363636363 273.6917179129464 L 650.8011363636363 296.6512882254464 L 621.6647727272727 296.6512882254464 L 621.6647727272727 273.6917179129464 Z" stroke-linejoin="bevel" stroke-miterlimit="10" stroke-width="0"/><rect fill="#e2e2e2" stroke="none" x="658.0852272727273" y="272.3719084123884" width="29.136363636363512" height="24.14229910714289"/><path fill="none" stroke="white" paint-order="fill stroke markers" d=" M 658.0852272727273 272.3719084123884 L 687.2215909090908 272.3719084123884 L 687.2215909090908 296.5142075195313 L 658.0852272727273 296.5142075195313 L 658.0852272727273 272.3719084123884 Z" stroke-linejoin="bevel" stroke-miterlimit="10" stroke-width="0"/></g><g><path fill="none" stroke="none"/><rect fill="#dfccce" stroke="none" x="111.77840909090907" y="442" width="29.136363636363654" height="0"/><path fill="none" stroke="white" paint-order="fill stroke markers" d=" M 111.77840909090907 442 L 140.91477272727272 442 L 140.91477272727272 442 L 111.77840909090907 442 L 111.77840909090907 442 Z" stroke-linejoin="bevel" stroke-miterlimit="10" stroke-width="0"/><rect fill="#dfccce" stroke="none" x="148.19886363636363" y="442" width="29.136363636363626" height="0"/><path fill="none" stroke="white" paint-order="fill stroke markers" d=" M 148.19886363636363 442 L 177.33522727272725 442 L 177.33522727272725 442 L 148.19886363636363 442 L 148.19886363636363 442 Z" stroke-linejoin="bevel" stroke-miterlimit="10" stroke-width="0"/><rect fill="#dfccce" stroke="none" x="184.61931818181816" y="426.5879464285714" width="29.136363636363626" height="0"/><path fill="none" stroke="white" paint-order="fill stroke markers" d=" M 184.61931818181816 426.5879464285714 L 213.75568181818178 426.5879464285714 L 213.75568181818178 426.5879464285714 L 184.61931818181816 426.5879464285714 L 184.61931818181816 426.5879464285714 Z" stroke-linejoin="bevel" stroke-miterlimit="10" stroke-width="0"/><rect fill="#dfccce" stroke="none" x="221.0397727272727" y="412.44397321428573" width="29.136363636363626" height="0"/><path fill="none" stroke="white" paint-order="fill stroke markers" d=" M 221.0397727272727 412.44397321428573 L 250.17613636363632 412.44397321428573 L 250.17613636363632 412.44397321428573 L 221.0397727272727 412.44397321428573 L 221.0397727272727 412.44397321428573 Z" stroke-linejoin="bevel" stroke-miterlimit="10" stroke-width="0"/><rect fill="#dfccce" stroke="none" x="257.46022727272725" y="387.47254464285714" width="29.136363636363626" height="0"/><path fill="none" stroke="white" paint-order="fill stroke markers" d=" M 257.46022727272725 387.47254464285714 L 286.5965909090909 387.47254464285714 L 286.5965909090909 387.47254464285714 L 257.46022727272725 387.47254464285714 L 257.46022727272725 387.47254464285714 Z" stroke-linejoin="bevel" stroke-miterlimit="10" stroke-width="0"/><rect fill="#dfccce" stroke="none" x="293.8806818181818" y="362.48015921456476" width="29.136363636363626" height="0"/><path fill="none" stroke="white" paint-order="fill stroke markers" d=" M 293.8806818181818 362.48015921456476 L 323.01704545454544 362.48015921456476 L 323.01704545454544 362.48015921456476 L 293.8806818181818 362.48015921456476 L 293.8806818181818 362.48015921456476 Z" stroke-linejoin="bevel" stroke-miterlimit="10" stroke-width="0"/><rect fill="#dfccce" stroke="none" x="330.30113636363626" y="301.88053459821424" width="29.13636363636374" height="0"/><path fill="none" stroke="white" paint-order="fill stroke markers" d=" M 330.30113636363626 301.88053459821424 L 359.4375 301.88053459821424 L 359.4375 301.88053459821424 L 330.30113636363626 301.88053459821424 L 330.30113636363626 301.88053459821424 Z" stroke-linejoin="bevel" stroke-miterlimit="10" stroke-width="0"/><rect fill="#dfccce" stroke="none" x="366.7215909090909" y="301.90223828125" width="29.136363636363626" height="0"/><path fill="none" stroke="white" paint-order="fill stroke markers" d=" M 366.7215909090909 301.90223828125 L 395.8579545454545 301.90223828125 L 395.8579545454545 301.90223828125 L 366.7215909090909 301.90223828125 L 366.7215909090909 301.90223828125 Z" stroke-linejoin="bevel" stroke-miterlimit="10" stroke-width="0"/><rect fill="#dfccce" stroke="none" x="403.1420454545454" y="301.3912262834821" width="29.136363636363626" height="0"/><path fill="none" stroke="white" paint-order="fill stroke markers" d=" M 403.1420454545454 301.3912262834821 L 432.278409090909 301.3912262834821 L 432.278409090909 301.3912262834821 L 403.1420454545454 301.3912262834821 L 403.1420454545454 301.3912262834821 Z" stroke-linejoin="bevel" stroke-miterlimit="10" stroke-width="0"/><rect fill="#dfccce" stroke="none" x="439.56249999999994" y="296.65165401785714" width="29.136363636363626" height="0"/><path fill="none" stroke="white" paint-order="fill stroke markers" d=" M 439.56249999999994 296.65165401785714 L 468.69886363636357 296.65165401785714 L 468.69886363636357 296.65165401785714 L 439.56249999999994 296.65165401785714 L 439.56249999999994 296.65165401785714 Z" stroke-linejoin="bevel" stroke-miterlimit="10" stroke-width="0"/><rect fill="#dfccce" stroke="none" x="475.9829545454545" y="301.47316378348216" width="29.136363636363626" height="0"/><path fill="none" stroke="white" paint-order="fill stroke markers" d=" M 475.9829545454545 301.47316378348216 L 505.11931818181813 301.47316378348216 L 505.11931818181813 301.47316378348216 L 475.9829545454545 301.47316378348216 L 475.9829545454545 301.47316378348216 Z" stroke-linejoin="bevel" stroke-miterlimit="10" stroke-width="0"/><rect fill="#dfccce" stroke="none" x="512.403409090909" y="285.00799386160713" width="29.136363636363512" height="0"/><path fill="none" stroke="white" paint-order="fill stroke markers" d=" M 512.403409090909 285.00799386160713 L 541.5397727272725 285.00799386160713 L 541.5397727272725 285.00799386160713 L 512.403409090909 285.00799386160713 L 512.403409090909 285.00799386160713 Z" stroke-linejoin="bevel" stroke-miterlimit="10" stroke-width="0"/><rect fill="#dfccce" stroke="none" x="548.8238636363635" y="273.6625459681919" width="29.13636363636374" height="0"/><path fill="none" stroke="white" paint-order="fill stroke markers" d=" M 548.8238636363635 273.6625459681919 L 577.9602272727273 273.6625459681919 L 577.9602272727273 273.6625459681919 L 548.8238636363635 273.6625459681919 L 548.8238636363635 273.6625459681919 Z" stroke-linejoin="bevel" stroke-miterlimit="10" stroke-width="0"/><rect fill="#dfccce" stroke="none" x="585.244318181818" y="273.58539425223216" width="29.13636363636374" height="0"/><path fill="none" stroke="white" paint-order="fill stroke markers" d=" M 585.244318181818 273.58539425223216 L 614.3806818181818 273.58539425223216 L 614.3806818181818 273.58539425223216 L 585.244318181818 273.58539425223216 L 585.244318181818 273.58539425223216 Z" stroke-linejoin="bevel" stroke-miterlimit="10" stroke-width="0"/><rect fill="#dfccce" stroke="none" x="621.6647727272727" y="260.45722656249995" width="29.136363636363512" height="13.234491350446433"/><path fill="none" stroke="white" paint-order="fill stroke markers" d=" M 621.6647727272727 260.45722656249995 L 650.8011363636363 260.45722656249995 L 650.8011363636363 273.6917179129464 L 621.6647727272727 273.6917179129464 L 621.6647727272727 260.45722656249995 Z" stroke-linejoin="bevel" stroke-miterlimit="10" stroke-width="0"/><rect fill="#dfccce" stroke="none" x="658.0852272727273" y="256.45993854631695" width="29.136363636363512" height="15.911969866071445"/><path fill="none" stroke="white" paint-order="fill stroke markers" d=" M 658.0852272727273 256.45993854631695 L 687.2215909090908 256.45993854631695 L 687.2215909090908 272.3719084123884 L 658.0852272727273 272.3719084123884 L 658.0852272727273 256.45993854631695 Z" stroke-linejoin="bevel" stroke-miterlimit="10" stroke-width="0"/></g><g><path fill="none" stroke="none"/><rect fill="#ddb7b1" stroke="none" x="111.77840909090907" y="442" width="29.136363636363654" height="0"/><path fill="none" stroke="white" paint-order="fill stroke markers" d=" M 111.77840909090907 442 L 140.91477272727272 442 L 140.91477272727272 442 L 111.77840909090907 442 L 111.77840909090907 442 Z" stroke-linejoin="bevel" stroke-miterlimit="10" stroke-width="0"/><rect fill="#ddb7b1" stroke="none" x="148.19886363636363" y="417.0285714285714" width="29.136363636363626" height="24.97142857142859"/><path fill="none" stroke="white" paint-order="fill stroke markers" d=" M 148.19886363636363 417.0285714285714 L 177.33522727272725 417.0285714285714 L 177.33522727272725 442 L 148.19886363636363 442 L 148.19886363636363 417.0285714285714 Z" stroke-linejoin="bevel" stroke-miterlimit="10" stroke-width="0"/><rect fill="#ddb7b1" stroke="none" x="184.61931818181816" y="392.0571428571429" width="29.136363636363626" height="34.53080357142852"/><path fill="none" stroke="white" paint-order="fill stroke markers" d=" M 184.61931818181816 392.0571428571429 L 213.75568181818178 392.0571428571429 L 213.75568181818178 426.5879464285714 L 184.61931818181816 426.5879464285714 L 184.61931818181816 392.0571428571429 Z" stroke-linejoin="bevel" stroke-miterlimit="10" stroke-width="0"/><rect fill="#ddb7b1" stroke="none" x="221.0397727272727" y="367.0857142857143" width="29.136363636363626" height="45.358258928571445"/><path fill="none" stroke="white" paint-order="fill stroke markers" d=" M 221.0397727272727 367.0857142857143 L 250.17613636363632 367.0857142857143 L 250.17613636363632 412.44397321428573 L 221.0397727272727 412.44397321428573 L 221.0397727272727 367.0857142857143 Z" stroke-linejoin="bevel" stroke-miterlimit="10" stroke-width="0"/><rect fill="#ddb7b1" stroke="none" x="257.46022727272725" y="342.1142857142857" width="29.136363636363626" height="45.358258928571445"/><path fill="none" stroke="white" paint-order="fill stroke markers" d=" M 257.46022727272725 342.1142857142857 L 286.5965909090909 342.1142857142857 L 286.5965909090909 387.47254464285714 L 257.46022727272725 387.47254464285714 L 257.46022727272725 342.1142857142857 Z" stroke-linejoin="bevel" stroke-miterlimit="10" stroke-width="0"/><rect fill="#ddb7b1" stroke="none" x="293.8806818181818" y="317.1428571428571" width="29.136363636363626" height="45.337302071707654"/><path fill="none" stroke="white" paint-order="fill stroke markers" d=" M 293.8806818181818 317.1428571428571 L 323.01704545454544 317.1428571428571 L 323.01704545454544 362.48015921456476 L 293.8806818181818 362.48015921456476 L 293.8806818181818 317.1428571428571 Z" stroke-linejoin="bevel" stroke-miterlimit="10" stroke-width="0"/><rect fill="#ddb7b1" stroke="none" x="330.30113636363626" y="292.1714285714286" width="29.13636363636374" height="9.709106026785662"/><path fill="none" stroke="white" paint-order="fill stroke markers" d=" M 330.30113636363626 292.1714285714286 L 359.4375 292.1714285714286 L 359.4375 301.88053459821424 L 330.30113636363626 301.88053459821424 L 330.30113636363626 292.1714285714286 Z" stroke-linejoin="bevel" stroke-miterlimit="10" stroke-width="0"/><rect fill="#ddb7b1" stroke="none" x="366.7215909090909" y="267.2" width="29.136363636363626" height="34.702238281250004"/><path fill="none" stroke="white" paint-order="fill stroke markers" d=" M 366.7215909090909 267.2 L 395.8579545454545 267.2 L 395.8579545454545 301.90223828125 L 366.7215909090909 301.90223828125 L 366.7215909090909 267.2 Z" stroke-linejoin="bevel" stroke-miterlimit="10" stroke-width="0"/><rect fill="#ddb7b1" stroke="none" x="403.1420454545454" y="256.03296735491074" width="29.136363636363626" height="45.35825892857139"/><path fill="none" stroke="white" paint-order="fill stroke markers" d=" M 403.1420454545454 256.03296735491074 L 432.278409090909 256.03296735491074 L 432.278409090909 301.3912262834821 L 403.1420454545454 301.3912262834821 L 403.1420454545454 256.03296735491074 Z" stroke-linejoin="bevel" stroke-miterlimit="10" stroke-width="0"/><rect fill="#ddb7b1" stroke="none" x="439.56249999999994" y="251.32997433035715" width="29.136363636363626" height="45.321679687499994"/><path fill="none" stroke="white" paint-order="fill stroke markers" d=" M 439.56249999999994 251.32997433035715 L 468.69886363636357 251.32997433035715 L 468.69886363636357 296.65165401785714 L 439.56249999999994 296.65165401785714 L 439.56249999999994 251.32997433035715 Z" stroke-linejoin="bevel" stroke-miterlimit="10" stroke-width="0"/><rect fill="#ddb7b1" stroke="none" x="475.9829545454545" y="256.1149048549107" width="29.136363636363626" height="45.358258928571445"/><path fill="none" stroke="white" paint-order="fill stroke markers" d=" M 475.9829545454545 256.1149048549107 L 505.11931818181813 256.1149048549107 L 505.11931818181813 301.47316378348216 L 475.9829545454545 301.47316378348216 L 475.9829545454545 256.1149048549107 Z" stroke-linejoin="bevel" stroke-miterlimit="10" stroke-width="0"/><rect fill="#ddb7b1" stroke="none" x="512.403409090909" y="239.67412109375" width="29.136363636363512" height="45.333872767857144"/><path fill="none" stroke="white" paint-order="fill stroke markers" d=" M 512.403409090909 239.67412109375 L 541.5397727272725 239.67412109375 L 541.5397727272725 285.00799386160713 L 512.403409090909 285.00799386160713 L 512.403409090909 239.67412109375 Z" stroke-linejoin="bevel" stroke-miterlimit="10" stroke-width="0"/><rect fill="#ddb7b1" stroke="none" x="548.8238636363635" y="228.30428703962053" width="29.13636363636374" height="45.35825892857139"/><path fill="none" stroke="white" paint-order="fill stroke markers" d=" M 548.8238636363635 228.30428703962053 L 577.9602272727273 228.30428703962053 L 577.9602272727273 273.6625459681919 L 548.8238636363635 273.6625459681919 L 548.8238636363635 228.30428703962053 Z" stroke-linejoin="bevel" stroke-miterlimit="10" stroke-width="0"/><rect fill="#ddb7b1" stroke="none" x="585.244318181818" y="228.251521484375" width="29.13636363636374" height="45.33387276785717"/><path fill="none" stroke="white" paint-order="fill stroke markers" d=" M 585.244318181818 228.251521484375 L 614.3806818181818 228.251521484375 L 614.3806818181818 273.58539425223216 L 585.244318181818 273.58539425223216 L 585.244318181818 228.251521484375 Z" stroke-linejoin="bevel" stroke-miterlimit="10" stroke-width="0"/><rect fill="#ddb7b1" stroke="none" x="621.6647727272727" y="215.135546875" width="29.136363636363512" height="45.321679687499966"/><path fill="none" stroke="white" paint-order="fill stroke markers" d=" M 621.6647727272727 215.135546875 L 650.8011363636363 215.135546875 L 650.8011363636363 260.45722656249995 L 621.6647727272727 260.45722656249995 L 621.6647727272727 215.135546875 Z" stroke-linejoin="bevel" stroke-miterlimit="10" stroke-width="0"/><rect fill="#ddb7b1" stroke="none" x="658.0852272727273" y="209.18126946149553" width="29.136363636363512" height="47.278669084821416"/><path fill="none" stroke="white" paint-order="fill stroke markers" d=" M 658.0852272727273 209.18126946149553 L 687.2215909090908 209.18126946149553 L 687.2215909090908 256.45993854631695 L 658.0852272727273 256.45993854631695 L 658.0852272727273 209.18126946149553 Z" stroke-linejoin="bevel" stroke-miterlimit="10" stroke-width="0"/></g><g><path fill="none" stroke="none"/><rect fill="#cc7878" stroke="none" x="111.77840909090907" y="442" width="29.136363636363654" height="0"/><path fill="none" stroke="white" paint-order="fill stroke markers" d=" M 111.77840909090907 442 L 140.91477272727272 442 L 140.91477272727272 442 L 111.77840909090907 442 L 111.77840909090907 442 Z" stroke-linejoin="bevel" stroke-miterlimit="10" stroke-width="0"/><rect fill="#cc7878" stroke="none" x="148.19886363636363" y="417.0285714285714" width="29.136363636363626" height="0"/><path fill="none" stroke="white" paint-order="fill stroke markers" d=" M 148.19886363636363 417.0285714285714 L 177.33522727272725 417.0285714285714 L 177.33522727272725 417.0285714285714 L 148.19886363636363 417.0285714285714 L 148.19886363636363 417.0285714285714 Z" stroke-linejoin="bevel" stroke-miterlimit="10" stroke-width="0"/><rect fill="#cc7878" stroke="none" x="184.61931818181816" y="392.0571428571429" width="29.136363636363626" height="0"/><path fill="none" stroke="white" paint-order="fill stroke markers" d=" M 184.61931818181816 392.0571428571429 L 213.75568181818178 392.0571428571429 L 213.75568181818178 392.0571428571429 L 184.61931818181816 392.0571428571429 L 184.61931818181816 392.0571428571429 Z" stroke-linejoin="bevel" stroke-miterlimit="10" stroke-width="0"/><rect fill="#cc7878" stroke="none" x="221.0397727272727" y="367.0857142857143" width="29.136363636363626" height="0"/><path fill="none" stroke="white" paint-order="fill stroke markers" d=" M 221.0397727272727 367.0857142857143 L 250.17613636363632 367.0857142857143 L 250.17613636363632 367.0857142857143 L 221.0397727272727 367.0857142857143 L 221.0397727272727 367.0857142857143 Z" stroke-linejoin="bevel" stroke-miterlimit="10" stroke-width="0"/><rect fill="#cc7878" stroke="none" x="257.46022727272725" y="342.1142857142857" width="29.136363636363626" height="0"/><path fill="none" stroke="white" paint-order="fill stroke markers" d=" M 257.46022727272725 342.1142857142857 L 286.5965909090909 342.1142857142857 L 286.5965909090909 342.1142857142857 L 257.46022727272725 342.1142857142857 L 257.46022727272725 342.1142857142857 Z" stroke-linejoin="bevel" stroke-miterlimit="10" stroke-width="0"/><rect fill="#cc7878" stroke="none" x="293.8806818181818" y="317.1428571428571" width="29.136363636363626" height="0"/><path fill="none" stroke="white" paint-order="fill stroke markers" d=" M 293.8806818181818 317.1428571428571 L 323.01704545454544 317.1428571428571 L 323.01704545454544 317.1428571428571 L 293.8806818181818 317.1428571428571 L 293.8806818181818 317.1428571428571 Z" stroke-linejoin="bevel" stroke-miterlimit="10" stroke-width="0"/><rect fill="#cc7878" stroke="none" x="330.30113636363626" y="292.1714285714286" width="29.13636363636374" height="0"/><path fill="none" stroke="white" paint-order="fill stroke markers" d=" M 330.30113636363626 292.1714285714286 L 359.4375 292.1714285714286 L 359.4375 292.1714285714286 L 330.30113636363626 292.1714285714286 L 330.30113636363626 292.1714285714286 Z" stroke-linejoin="bevel" stroke-miterlimit="10" stroke-width="0"/><rect fill="#cc7878" stroke="none" x="366.7215909090909" y="267.2" width="29.136363636363626" height="0"/><path fill="none" stroke="white" paint-order="fill stroke markers" d=" M 366.7215909090909 267.2 L 395.8579545454545 267.2 L 395.8579545454545 267.2 L 366.7215909090909 267.2 L 366.7215909090909 267.2 Z" stroke-linejoin="bevel" stroke-miterlimit="10" stroke-width="0"/><rect fill="#cc7878" stroke="none" x="403.1420454545454" y="256.03296735491074" width="29.136363636363626" height="0"/><path fill="none" stroke="white" paint-order="fill stroke markers" d=" M 403.1420454545454 256.03296735491074 L 432.278409090909 256.03296735491074 L 432.278409090909 256.03296735491074 L 403.1420454545454 256.03296735491074 L 403.1420454545454 256.03296735491074 Z" stroke-linejoin="bevel" stroke-miterlimit="10" stroke-width="0"/><rect fill="#cc7878" stroke="none" x="439.56249999999994" y="236.9001953125" width="29.136363636363626" height="14.429779017857157"/><path fill="none" stroke="white" paint-order="fill stroke markers" d=" M 439.56249999999994 236.9001953125 L 468.69886363636357 236.9001953125 L 468.69886363636357 251.32997433035715 L 439.56249999999994 251.32997433035715 L 439.56249999999994 236.9001953125 Z" stroke-linejoin="bevel" stroke-miterlimit="10" stroke-width="0"/><rect fill="#cc7878" stroke="none" x="475.9829545454545" y="211.91657366071428" width="29.136363636363626" height="44.19833119419644"/><path fill="none" stroke="white" paint-order="fill stroke markers" d=" M 475.9829545454545 211.91657366071428 L 505.11931818181813 211.91657366071428 L 505.11931818181813 256.1149048549107 L 475.9829545454545 256.1149048549107 L 475.9829545454545 211.91657366071428 Z" stroke-linejoin="bevel" stroke-miterlimit="10" stroke-width="0"/><rect fill="#cc7878" stroke="none" x="512.403409090909" y="187.0304966517857" width="29.136363636363512" height="52.64362444196428"/><path fill="none" stroke="white" paint-order="fill stroke markers" d=" M 512.403409090909 187.0304966517857 L 541.5397727272725 187.0304966517857 L 541.5397727272725 239.67412109375 L 512.403409090909 239.67412109375 L 512.403409090909 187.0304966517857 Z" stroke-linejoin="bevel" stroke-miterlimit="10" stroke-width="0"/><rect fill="#cc7878" stroke="none" x="548.8238636363635" y="175.63017989676337" width="29.13636363636374" height="52.67410714285717"/><path fill="none" stroke="white" paint-order="fill stroke markers" d=" M 548.8238636363635 175.63017989676337 L 577.9602272727273 175.63017989676337 L 577.9602272727273 228.30428703962053 L 548.8238636363635 228.30428703962053 L 548.8238636363635 175.63017989676337 Z" stroke-linejoin="bevel" stroke-miterlimit="10" stroke-width="0"/><rect fill="#cc7878" stroke="none" x="585.244318181818" y="175.6261866629464" width="29.13636363636374" height="52.625334821428595"/><path fill="none" stroke="white" paint-order="fill stroke markers" d=" M 585.244318181818 175.6261866629464 L 614.3806818181818 175.6261866629464 L 614.3806818181818 228.251521484375 L 585.244318181818 228.251521484375 L 585.244318181818 175.6261866629464 Z" stroke-linejoin="bevel" stroke-miterlimit="10" stroke-width="0"/><rect fill="#cc7878" stroke="none" x="621.6647727272727" y="162.4736328125" width="29.136363636363512" height="52.66191406249999"/><path fill="none" stroke="white" paint-order="fill stroke markers" d=" M 621.6647727272727 162.4736328125 L 650.8011363636363 162.4736328125 L 650.8011363636363 215.135546875 L 621.6647727272727 215.135546875 L 621.6647727272727 162.4736328125 Z" stroke-linejoin="bevel" stroke-miterlimit="10" stroke-width="0"/><rect fill="#cc7878" stroke="none" x="658.0852272727273" y="156.5071623186384" width="29.136363636363512" height="52.67410714285714"/><path fill="none" stroke="white" paint-order="fill stroke markers" d=" M 658.0852272727273 156.5071623186384 L 687.2215909090908 156.5071623186384 L 687.2215909090908 209.18126946149553 L 658.0852272727273 209.18126946149553 L 658.0852272727273 156.5071623186384 Z" stroke-linejoin="bevel" stroke-miterlimit="10" stroke-width="0"/></g><g><path fill="none" stroke="none"/><rect fill="#933b41" stroke="none" x="111.77840909090907" y="442" width="29.136363636363654" height="0"/><path fill="none" stroke="white" paint-order="fill stroke markers" d=" M 111.77840909090907 442 L 140.91477272727272 442 L 140.91477272727272 442 L 111.77840909090907 442 L 111.77840909090907 442 Z" stroke-linejoin="bevel" stroke-miterlimit="10" stroke-width="0"/><rect fill="#933b41" stroke="none" x="148.19886363636363" y="417.0285714285714" width="29.136363636363626" height="0"/><path fill="none" stroke="white" paint-order="fill stroke markers" d=" M 148.19886363636363 417.0285714285714 L 177.33522727272725 417.0285714285714 L 177.33522727272725 417.0285714285714 L 148.19886363636363 417.0285714285714 L 148.19886363636363 417.0285714285714 Z" stroke-linejoin="bevel" stroke-miterlimit="10" stroke-width="0"/><rect fill="#933b41" stroke="none" x="184.61931818181816" y="392.0571428571429" width="29.136363636363626" height="0"/><path fill="none" stroke="white" paint-order="fill stroke markers" d=" M 184.61931818181816 392.0571428571429 L 213.75568181818178 392.0571428571429 L 213.75568181818178 392.0571428571429 L 184.61931818181816 392.0571428571429 L 184.61931818181816 392.0571428571429 Z" stroke-linejoin="bevel" stroke-miterlimit="10" stroke-width="0"/><rect fill="#933b41" stroke="none" x="221.0397727272727" y="367.0857142857143" width="29.136363636363626" height="0"/><path fill="none" stroke="white" paint-order="fill stroke markers" d=" M 221.0397727272727 367.0857142857143 L 250.17613636363632 367.0857142857143 L 250.17613636363632 367.0857142857143 L 221.0397727272727 367.0857142857143 L 221.0397727272727 367.0857142857143 Z" stroke-linejoin="bevel" stroke-miterlimit="10" stroke-width="0"/><rect fill="#933b41" stroke="none" x="257.46022727272725" y="342.1142857142857" width="29.136363636363626" height="0"/><path fill="none" stroke="white" paint-order="fill stroke markers" d=" M 257.46022727272725 342.1142857142857 L 286.5965909090909 342.1142857142857 L 286.5965909090909 342.1142857142857 L 257.46022727272725 342.1142857142857 L 257.46022727272725 342.1142857142857 Z" stroke-linejoin="bevel" stroke-miterlimit="10" stroke-width="0"/><rect fill="#933b41" stroke="none" x="293.8806818181818" y="317.1428571428571" width="29.136363636363626" height="0"/><path fill="none" stroke="white" paint-order="fill stroke markers" d=" M 293.8806818181818 317.1428571428571 L 323.01704545454544 317.1428571428571 L 323.01704545454544 317.1428571428571 L 293.8806818181818 317.1428571428571 L 293.8806818181818 317.1428571428571 Z" stroke-linejoin="bevel" stroke-miterlimit="10" stroke-width="0"/><rect fill="#933b41" stroke="none" x="330.30113636363626" y="292.1714285714286" width="29.13636363636374" height="0"/><path fill="none" stroke="white" paint-order="fill stroke markers" d=" M 330.30113636363626 292.1714285714286 L 359.4375 292.1714285714286 L 359.4375 292.1714285714286 L 330.30113636363626 292.1714285714286 L 330.30113636363626 292.1714285714286 Z" stroke-linejoin="bevel" stroke-miterlimit="10" stroke-width="0"/><rect fill="#933b41" stroke="none" x="366.7215909090909" y="267.2" width="29.136363636363626" height="0"/><path fill="none" stroke="white" paint-order="fill stroke markers" d=" M 366.7215909090909 267.2 L 395.8579545454545 267.2 L 395.8579545454545 267.2 L 366.7215909090909 267.2 L 366.7215909090909 267.2 Z" stroke-linejoin="bevel" stroke-miterlimit="10" stroke-width="0"/><rect fill="#933b41" stroke="none" x="403.1420454545454" y="256.03296735491074" width="29.136363636363626" height="0"/><path fill="none" stroke="white" paint-order="fill stroke markers" d=" M 403.1420454545454 256.03296735491074 L 432.278409090909 256.03296735491074 L 432.278409090909 256.03296735491074 L 403.1420454545454 256.03296735491074 L 403.1420454545454 256.03296735491074 Z" stroke-linejoin="bevel" stroke-miterlimit="10" stroke-width="0"/><rect fill="#933b41" stroke="none" x="439.56249999999994" y="236.9001953125" width="29.136363636363626" height="0"/><path fill="none" stroke="white" paint-order="fill stroke markers" d=" M 439.56249999999994 236.9001953125 L 468.69886363636357 236.9001953125 L 468.69886363636357 236.9001953125 L 439.56249999999994 236.9001953125 L 439.56249999999994 236.9001953125 Z" stroke-linejoin="bevel" stroke-miterlimit="10" stroke-width="0"/><rect fill="#933b41" stroke="none" x="475.9829545454545" y="211.91657366071428" width="29.136363636363626" height="0"/><path fill="none" stroke="white" paint-order="fill stroke markers" d=" M 475.9829545454545 211.91657366071428 L 505.11931818181813 211.91657366071428 L 505.11931818181813 211.91657366071428 L 475.9829545454545 211.91657366071428 L 475.9829545454545 211.91657366071428 Z" stroke-linejoin="bevel" stroke-miterlimit="10" stroke-width="0"/><rect fill="#933b41" stroke="none" x="512.403409090909" y="187.0304966517857" width="29.136363636363512" height="0"/><path fill="none" stroke="white" paint-order="fill stroke markers" d=" M 512.403409090909 187.0304966517857 L 541.5397727272725 187.0304966517857 L 541.5397727272725 187.0304966517857 L 512.403409090909 187.0304966517857 L 512.403409090909 187.0304966517857 Z" stroke-linejoin="bevel" stroke-miterlimit="10" stroke-width="0"/><rect fill="#933b41" stroke="none" x="548.8238636363635" y="162.0224888392857" width="29.13636363636374" height="13.607691057477666"/><path fill="none" stroke="white" paint-order="fill stroke markers" d=" M 548.8238636363635 162.0224888392857 L 577.9602272727273 162.0224888392857 L 577.9602272727273 175.63017989676337 L 548.8238636363635 175.63017989676337 L 548.8238636363635 162.0224888392857 Z" stroke-linejoin="bevel" stroke-miterlimit="10" stroke-width="0"/><rect fill="#933b41" stroke="none" x="585.244318181818" y="137.02667410714287" width="29.13636363636374" height="38.59951255580353"/><path fill="none" stroke="white" paint-order="fill stroke markers" d=" M 585.244318181818 137.02667410714287 L 614.3806818181818 137.02667410714287 L 614.3806818181818 175.6261866629464 L 585.244318181818 175.6261866629464 L 585.244318181818 137.02667410714287 Z" stroke-linejoin="bevel" stroke-miterlimit="10" stroke-width="0"/><rect fill="#933b41" stroke="none" x="621.6647727272727" y="112.1162109375" width="29.136363636363512" height="50.357421875"/><path fill="none" stroke="white" paint-order="fill stroke markers" d=" M 621.6647727272727 112.1162109375 L 650.8011363636363 112.1162109375 L 650.8011363636363 162.4736328125 L 621.6647727272727 162.4736328125 L 621.6647727272727 112.1162109375 Z" stroke-linejoin="bevel" stroke-miterlimit="10" stroke-width="0"/><rect fill="#933b41" stroke="none" x="658.0852272727273" y="114.98158482142856" width="29.136363636363512" height="41.52557749720984"/><path fill="none" stroke="white" paint-order="fill stroke markers" d=" M 658.0852272727273 114.98158482142856 L 687.2215909090908 114.98158482142856 L 687.2215909090908 156.5071623186384 L 658.0852272727273 156.5071623186384 L 658.0852272727273 114.98158482142856 Z" stroke-linejoin="bevel" stroke-miterlimit="10" stroke-width="0"/></g><g><path fill="none" stroke="none"/><rect fill="#550b1d" stroke="none" x="111.77840909090907" y="442" width="29.136363636363654" height="0"/><path fill="none" stroke="white" paint-order="fill stroke markers" d=" M 111.77840909090907 442 L 140.91477272727272 442 L 140.91477272727272 442 L 111.77840909090907 442 L 111.77840909090907 442 Z" stroke-linejoin="bevel" stroke-miterlimit="10" stroke-width="0"/><rect fill="#550b1d" stroke="none" x="148.19886363636363" y="417.0285714285714" width="29.136363636363626" height="0"/><path fill="none" stroke="white" paint-order="fill stroke markers" d=" M 148.19886363636363 417.0285714285714 L 177.33522727272725 417.0285714285714 L 177.33522727272725 417.0285714285714 L 148.19886363636363 417.0285714285714 L 148.19886363636363 417.0285714285714 Z" stroke-linejoin="bevel" stroke-miterlimit="10" stroke-width="0"/><rect fill="#550b1d" stroke="none" x="184.61931818181816" y="392.0571428571429" width="29.136363636363626" height="0"/><path fill="none" stroke="white" paint-order="fill stroke markers" d=" M 184.61931818181816 392.0571428571429 L 213.75568181818178 392.0571428571429 L 213.75568181818178 392.0571428571429 L 184.61931818181816 392.0571428571429 L 184.61931818181816 392.0571428571429 Z" stroke-linejoin="bevel" stroke-miterlimit="10" stroke-width="0"/><rect fill="#550b1d" stroke="none" x="221.0397727272727" y="367.0857142857143" width="29.136363636363626" height="0"/><path fill="none" stroke="white" paint-order="fill stroke markers" d=" M 221.0397727272727 367.0857142857143 L 250.17613636363632 367.0857142857143 L 250.17613636363632 367.0857142857143 L 221.0397727272727 367.0857142857143 L 221.0397727272727 367.0857142857143 Z" stroke-linejoin="bevel" stroke-miterlimit="10" stroke-width="0"/><rect fill="#550b1d" stroke="none" x="257.46022727272725" y="342.1142857142857" width="29.136363636363626" height="0"/><path fill="none" stroke="white" paint-order="fill stroke markers" d=" M 257.46022727272725 342.1142857142857 L 286.5965909090909 342.1142857142857 L 286.5965909090909 342.1142857142857 L 257.46022727272725 342.1142857142857 L 257.46022727272725 342.1142857142857 Z" stroke-linejoin="bevel" stroke-miterlimit="10" stroke-width="0"/><rect fill="#550b1d" stroke="none" x="293.8806818181818" y="317.1428571428571" width="29.136363636363626" height="0"/><path fill="none" stroke="white" paint-order="fill stroke markers" d=" M 293.8806818181818 317.1428571428571 L 323.01704545454544 317.1428571428571 L 323.01704545454544 317.1428571428571 L 293.8806818181818 317.1428571428571 L 293.8806818181818 317.1428571428571 Z" stroke-linejoin="bevel" stroke-miterlimit="10" stroke-width="0"/><rect fill="#550b1d" stroke="none" x="330.30113636363626" y="292.1714285714286" width="29.13636363636374" height="0"/><path fill="none" stroke="white" paint-order="fill stroke markers" d=" M 330.30113636363626 292.1714285714286 L 359.4375 292.1714285714286 L 359.4375 292.1714285714286 L 330.30113636363626 292.1714285714286 L 330.30113636363626 292.1714285714286 Z" stroke-linejoin="bevel" stroke-miterlimit="10" stroke-width="0"/><rect fill="#550b1d" stroke="none" x="366.7215909090909" y="267.2" width="29.136363636363626" height="0"/><path fill="none" stroke="white" paint-order="fill stroke markers" d=" M 366.7215909090909 267.2 L 395.8579545454545 267.2 L 395.8579545454545 267.2 L 366.7215909090909 267.2 L 366.7215909090909 267.2 Z" stroke-linejoin="bevel" stroke-miterlimit="10" stroke-width="0"/><rect fill="#550b1d" stroke="none" x="403.1420454545454" y="242.22857142857143" width="29.136363636363626" height="13.80439592633931"/><path fill="none" stroke="white" paint-order="fill stroke markers" d=" M 403.1420454545454 242.22857142857143 L 432.278409090909 242.22857142857143 L 432.278409090909 256.03296735491074 L 403.1420454545454 256.03296735491074 L 403.1420454545454 242.22857142857143 Z" stroke-linejoin="bevel" stroke-miterlimit="10" stroke-width="0"/><rect fill="#550b1d" stroke="none" x="439.56249999999994" y="217.25714285714284" width="29.136363636363626" height="19.64305245535715"/><path fill="none" stroke="white" paint-order="fill stroke markers" d=" M 439.56249999999994 217.25714285714284 L 468.69886363636357 217.25714285714284 L 468.69886363636357 236.9001953125 L 439.56249999999994 236.9001953125 L 439.56249999999994 217.25714285714284 Z" stroke-linejoin="bevel" stroke-miterlimit="10" stroke-width="0"/><rect fill="#550b1d" stroke="none" x="475.9829545454545" y="192.28571428571428" width="29.136363636363626" height="19.630859375"/><path fill="none" stroke="white" paint-order="fill stroke markers" d=" M 475.9829545454545 192.28571428571428 L 505.11931818181813 192.28571428571428 L 505.11931818181813 211.91657366071428 L 475.9829545454545 211.91657366071428 L 475.9829545454545 192.28571428571428 Z" stroke-linejoin="bevel" stroke-miterlimit="10" stroke-width="0"/><rect fill="#550b1d" stroke="none" x="512.403409090909" y="167.3142857142857" width="29.136363636363512" height="19.716210937500023"/><path fill="none" stroke="white" paint-order="fill stroke markers" d=" M 512.403409090909 167.3142857142857 L 541.5397727272725 167.3142857142857 L 541.5397727272725 187.0304966517857 L 512.403409090909 187.0304966517857 L 512.403409090909 167.3142857142857 Z" stroke-linejoin="bevel" stroke-miterlimit="10" stroke-width="0"/><rect fill="#550b1d" stroke="none" x="548.8238636363635" y="142.34285714285716" width="29.13636363636374" height="19.679631696428544"/><path fill="none" stroke="white" paint-order="fill stroke markers" d=" M 548.8238636363635 142.34285714285716 L 577.9602272727273 142.34285714285716 L 577.9602272727273 162.0224888392857 L 548.8238636363635 162.0224888392857 L 548.8238636363635 142.34285714285716 Z" stroke-linejoin="bevel" stroke-miterlimit="10" stroke-width="0"/><rect fill="#550b1d" stroke="none" x="585.244318181818" y="117.37142857142857" width="29.13636363636374" height="19.6552455357143"/><path fill="none" stroke="white" paint-order="fill stroke markers" d=" M 585.244318181818 117.37142857142857 L 614.3806818181818 117.37142857142857 L 614.3806818181818 137.02667410714287 L 585.244318181818 137.02667410714287 L 585.244318181818 117.37142857142857 Z" stroke-linejoin="bevel" stroke-miterlimit="10" stroke-width="0"/><rect fill="#550b1d" stroke="none" x="621.6647727272727" y="92.39999999999998" width="29.136363636363512" height="19.716210937500023"/><path fill="none" stroke="white" paint-order="fill stroke markers" d=" M 621.6647727272727 92.39999999999998 L 650.8011363636363 92.39999999999998 L 650.8011363636363 112.1162109375 L 621.6647727272727 112.1162109375 L 621.6647727272727 92.39999999999998 Z" stroke-linejoin="bevel" stroke-miterlimit="10" stroke-width="0"/><rect fill="#550b1d" stroke="none" x="658.0852272727273" y="67.42857142857144" width="29.136363636363512" height="47.55301339285711"/><path fill="none" stroke="white" paint-order="fill stroke markers" d=" M 658.0852272727273 67.42857142857144 L 687.2215909090908 67.42857142857144 L 687.2215909090908 114.98158482142856 L 658.0852272727273 114.98158482142856 L 658.0852272727273 67.42857142857144 Z" stroke-linejoin="bevel" stroke-miterlimit="10" stroke-width="0"/></g></g></g><g clip-path="url(#OvTkpCwmoCUh)"><g><g/><g><path fill="#ffffff" stroke="#e5e5e5" paint-order="fill stroke markers" d=" M 89 15 L 811 15 L 811 55 L 89 55 L 89 15 Z" fill-opacity="0.95" stroke-linejoin="bevel" stroke-miterlimit="10" stroke-opacity="0.5"/><text fill="#444444" stroke="none" font-family="helvetica" font-size="10pt" font-style="normal" font-weight="normal" text-decoration="normal" x="124" y="35" text-anchor="start" dominant-baseline="central">edge_10</text><rect fill="#0D3331" stroke="none" x="101" y="27" width="16" height="16"/><path fill="none" stroke="white" paint-order="fill stroke markers" d=" M 101 27 L 117 27 L 117 43 L 101 43 L 101 27 Z" stroke-linejoin="bevel" stroke-miterlimit="10" stroke-width="0"/><text fill="#444444" stroke="none" font-family="helvetica" font-size="10pt" font-style="normal" font-weight="normal" text-decoration="normal" x="202.53125" y="35" text-anchor="start" dominant-baseline="central">F0_1</text><rect fill="darkslategray" stroke="none" x="179.53125" y="27" width="16" height="16"/><path fill="none" stroke="white" paint-order="fill stroke markers" d=" M 179.53125 27 L 195.53125 27 L 195.53125 43 L 179.53125 43 L 179.53125 27 Z" stroke-linejoin="bevel" stroke-miterlimit="10" stroke-width="0"/><text fill="#444444" stroke="none" font-family="helvetica" font-size="10pt" font-style="normal" font-weight="normal" text-decoration="normal" x="260.125" y="35" text-anchor="start" dominant-baseline="central">F1_9</text><rect fill="#75968f" stroke="none" x="237.125" y="27" width="16" height="16"/><path fill="none" stroke="white" paint-order="fill stroke markers" d=" M 237.125 27 L 253.125 27 L 253.125 43 L 237.125 43 L 237.125 27 Z" stroke-linejoin="bevel" stroke-miterlimit="10" stroke-width="0"/><text fill="#444444" stroke="none" font-family="helvetica" font-size="10pt" font-style="normal" font-weight="normal" text-decoration="normal" x="317.71875" y="35" text-anchor="start" dominant-baseline="central">F2_2</text><rect fill="#a5bab7" stroke="none" x="294.71875" y="27" width="16" height="16"/><path fill="none" stroke="white" paint-order="fill stroke markers" d=" M 294.71875 27 L 310.71875 27 L 310.71875 43 L 294.71875 43 L 294.71875 27 Z" stroke-linejoin="bevel" stroke-miterlimit="10" stroke-width="0"/><text fill="#444444" stroke="none" font-family="helvetica" font-size="10pt" font-style="normal" font-weight="normal" text-decoration="normal" x="375.3125" y="35" text-anchor="start" dominant-baseline="central">F3_27</text><rect fill="#c9d9d3" stroke="none" x="352.3125" y="27" width="16" height="16"/><path fill="none" stroke="white" paint-order="fill stroke markers" d=" M 352.3125 27 L 368.3125 27 L 368.3125 43 L 352.3125 43 L 352.3125 27 Z" stroke-linejoin="bevel" stroke-miterlimit="10" stroke-width="0"/><text fill="#444444" stroke="none" font-family="helvetica" font-size="10pt" font-style="normal" font-weight="normal" text-decoration="normal" x="440.125" y="35" text-anchor="start" dominant-baseline="central">F4_41</text><rect fill="#e2e2e2" stroke="none" x="417.125" y="27" width="16" height="16"/><path fill="none" stroke="white" paint-order="fill stroke markers" d=" M 417.125 27 L 433.125 27 L 433.125 43 L 417.125 43 L 417.125 27 Z" stroke-linejoin="bevel" stroke-miterlimit="10" stroke-width="0"/><text fill="#444444" stroke="none" font-family="helvetica" font-size="10pt" font-style="normal" font-weight="normal" text-decoration="normal" x="504.9375" y="35" text-anchor="start" dominant-baseline="central">F5_26</text><rect fill="#dfccce" stroke="none" x="481.9375" y="27" width="16" height="16"/><path fill="none" stroke="white" paint-order="fill stroke markers" d=" M 481.9375 27 L 497.9375 27 L 497.9375 43 L 481.9375 43 L 481.9375 27 Z" stroke-linejoin="bevel" stroke-miterlimit="10" stroke-width="0"/><text fill="#444444" stroke="none" font-family="helvetica" font-size="10pt" font-style="normal" font-weight="normal" text-decoration="normal" x="569.75" y="35" text-anchor="start" dominant-baseline="central">F6_81</text><rect fill="#ddb7b1" stroke="none" x="546.75" y="27" width="16" height="16"/><path fill="none" stroke="white" paint-order="fill stroke markers" d=" M 546.75 27 L 562.75 27 L 562.75 43 L 546.75 43 L 546.75 27 Z" stroke-linejoin="bevel" stroke-miterlimit="10" stroke-width="0"/><text fill="#444444" stroke="none" font-family="helvetica" font-size="10pt" font-style="normal" font-weight="normal" text-decoration="normal" x="634.5625" y="35" text-anchor="start" dominant-baseline="central">F7_85</text><rect fill="#cc7878" stroke="none" x="611.5625" y="27" width="16" height="16"/><path fill="none" stroke="white" paint-order="fill stroke markers" d=" M 611.5625 27 L 627.5625 27 L 627.5625 43 L 611.5625 43 L 611.5625 27 Z" stroke-linejoin="bevel" stroke-miterlimit="10" stroke-width="0"/><text fill="#444444" stroke="none" font-family="helvetica" font-size="10pt" font-style="normal" font-weight="normal" text-decoration="normal" x="699.375" y="35" text-anchor="start" dominant-baseline="central">F8_88</text><rect fill="#933b41" stroke="none" x="676.375" y="27" width="16" height="16"/><path fill="none" stroke="white" paint-order="fill stroke markers" d=" M 676.375 27 L 692.375 27 L 692.375 43 L 676.375 43 L 676.375 27 Z" stroke-linejoin="bevel" stroke-miterlimit="10" stroke-width="0"/><text fill="#444444" stroke="none" font-family="helvetica" font-size="10pt" font-style="normal" font-weight="normal" text-decoration="normal" x="764.1875" y="35" text-anchor="start" dominant-baseline="central">F9_99</text><rect fill="#550b1d" stroke="none" x="741.1875" y="27" width="16" height="16"/><path fill="none" stroke="white" paint-order="fill stroke markers" d=" M 741.1875 27 L 757.1875 27 L 757.1875 43 L 741.1875 43 L 741.1875 27 Z" stroke-linejoin="bevel" stroke-miterlimit="10" stroke-width="0"/></g></g></g><g><g fill="#444444"><path fill="none" stroke="black" paint-order="fill stroke markers" d=" M 79 442 L 720 442" stroke-linejoin="bevel" stroke-miterlimit="10"/><path fill="none" stroke="black" paint-order="fill stroke markers" d=" M 126 448 L 126 440" stroke-linejoin="bevel" stroke-miterlimit="10"/><path fill="none" stroke="black" paint-order="fill stroke markers" d=" M 163 448 L 163 440" stroke-linejoin="bevel" stroke-miterlimit="10"/><path fill="none" stroke="black" paint-order="fill stroke markers" d=" M 199 448 L 199 440" stroke-linejoin="bevel" stroke-miterlimit="10"/><path fill="none" stroke="black" paint-order="fill stroke markers" d=" M 236 448 L 236 440" stroke-linejoin="bevel" stroke-miterlimit="10"/><path fill="none" stroke="black" paint-order="fill stroke markers" d=" M 272 448 L 272 440" stroke-linejoin="bevel" stroke-miterlimit="10"/><path fill="none" stroke="black" paint-order="fill stroke markers" d=" M 308 448 L 308 440" stroke-linejoin="bevel" stroke-miterlimit="10"/><path fill="none" stroke="black" paint-order="fill stroke markers" d=" M 345 448 L 345 440" stroke-linejoin="bevel" stroke-miterlimit="10"/><path fill="none" stroke="black" paint-order="fill stroke markers" d=" M 381 448 L 381 440" stroke-linejoin="bevel" stroke-miterlimit="10"/><path fill="none" stroke="black" paint-order="fill stroke markers" d=" M 418 448 L 418 440" stroke-linejoin="bevel" stroke-miterlimit="10"/><path fill="none" stroke="black" paint-order="fill stroke markers" d=" M 454 448 L 454 440" stroke-linejoin="bevel" stroke-miterlimit="10"/><path fill="none" stroke="black" paint-order="fill stroke markers" d=" M 491 448 L 491 440" stroke-linejoin="bevel" stroke-miterlimit="10"/><path fill="none" stroke="black" paint-order="fill stroke markers" d=" M 527 448 L 527 440" stroke-linejoin="bevel" stroke-miterlimit="10"/><path fill="none" stroke="black" paint-order="fill stroke markers" d=" M 563 448 L 563 440" stroke-linejoin="bevel" stroke-miterlimit="10"/><path fill="none" stroke="black" paint-order="fill stroke markers" d=" M 600 448 L 600 440" stroke-linejoin="bevel" stroke-miterlimit="10"/><path fill="none" stroke="black" paint-order="fill stroke markers" d=" M 636 448 L 636 440" stroke-linejoin="bevel" stroke-miterlimit="10"/><path fill="" stroke="black" paint-order="fill stroke markers" d=" M 673 448 L 673 440" stroke-linejoin="bevel" stroke-miterlimit="10"/><g transform="translate(126,453) rotate(0,0,0)"><text fill="" stroke="none" font-family="helvetica" font-size="11pt" font-style="normal" font-weight="normal" text-decoration="normal" x="0" y="0" text-anchor="middle" dominant-baseline="hanging">0</text><g transform="rotate(0,0,0) translate(-126,-453) translate(163,453) rotate(0,0,0)"><text fill="" stroke="none" font-family="helvetica" font-size="11pt" font-style="normal" font-weight="normal" text-decoration="normal" x="0" y="0" text-anchor="middle" dominant-baseline="hanging">200</text><g transform="rotate(0,0,0) translate(-163,-453) translate(199,453) rotate(0,0,0)"><text fill="" stroke="none" font-family="helvetica" font-size="11pt" font-style="normal" font-weight="normal" text-decoration="normal" x="0" y="0" text-anchor="middle" dominant-baseline="hanging">400</text><g transform="rotate(0,0,0) translate(-199,-453) translate(236,453) rotate(0,0,0)"><text fill="" stroke="none" font-family="helvetica" font-size="11pt" font-style="normal" font-weight="normal" text-decoration="normal" x="0" y="0" text-anchor="middle" dominant-baseline="hanging">600</text><g transform="rotate(0,0,0) translate(-236,-453) translate(272,453) rotate(0,0,0)"><text fill="" stroke="none" font-family="helvetica" font-size="11pt" font-style="normal" font-weight="normal" text-decoration="normal" x="0" y="0" text-anchor="middle" dominant-baseline="hanging">800</text><g transform="rotate(0,0,0) translate(-272,-453) translate(308,453) rotate(0,0,0)"><text fill="" stroke="none" font-family="helvetica" font-size="11pt" font-style="normal" font-weight="normal" text-decoration="normal" x="0" y="0" text-anchor="middle" dominant-baseline="hanging">1000</text><g transform="rotate(0,0,0) translate(-308,-453) translate(345,453) rotate(0,0,0)"><text fill="" stroke="none" font-family="helvetica" font-size="11pt" font-style="normal" font-weight="normal" text-decoration="normal" x="0" y="0" text-anchor="middle" dominant-baseline="hanging">1200</text><g transform="rotate(0,0,0) translate(-345,-453) translate(381,453) rotate(0,0,0)"><text fill="" stroke="none" font-family="helvetica" font-size="11pt" font-style="normal" font-weight="normal" text-decoration="normal" x="0" y="0" text-anchor="middle" dominant-baseline="hanging">1400</text><g transform="rotate(0,0,0) translate(-381,-453) translate(418,453) rotate(0,0,0)"><text fill="" stroke="none" font-family="helvetica" font-size="11pt" font-style="normal" font-weight="normal" text-decoration="normal" x="0" y="0" text-anchor="middle" dominant-baseline="hanging">1600</text><g transform="rotate(0,0,0) translate(-418,-453) translate(454,453) rotate(0,0,0)"><text fill="" stroke="none" font-family="helvetica" font-size="11pt" font-style="normal" font-weight="normal" text-decoration="normal" x="0" y="0" text-anchor="middle" dominant-baseline="hanging">1800</text><g transform="rotate(0,0,0) translate(-454,-453) translate(491,453) rotate(0,0,0)"><text fill="" stroke="none" font-family="helvetica" font-size="11pt" font-style="normal" font-weight="normal" text-decoration="normal" x="0" y="0" text-anchor="middle" dominant-baseline="hanging">2000</text><g transform="rotate(0,0,0) translate(-491,-453) translate(527,453) rotate(0,0,0)"><text fill="" stroke="none" font-family="helvetica" font-size="11pt" font-style="normal" font-weight="normal" text-decoration="normal" x="0" y="0" text-anchor="middle" dominant-baseline="hanging">2200</text><g transform="rotate(0,0,0) translate(-527,-453) translate(563,453) rotate(0,0,0)"><text fill="" stroke="none" font-family="helvetica" font-size="11pt" font-style="normal" font-weight="normal" text-decoration="normal" x="0" y="0" text-anchor="middle" dominant-baseline="hanging">2400</text><g transform="rotate(0,0,0) translate(-563,-453) translate(600,453) rotate(0,0,0)"><text fill="" stroke="none" font-family="helvetica" font-size="11pt" font-style="normal" font-weight="normal" text-decoration="normal" x="0" y="0" text-anchor="middle" dominant-baseline="hanging">2600</text><g transform="rotate(0,0,0) translate(-600,-453) translate(636,453) rotate(0,0,0)"><text fill="" stroke="none" font-family="helvetica" font-size="11pt" font-style="normal" font-weight="normal" text-decoration="normal" x="0" y="0" text-anchor="middle" dominant-baseline="hanging">2800</text><g transform="rotate(0,0,0) translate(-636,-453) translate(673,453) rotate(0,0,0)"><text fill="" stroke="none" font-family="helvetica" font-size="11pt" font-style="normal" font-weight="normal" text-decoration="normal" x="0" y="0" text-anchor="middle" dominant-baseline="hanging">3000</text><g transform="rotate(0,0,0) translate(-673,-453) translate(400,476) rotate(0,0,0)"><text fill="" stroke="none" font-family="helvetica" font-size="15pt" font-style="italic" font-weight="normal" text-decoration="normal" x="0" y="0" text-anchor="middle" dominant-baseline="hanging">Araival Traffic</text><g transform="rotate(0,0,0) translate(-400,-476)"/></g></g></g></g></g></g></g></g></g></g></g></g></g></g></g></g></g></g><g fill="#444444"><path fill="none" stroke="black" paint-order="fill stroke markers" d=" M 79 442 L 79 5" stroke-linejoin="bevel" stroke-miterlimit="10"/><path fill="none" stroke="black" paint-order="fill stroke markers" d=" M 73 442 L 81 442" stroke-linejoin="bevel" stroke-miterlimit="10"/><path fill="none" stroke="black" paint-order="fill stroke markers" d=" M 73 380 L 81 380" stroke-linejoin="bevel" stroke-miterlimit="10"/><path fill="none" stroke="black" paint-order="fill stroke markers" d=" M 73 317 L 81 317" stroke-linejoin="bevel" stroke-miterlimit="10"/><path fill="none" stroke="black" paint-order="fill stroke markers" d=" M 73 255 L 81 255" stroke-linejoin="bevel" stroke-miterlimit="10"/><path fill="none" stroke="black" paint-order="fill stroke markers" d=" M 73 192 L 81 192" stroke-linejoin="bevel" stroke-miterlimit="10"/><path fill="none" stroke="black" paint-order="fill stroke markers" d=" M 73 130 L 81 130" stroke-linejoin="bevel" stroke-miterlimit="10"/><path fill="none" stroke="black" paint-order="fill stroke markers" d=" M 73 67 L 81 67" stroke-linejoin="bevel" stroke-miterlimit="10"/><path fill="" stroke="black" paint-order="fill stroke markers" d=" M 73 5 L 81 5" stroke-linejoin="bevel" stroke-miterlimit="10"/><g transform="translate(68,442) rotate(0,0,0)"><text fill="" stroke="none" font-family="helvetica" font-size="12pt" font-style="normal" font-weight="normal" text-decoration="normal" x="0" y="0" text-anchor="end" dominant-baseline="central">0</text><g transform="rotate(0,0,0) translate(-68,-442) translate(68,380) rotate(0,0,0)"><text fill="" stroke="none" font-family="helvetica" font-size="12pt" font-style="normal" font-weight="normal" text-decoration="normal" x="0" y="0" text-anchor="end" dominant-baseline="central">500</text><g transform="rotate(0,0,0) translate(-68,-380) translate(68,317) rotate(0,0,0)"><text fill="" stroke="none" font-family="helvetica" font-size="12pt" font-style="normal" font-weight="normal" text-decoration="normal" x="0" y="0" text-anchor="end" dominant-baseline="central">1000</text><g transform="rotate(0,0,0) translate(-68,-317) translate(68,255) rotate(0,0,0)"><text fill="" stroke="none" font-family="helvetica" font-size="12pt" font-style="normal" font-weight="normal" text-decoration="normal" x="0" y="0" text-anchor="end" dominant-baseline="central">1500</text><g transform="rotate(0,0,0) translate(-68,-255) translate(68,192) rotate(0,0,0)"><text fill="" stroke="none" font-family="helvetica" font-size="12pt" font-style="normal" font-weight="normal" text-decoration="normal" x="0" y="0" text-anchor="end" dominant-baseline="central">2000</text><g transform="rotate(0,0,0) translate(-68,-192) translate(68,130) rotate(0,0,0)"><text fill="" stroke="none" font-family="helvetica" font-size="12pt" font-style="normal" font-weight="normal" text-decoration="normal" x="0" y="0" text-anchor="end" dominant-baseline="central">2500</text><g transform="rotate(0,0,0) translate(-68,-130) translate(68,67) rotate(0,0,0)"><text fill="" stroke="none" font-family="helvetica" font-size="12pt" font-style="normal" font-weight="normal" text-decoration="normal" x="0" y="0" text-anchor="end" dominant-baseline="central">3000</text><g transform="rotate(0,0,0) translate(-68,-67) translate(68,5) rotate(0,0,0)"><text fill="" stroke="none" font-family="helvetica" font-size="12pt" font-style="normal" font-weight="normal" text-decoration="normal" x="0" y="0" text-anchor="end" dominant-baseline="central">3500</text><g transform="rotate(0,0,0) translate(-68,-5) translate(24,224) rotate(-90,0,0)"><text fill="" stroke="none" font-family="helvetica" font-size="15pt" font-style="italic" font-weight="normal" text-decoration="normal" x="0" y="0" text-anchor="middle" dominant-baseline="alphabetic">Traffic Distribution</text><g transform="rotate(90,0,0) translate(-24,-224)"/></g></g></g></g></g></g></g></g></g></g></g></g></g></svg>