<svg version="1.1" xmlns="http://www.w3.org/2000/svg" xmlns:xlink="http://www.w3.org/1999/xlink" width="750" height="500" style="width: 750px; height: 500px;"><defs><clipPath id="GiINTCiDdntH"><path fill="none" stroke="none" d=" M 55 5 L 720 5 L 720 452 L 55 452 L 55 5 Z"/></clipPath><clipPath id="AevAGNdNuuwc"><path fill="none" stroke="none" d=" M 55 5 L 720 5 L 720 452 L 55 452 L 55 5 Z"/></clipPath></defs><g><g transform="scale(1,1) translate(0.5,0.5)"><rect fill="#FFFFFF" stroke="none" x="0" y="0" width="750" height="500"/><rect fill="#ffffff" stroke="none" x="0" y="0" width="750" height="500"/><rect fill="#FFFFFF" stroke="none" x="55" y="5" width="665" height="447"/><rect fill="#ffffff" stroke="none" x="55" y="5" width="665" height="447"/><g><rect fill="none" stroke="#e5e5e5" x="55" y="5" width="665" height="447" stroke-linejoin="bevel" stroke-miterlimit="10"/></g><g clip-path="url(#GiINTCiDdntH)"><g><g><path fill="none" stroke="#e5e5e5" paint-order="fill stroke markers" d=" M 69 452 L 69 5" stroke-linejoin="bevel" stroke-miterlimit="10"/><path fill="none" stroke="#e5e5e5" paint-order="fill stroke markers" d=" M 228 452 L 228 5" stroke-linejoin="bevel" stroke-miterlimit="10"/><path fill="none" stroke="#e5e5e5" paint-order="fill stroke markers" d=" M 388 452 L 388 5" stroke-linejoin="bevel" stroke-miterlimit="10"/><path fill="none" stroke="#e5e5e5" paint-order="fill stroke markers" d=" M 547 452 L 547 5" stroke-linejoin="bevel" stroke-miterlimit="10"/><path fill="none" stroke="#e5e5e5" paint-order="fill stroke markers" d=" M 706 452 L 706 5" stroke-linejoin="bevel" stroke-miterlimit="10"/></g><g><path fill="none" stroke="#e5e5e5" paint-order="fill stroke markers" d=" M 55 432 L 720 432" stroke-linejoin="bevel" stroke-miterlimit="10"/><path fill="none" stroke="#e5e5e5" paint-order="fill stroke markers" d=" M 55 330 L 720 330" stroke-linejoin="bevel" stroke-miterlimit="10"/><path fill="none" stroke="#e5e5e5" paint-order="fill stroke markers" d=" M 55 228 L 720 228" stroke-linejoin="bevel" stroke-miterlimit="10"/><path fill="none" stroke="#e5e5e5" paint-order="fill stroke markers" d=" M 55 127 L 720 127" stroke-linejoin="bevel" stroke-miterlimit="10"/><path fill="none" stroke="#e5e5e5" paint-order="fill stroke markers" d=" M 55 25 L 720 25" stroke-linejoin="bevel" stroke-miterlimit="10"/></g><g><path fill="none" stroke="none"/><path fill="none" stroke="#1f77b4" paint-order="fill stroke markers" d=" M 85.2272727272727 25.318181818181756 L 101.13636363636363 25.318181818181756 L 117.04545454545453 25.318181818181756 L 132.95454545454544 25.318181818181756 L 148.86363636363635 285.5940909090908 L 164.77272727272725 305.9122727272727 L 180.68181818181816 309.4679545454545 L 196.59090909090907 313.42999999999995 L 212.5 316.3761363636363 L 228.40909090909088 317.1888636363636 L 244.3181818181818 313.7347727272727 L 260.2272727272727 314.75068181818176 L 276.1363636363636 317.9 L 292.0454545454545 317.79840909090905 L 307.95454545454544 312.10931818181814 L 323.8636363636364 313.22681818181815 L 339.77272727272725 312.9220454545454 L 355.6818181818182 311.49977272727267 L 371.59090909090907 309.97590909090906 L 387.5 311.49977272727267 L 403.40909090909093 308.5536363636363 L 419.31818181818187 305.50590909090903 L 435.2272727272727 305.50590909090903 L 451.1363636363636 305.50590909090903 L 467.04545454545456 307.74090909090904 L 482.9545454545455 306.3186363636363 L 498.8636363636364 302.25499999999994 L 514.7727272727273 302.25499999999994 L 530.6818181818181 307.3345454545454 L 546.590909090909 307.3345454545454 L 562.5 309.77272727272725 L 578.4090909090909 309.6711363636363 L 594.3181818181818 309.3663636363636 L 610.2272727272726 306.1154545454545 L 626.1363636363636 306.1154545454545 L 642.0454545454545 306.1154545454545 L 657.9545454545454 306.1154545454545 L 673.8636363636363 306.01386363636357 L 689.7727272727273 305.81068181818176" stroke-linejoin="bevel" stroke-miterlimit="10" stroke-width="2"/></g><g><path fill="none" stroke="none"/><path fill="none" stroke="dodgerblue" paint-order="fill stroke markers" d=" M 85.2272727272727 25.318181818181756 L 101.13636363636363 25.318181818181756 L 117.04545454545453 25.318181818181756 L 132.95454545454544 25.318181818181756 L 148.86363636363635 431.68181818181813 L 164.77272727272725 431.68181818181813 L 180.68181818181816 431.68181818181813 L 196.59090909090907 431.68181818181813 L 212.5 431.68181818181813 L 228.40909090909088 431.68181818181813 L 244.3181818181818 431.68181818181813 L 260.2272727272727 431.68181818181813 L 276.1363636363636 431.68181818181813 L 292.0454545454545 431.68181818181813 L 307.95454545454544 431.68181818181813 L 323.8636363636364 431.68181818181813 L 339.77272727272725 431.68181818181813 L 355.6818181818182 431.68181818181813 L 371.59090909090907 431.68181818181813 L 387.5 431.68181818181813 L 403.40909090909093 431.68181818181813 L 419.31818181818187 431.68181818181813 L 435.2272727272727 431.68181818181813 L 451.1363636363636 431.68181818181813 L 467.04545454545456 431.68181818181813 L 482.9545454545455 431.68181818181813 L 498.8636363636364 431.68181818181813 L 514.7727272727273 431.68181818181813 L 530.6818181818181 431.68181818181813 L 546.590909090909 431.68181818181813 L 562.5 431.68181818181813 L 578.4090909090909 431.68181818181813 L 594.3181818181818 431.68181818181813 L 610.2272727272726 431.68181818181813 L 626.1363636363636 431.68181818181813 L 642.0454545454545 431.68181818181813 L 657.9545454545454 431.68181818181813 L 673.8636363636363 431.68181818181813 L 689.7727272727273 431.68181818181813" stroke-linejoin="bevel" stroke-miterlimit="10" stroke-width="2" stroke-dasharray="4,4"/></g><g><path fill="none" stroke="none"/><path fill="none" stroke="deepskyblue" paint-order="fill stroke markers" d=" M 85.2272727272727 431.68181818181813 L 101.13636363636363 431.68181818181813 L 117.04545454545453 431.68181818181813 L 132.95454545454544 431.68181818181813 L 148.86363636363635 285.5940909090908 L 164.77272727272725 305.9122727272727 L 180.68181818181816 309.4679545454545 L 196.59090909090907 313.42999999999995 L 212.5 316.3761363636363 L 228.40909090909088 317.1888636363636 L 244.3181818181818 313.7347727272727 L 260.2272727272727 314.75068181818176 L 276.1363636363636 317.9 L 292.0454545454545 317.79840909090905 L 307.95454545454544 312.10931818181814 L 323.8636363636364 313.22681818181815 L 339.77272727272725 312.9220454545454 L 355.6818181818182 311.49977272727267 L 371.59090909090907 309.97590909090906 L 387.5 311.49977272727267 L 403.40909090909093 308.5536363636363 L 419.31818181818187 305.50590909090903 L 435.2272727272727 305.50590909090903 L 451.1363636363636 305.50590909090903 L 467.04545454545456 307.74090909090904 L 482.9545454545455 306.3186363636363 L 498.8636363636364 302.25499999999994 L 514.7727272727273 302.25499999999994 L 530.6818181818181 307.3345454545454 L 546.590909090909 307.3345454545454 L 562.5 309.77272727272725 L 578.4090909090909 309.6711363636363 L 594.3181818181818 309.3663636363636 L 610.2272727272726 306.1154545454545 L 626.1363636363636 306.1154545454545 L 642.0454545454545 306.1154545454545 L 657.9545454545454 306.1154545454545 L 673.8636363636363 306.01386363636357 L 689.7727272727273 305.81068181818176" stroke-linejoin="bevel" stroke-miterlimit="10" stroke-width="2" stroke-dasharray="4,4"/></g></g></g><g clip-path="url(#AevAGNdNuuwc)"><g><g/><g><path fill="#ffffff" stroke="#e5e5e5" paint-order="fill stroke markers" d=" M 65 15 L 143.921875 15 L 143.921875 101 L 65 101 L 65 15 Z" fill-opacity="0.95" stroke-linejoin="bevel" stroke-miterlimit="10" stroke-opacity="0.5"/><text fill="#444444" stroke="none" font-family="helvetica" font-size="10pt" font-style="normal" font-weight="normal" text-decoration="normal" x="100" y="35" text-anchor="start" dominant-baseline="central">Total.</text><g><path fill="none" stroke="#1f77b4" paint-order="fill stroke markers" d=" M 75 35 L 95 35" stroke-linejoin="bevel" stroke-miterlimit="10" stroke-width="2"/></g><text fill="#444444" stroke="none" font-family="helvetica" font-size="10pt" font-style="normal" font-weight="normal" text-decoration="normal" x="100" y="58" text-anchor="start" dominant-baseline="central">Edge.</text><g><path fill="none" stroke="dodgerblue" paint-order="fill stroke markers" d=" M 75 58 L 95 58" stroke-linejoin="bevel" stroke-miterlimit="10" stroke-width="2" stroke-dasharray="4,4"/></g><text fill="#444444" stroke="none" font-family="helvetica" font-size="10pt" font-style="normal" font-weight="normal" text-decoration="normal" x="100" y="81" text-anchor="start" dominant-baseline="central">Fog.</text><g><path fill="none" stroke="deepskyblue" paint-order="fill stroke markers" d=" M 75 81 L 95 81" stroke-linejoin="bevel" stroke-miterlimit="10" stroke-width="2" stroke-dasharray="4,4"/></g></g></g></g><g><g fill="#444444"><path fill="none" stroke="black" paint-order="fill stroke markers" d=" M 55 452 L 720 452" stroke-linejoin="bevel" stroke-miterlimit="10"/><path fill="none" stroke="black" paint-order="fill stroke markers" d=" M 69 458 L 69 450" stroke-linejoin="bevel" stroke-miterlimit="10"/><path fill="none" stroke="black" paint-order="fill stroke markers" d=" M 228 458 L 228 450" stroke-linejoin="bevel" stroke-miterlimit="10"/><path fill="none" stroke="black" paint-order="fill stroke markers" d=" M 388 458 L 388 450" stroke-linejoin="bevel" stroke-miterlimit="10"/><path fill="none" stroke="black" paint-order="fill stroke markers" d=" M 547 458 L 547 450" stroke-linejoin="bevel" stroke-miterlimit="10"/><path fill="none" stroke="black" paint-order="fill stroke markers" d=" M 706 458 L 706 450" stroke-linejoin="bevel" stroke-miterlimit="10"/><path fill="none" stroke="black" paint-order="fill stroke markers" d=" M 69 456 L 69 452" stroke-linejoin="bevel" stroke-miterlimit="10"/><path fill="none" stroke="black" paint-order="fill stroke markers" d=" M 101 456 L 101 452" stroke-linejoin="bevel" stroke-miterlimit="10"/><path fill="none" stroke="black" paint-order="fill stroke markers" d=" M 133 456 L 133 452" stroke-linejoin="bevel" stroke-miterlimit="10"/><path fill="none" stroke="black" paint-order="fill stroke markers" d=" M 165 456 L 165 452" stroke-linejoin="bevel" stroke-miterlimit="10"/><path fill="none" stroke="black" paint-order="fill stroke markers" d=" M 197 456 L 197 452" stroke-linejoin="bevel" stroke-miterlimit="10"/><path fill="none" stroke="black" paint-order="fill stroke markers" d=" M 228 456 L 228 452" stroke-linejoin="bevel" stroke-miterlimit="10"/><path fill="none" stroke="black" paint-order="fill stroke markers" d=" M 260 456 L 260 452" stroke-linejoin="bevel" stroke-miterlimit="10"/><path fill="none" stroke="black" paint-order="fill stroke markers" d=" M 292 456 L 292 452" stroke-linejoin="bevel" stroke-miterlimit="10"/><path fill="none" stroke="black" paint-order="fill stroke markers" d=" M 324 456 L 324 452" stroke-linejoin="bevel" stroke-miterlimit="10"/><path fill="none" stroke="black" paint-order="fill stroke markers" d=" M 356 456 L 356 452" stroke-linejoin="bevel" stroke-miterlimit="10"/><path fill="none" stroke="black" paint-order="fill stroke markers" d=" M 388 456 L 388 452" stroke-linejoin="bevel" stroke-miterlimit="10"/><path fill="none" stroke="black" paint-order="fill stroke markers" d=" M 419 456 L 419 452" stroke-linejoin="bevel" stroke-miterlimit="10"/><path fill="none" stroke="black" paint-order="fill stroke markers" d=" M 451 456 L 451 452" stroke-linejoin="bevel" stroke-miterlimit="10"/><path fill="none" stroke="black" paint-order="fill stroke markers" d=" M 483 456 L 483 452" stroke-linejoin="bevel" stroke-miterlimit="10"/><path fill="none" stroke="black" paint-order="fill stroke markers" d=" M 515 456 L 515 452" stroke-linejoin="bevel" stroke-miterlimit="10"/><path fill="none" stroke="black" paint-order="fill stroke markers" d=" M 547 456 L 547 452" stroke-linejoin="bevel" stroke-miterlimit="10"/><path fill="none" stroke="black" paint-order="fill stroke markers" d=" M 578 456 L 578 452" stroke-linejoin="bevel" stroke-miterlimit="10"/><path fill="none" stroke="black" paint-order="fill stroke markers" d=" M 610 456 L 610 452" stroke-linejoin="bevel" stroke-miterlimit="10"/><path fill="none" stroke="black" paint-order="fill stroke markers" d=" M 642 456 L 642 452" stroke-linejoin="bevel" stroke-miterlimit="10"/><path fill="none" stroke="black" paint-order="fill stroke markers" d=" M 674 456 L 674 452" stroke-linejoin="bevel" stroke-miterlimit="10"/><path fill="" stroke="black" paint-order="fill stroke markers" d=" M 706 456 L 706 452" stroke-linejoin="bevel" stroke-miterlimit="10"/><g transform="translate(69,463) rotate(0,0,0)"><text fill="" stroke="none" font-family="helvetica" font-size="8pt" font-style="normal" font-weight="normal" text-decoration="normal" x="0" y="0" text-anchor="middle" dominant-baseline="hanging">0</text><g transform="rotate(0,0,0) translate(-69,-463) translate(228,463) rotate(0,0,0)"><text fill="" stroke="none" font-family="helvetica" font-size="8pt" font-style="normal" font-weight="normal" text-decoration="normal" x="0" y="0" text-anchor="middle" dominant-baseline="hanging">0.5</text><g transform="rotate(0,0,0) translate(-228,-463) translate(388,463) rotate(0,0,0)"><text fill="" stroke="none" font-family="helvetica" font-size="8pt" font-style="normal" font-weight="normal" text-decoration="normal" x="0" y="0" text-anchor="middle" dominant-baseline="hanging">1</text><g transform="rotate(0,0,0) translate(-388,-463) translate(547,463) rotate(0,0,0)"><text fill="" stroke="none" font-family="helvetica" font-size="8pt" font-style="normal" font-weight="normal" text-decoration="normal" x="0" y="0" text-anchor="middle" dominant-baseline="hanging">1.5</text><g transform="rotate(0,0,0) translate(-547,-463) translate(706,463) rotate(0,0,0)"><text fill="" stroke="none" font-family="helvetica" font-size="8pt" font-style="normal" font-weight="normal" text-decoration="normal" x="0" y="0" text-anchor="middle" dominant-baseline="hanging">2</text><g transform="rotate(0,0,0) translate(-706,-463) translate(388,481) rotate(0,0,0)"><text fill="" stroke="none" font-family="helvetica" font-size="12pt" font-style="italic" font-weight="normal" text-decoration="normal" x="0" y="0" text-anchor="middle" dominant-baseline="hanging">Max latency</text><g transform="rotate(0,0,0) translate(-388,-481)"/></g></g></g></g></g></g></g><g fill="#444444"><path fill="none" stroke="black" paint-order="fill stroke markers" d=" M 55 452 L 55 5" stroke-linejoin="bevel" stroke-miterlimit="10"/><path fill="none" stroke="black" paint-order="fill stroke markers" d=" M 49 432 L 57 432" stroke-linejoin="bevel" stroke-miterlimit="10"/><path fill="none" stroke="black" paint-order="fill stroke markers" d=" M 49 330 L 57 330" stroke-linejoin="bevel" stroke-miterlimit="10"/><path fill="none" stroke="black" paint-order="fill stroke markers" d=" M 49 228 L 57 228" stroke-linejoin="bevel" stroke-miterlimit="10"/><path fill="none" stroke="black" paint-order="fill stroke markers" d=" M 49 127 L 57 127" stroke-linejoin="bevel" stroke-miterlimit="10"/><path fill="none" stroke="black" paint-order="fill stroke markers" d=" M 49 25 L 57 25" stroke-linejoin="bevel" stroke-miterlimit="10"/><path fill="none" stroke="black" paint-order="fill stroke markers" d=" M 51 452 L 55 452" stroke-linejoin="bevel" stroke-miterlimit="10"/><path fill="none" stroke="black" paint-order="fill stroke markers" d=" M 51 432 L 55 432" stroke-linejoin="bevel" stroke-miterlimit="10"/><path fill="none" stroke="black" paint-order="fill stroke markers" d=" M 51 411 L 55 411" stroke-linejoin="bevel" stroke-miterlimit="10"/><path fill="none" stroke="black" paint-order="fill stroke markers" d=" M 51 391 L 55 391" stroke-linejoin="bevel" stroke-miterlimit="10"/><path fill="none" stroke="black" paint-order="fill stroke markers" d=" M 51 371 L 55 371" stroke-linejoin="bevel" stroke-miterlimit="10"/><path fill="none" stroke="black" paint-order="fill stroke markers" d=" M 51 350 L 55 350" stroke-linejoin="bevel" stroke-miterlimit="10"/><path fill="none" stroke="black" paint-order="fill stroke markers" d=" M 51 330 L 55 330" stroke-linejoin="bevel" stroke-miterlimit="10"/><path fill="none" stroke="black" paint-order="fill stroke markers" d=" M 51 310 L 55 310" stroke-linejoin="bevel" stroke-miterlimit="10"/><path fill="none" stroke="black" paint-order="fill stroke markers" d=" M 51 289 L 55 289" stroke-linejoin="bevel" stroke-miterlimit="10"/><path fill="none" stroke="black" paint-order="fill stroke markers" d=" M 51 269 L 55 269" stroke-linejoin="bevel" stroke-miterlimit="10"/><path fill="none" stroke="black" paint-order="fill stroke markers" d=" M 51 249 L 55 249" stroke-linejoin="bevel" stroke-miterlimit="10"/><path fill="none" stroke="black" paint-order="fill stroke markers" d=" M 51 228 L 55 228" stroke-linejoin="bevel" stroke-miterlimit="10"/><path fill="none" stroke="black" paint-order="fill stroke markers" d=" M 51 208 L 55 208" stroke-linejoin="bevel" stroke-miterlimit="10"/><path fill="none" stroke="black" paint-order="fill stroke markers" d=" M 51 188 L 55 188" stroke-linejoin="bevel" stroke-miterlimit="10"/><path fill="none" stroke="black" paint-order="fill stroke markers" d=" M 51 168 L 55 168" stroke-linejoin="bevel" stroke-miterlimit="10"/><path fill="none" stroke="black" paint-order="fill stroke markers" d=" M 51 147 L 55 147" stroke-linejoin="bevel" stroke-miterlimit="10"/><path fill="none" stroke="black" paint-order="fill stroke markers" d=" M 51 127 L 55 127" stroke-linejoin="bevel" stroke-miterlimit="10"/><path fill="none" stroke="black" paint-order="fill stroke markers" d=" M 51 107 L 55 107" stroke-linejoin="bevel" stroke-miterlimit="10"/><path fill="none" stroke="black" paint-order="fill stroke markers" d=" M 51 86 L 55 86" stroke-linejoin="bevel" stroke-miterlimit="10"/><path fill="none" stroke="black" paint-order="fill stroke markers" d=" M 51 66 L 55 66" stroke-linejoin="bevel" stroke-miterlimit="10"/><path fill="none" stroke="black" paint-order="fill stroke markers" d=" M 51 46 L 55 46" stroke-linejoin="bevel" stroke-miterlimit="10"/><path fill="none" stroke="black" paint-order="fill stroke markers" d=" M 51 25 L 55 25" stroke-linejoin="bevel" stroke-miterlimit="10"/><path fill="" stroke="black" paint-order="fill stroke markers" d=" M 51 5 L 55 5" stroke-linejoin="bevel" stroke-miterlimit="10"/><g transform="translate(44,432) rotate(0,0,0)"><text fill="" stroke="none" font-family="helvetica" font-size="8pt" font-style="normal" font-weight="normal" text-decoration="normal" x="0" y="0" text-anchor="end" dominant-baseline="central">0</text><g transform="rotate(0,0,0) translate(-44,-432) translate(44,330) rotate(0,0,0)"><text fill="" stroke="none" font-family="helvetica" font-size="8pt" font-style="normal" font-weight="normal" text-decoration="normal" x="0" y="0" text-anchor="end" dominant-baseline="central">100</text><g transform="rotate(0,0,0) translate(-44,-330) translate(44,228) rotate(0,0,0)"><text fill="" stroke="none" font-family="helvetica" font-size="8pt" font-style="normal" font-weight="normal" text-decoration="normal" x="0" y="0" text-anchor="end" dominant-baseline="central">200</text><g transform="rotate(0,0,0) translate(-44,-228) translate(44,127) rotate(0,0,0)"><text fill="" stroke="none" font-family="helvetica" font-size="8pt" font-style="normal" font-weight="normal" text-decoration="normal" x="0" y="0" text-anchor="end" dominant-baseline="central">300</text><g transform="rotate(0,0,0) translate(-44,-127) translate(44,25) rotate(0,0,0)"><text fill="" stroke="none" font-family="helvetica" font-size="8pt" font-style="normal" font-weight="normal" text-decoration="normal" x="0" y="0" text-anchor="end" dominant-baseline="central">400</text><g transform="rotate(0,0,0) translate(-44,-25) translate(19,229) rotate(-90,0,0)"><text fill="" stroke="none" font-family="helvetica" font-size="12pt" font-style="italic" font-weight="normal" text-decoration="normal" x="0" y="0" text-anchor="middle" dominant-baseline="alphabetic">Cost</text><g transform="rotate(90,0,0) translate(-19,-229)"/></g></g></g></g></g></g></g></g></g></g></svg>