<svg version="1.1" xmlns="http://www.w3.org/2000/svg" xmlns:xlink="http://www.w3.org/1999/xlink" width="600" height="400" style="width: 600px; height: 400px;"><defs><clipPath id="TVxJTvpgrmxe"><path fill="none" stroke="none" d=" M 69 5 L 570 5 L 570 341 L 69 341 L 69 5 Z"/></clipPath><clipPath id="taLIszMTCOPk"><path fill="none" stroke="none" d=" M 69 5 L 570 5 L 570 341 L 69 341 L 69 5 Z"/></clipPath></defs><g><g transform="scale(1,1) translate(0.5,0.5)"><rect fill="#FFFFFF" stroke="none" x="0" y="0" width="600" height="400"/><rect fill="#ffffff" stroke="none" x="0" y="0" width="600" height="400"/><rect fill="#FFFFFF" stroke="none" x="69" y="5" width="501" height="336"/><rect fill="#ffffff" stroke="none" x="69" y="5" width="501" height="336"/><g><rect fill="none" stroke="#e5e5e5" x="69" y="5" width="501" height="336" stroke-linejoin="bevel" stroke-miterlimit="10"/></g><g clip-path="url(#TVxJTvpgrmxe)"><g><g><path fill="none" stroke="#e5e5e5" paint-order="fill stroke markers" d=" M 80 341 L 80 5" stroke-linejoin="bevel" stroke-miterlimit="10"/><path fill="none" stroke="#e5e5e5" paint-order="fill stroke markers" d=" M 200 341 L 200 5" stroke-linejoin="bevel" stroke-miterlimit="10"/><path fill="none" stroke="#e5e5e5" paint-order="fill stroke markers" d=" M 320 341 L 320 5" stroke-linejoin="bevel" stroke-miterlimit="10"/><path fill="none" stroke="#e5e5e5" paint-order="fill stroke markers" d=" M 439 341 L 439 5" stroke-linejoin="bevel" stroke-miterlimit="10"/><path fill="none" stroke="#e5e5e5" paint-order="fill stroke markers" d=" M 559 341 L 559 5" stroke-linejoin="bevel" stroke-miterlimit="10"/></g><g><path fill="none" stroke="#e5e5e5" paint-order="fill stroke markers" d=" M 69 326 L 570 326" stroke-linejoin="bevel" stroke-miterlimit="10"/><path fill="none" stroke="#e5e5e5" paint-order="fill stroke markers" d=" M 69 249 L 570 249" stroke-linejoin="bevel" stroke-miterlimit="10"/><path fill="none" stroke="#e5e5e5" paint-order="fill stroke markers" d=" M 69 173 L 570 173" stroke-linejoin="bevel" stroke-miterlimit="10"/><path fill="none" stroke="#e5e5e5" paint-order="fill stroke markers" d=" M 69 97 L 570 97" stroke-linejoin="bevel" stroke-miterlimit="10"/><path fill="none" stroke="#e5e5e5" paint-order="fill stroke markers" d=" M 69 20 L 570 20" stroke-linejoin="bevel" stroke-miterlimit="10"/></g><g><path fill="none" stroke="none"/><path fill="none" stroke="#1f77b4" paint-order="fill stroke markers" d=" M 91.77272727272725 20.272727272727195 L 103.7583732057416 20.272727272727195 L 115.74401913875596 20.272727272727195 L 127.72966507177031 20.272727272727195 L 139.71531100478467 264.4836363636363 L 151.70095693779902 268.6072727272727 L 163.68660287081337 269.6763636363636 L 175.67224880382776 271.8145454545454 L 187.65789473684208 271.8145454545454 L 199.64354066985646 270.8981818181818 L 211.62918660287082 271.9672727272727 L 223.61483253588514 271.9672727272727 L 235.60047846889952 269.52363636363634 L 247.58612440191385 269.52363636363634 L 259.57177033492826 269.37090909090904 L 271.5574162679426 268.45454545454544 L 283.5430622009569 268.1490909090909 L 295.5287081339713 268.1490909090909 L 307.5143540669857 267.84363636363634 L 319.5 267.69090909090903 L 331.4856459330143 267.69090909090903 L 343.47129186602876 267.69090909090903 L 355.4569377990431 267.69090909090903 L 367.4425837320574 267.69090909090903 L 379.42822966507174 267.69090909090903 L 391.4138755980862 267.69090909090903 L 403.3995215311005 267.69090909090903 L 415.38516746411483 267.69090909090903 L 427.37081339712915 271.66181818181815 L 439.3564593301436 271.66181818181815 L 451.3421052631579 271.5090909090909 L 463.32775119617224 272.11999999999995 L 475.31339712918657 272.11999999999995 L 487.299043062201 272.11999999999995 L 499.28468899521533 271.2036363636363 L 511.27033492822966 271.2036363636363 L 523.2559808612441 270.8981818181818 L 535.2416267942584 271.2036363636363 L 547.2272727272727 271.2036363636363" stroke-linejoin="bevel" stroke-miterlimit="10" stroke-width="4"/></g><g><path fill="none" stroke="none"/><path fill="none" stroke="dodgerblue" paint-order="fill stroke markers" d=" M 91.77272727272725 20.272727272727195 L 103.7583732057416 20.272727272727195 L 115.74401913875596 20.272727272727195 L 127.72966507177031 20.272727272727195 L 139.71531100478467 325.7272727272727 L 151.70095693779902 325.7272727272727 L 163.68660287081337 325.7272727272727 L 175.67224880382776 325.7272727272727 L 187.65789473684208 325.7272727272727 L 199.64354066985646 325.7272727272727 L 211.62918660287082 325.7272727272727 L 223.61483253588514 325.7272727272727 L 235.60047846889952 325.7272727272727 L 247.58612440191385 325.7272727272727 L 259.57177033492826 325.7272727272727 L 271.5574162679426 325.7272727272727 L 283.5430622009569 325.7272727272727 L 295.5287081339713 325.7272727272727 L 307.5143540669857 325.7272727272727 L 319.5 325.7272727272727 L 331.4856459330143 325.7272727272727 L 343.47129186602876 325.7272727272727 L 355.4569377990431 325.7272727272727 L 367.4425837320574 325.7272727272727 L 379.42822966507174 325.7272727272727 L 391.4138755980862 325.7272727272727 L 403.3995215311005 325.7272727272727 L 415.38516746411483 325.7272727272727 L 427.37081339712915 325.7272727272727 L 439.3564593301436 325.7272727272727 L 451.3421052631579 325.7272727272727 L 463.32775119617224 325.7272727272727 L 475.31339712918657 325.7272727272727 L 487.299043062201 325.7272727272727 L 499.28468899521533 325.7272727272727 L 511.27033492822966 325.7272727272727 L 523.2559808612441 325.7272727272727 L 535.2416267942584 325.7272727272727 L 547.2272727272727 325.7272727272727" stroke-linejoin="bevel" stroke-miterlimit="10" stroke-width="4" stroke-dasharray="2,4"/></g><g><path fill="none" stroke="none"/><path fill="none" stroke="deepskyblue" paint-order="fill stroke markers" d=" M 91.77272727272725 325.7272727272727 L 103.7583732057416 325.7272727272727 L 115.74401913875596 325.7272727272727 L 127.72966507177031 325.7272727272727 L 139.71531100478467 264.4836363636363 L 151.70095693779902 268.6072727272727 L 163.68660287081337 269.6763636363636 L 175.67224880382776 271.8145454545454 L 187.65789473684208 271.8145454545454 L 199.64354066985646 270.8981818181818 L 211.62918660287082 271.9672727272727 L 223.61483253588514 271.9672727272727 L 235.60047846889952 269.52363636363634 L 247.58612440191385 269.52363636363634 L 259.57177033492826 269.37090909090904 L 271.5574162679426 268.45454545454544 L 283.5430622009569 268.1490909090909 L 295.5287081339713 268.1490909090909 L 307.5143540669857 267.84363636363634 L 319.5 267.69090909090903 L 331.4856459330143 267.69090909090903 L 343.47129186602876 267.69090909090903 L 355.4569377990431 267.69090909090903 L 367.4425837320574 267.69090909090903 L 379.42822966507174 267.69090909090903 L 391.4138755980862 267.69090909090903 L 403.3995215311005 267.69090909090903 L 415.38516746411483 267.69090909090903 L 427.37081339712915 271.66181818181815 L 439.3564593301436 271.66181818181815 L 451.3421052631579 271.5090909090909 L 463.32775119617224 272.11999999999995 L 475.31339712918657 272.11999999999995 L 487.299043062201 272.11999999999995 L 499.28468899521533 271.2036363636363 L 511.27033492822966 271.2036363636363 L 523.2559808612441 270.8981818181818 L 535.2416267942584 271.2036363636363 L 547.2272727272727 271.2036363636363" stroke-linejoin="bevel" stroke-miterlimit="10" stroke-width="4" stroke-dasharray="6,4,2,4"/></g></g></g><g clip-path="url(#taLIszMTCOPk)"><g><g/><g><path fill="#ffffff" stroke="#e5e5e5" paint-order="fill stroke markers" d=" M 454.375 15 L 560 15 L 560 101 L 454.375 101 L 454.375 15 Z" fill-opacity="0.95" stroke-linejoin="bevel" stroke-miterlimit="10" stroke-opacity="0.5"/><text fill="#444444" stroke="none" font-family="helvetica" font-size="10pt" font-style="normal" font-weight="normal" text-decoration="normal" x="489.375" y="35" text-anchor="start" dominant-baseline="central">Total Cost</text><g><path fill="none" stroke="#1f77b4" paint-order="fill stroke markers" d=" M 464.375 35 L 484.375 35" stroke-linejoin="bevel" stroke-miterlimit="10" stroke-width="4"/></g><text fill="#444444" stroke="none" font-family="helvetica" font-size="10pt" font-style="normal" font-weight="normal" text-decoration="normal" x="489.375" y="58" text-anchor="start" dominant-baseline="central">Edge Cost</text><g><path fill="none" stroke="dodgerblue" paint-order="fill stroke markers" d=" M 464.375 58 L 484.375 58" stroke-linejoin="bevel" stroke-miterlimit="10" stroke-width="4" stroke-dasharray="2,4"/></g><text fill="#444444" stroke="none" font-family="helvetica" font-size="10pt" font-style="normal" font-weight="normal" text-decoration="normal" x="489.375" y="81" text-anchor="start" dominant-baseline="central">Fog Cost</text><g><path fill="none" stroke="deepskyblue" paint-order="fill stroke markers" d=" M 464.375 81 L 484.375 81" stroke-linejoin="bevel" stroke-miterlimit="10" stroke-width="4" stroke-dasharray="6,4,2,4"/></g></g></g></g><g><g fill="#444444"><path fill="none" stroke="black" paint-order="fill stroke markers" d=" M 69 341 L 570 341" stroke-linejoin="bevel" stroke-miterlimit="10"/><path fill="none" stroke="black" paint-order="fill stroke markers" d=" M 80 347 L 80 339" stroke-linejoin="bevel" stroke-miterlimit="10"/><path fill="none" stroke="black" paint-order="fill stroke markers" d=" M 200 347 L 200 339" stroke-linejoin="bevel" stroke-miterlimit="10"/><path fill="none" stroke="black" paint-order="fill stroke markers" d=" M 320 347 L 320 339" stroke-linejoin="bevel" stroke-miterlimit="10"/><path fill="none" stroke="black" paint-order="fill stroke markers" d=" M 439 347 L 439 339" stroke-linejoin="bevel" stroke-miterlimit="10"/><path fill="none" stroke="black" paint-order="fill stroke markers" d=" M 559 347 L 559 339" stroke-linejoin="bevel" stroke-miterlimit="10"/><path fill="none" stroke="black" paint-order="fill stroke markers" d=" M 80 345 L 80 341" stroke-linejoin="bevel" stroke-miterlimit="10"/><path fill="none" stroke="black" paint-order="fill stroke markers" d=" M 104 345 L 104 341" stroke-linejoin="bevel" stroke-miterlimit="10"/><path fill="none" stroke="black" paint-order="fill stroke markers" d=" M 128 345 L 128 341" stroke-linejoin="bevel" stroke-miterlimit="10"/><path fill="none" stroke="black" paint-order="fill stroke markers" d=" M 152 345 L 152 341" stroke-linejoin="bevel" stroke-miterlimit="10"/><path fill="none" stroke="black" paint-order="fill stroke markers" d=" M 176 345 L 176 341" stroke-linejoin="bevel" stroke-miterlimit="10"/><path fill="none" stroke="black" paint-order="fill stroke markers" d=" M 200 345 L 200 341" stroke-linejoin="bevel" stroke-miterlimit="10"/><path fill="none" stroke="black" paint-order="fill stroke markers" d=" M 224 345 L 224 341" stroke-linejoin="bevel" stroke-miterlimit="10"/><path fill="none" stroke="black" paint-order="fill stroke markers" d=" M 248 345 L 248 341" stroke-linejoin="bevel" stroke-miterlimit="10"/><path fill="none" stroke="black" paint-order="fill stroke markers" d=" M 272 345 L 272 341" stroke-linejoin="bevel" stroke-miterlimit="10"/><path fill="none" stroke="black" paint-order="fill stroke markers" d=" M 296 345 L 296 341" stroke-linejoin="bevel" stroke-miterlimit="10"/><path fill="none" stroke="black" paint-order="fill stroke markers" d=" M 320 345 L 320 341" stroke-linejoin="bevel" stroke-miterlimit="10"/><path fill="none" stroke="black" paint-order="fill stroke markers" d=" M 343 345 L 343 341" stroke-linejoin="bevel" stroke-miterlimit="10"/><path fill="none" stroke="black" paint-order="fill stroke markers" d=" M 367 345 L 367 341" stroke-linejoin="bevel" stroke-miterlimit="10"/><path fill="none" stroke="black" paint-order="fill stroke markers" d=" M 391 345 L 391 341" stroke-linejoin="bevel" stroke-miterlimit="10"/><path fill="none" stroke="black" paint-order="fill stroke markers" d=" M 415 345 L 415 341" stroke-linejoin="bevel" stroke-miterlimit="10"/><path fill="none" stroke="black" paint-order="fill stroke markers" d=" M 439 345 L 439 341" stroke-linejoin="bevel" stroke-miterlimit="10"/><path fill="none" stroke="black" paint-order="fill stroke markers" d=" M 463 345 L 463 341" stroke-linejoin="bevel" stroke-miterlimit="10"/><path fill="none" stroke="black" paint-order="fill stroke markers" d=" M 487 345 L 487 341" stroke-linejoin="bevel" stroke-miterlimit="10"/><path fill="none" stroke="black" paint-order="fill stroke markers" d=" M 511 345 L 511 341" stroke-linejoin="bevel" stroke-miterlimit="10"/><path fill="none" stroke="black" paint-order="fill stroke markers" d=" M 535 345 L 535 341" stroke-linejoin="bevel" stroke-miterlimit="10"/><path fill="" stroke="black" paint-order="fill stroke markers" d=" M 559 345 L 559 341" stroke-linejoin="bevel" stroke-miterlimit="10"/><g transform="translate(80,352) rotate(0,0,0)"><text fill="" stroke="none" font-family="helvetica" font-size="12pt" font-style="normal" font-weight="normal" text-decoration="normal" x="0" y="0" text-anchor="middle" dominant-baseline="hanging">0</text><g transform="rotate(0,0,0) translate(-80,-352) translate(200,352) rotate(0,0,0)"><text fill="" stroke="none" font-family="helvetica" font-size="12pt" font-style="normal" font-weight="normal" text-decoration="normal" x="0" y="0" text-anchor="middle" dominant-baseline="hanging">0.5</text><g transform="rotate(0,0,0) translate(-200,-352) translate(320,352) rotate(0,0,0)"><text fill="" stroke="none" font-family="helvetica" font-size="12pt" font-style="normal" font-weight="normal" text-decoration="normal" x="0" y="0" text-anchor="middle" dominant-baseline="hanging">1</text><g transform="rotate(0,0,0) translate(-320,-352) translate(439,352) rotate(0,0,0)"><text fill="" stroke="none" font-family="helvetica" font-size="12pt" font-style="normal" font-weight="normal" text-decoration="normal" x="0" y="0" text-anchor="middle" dominant-baseline="hanging">1.5</text><g transform="rotate(0,0,0) translate(-439,-352) translate(559,352) rotate(0,0,0)"><text fill="" stroke="none" font-family="helvetica" font-size="12pt" font-style="normal" font-weight="normal" text-decoration="normal" x="0" y="0" text-anchor="middle" dominant-baseline="hanging">2</text><g transform="rotate(0,0,0) translate(-559,-352) translate(320,376) rotate(0,0,0)"><text fill="" stroke="none" font-family="helvetica" font-size="15pt" font-style="italic" font-weight="normal" text-decoration="normal" x="0" y="0" text-anchor="middle" dominant-baseline="hanging">Max latency(sec)</text><g transform="rotate(0,0,0) translate(-320,-376)"/></g></g></g></g></g></g></g><g fill="#444444"><path fill="none" stroke="black" paint-order="fill stroke markers" d=" M 69 341 L 69 5" stroke-linejoin="bevel" stroke-miterlimit="10"/><path fill="none" stroke="black" paint-order="fill stroke markers" d=" M 63 326 L 71 326" stroke-linejoin="bevel" stroke-miterlimit="10"/><path fill="none" stroke="black" paint-order="fill stroke markers" d=" M 63 249 L 71 249" stroke-linejoin="bevel" stroke-miterlimit="10"/><path fill="none" stroke="black" paint-order="fill stroke markers" d=" M 63 173 L 71 173" stroke-linejoin="bevel" stroke-miterlimit="10"/><path fill="none" stroke="black" paint-order="fill stroke markers" d=" M 63 97 L 71 97" stroke-linejoin="bevel" stroke-miterlimit="10"/><path fill="none" stroke="black" paint-order="fill stroke markers" d=" M 63 20 L 71 20" stroke-linejoin="bevel" stroke-miterlimit="10"/><path fill="none" stroke="black" paint-order="fill stroke markers" d=" M 65 341 L 69 341" stroke-linejoin="bevel" stroke-miterlimit="10"/><path fill="none" stroke="black" paint-order="fill stroke markers" d=" M 65 326 L 69 326" stroke-linejoin="bevel" stroke-miterlimit="10"/><path fill="none" stroke="black" paint-order="fill stroke markers" d=" M 65 310 L 69 310" stroke-linejoin="bevel" stroke-miterlimit="10"/><path fill="none" stroke="black" paint-order="fill stroke markers" d=" M 65 295 L 69 295" stroke-linejoin="bevel" stroke-miterlimit="10"/><path fill="none" stroke="black" paint-order="fill stroke markers" d=" M 65 280 L 69 280" stroke-linejoin="bevel" stroke-miterlimit="10"/><path fill="none" stroke="black" paint-order="fill stroke markers" d=" M 65 265 L 69 265" stroke-linejoin="bevel" stroke-miterlimit="10"/><path fill="none" stroke="black" paint-order="fill stroke markers" d=" M 65 249 L 69 249" stroke-linejoin="bevel" stroke-miterlimit="10"/><path fill="none" stroke="black" paint-order="fill stroke markers" d=" M 65 234 L 69 234" stroke-linejoin="bevel" stroke-miterlimit="10"/><path fill="none" stroke="black" paint-order="fill stroke markers" d=" M 65 219 L 69 219" stroke-linejoin="bevel" stroke-miterlimit="10"/><path fill="none" stroke="black" paint-order="fill stroke markers" d=" M 65 204 L 69 204" stroke-linejoin="bevel" stroke-miterlimit="10"/><path fill="none" stroke="black" paint-order="fill stroke markers" d=" M 65 188 L 69 188" stroke-linejoin="bevel" stroke-miterlimit="10"/><path fill="none" stroke="black" paint-order="fill stroke markers" d=" M 65 173 L 69 173" stroke-linejoin="bevel" stroke-miterlimit="10"/><path fill="none" stroke="black" paint-order="fill stroke markers" d=" M 65 158 L 69 158" stroke-linejoin="bevel" stroke-miterlimit="10"/><path fill="none" stroke="black" paint-order="fill stroke markers" d=" M 65 142 L 69 142" stroke-linejoin="bevel" stroke-miterlimit="10"/><path fill="none" stroke="black" paint-order="fill stroke markers" d=" M 65 127 L 69 127" stroke-linejoin="bevel" stroke-miterlimit="10"/><path fill="none" stroke="black" paint-order="fill stroke markers" d=" M 65 112 L 69 112" stroke-linejoin="bevel" stroke-miterlimit="10"/><path fill="none" stroke="black" paint-order="fill stroke markers" d=" M 65 97 L 69 97" stroke-linejoin="bevel" stroke-miterlimit="10"/><path fill="none" stroke="black" paint-order="fill stroke markers" d=" M 65 81 L 69 81" stroke-linejoin="bevel" stroke-miterlimit="10"/><path fill="none" stroke="black" paint-order="fill stroke markers" d=" M 65 66 L 69 66" stroke-linejoin="bevel" stroke-miterlimit="10"/><path fill="none" stroke="black" paint-order="fill stroke markers" d=" M 65 51 L 69 51" stroke-linejoin="bevel" stroke-miterlimit="10"/><path fill="none" stroke="black" paint-order="fill stroke markers" d=" M 65 36 L 69 36" stroke-linejoin="bevel" stroke-miterlimit="10"/><path fill="none" stroke="black" paint-order="fill stroke markers" d=" M 65 20 L 69 20" stroke-linejoin="bevel" stroke-miterlimit="10"/><path fill="" stroke="black" paint-order="fill stroke markers" d=" M 65 5 L 69 5" stroke-linejoin="bevel" stroke-miterlimit="10"/><g transform="translate(58,326) rotate(0,0,0)"><text fill="" stroke="none" font-family="helvetica" font-size="12pt" font-style="normal" font-weight="normal" text-decoration="normal" x="0" y="0" text-anchor="end" dominant-baseline="central">0</text><g transform="rotate(0,0,0) translate(-58,-326) translate(58,249) rotate(0,0,0)"><text fill="" stroke="none" font-family="helvetica" font-size="12pt" font-style="normal" font-weight="normal" text-decoration="normal" x="0" y="0" text-anchor="end" dominant-baseline="central">50</text><g transform="rotate(0,0,0) translate(-58,-249) translate(58,173) rotate(0,0,0)"><text fill="" stroke="none" font-family="helvetica" font-size="12pt" font-style="normal" font-weight="normal" text-decoration="normal" x="0" y="0" text-anchor="end" dominant-baseline="central">100</text><g transform="rotate(0,0,0) translate(-58,-173) translate(58,97) rotate(0,0,0)"><text fill="" stroke="none" font-family="helvetica" font-size="12pt" font-style="normal" font-weight="normal" text-decoration="normal" x="0" y="0" text-anchor="end" dominant-baseline="central">150</text><g transform="rotate(0,0,0) translate(-58,-97) translate(58,20) rotate(0,0,0)"><text fill="" stroke="none" font-family="helvetica" font-size="12pt" font-style="normal" font-weight="normal" text-decoration="normal" x="0" y="0" text-anchor="end" dominant-baseline="central">200</text><g transform="rotate(0,0,0) translate(-58,-20) translate(24,173) rotate(-90,0,0)"><text fill="" stroke="none" font-family="helvetica" font-size="15pt" font-style="italic" font-weight="normal" text-decoration="normal" x="0" y="0" text-anchor="middle" dominant-baseline="alphabetic">Cost($)</text><g transform="rotate(90,0,0) translate(-24,-173)"/></g></g></g></g></g></g></g></g></g></g></svg>