<svg version="1.1" xmlns="http://www.w3.org/2000/svg" xmlns:xlink="http://www.w3.org/1999/xlink" width="1600" height="840" style="width: 1600px; height: 840px;"><defs><clipPath id="RLzuXWezmNXe"><path fill="none" stroke="none" d=" M 55 5 L 1570 5 L 1570 792 L 55 792 L 55 5 Z"/></clipPath><clipPath id="KQyEBMkCfMkr"><path fill="none" stroke="none" d=" M 55 5 L 1570 5 L 1570 792 L 55 792 L 55 5 Z"/></clipPath></defs><g><g transform="scale(1,1) translate(0.5,0.5)"><rect fill="#FFFFFF" stroke="none" x="0" y="0" width="1600" height="840"/><rect fill="#ffffff" stroke="none" x="0" y="0" width="1600" height="840"/><rect fill="#FFFFFF" stroke="none" x="55" y="5" width="1515" height="787"/><rect fill="#ffffff" stroke="none" x="55" y="5" width="1515" height="787"/><g><rect fill="none" stroke="#e5e5e5" x="55" y="5" width="1515" height="787" stroke-linejoin="bevel" stroke-miterlimit="10"/></g><g clip-path="url(#RLzuXWezmNXe)"><g><g><path fill="none" stroke="#e5e5e5" paint-order="fill stroke markers" d=" M 88 792 L 88 5" stroke-linejoin="bevel" stroke-miterlimit="10"/><path fill="none" stroke="#e5e5e5" paint-order="fill stroke markers" d=" M 450 792 L 450 5" stroke-linejoin="bevel" stroke-miterlimit="10"/><path fill="none" stroke="#e5e5e5" paint-order="fill stroke markers" d=" M 813 792 L 813 5" stroke-linejoin="bevel" stroke-miterlimit="10"/><path fill="none" stroke="#e5e5e5" paint-order="fill stroke markers" d=" M 1175 792 L 1175 5" stroke-linejoin="bevel" stroke-miterlimit="10"/><path fill="none" stroke="#e5e5e5" paint-order="fill stroke markers" d=" M 1537 792 L 1537 5" stroke-linejoin="bevel" stroke-miterlimit="10"/></g><g><path fill="none" stroke="#e5e5e5" paint-order="fill stroke markers" d=" M 55 756 L 1570 756" stroke-linejoin="bevel" stroke-miterlimit="10"/><path fill="none" stroke="#e5e5e5" paint-order="fill stroke markers" d=" M 55 637 L 1570 637" stroke-linejoin="bevel" stroke-miterlimit="10"/><path fill="none" stroke="#e5e5e5" paint-order="fill stroke markers" d=" M 55 518 L 1570 518" stroke-linejoin="bevel" stroke-miterlimit="10"/><path fill="none" stroke="#e5e5e5" paint-order="fill stroke markers" d=" M 55 399 L 1570 399" stroke-linejoin="bevel" stroke-miterlimit="10"/><path fill="none" stroke="#e5e5e5" paint-order="fill stroke markers" d=" M 55 279 L 1570 279" stroke-linejoin="bevel" stroke-miterlimit="10"/><path fill="none" stroke="#e5e5e5" paint-order="fill stroke markers" d=" M 55 160 L 1570 160" stroke-linejoin="bevel" stroke-miterlimit="10"/><path fill="none" stroke="#e5e5e5" paint-order="fill stroke markers" d=" M 55 41 L 1570 41" stroke-linejoin="bevel" stroke-miterlimit="10"/></g><g><path fill="none" stroke="none"/><path fill="none" stroke="#1f77b4" paint-order="fill stroke markers" d=" M 123.86363636363632 40.772727272727366 L 160.10765550239228 40.772727272727366 L 196.3516746411483 40.772727272727366 L 232.59569377990425 40.772727272727366 L 268.8397129186602 112.07969696969701 L 305.0837320574162 127.3427272727273 L 341.3277511961722 106.71378787878791 L 377.57177033492815 131.99318181818182 L 413.81578947368416 113.74909090909102 L 450.0598086124402 104.20969696969712 L 486.3038277511962 102.18257575757582 L 522.5478468899521 127.10424242424244 L 558.7918660287081 149.87954545454545 L 595.035885167464 149.40257575757585 L 631.27990430622 154.1722727272728 L 667.523923444976 176.58984848484852 L 703.7679425837321 171.22393939393942 L 740.0119617224881 151.54893939393946 L 776.255980861244 166.45424242424247 L 812.5 166.45424242424247 L 848.744019138756 152.1451515151515 L 884.988038277512 147.1369696969697 L 921.2320574162679 148.8063636363637 L 957.476076555024 148.8063636363637 L 993.72009569378 147.25621212121223 L 1029.9641148325359 153.93378787878794 L 1066.2081339712918 155.60318181818184 L 1102.4521531100477 155.60318181818184 L 1138.6961722488038 163.23469696969698 L 1174.9401913875597 163.23469696969698 L 1211.1842105263158 158.58424242424246 L 1247.4282296650717 158.58424242424246 L 1283.6722488038276 161.56530303030308 L 1319.9162679425838 165.26181818181817 L 1356.1602870813397 165.26181818181817 L 1392.4043062200958 164.904090909091 L 1428.6483253588517 163.47318181818184 L 1464.8923444976076 162.75772727272738 L 1501.1363636363637 162.4000000000001" stroke-linejoin="bevel" stroke-miterlimit="10" stroke-width="2"/></g><g><path fill="none" stroke="none"/><path fill="none" stroke="dodgerblue" paint-order="fill stroke markers" d=" M 123.86363636363632 40.772727272727366 L 160.10765550239228 40.772727272727366 L 196.3516746411483 40.772727272727366 L 232.59569377990425 40.772727272727366 L 268.8397129186602 446.19696969696975 L 305.0837320574162 446.19696969696975 L 341.3277511961722 470.04545454545456 L 377.57177033492815 541.5909090909091 L 413.81578947368416 541.5909090909091 L 450.0598086124402 613.1363636363636 L 486.3038277511962 613.1363636363636 L 522.5478468899521 636.9848484848485 L 558.7918660287081 660.8333333333334 L 595.035885167464 660.8333333333334 L 631.27990430622 660.8333333333334 L 667.523923444976 684.6818181818182 L 703.7679425837321 636.9848484848485 L 740.0119617224881 589.2878787878788 L 776.255980861244 660.8333333333334 L 812.5 660.8333333333334 L 848.744019138756 660.8333333333334 L 884.988038277512 660.8333333333334 L 921.2320574162679 684.6818181818182 L 957.476076555024 684.6818181818182 L 993.72009569378 708.530303030303 L 1029.9641148325359 732.3787878787879 L 1066.2081339712918 732.3787878787879 L 1102.4521531100477 732.3787878787879 L 1138.6961722488038 732.3787878787879 L 1174.9401913875597 732.3787878787879 L 1211.1842105263158 732.3787878787879 L 1247.4282296650717 732.3787878787879 L 1283.6722488038276 732.3787878787879 L 1319.9162679425838 732.3787878787879 L 1356.1602870813397 732.3787878787879 L 1392.4043062200958 732.3787878787879 L 1428.6483253588517 756.2272727272727 L 1464.8923444976076 756.2272727272727 L 1501.1363636363637 756.2272727272727" stroke-linejoin="bevel" stroke-miterlimit="10" stroke-width="2"/></g><g><path fill="none" stroke="none"/><path fill="none" stroke="deepskyblue" paint-order="fill stroke markers" d=" M 123.86363636363632 756.2272727272727 L 160.10765550239228 756.2272727272727 L 196.3516746411483 756.2272727272727 L 232.59569377990425 756.2272727272727 L 268.8397129186602 422.11000000000007 L 305.0837320574162 437.37303030303036 L 341.3277511961722 392.8956060606061 L 377.57177033492815 346.6295454545455 L 413.81578947368416 328.3854545454546 L 450.0598086124402 247.30060606060607 L 486.3038277511962 245.27348484848488 L 522.5478468899521 246.3466666666667 L 558.7918660287081 245.27348484848488 L 595.035885167464 244.79651515151522 L 631.27990430622 249.56621212121217 L 667.523923444976 248.13530303030302 L 703.7679425837321 290.46636363636367 L 740.0119617224881 318.48833333333334 L 776.255980861244 261.84818181818184 L 812.5 261.84818181818184 L 848.744019138756 247.53909090909093 L 884.988038277512 242.53090909090906 L 921.2320574162679 220.3518181818182 L 957.476076555024 220.3518181818182 L 993.72009569378 194.95318181818186 L 1029.9641148325359 177.7822727272727 L 1066.2081339712918 179.4516666666667 L 1102.4521531100477 179.4516666666667 L 1138.6961722488038 187.08318181818186 L 1174.9401913875597 187.08318181818186 L 1211.1842105263158 182.43272727272733 L 1247.4282296650717 182.43272727272733 L 1283.6722488038276 185.41378787878796 L 1319.9162679425838 189.11030303030304 L 1356.1602870813397 189.11030303030304 L 1392.4043062200958 188.75257575757587 L 1428.6483253588517 163.47318181818184 L 1464.8923444976076 162.75772727272738 L 1501.1363636363637 162.4000000000001" stroke-linejoin="bevel" stroke-miterlimit="10" stroke-width="2"/></g></g></g><g clip-path="url(#KQyEBMkCfMkr)"><g><g/><g><path fill="#ffffff" stroke="#e5e5e5" paint-order="fill stroke markers" d=" M 65 15 L 143.921875 15 L 143.921875 101 L 65 101 L 65 15 Z" fill-opacity="0.95" stroke-linejoin="bevel" stroke-miterlimit="10" stroke-opacity="0.5"/><text fill="#444444" stroke="none" font-family="helvetica" font-size="10pt" font-style="normal" font-weight="normal" text-decoration="normal" x="100" y="35" text-anchor="start" dominant-baseline="central">Total.</text><g><path fill="none" stroke="#1f77b4" paint-order="fill stroke markers" d=" M 75 35 L 95 35" stroke-linejoin="bevel" stroke-miterlimit="10" stroke-width="2"/></g><text fill="#444444" stroke="none" font-family="helvetica" font-size="10pt" font-style="normal" font-weight="normal" text-decoration="normal" x="100" y="58" text-anchor="start" dominant-baseline="central">Edge.</text><g><path fill="none" stroke="dodgerblue" paint-order="fill stroke markers" d=" M 75 58 L 95 58" stroke-linejoin="bevel" stroke-miterlimit="10" stroke-width="2"/></g><text fill="#444444" stroke="none" font-family="helvetica" font-size="10pt" font-style="normal" font-weight="normal" text-decoration="normal" x="100" y="81" text-anchor="start" dominant-baseline="central">Fog.</text><g><path fill="none" stroke="deepskyblue" paint-order="fill stroke markers" d=" M 75 81 L 95 81" stroke-linejoin="bevel" stroke-miterlimit="10" stroke-width="2"/></g></g></g></g><g><g fill="#444444"><path fill="none" stroke="black" paint-order="fill stroke markers" d=" M 55 792 L 1570 792" stroke-linejoin="bevel" stroke-miterlimit="10"/><path fill="none" stroke="black" paint-order="fill stroke markers" d=" M 88 798 L 88 790" stroke-linejoin="bevel" stroke-miterlimit="10"/><path fill="none" stroke="black" paint-order="fill stroke markers" d=" M 450 798 L 450 790" stroke-linejoin="bevel" stroke-miterlimit="10"/><path fill="none" stroke="black" paint-order="fill stroke markers" d=" M 813 798 L 813 790" stroke-linejoin="bevel" stroke-miterlimit="10"/><path fill="none" stroke="black" paint-order="fill stroke markers" d=" M 1175 798 L 1175 790" stroke-linejoin="bevel" stroke-miterlimit="10"/><path fill="none" stroke="black" paint-order="fill stroke markers" d=" M 1537 798 L 1537 790" stroke-linejoin="bevel" stroke-miterlimit="10"/><path fill="none" stroke="black" paint-order="fill stroke markers" d=" M 88 796 L 88 792" stroke-linejoin="bevel" stroke-miterlimit="10"/><path fill="none" stroke="black" paint-order="fill stroke markers" d=" M 160 796 L 160 792" stroke-linejoin="bevel" stroke-miterlimit="10"/><path fill="none" stroke="black" paint-order="fill stroke markers" d=" M 233 796 L 233 792" stroke-linejoin="bevel" stroke-miterlimit="10"/><path fill="none" stroke="black" paint-order="fill stroke markers" d=" M 305 796 L 305 792" stroke-linejoin="bevel" stroke-miterlimit="10"/><path fill="none" stroke="black" paint-order="fill stroke markers" d=" M 378 796 L 378 792" stroke-linejoin="bevel" stroke-miterlimit="10"/><path fill="none" stroke="black" paint-order="fill stroke markers" d=" M 450 796 L 450 792" stroke-linejoin="bevel" stroke-miterlimit="10"/><path fill="none" stroke="black" paint-order="fill stroke markers" d=" M 523 796 L 523 792" stroke-linejoin="bevel" stroke-miterlimit="10"/><path fill="none" stroke="black" paint-order="fill stroke markers" d=" M 595 796 L 595 792" stroke-linejoin="bevel" stroke-miterlimit="10"/><path fill="none" stroke="black" paint-order="fill stroke markers" d=" M 668 796 L 668 792" stroke-linejoin="bevel" stroke-miterlimit="10"/><path fill="none" stroke="black" paint-order="fill stroke markers" d=" M 740 796 L 740 792" stroke-linejoin="bevel" stroke-miterlimit="10"/><path fill="none" stroke="black" paint-order="fill stroke markers" d=" M 813 796 L 813 792" stroke-linejoin="bevel" stroke-miterlimit="10"/><path fill="none" stroke="black" paint-order="fill stroke markers" d=" M 885 796 L 885 792" stroke-linejoin="bevel" stroke-miterlimit="10"/><path fill="none" stroke="black" paint-order="fill stroke markers" d=" M 957 796 L 957 792" stroke-linejoin="bevel" stroke-miterlimit="10"/><path fill="none" stroke="black" paint-order="fill stroke markers" d=" M 1030 796 L 1030 792" stroke-linejoin="bevel" stroke-miterlimit="10"/><path fill="none" stroke="black" paint-order="fill stroke markers" d=" M 1102 796 L 1102 792" stroke-linejoin="bevel" stroke-miterlimit="10"/><path fill="none" stroke="black" paint-order="fill stroke markers" d=" M 1175 796 L 1175 792" stroke-linejoin="bevel" stroke-miterlimit="10"/><path fill="none" stroke="black" paint-order="fill stroke markers" d=" M 1247 796 L 1247 792" stroke-linejoin="bevel" stroke-miterlimit="10"/><path fill="none" stroke="black" paint-order="fill stroke markers" d=" M 1320 796 L 1320 792" stroke-linejoin="bevel" stroke-miterlimit="10"/><path fill="none" stroke="black" paint-order="fill stroke markers" d=" M 1392 796 L 1392 792" stroke-linejoin="bevel" stroke-miterlimit="10"/><path fill="none" stroke="black" paint-order="fill stroke markers" d=" M 1465 796 L 1465 792" stroke-linejoin="bevel" stroke-miterlimit="10"/><path fill="" stroke="black" paint-order="fill stroke markers" d=" M 1537 796 L 1537 792" stroke-linejoin="bevel" stroke-miterlimit="10"/><g transform="translate(88,803) rotate(0,0,0)"><text fill="" stroke="none" font-family="helvetica" font-size="8pt" font-style="normal" font-weight="normal" text-decoration="normal" x="0" y="0" text-anchor="middle" dominant-baseline="hanging">0</text><g transform="rotate(0,0,0) translate(-88,-803) translate(450,803) rotate(0,0,0)"><text fill="" stroke="none" font-family="helvetica" font-size="8pt" font-style="normal" font-weight="normal" text-decoration="normal" x="0" y="0" text-anchor="middle" dominant-baseline="hanging">0.5</text><g transform="rotate(0,0,0) translate(-450,-803) translate(813,803) rotate(0,0,0)"><text fill="" stroke="none" font-family="helvetica" font-size="8pt" font-style="normal" font-weight="normal" text-decoration="normal" x="0" y="0" text-anchor="middle" dominant-baseline="hanging">1</text><g transform="rotate(0,0,0) translate(-813,-803) translate(1175,803) rotate(0,0,0)"><text fill="" stroke="none" font-family="helvetica" font-size="8pt" font-style="normal" font-weight="normal" text-decoration="normal" x="0" y="0" text-anchor="middle" dominant-baseline="hanging">1.5</text><g transform="rotate(0,0,0) translate(-1175,-803) translate(1537,803) rotate(0,0,0)"><text fill="" stroke="none" font-family="helvetica" font-size="8pt" font-style="normal" font-weight="normal" text-decoration="normal" x="0" y="0" text-anchor="middle" dominant-baseline="hanging">2</text><g transform="rotate(0,0,0) translate(-1537,-803) translate(813,821) rotate(0,0,0)"><text fill="" stroke="none" font-family="helvetica" font-size="12pt" font-style="italic" font-weight="normal" text-decoration="normal" x="0" y="0" text-anchor="middle" dominant-baseline="hanging">Max latency</text><g transform="rotate(0,0,0) translate(-813,-821)"/></g></g></g></g></g></g></g><g fill="#444444"><path fill="none" stroke="black" paint-order="fill stroke markers" d=" M 55 792 L 55 5" stroke-linejoin="bevel" stroke-miterlimit="10"/><path fill="none" stroke="black" paint-order="fill stroke markers" d=" M 49 756 L 57 756" stroke-linejoin="bevel" stroke-miterlimit="10"/><path fill="none" stroke="black" paint-order="fill stroke markers" d=" M 49 637 L 57 637" stroke-linejoin="bevel" stroke-miterlimit="10"/><path fill="none" stroke="black" paint-order="fill stroke markers" d=" M 49 518 L 57 518" stroke-linejoin="bevel" stroke-miterlimit="10"/><path fill="none" stroke="black" paint-order="fill stroke markers" d=" M 49 399 L 57 399" stroke-linejoin="bevel" stroke-miterlimit="10"/><path fill="none" stroke="black" paint-order="fill stroke markers" d=" M 49 279 L 57 279" stroke-linejoin="bevel" stroke-miterlimit="10"/><path fill="none" stroke="black" paint-order="fill stroke markers" d=" M 49 160 L 57 160" stroke-linejoin="bevel" stroke-miterlimit="10"/><path fill="none" stroke="black" paint-order="fill stroke markers" d=" M 49 41 L 57 41" stroke-linejoin="bevel" stroke-miterlimit="10"/><path fill="none" stroke="black" paint-order="fill stroke markers" d=" M 51 780 L 55 780" stroke-linejoin="bevel" stroke-miterlimit="10"/><path fill="none" stroke="black" paint-order="fill stroke markers" d=" M 51 756 L 55 756" stroke-linejoin="bevel" stroke-miterlimit="10"/><path fill="none" stroke="black" paint-order="fill stroke markers" d=" M 51 732 L 55 732" stroke-linejoin="bevel" stroke-miterlimit="10"/><path fill="none" stroke="black" paint-order="fill stroke markers" d=" M 51 709 L 55 709" stroke-linejoin="bevel" stroke-miterlimit="10"/><path fill="none" stroke="black" paint-order="fill stroke markers" d=" M 51 685 L 55 685" stroke-linejoin="bevel" stroke-miterlimit="10"/><path fill="none" stroke="black" paint-order="fill stroke markers" d=" M 51 661 L 55 661" stroke-linejoin="bevel" stroke-miterlimit="10"/><path fill="none" stroke="black" paint-order="fill stroke markers" d=" M 51 637 L 55 637" stroke-linejoin="bevel" stroke-miterlimit="10"/><path fill="none" stroke="black" paint-order="fill stroke markers" d=" M 51 613 L 55 613" stroke-linejoin="bevel" stroke-miterlimit="10"/><path fill="none" stroke="black" paint-order="fill stroke markers" d=" M 51 589 L 55 589" stroke-linejoin="bevel" stroke-miterlimit="10"/><path fill="none" stroke="black" paint-order="fill stroke markers" d=" M 51 565 L 55 565" stroke-linejoin="bevel" stroke-miterlimit="10"/><path fill="none" stroke="black" paint-order="fill stroke markers" d=" M 51 542 L 55 542" stroke-linejoin="bevel" stroke-miterlimit="10"/><path fill="none" stroke="black" paint-order="fill stroke markers" d=" M 51 518 L 55 518" stroke-linejoin="bevel" stroke-miterlimit="10"/><path fill="none" stroke="black" paint-order="fill stroke markers" d=" M 51 494 L 55 494" stroke-linejoin="bevel" stroke-miterlimit="10"/><path fill="none" stroke="black" paint-order="fill stroke markers" d=" M 51 470 L 55 470" stroke-linejoin="bevel" stroke-miterlimit="10"/><path fill="none" stroke="black" paint-order="fill stroke markers" d=" M 51 446 L 55 446" stroke-linejoin="bevel" stroke-miterlimit="10"/><path fill="none" stroke="black" paint-order="fill stroke markers" d=" M 51 422 L 55 422" stroke-linejoin="bevel" stroke-miterlimit="10"/><path fill="none" stroke="black" paint-order="fill stroke markers" d=" M 51 399 L 55 399" stroke-linejoin="bevel" stroke-miterlimit="10"/><path fill="none" stroke="black" paint-order="fill stroke markers" d=" M 51 375 L 55 375" stroke-linejoin="bevel" stroke-miterlimit="10"/><path fill="none" stroke="black" paint-order="fill stroke markers" d=" M 51 351 L 55 351" stroke-linejoin="bevel" stroke-miterlimit="10"/><path fill="none" stroke="black" paint-order="fill stroke markers" d=" M 51 327 L 55 327" stroke-linejoin="bevel" stroke-miterlimit="10"/><path fill="none" stroke="black" paint-order="fill stroke markers" d=" M 51 303 L 55 303" stroke-linejoin="bevel" stroke-miterlimit="10"/><path fill="none" stroke="black" paint-order="fill stroke markers" d=" M 51 279 L 55 279" stroke-linejoin="bevel" stroke-miterlimit="10"/><path fill="none" stroke="black" paint-order="fill stroke markers" d=" M 51 255 L 55 255" stroke-linejoin="bevel" stroke-miterlimit="10"/><path fill="none" stroke="black" paint-order="fill stroke markers" d=" M 51 232 L 55 232" stroke-linejoin="bevel" stroke-miterlimit="10"/><path fill="none" stroke="black" paint-order="fill stroke markers" d=" M 51 208 L 55 208" stroke-linejoin="bevel" stroke-miterlimit="10"/><path fill="none" stroke="black" paint-order="fill stroke markers" d=" M 51 184 L 55 184" stroke-linejoin="bevel" stroke-miterlimit="10"/><path fill="none" stroke="black" paint-order="fill stroke markers" d=" M 51 160 L 55 160" stroke-linejoin="bevel" stroke-miterlimit="10"/><path fill="none" stroke="black" paint-order="fill stroke markers" d=" M 51 136 L 55 136" stroke-linejoin="bevel" stroke-miterlimit="10"/><path fill="none" stroke="black" paint-order="fill stroke markers" d=" M 51 112 L 55 112" stroke-linejoin="bevel" stroke-miterlimit="10"/><path fill="none" stroke="black" paint-order="fill stroke markers" d=" M 51 88 L 55 88" stroke-linejoin="bevel" stroke-miterlimit="10"/><path fill="none" stroke="black" paint-order="fill stroke markers" d=" M 51 65 L 55 65" stroke-linejoin="bevel" stroke-miterlimit="10"/><path fill="none" stroke="black" paint-order="fill stroke markers" d=" M 51 41 L 55 41" stroke-linejoin="bevel" stroke-miterlimit="10"/><path fill="" stroke="black" paint-order="fill stroke markers" d=" M 51 17 L 55 17" stroke-linejoin="bevel" stroke-miterlimit="10"/><g transform="translate(44,756) rotate(0,0,0)"><text fill="" stroke="none" font-family="helvetica" font-size="8pt" font-style="normal" font-weight="normal" text-decoration="normal" x="0" y="0" text-anchor="end" dominant-baseline="central">0</text><g transform="rotate(0,0,0) translate(-44,-756) translate(44,637) rotate(0,0,0)"><text fill="" stroke="none" font-family="helvetica" font-size="8pt" font-style="normal" font-weight="normal" text-decoration="normal" x="0" y="0" text-anchor="end" dominant-baseline="central">100</text><g transform="rotate(0,0,0) translate(-44,-637) translate(44,518) rotate(0,0,0)"><text fill="" stroke="none" font-family="helvetica" font-size="8pt" font-style="normal" font-weight="normal" text-decoration="normal" x="0" y="0" text-anchor="end" dominant-baseline="central">200</text><g transform="rotate(0,0,0) translate(-44,-518) translate(44,399) rotate(0,0,0)"><text fill="" stroke="none" font-family="helvetica" font-size="8pt" font-style="normal" font-weight="normal" text-decoration="normal" x="0" y="0" text-anchor="end" dominant-baseline="central">300</text><g transform="rotate(0,0,0) translate(-44,-399) translate(44,279) rotate(0,0,0)"><text fill="" stroke="none" font-family="helvetica" font-size="8pt" font-style="normal" font-weight="normal" text-decoration="normal" x="0" y="0" text-anchor="end" dominant-baseline="central">400</text><g transform="rotate(0,0,0) translate(-44,-279) translate(44,160) rotate(0,0,0)"><text fill="" stroke="none" font-family="helvetica" font-size="8pt" font-style="normal" font-weight="normal" text-decoration="normal" x="0" y="0" text-anchor="end" dominant-baseline="central">500</text><g transform="rotate(0,0,0) translate(-44,-160) translate(44,41) rotate(0,0,0)"><text fill="" stroke="none" font-family="helvetica" font-size="8pt" font-style="normal" font-weight="normal" text-decoration="normal" x="0" y="0" text-anchor="end" dominant-baseline="central">600</text><g transform="rotate(0,0,0) translate(-44,-41) translate(19,399) rotate(-90,0,0)"><text fill="" stroke="none" font-family="helvetica" font-size="12pt" font-style="italic" font-weight="normal" text-decoration="normal" x="0" y="0" text-anchor="middle" dominant-baseline="alphabetic">Cost</text><g transform="rotate(90,0,0) translate(-19,-399)"/></g></g></g></g></g></g></g></g></g></g></g></g></svg>