<svg version="1.1" xmlns="http://www.w3.org/2000/svg" xmlns:xlink="http://www.w3.org/1999/xlink" width="600" height="400" style="width: 600px; height: 400px;"><defs><clipPath id="HUuKZxoXGdoc"><path fill="none" stroke="none" d=" M 89 5 L 570 5 L 570 341 L 89 341 L 89 5 Z"/></clipPath><clipPath id="rlBrglPhvqaU"><path fill="none" stroke="none" d=" M 89 5 L 570 5 L 570 341 L 89 341 L 89 5 Z"/></clipPath></defs><g><g transform="scale(1,1) translate(0.5,0.5)"><rect fill="#FFFFFF" stroke="none" x="0" y="0" width="600" height="400"/><rect fill="#ffffff" stroke="none" x="0" y="0" width="600" height="400"/><rect fill="#FFFFFF" stroke="none" x="89" y="5" width="481" height="336"/><rect fill="#ffffff" stroke="none" x="89" y="5" width="481" height="336"/><g><rect fill="none" stroke="#e5e5e5" x="89" y="5" width="481" height="336" stroke-linejoin="bevel" stroke-miterlimit="10"/></g><g clip-path="url(#HUuKZxoXGdoc)"><g><g><path fill="none" stroke="#e5e5e5" paint-order="fill stroke markers" d=" M 99 341 L 99 5" stroke-linejoin="bevel" stroke-miterlimit="10"/><path fill="none" stroke="#e5e5e5" paint-order="fill stroke markers" d=" M 214 341 L 214 5" stroke-linejoin="bevel" stroke-miterlimit="10"/><path fill="none" stroke="#e5e5e5" paint-order="fill stroke markers" d=" M 330 341 L 330 5" stroke-linejoin="bevel" stroke-miterlimit="10"/><path fill="none" stroke="#e5e5e5" paint-order="fill stroke markers" d=" M 445 341 L 445 5" stroke-linejoin="bevel" stroke-miterlimit="10"/><path fill="none" stroke="#e5e5e5" paint-order="fill stroke markers" d=" M 560 341 L 560 5" stroke-linejoin="bevel" stroke-miterlimit="10"/></g><g><path fill="none" stroke="#e5e5e5" paint-order="fill stroke markers" d=" M 89 331 L 570 331" stroke-linejoin="bevel" stroke-miterlimit="10"/><path fill="none" stroke="#e5e5e5" paint-order="fill stroke markers" d=" M 89 280 L 570 280" stroke-linejoin="bevel" stroke-miterlimit="10"/><path fill="none" stroke="#e5e5e5" paint-order="fill stroke markers" d=" M 89 229 L 570 229" stroke-linejoin="bevel" stroke-miterlimit="10"/><path fill="none" stroke="#e5e5e5" paint-order="fill stroke markers" d=" M 89 178 L 570 178" stroke-linejoin="bevel" stroke-miterlimit="10"/><path fill="none" stroke="#e5e5e5" paint-order="fill stroke markers" d=" M 89 127 L 570 127" stroke-linejoin="bevel" stroke-miterlimit="10"/><path fill="none" stroke="#e5e5e5" paint-order="fill stroke markers" d=" M 89 76 L 570 76" stroke-linejoin="bevel" stroke-miterlimit="10"/><path fill="none" stroke="#e5e5e5" paint-order="fill stroke markers" d=" M 89 25 L 570 25" stroke-linejoin="bevel" stroke-miterlimit="10"/></g><g><path fill="none" stroke="none"/><path fill="none" stroke="#1f77b4" paint-order="fill stroke markers" d=" M 110.86363636363635 11.44899444899454 L 122.37081339712917 11.44899444899454 L 133.877990430622 20.27272727272731 L 145.38516746411483 22.24997724997729 L 156.89234449760764 305.3585403585404 L 168.39952153110045 305.09354809354807 L 179.90669856459328 305.6795886795887 L 191.41387559808612 305.53944853944853 L 202.92105263157893 305.6107926107926 L 214.42822966507174 305.2999362999363 L 225.93540669856458 305.21840021840023 L 237.44258373205741 305.21840021840023 L 248.94976076555025 304.83365183365186 L 260.45693779904303 304.83365183365186 L 271.96411483253587 304.6017836017836 L 283.4712918660287 304.43871143871144 L 294.9784688995215 304.6731276731277 L 306.4856459330143 304.6731276731277 L 317.99282296650716 304.6935116935117 L 329.5 304.6935116935117 L 341.00717703349284 304.8846118846119 L 352.5143540669857 305.28719628719625 L 364.02153110047846 305.28719628719625 L 375.5287081339713 305.28719628719625 L 387.03588516746413 305.4910364910365 L 398.54306220095697 305.5088725088725 L 410.0502392344498 305.34834834834834 L 421.5574162679426 305.34834834834834 L 433.0645933014354 305.14960414960416 L 444.5717703349282 305.14960414960416 L 456.07894736842104 305.33560833560836 L 467.5861244019139 305.33560833560836 L 479.09330143540666 305.1725361725362 L 490.6004784688995 305.2948402948403 L 502.10765550239233 305.2948402948403 L 513.6148325358852 305.27700427700427 L 525.122009569378 304.8234598234598 L 536.6291866028707 304.8234598234598 L 548.1363636363636 304.8234598234598" stroke-linejoin="bevel" stroke-miterlimit="10" stroke-width="4"/></g><g><path fill="none" stroke="none"/><path fill="none" stroke="dodgerblue" paint-order="fill stroke markers" d=" M 110.86363636363635 305.6744926744927 L 122.37081339712917 305.6744926744927 L 133.877990430622 305.6744926744927 L 145.38516746411483 305.6744926744927 L 156.89234449760764 308.22249522249524 L 168.39952153110045 308.22249522249524 L 179.90669856459328 309.2416962416962 L 191.41387559808612 309.75129675129676 L 202.92105263157893 309.2416962416962 L 214.42822966507174 309.2416962416962 L 225.93540669856458 309.75129675129676 L 237.44258373205741 309.75129675129676 L 248.94976076555025 310.26089726089725 L 260.45693779904303 310.26089726089725 L 271.96411483253587 310.26089726089725 L 283.4712918660287 310.26089726089725 L 294.9784688995215 310.77049777049774 L 306.4856459330143 311.2800982800983 L 317.99282296650716 310.77049777049774 L 329.5 310.77049777049774 L 341.00717703349284 310.77049777049774 L 352.5143540669857 311.2800982800983 L 364.02153110047846 311.2800982800983 L 375.5287081339713 311.2800982800983 L 387.03588516746413 311.7896987896988 L 398.54306220095697 311.7896987896988 L 410.0502392344498 311.7896987896988 L 421.5574162679426 311.7896987896988 L 433.0645933014354 312.29929929929926 L 444.5717703349282 312.29929929929926 L 456.07894736842104 311.7896987896988 L 467.5861244019139 311.7896987896988 L 479.09330143540666 311.7896987896988 L 490.6004784688995 311.7896987896988 L 502.10765550239233 311.7896987896988 L 513.6148325358852 311.7896987896988 L 525.122009569378 312.29929929929926 L 536.6291866028707 312.29929929929926 L 548.1363636363636 312.29929929929926" stroke-linejoin="bevel" stroke-miterlimit="10" stroke-width="4" stroke-dasharray="2,4"/></g><g><path fill="none" stroke="none"/><path fill="none" stroke="deepskyblue" paint-order="fill stroke markers" d=" M 110.86363636363635 36.92901992902 L 122.37081339712917 36.92901992902 L 133.877990430622 45.752752752752826 L 145.38516746411483 47.73000273000281 L 156.89234449760764 328.2905632905633 L 168.39952153110045 328.025571025571 L 179.90669856459328 327.5924105924106 L 191.41387559808612 326.9426699426699 L 202.92105263157893 327.5236145236145 L 214.42822966507174 327.2127582127582 L 225.93540669856458 326.6216216216216 L 237.44258373205741 326.6216216216216 L 248.94976076555025 325.7272727272727 L 260.45693779904303 325.7272727272727 L 271.96411483253587 325.4954044954045 L 283.4712918660287 325.3323323323323 L 294.9784688995215 325.057148057148 L 306.4856459330143 324.54754754754754 L 317.99282296650716 325.07753207753206 L 329.5 325.07753207753206 L 341.00717703349284 325.26863226863225 L 352.5143540669857 325.16161616161617 L 364.02153110047846 325.16161616161617 L 375.5287081339713 325.16161616161617 L 387.03588516746413 324.85585585585585 L 398.54306220095697 324.8736918736919 L 410.0502392344498 324.7131677131677 L 421.5574162679426 324.7131677131677 L 433.0645933014354 324.004823004823 L 444.5717703349282 324.004823004823 L 456.07894736842104 324.70042770042767 L 467.5861244019139 324.70042770042767 L 479.09330143540666 324.53735553735555 L 490.6004784688995 324.65965965965967 L 502.10765550239233 324.65965965965967 L 513.6148325358852 324.64182364182363 L 525.122009569378 323.6786786786787 L 536.6291866028707 323.6786786786787 L 548.1363636363636 323.6786786786787" stroke-linejoin="bevel" stroke-miterlimit="10" stroke-width="4" stroke-dasharray="6,4,2,4"/></g></g></g><g clip-path="url(#rlBrglPhvqaU)"><g><g/><g><path fill="#ffffff" stroke="#e5e5e5" paint-order="fill stroke markers" d=" M 454.375 15 L 560 15 L 560 101 L 454.375 101 L 454.375 15 Z" fill-opacity="0.95" stroke-linejoin="bevel" stroke-miterlimit="10" stroke-opacity="0.5"/><text fill="#444444" stroke="none" font-family="helvetica" font-size="10pt" font-style="normal" font-weight="normal" text-decoration="normal" x="489.375" y="35" text-anchor="start" dominant-baseline="central">Total Cost</text><g><path fill="none" stroke="#1f77b4" paint-order="fill stroke markers" d=" M 464.375 35 L 484.375 35" stroke-linejoin="bevel" stroke-miterlimit="10" stroke-width="4"/></g><text fill="#444444" stroke="none" font-family="helvetica" font-size="10pt" font-style="normal" font-weight="normal" text-decoration="normal" x="489.375" y="58" text-anchor="start" dominant-baseline="central">Edge Cost</text><g><path fill="none" stroke="dodgerblue" paint-order="fill stroke markers" d=" M 464.375 58 L 484.375 58" stroke-linejoin="bevel" stroke-miterlimit="10" stroke-width="4" stroke-dasharray="2,4"/></g><text fill="#444444" stroke="none" font-family="helvetica" font-size="10pt" font-style="normal" font-weight="normal" text-decoration="normal" x="489.375" y="81" text-anchor="start" dominant-baseline="central">Fog Cost</text><g><path fill="none" stroke="deepskyblue" paint-order="fill stroke markers" d=" M 464.375 81 L 484.375 81" stroke-linejoin="bevel" stroke-miterlimit="10" stroke-width="4" stroke-dasharray="6,4,2,4"/></g></g></g></g><g><g fill="#444444"><path fill="none" stroke="black" paint-order="fill stroke markers" d=" M 89 341 L 570 341" stroke-linejoin="bevel" stroke-miterlimit="10"/><path fill="none" stroke="black" paint-order="fill stroke markers" d=" M 99 347 L 99 339" stroke-linejoin="bevel" stroke-miterlimit="10"/><path fill="none" stroke="black" paint-order="fill stroke markers" d=" M 214 347 L 214 339" stroke-linejoin="bevel" stroke-miterlimit="10"/><path fill="none" stroke="black" paint-order="fill stroke markers" d=" M 330 347 L 330 339" stroke-linejoin="bevel" stroke-miterlimit="10"/><path fill="none" stroke="black" paint-order="fill stroke markers" d=" M 445 347 L 445 339" stroke-linejoin="bevel" stroke-miterlimit="10"/><path fill="none" stroke="black" paint-order="fill stroke markers" d=" M 560 347 L 560 339" stroke-linejoin="bevel" stroke-miterlimit="10"/><path fill="none" stroke="black" paint-order="fill stroke markers" d=" M 99 345 L 99 341" stroke-linejoin="bevel" stroke-miterlimit="10"/><path fill="none" stroke="black" paint-order="fill stroke markers" d=" M 122 345 L 122 341" stroke-linejoin="bevel" stroke-miterlimit="10"/><path fill="none" stroke="black" paint-order="fill stroke markers" d=" M 145 345 L 145 341" stroke-linejoin="bevel" stroke-miterlimit="10"/><path fill="none" stroke="black" paint-order="fill stroke markers" d=" M 168 345 L 168 341" stroke-linejoin="bevel" stroke-miterlimit="10"/><path fill="none" stroke="black" paint-order="fill stroke markers" d=" M 191 345 L 191 341" stroke-linejoin="bevel" stroke-miterlimit="10"/><path fill="none" stroke="black" paint-order="fill stroke markers" d=" M 214 345 L 214 341" stroke-linejoin="bevel" stroke-miterlimit="10"/><path fill="none" stroke="black" paint-order="fill stroke markers" d=" M 237 345 L 237 341" stroke-linejoin="bevel" stroke-miterlimit="10"/><path fill="none" stroke="black" paint-order="fill stroke markers" d=" M 260 345 L 260 341" stroke-linejoin="bevel" stroke-miterlimit="10"/><path fill="none" stroke="black" paint-order="fill stroke markers" d=" M 283 345 L 283 341" stroke-linejoin="bevel" stroke-miterlimit="10"/><path fill="none" stroke="black" paint-order="fill stroke markers" d=" M 306 345 L 306 341" stroke-linejoin="bevel" stroke-miterlimit="10"/><path fill="none" stroke="black" paint-order="fill stroke markers" d=" M 330 345 L 330 341" stroke-linejoin="bevel" stroke-miterlimit="10"/><path fill="none" stroke="black" paint-order="fill stroke markers" d=" M 353 345 L 353 341" stroke-linejoin="bevel" stroke-miterlimit="10"/><path fill="none" stroke="black" paint-order="fill stroke markers" d=" M 376 345 L 376 341" stroke-linejoin="bevel" stroke-miterlimit="10"/><path fill="none" stroke="black" paint-order="fill stroke markers" d=" M 399 345 L 399 341" stroke-linejoin="bevel" stroke-miterlimit="10"/><path fill="none" stroke="black" paint-order="fill stroke markers" d=" M 422 345 L 422 341" stroke-linejoin="bevel" stroke-miterlimit="10"/><path fill="none" stroke="black" paint-order="fill stroke markers" d=" M 445 345 L 445 341" stroke-linejoin="bevel" stroke-miterlimit="10"/><path fill="none" stroke="black" paint-order="fill stroke markers" d=" M 468 345 L 468 341" stroke-linejoin="bevel" stroke-miterlimit="10"/><path fill="none" stroke="black" paint-order="fill stroke markers" d=" M 491 345 L 491 341" stroke-linejoin="bevel" stroke-miterlimit="10"/><path fill="none" stroke="black" paint-order="fill stroke markers" d=" M 514 345 L 514 341" stroke-linejoin="bevel" stroke-miterlimit="10"/><path fill="none" stroke="black" paint-order="fill stroke markers" d=" M 537 345 L 537 341" stroke-linejoin="bevel" stroke-miterlimit="10"/><path fill="" stroke="black" paint-order="fill stroke markers" d=" M 560 345 L 560 341" stroke-linejoin="bevel" stroke-miterlimit="10"/><g transform="translate(99,352) rotate(0,0,0)"><text fill="" stroke="none" font-family="helvetica" font-size="12pt" font-style="normal" font-weight="normal" text-decoration="normal" x="0" y="0" text-anchor="middle" dominant-baseline="hanging">0</text><g transform="rotate(0,0,0) translate(-99,-352) translate(214,352) rotate(0,0,0)"><text fill="" stroke="none" font-family="helvetica" font-size="12pt" font-style="normal" font-weight="normal" text-decoration="normal" x="0" y="0" text-anchor="middle" dominant-baseline="hanging">0.5</text><g transform="rotate(0,0,0) translate(-214,-352) translate(330,352) rotate(0,0,0)"><text fill="" stroke="none" font-family="helvetica" font-size="12pt" font-style="normal" font-weight="normal" text-decoration="normal" x="0" y="0" text-anchor="middle" dominant-baseline="hanging">1</text><g transform="rotate(0,0,0) translate(-330,-352) translate(445,352) rotate(0,0,0)"><text fill="" stroke="none" font-family="helvetica" font-size="12pt" font-style="normal" font-weight="normal" text-decoration="normal" x="0" y="0" text-anchor="middle" dominant-baseline="hanging">1.5</text><g transform="rotate(0,0,0) translate(-445,-352) translate(560,352) rotate(0,0,0)"><text fill="" stroke="none" font-family="helvetica" font-size="12pt" font-style="normal" font-weight="normal" text-decoration="normal" x="0" y="0" text-anchor="middle" dominant-baseline="hanging">2</text><g transform="rotate(0,0,0) translate(-560,-352) translate(330,376) rotate(0,0,0)"><text fill="" stroke="none" font-family="helvetica" font-size="15pt" font-style="italic" font-weight="normal" text-decoration="normal" x="0" y="0" text-anchor="middle" dominant-baseline="hanging">Max latency</text><g transform="rotate(0,0,0) translate(-330,-376)"/></g></g></g></g></g></g></g><g fill="#444444"><path fill="none" stroke="black" paint-order="fill stroke markers" d=" M 89 341 L 89 5" stroke-linejoin="bevel" stroke-miterlimit="10"/><path fill="none" stroke="black" paint-order="fill stroke markers" d=" M 83 331 L 91 331" stroke-linejoin="bevel" stroke-miterlimit="10"/><path fill="none" stroke="black" paint-order="fill stroke markers" d=" M 83 280 L 91 280" stroke-linejoin="bevel" stroke-miterlimit="10"/><path fill="none" stroke="black" paint-order="fill stroke markers" d=" M 83 229 L 91 229" stroke-linejoin="bevel" stroke-miterlimit="10"/><path fill="none" stroke="black" paint-order="fill stroke markers" d=" M 83 178 L 91 178" stroke-linejoin="bevel" stroke-miterlimit="10"/><path fill="none" stroke="black" paint-order="fill stroke markers" d=" M 83 127 L 91 127" stroke-linejoin="bevel" stroke-miterlimit="10"/><path fill="none" stroke="black" paint-order="fill stroke markers" d=" M 83 76 L 91 76" stroke-linejoin="bevel" stroke-miterlimit="10"/><path fill="none" stroke="black" paint-order="fill stroke markers" d=" M 83 25 L 91 25" stroke-linejoin="bevel" stroke-miterlimit="10"/><path fill="none" stroke="black" paint-order="fill stroke markers" d=" M 85 331 L 89 331" stroke-linejoin="bevel" stroke-miterlimit="10"/><path fill="none" stroke="black" paint-order="fill stroke markers" d=" M 85 321 L 89 321" stroke-linejoin="bevel" stroke-miterlimit="10"/><path fill="none" stroke="black" paint-order="fill stroke markers" d=" M 85 311 L 89 311" stroke-linejoin="bevel" stroke-miterlimit="10"/><path fill="none" stroke="black" paint-order="fill stroke markers" d=" M 85 301 L 89 301" stroke-linejoin="bevel" stroke-miterlimit="10"/><path fill="none" stroke="black" paint-order="fill stroke markers" d=" M 85 290 L 89 290" stroke-linejoin="bevel" stroke-miterlimit="10"/><path fill="none" stroke="black" paint-order="fill stroke markers" d=" M 85 280 L 89 280" stroke-linejoin="bevel" stroke-miterlimit="10"/><path fill="none" stroke="black" paint-order="fill stroke markers" d=" M 85 270 L 89 270" stroke-linejoin="bevel" stroke-miterlimit="10"/><path fill="none" stroke="black" paint-order="fill stroke markers" d=" M 85 260 L 89 260" stroke-linejoin="bevel" stroke-miterlimit="10"/><path fill="none" stroke="black" paint-order="fill stroke markers" d=" M 85 250 L 89 250" stroke-linejoin="bevel" stroke-miterlimit="10"/><path fill="none" stroke="black" paint-order="fill stroke markers" d=" M 85 239 L 89 239" stroke-linejoin="bevel" stroke-miterlimit="10"/><path fill="none" stroke="black" paint-order="fill stroke markers" d=" M 85 229 L 89 229" stroke-linejoin="bevel" stroke-miterlimit="10"/><path fill="none" stroke="black" paint-order="fill stroke markers" d=" M 85 219 L 89 219" stroke-linejoin="bevel" stroke-miterlimit="10"/><path fill="none" stroke="black" paint-order="fill stroke markers" d=" M 85 209 L 89 209" stroke-linejoin="bevel" stroke-miterlimit="10"/><path fill="none" stroke="black" paint-order="fill stroke markers" d=" M 85 199 L 89 199" stroke-linejoin="bevel" stroke-miterlimit="10"/><path fill="none" stroke="black" paint-order="fill stroke markers" d=" M 85 188 L 89 188" stroke-linejoin="bevel" stroke-miterlimit="10"/><path fill="none" stroke="black" paint-order="fill stroke markers" d=" M 85 178 L 89 178" stroke-linejoin="bevel" stroke-miterlimit="10"/><path fill="none" stroke="black" paint-order="fill stroke markers" d=" M 85 168 L 89 168" stroke-linejoin="bevel" stroke-miterlimit="10"/><path fill="none" stroke="black" paint-order="fill stroke markers" d=" M 85 158 L 89 158" stroke-linejoin="bevel" stroke-miterlimit="10"/><path fill="none" stroke="black" paint-order="fill stroke markers" d=" M 85 148 L 89 148" stroke-linejoin="bevel" stroke-miterlimit="10"/><path fill="none" stroke="black" paint-order="fill stroke markers" d=" M 85 138 L 89 138" stroke-linejoin="bevel" stroke-miterlimit="10"/><path fill="none" stroke="black" paint-order="fill stroke markers" d=" M 85 127 L 89 127" stroke-linejoin="bevel" stroke-miterlimit="10"/><path fill="none" stroke="black" paint-order="fill stroke markers" d=" M 85 117 L 89 117" stroke-linejoin="bevel" stroke-miterlimit="10"/><path fill="none" stroke="black" paint-order="fill stroke markers" d=" M 85 107 L 89 107" stroke-linejoin="bevel" stroke-miterlimit="10"/><path fill="none" stroke="black" paint-order="fill stroke markers" d=" M 85 97 L 89 97" stroke-linejoin="bevel" stroke-miterlimit="10"/><path fill="none" stroke="black" paint-order="fill stroke markers" d=" M 85 87 L 89 87" stroke-linejoin="bevel" stroke-miterlimit="10"/><path fill="none" stroke="black" paint-order="fill stroke markers" d=" M 85 76 L 89 76" stroke-linejoin="bevel" stroke-miterlimit="10"/><path fill="none" stroke="black" paint-order="fill stroke markers" d=" M 85 66 L 89 66" stroke-linejoin="bevel" stroke-miterlimit="10"/><path fill="none" stroke="black" paint-order="fill stroke markers" d=" M 85 56 L 89 56" stroke-linejoin="bevel" stroke-miterlimit="10"/><path fill="none" stroke="black" paint-order="fill stroke markers" d=" M 85 46 L 89 46" stroke-linejoin="bevel" stroke-miterlimit="10"/><path fill="none" stroke="black" paint-order="fill stroke markers" d=" M 85 36 L 89 36" stroke-linejoin="bevel" stroke-miterlimit="10"/><path fill="none" stroke="black" paint-order="fill stroke markers" d=" M 85 25 L 89 25" stroke-linejoin="bevel" stroke-miterlimit="10"/><path fill="none" stroke="black" paint-order="fill stroke markers" d=" M 85 15 L 89 15" stroke-linejoin="bevel" stroke-miterlimit="10"/><path fill="" stroke="black" paint-order="fill stroke markers" d=" M 85 5 L 89 5" stroke-linejoin="bevel" stroke-miterlimit="10"/><g transform="translate(78,331) rotate(0,0,0)"><text fill="" stroke="none" font-family="helvetica" font-size="12pt" font-style="normal" font-weight="normal" text-decoration="normal" x="0" y="0" text-anchor="end" dominant-baseline="central">0</text><g transform="rotate(0,0,0) translate(-78,-331) translate(78,280) rotate(0,0,0)"><text fill="" stroke="none" font-family="helvetica" font-size="12pt" font-style="normal" font-weight="normal" text-decoration="normal" x="0" y="0" text-anchor="end" dominant-baseline="central">2000</text><g transform="rotate(0,0,0) translate(-78,-280) translate(78,229) rotate(0,0,0)"><text fill="" stroke="none" font-family="helvetica" font-size="12pt" font-style="normal" font-weight="normal" text-decoration="normal" x="0" y="0" text-anchor="end" dominant-baseline="central">4000</text><g transform="rotate(0,0,0) translate(-78,-229) translate(78,178) rotate(0,0,0)"><text fill="" stroke="none" font-family="helvetica" font-size="12pt" font-style="normal" font-weight="normal" text-decoration="normal" x="0" y="0" text-anchor="end" dominant-baseline="central">6000</text><g transform="rotate(0,0,0) translate(-78,-178) translate(78,127) rotate(0,0,0)"><text fill="" stroke="none" font-family="helvetica" font-size="12pt" font-style="normal" font-weight="normal" text-decoration="normal" x="0" y="0" text-anchor="end" dominant-baseline="central">8000</text><g transform="rotate(0,0,0) translate(-78,-127) translate(78,76) rotate(0,0,0)"><text fill="" stroke="none" font-family="helvetica" font-size="12pt" font-style="normal" font-weight="normal" text-decoration="normal" x="0" y="0" text-anchor="end" dominant-baseline="central">10000</text><g transform="rotate(0,0,0) translate(-78,-76) translate(78,25) rotate(0,0,0)"><text fill="" stroke="none" font-family="helvetica" font-size="12pt" font-style="normal" font-weight="normal" text-decoration="normal" x="0" y="0" text-anchor="end" dominant-baseline="central">12000</text><g transform="rotate(0,0,0) translate(-78,-25) translate(24,173) rotate(-90,0,0)"><text fill="" stroke="none" font-family="helvetica" font-size="15pt" font-style="italic" font-weight="normal" text-decoration="normal" x="0" y="0" text-anchor="middle" dominant-baseline="alphabetic">Cost</text><g transform="rotate(90,0,0) translate(-24,-173)"/></g></g></g></g></g></g></g></g></g></g></g></g></svg>