<svg version="1.1" xmlns="http://www.w3.org/2000/svg" xmlns:xlink="http://www.w3.org/1999/xlink" width="600" height="400" style="width: 600px; height: 400px;"><defs><clipPath id="IZKTENLPEOaS"><path fill="none" stroke="none" d=" M 89 5 L 570 5 L 570 341 L 89 341 L 89 5 Z"/></clipPath><clipPath id="ThOnOxkGrTvh"><path fill="none" stroke="none" d=" M 89 5 L 570 5 L 570 341 L 89 341 L 89 5 Z"/></clipPath></defs><g><g transform="scale(1,1) translate(0.5,0.5)"><rect fill="#FFFFFF" stroke="none" x="0" y="0" width="600" height="400"/><rect fill="#ffffff" stroke="none" x="0" y="0" width="600" height="400"/><rect fill="#FFFFFF" stroke="none" x="89" y="5" width="481" height="336"/><rect fill="#ffffff" stroke="none" x="89" y="5" width="481" height="336"/><g><rect fill="none" stroke="#e5e5e5" x="89" y="5" width="481" height="336" stroke-linejoin="bevel" stroke-miterlimit="10"/></g><g clip-path="url(#IZKTENLPEOaS)"><g><g><path fill="none" stroke="#e5e5e5" paint-order="fill stroke markers" d=" M 99 341 L 99 5" stroke-linejoin="bevel" stroke-miterlimit="10"/><path fill="none" stroke="#e5e5e5" paint-order="fill stroke markers" d=" M 214 341 L 214 5" stroke-linejoin="bevel" stroke-miterlimit="10"/><path fill="none" stroke="#e5e5e5" paint-order="fill stroke markers" d=" M 330 341 L 330 5" stroke-linejoin="bevel" stroke-miterlimit="10"/><path fill="none" stroke="#e5e5e5" paint-order="fill stroke markers" d=" M 445 341 L 445 5" stroke-linejoin="bevel" stroke-miterlimit="10"/><path fill="none" stroke="#e5e5e5" paint-order="fill stroke markers" d=" M 560 341 L 560 5" stroke-linejoin="bevel" stroke-miterlimit="10"/></g><g><path fill="none" stroke="#e5e5e5" paint-order="fill stroke markers" d=" M 89 290 L 570 290" stroke-linejoin="bevel" stroke-miterlimit="10"/><path fill="none" stroke="#e5e5e5" paint-order="fill stroke markers" d=" M 89 237 L 570 237" stroke-linejoin="bevel" stroke-miterlimit="10"/><path fill="none" stroke="#e5e5e5" paint-order="fill stroke markers" d=" M 89 184 L 570 184" stroke-linejoin="bevel" stroke-miterlimit="10"/><path fill="none" stroke="#e5e5e5" paint-order="fill stroke markers" d=" M 89 131 L 570 131" stroke-linejoin="bevel" stroke-miterlimit="10"/><path fill="none" stroke="#e5e5e5" paint-order="fill stroke markers" d=" M 89 79 L 570 79" stroke-linejoin="bevel" stroke-miterlimit="10"/><path fill="none" stroke="#e5e5e5" paint-order="fill stroke markers" d=" M 89 26 L 570 26" stroke-linejoin="bevel" stroke-miterlimit="10"/></g><g><path fill="none" stroke="none"/><path fill="none" stroke="#1f77b4" paint-order="fill stroke markers" d=" M 110.86363636363635 11.106443989286277 L 122.37081339712917 11.106443989286277 L 133.877990430622 20.272727272727252 L 145.38516746411483 22.326737041121817 L 156.89234449760764 293.72071844966126 L 168.39952153110045 293.4533795493934 L 179.90669856459328 294.8059555695604 L 191.41387559808612 296.161178509532 L 202.92105263157893 298.11725224515516 L 214.42822966507174 299.2580746809516 L 225.93540669856458 299.25278084134237 L 237.44258373205741 299.30042539782573 L 248.94976076555025 300.2294942492516 L 260.45693779904303 300.1792027729636 L 271.96411483253587 300.15273357491725 L 283.4712918660287 301.4100204821175 L 294.9784688995215 301.370316685048 L 306.4856459330143 301.32002520876006 L 317.99282296650716 300.26125728690715 L 329.5 300.2242004096423 L 341.00717703349284 300.82505120529385 L 352.5143540669857 301.0447455490783 L 364.02153110047846 301.01827635103194 L 375.5287081339713 301.01033559161806 L 387.03588516746413 301.7064755002363 L 398.54306220095697 302.01616511737825 L 410.0502392344498 302.0241058767922 L 421.5574162679426 302.0505750748385 L 433.0645933014354 302.2464471403813 L 444.5717703349282 302.1511580274145 L 456.07894736842104 302.4899637624074 L 467.5861244019139 302.5270206396723 L 479.09330143540666 302.55613675752323 L 490.6004784688995 302.65142587048996 L 502.10765550239233 302.65142587048996 L 513.6148325358852 302.6037813140066 L 525.122009569378 303.061698440208 L 536.6291866028707 303.04581692138015 L 548.1363636363636 303.03787616196627" stroke-linejoin="bevel" stroke-miterlimit="10" stroke-width="4"/></g><g><path fill="none" stroke="none"/><path fill="none" stroke="dodgerblue" paint-order="fill stroke markers" d=" M 110.86363636363635 316.75421458956987 L 122.37081339712917 316.75421458956987 L 133.877990430622 316.75421458956987 L 145.38516746411483 316.75421458956987 L 156.89234449760764 316.75421458956987 L 168.39952153110045 316.75421458956987 L 179.90669856459328 316.75421458956987 L 191.41387559808612 316.75421458956987 L 202.92105263157893 316.75421458956987 L 214.42822966507174 316.75421458956987 L 225.93540669856458 316.75421458956987 L 237.44258373205741 316.75421458956987 L 248.94976076555025 316.75421458956987 L 260.45693779904303 316.75421458956987 L 271.96411483253587 316.75421458956987 L 283.4712918660287 316.75421458956987 L 294.9784688995215 316.75421458956987 L 306.4856459330143 316.75421458956987 L 317.99282296650716 316.75421458956987 L 329.5 316.75421458956987 L 341.00717703349284 316.75421458956987 L 352.5143540669857 316.75421458956987 L 364.02153110047846 316.75421458956987 L 375.5287081339713 316.75421458956987 L 387.03588516746413 316.75421458956987 L 398.54306220095697 316.75421458956987 L 410.0502392344498 316.75421458956987 L 421.5574162679426 316.75421458956987 L 433.0645933014354 316.75421458956987 L 444.5717703349282 316.75421458956987 L 456.07894736842104 316.75421458956987 L 467.5861244019139 316.75421458956987 L 479.09330143540666 316.75421458956987 L 490.6004784688995 316.75421458956987 L 502.10765550239233 316.75421458956987 L 513.6148325358852 316.75421458956987 L 525.122009569378 316.75421458956987 L 536.6291866028707 316.75421458956987 L 548.1363636363636 316.75421458956987" stroke-linejoin="bevel" stroke-miterlimit="10" stroke-width="4" stroke-dasharray="2,4"/></g><g><path fill="none" stroke="none"/><path fill="none" stroke="deepskyblue" paint-order="fill stroke markers" d=" M 110.86363636363635 37.57564203560736 L 122.37081339712917 37.57564203560736 L 133.877990430622 46.741925319048335 L 145.38516746411483 48.7959350874429 L 156.89234449760764 320.18991649598235 L 168.39952153110045 319.9225775957145 L 179.90669856459328 321.2751536158815 L 191.41387559808612 322.63037655585316 L 202.92105263157893 324.58645029147624 L 214.42822966507174 325.7272727272727 L 225.93540669856458 325.72197888766345 L 237.44258373205741 325.7696234441468 L 248.94976076555025 326.6986922955727 L 260.45693779904303 326.6484008192847 L 271.96411483253587 326.62193162123833 L 283.4712918660287 327.8792185284386 L 294.9784688995215 327.83951473136915 L 306.4856459330143 327.78922325508114 L 317.99282296650716 326.7304553332283 L 329.5 326.6933984559634 L 341.00717703349284 327.29424925161493 L 352.5143540669857 327.5139435953994 L 364.02153110047846 327.4874743973531 L 375.5287081339713 327.47953363793914 L 387.03588516746413 328.1756735465574 L 398.54306220095697 328.4853631636994 L 410.0502392344498 328.4933039231133 L 421.5574162679426 328.5197731211596 L 433.0645933014354 328.7156451867024 L 444.5717703349282 328.6203560737356 L 456.07894736842104 328.95916180872854 L 467.5861244019139 328.99621868599337 L 479.09330143540666 329.0253348038443 L 490.6004784688995 329.1206239168111 L 502.10765550239233 329.1206239168111 L 513.6148325358852 329.0729793603277 L 525.122009569378 329.53089648652906 L 536.6291866028707 329.51501496770123 L 548.1363636363636 329.50707420828735" stroke-linejoin="bevel" stroke-miterlimit="10" stroke-width="4" stroke-dasharray="6,4,2,4"/></g></g></g><g clip-path="url(#ThOnOxkGrTvh)"><g><g/><g><path fill="#ffffff" stroke="#e5e5e5" paint-order="fill stroke markers" d=" M 454.375 15 L 560 15 L 560 101 L 454.375 101 L 454.375 15 Z" fill-opacity="0.95" stroke-linejoin="bevel" stroke-miterlimit="10" stroke-opacity="0.5"/><text fill="#444444" stroke="none" font-family="helvetica" font-size="10pt" font-style="normal" font-weight="normal" text-decoration="normal" x="489.375" y="35" text-anchor="start" dominant-baseline="central">Total Cost</text><g><path fill="none" stroke="#1f77b4" paint-order="fill stroke markers" d=" M 464.375 35 L 484.375 35" stroke-linejoin="bevel" stroke-miterlimit="10" stroke-width="4"/></g><text fill="#444444" stroke="none" font-family="helvetica" font-size="10pt" font-style="normal" font-weight="normal" text-decoration="normal" x="489.375" y="58" text-anchor="start" dominant-baseline="central">Edge Cost</text><g><path fill="none" stroke="dodgerblue" paint-order="fill stroke markers" d=" M 464.375 58 L 484.375 58" stroke-linejoin="bevel" stroke-miterlimit="10" stroke-width="4" stroke-dasharray="2,4"/></g><text fill="#444444" stroke="none" font-family="helvetica" font-size="10pt" font-style="normal" font-weight="normal" text-decoration="normal" x="489.375" y="81" text-anchor="start" dominant-baseline="central">Fog Cost</text><g><path fill="none" stroke="deepskyblue" paint-order="fill stroke markers" d=" M 464.375 81 L 484.375 81" stroke-linejoin="bevel" stroke-miterlimit="10" stroke-width="4" stroke-dasharray="6,4,2,4"/></g></g></g></g><g><g fill="#444444"><path fill="none" stroke="black" paint-order="fill stroke markers" d=" M 89 341 L 570 341" stroke-linejoin="bevel" stroke-miterlimit="10"/><path fill="none" stroke="black" paint-order="fill stroke markers" d=" M 99 347 L 99 339" stroke-linejoin="bevel" stroke-miterlimit="10"/><path fill="none" stroke="black" paint-order="fill stroke markers" d=" M 214 347 L 214 339" stroke-linejoin="bevel" stroke-miterlimit="10"/><path fill="none" stroke="black" paint-order="fill stroke markers" d=" M 330 347 L 330 339" stroke-linejoin="bevel" stroke-miterlimit="10"/><path fill="none" stroke="black" paint-order="fill stroke markers" d=" M 445 347 L 445 339" stroke-linejoin="bevel" stroke-miterlimit="10"/><path fill="none" stroke="black" paint-order="fill stroke markers" d=" M 560 347 L 560 339" stroke-linejoin="bevel" stroke-miterlimit="10"/><path fill="none" stroke="black" paint-order="fill stroke markers" d=" M 99 345 L 99 341" stroke-linejoin="bevel" stroke-miterlimit="10"/><path fill="none" stroke="black" paint-order="fill stroke markers" d=" M 122 345 L 122 341" stroke-linejoin="bevel" stroke-miterlimit="10"/><path fill="none" stroke="black" paint-order="fill stroke markers" d=" M 145 345 L 145 341" stroke-linejoin="bevel" stroke-miterlimit="10"/><path fill="none" stroke="black" paint-order="fill stroke markers" d=" M 168 345 L 168 341" stroke-linejoin="bevel" stroke-miterlimit="10"/><path fill="none" stroke="black" paint-order="fill stroke markers" d=" M 191 345 L 191 341" stroke-linejoin="bevel" stroke-miterlimit="10"/><path fill="none" stroke="black" paint-order="fill stroke markers" d=" M 214 345 L 214 341" stroke-linejoin="bevel" stroke-miterlimit="10"/><path fill="none" stroke="black" paint-order="fill stroke markers" d=" M 237 345 L 237 341" stroke-linejoin="bevel" stroke-miterlimit="10"/><path fill="none" stroke="black" paint-order="fill stroke markers" d=" M 260 345 L 260 341" stroke-linejoin="bevel" stroke-miterlimit="10"/><path fill="none" stroke="black" paint-order="fill stroke markers" d=" M 283 345 L 283 341" stroke-linejoin="bevel" stroke-miterlimit="10"/><path fill="none" stroke="black" paint-order="fill stroke markers" d=" M 306 345 L 306 341" stroke-linejoin="bevel" stroke-miterlimit="10"/><path fill="none" stroke="black" paint-order="fill stroke markers" d=" M 330 345 L 330 341" stroke-linejoin="bevel" stroke-miterlimit="10"/><path fill="none" stroke="black" paint-order="fill stroke markers" d=" M 353 345 L 353 341" stroke-linejoin="bevel" stroke-miterlimit="10"/><path fill="none" stroke="black" paint-order="fill stroke markers" d=" M 376 345 L 376 341" stroke-linejoin="bevel" stroke-miterlimit="10"/><path fill="none" stroke="black" paint-order="fill stroke markers" d=" M 399 345 L 399 341" stroke-linejoin="bevel" stroke-miterlimit="10"/><path fill="none" stroke="black" paint-order="fill stroke markers" d=" M 422 345 L 422 341" stroke-linejoin="bevel" stroke-miterlimit="10"/><path fill="none" stroke="black" paint-order="fill stroke markers" d=" M 445 345 L 445 341" stroke-linejoin="bevel" stroke-miterlimit="10"/><path fill="none" stroke="black" paint-order="fill stroke markers" d=" M 468 345 L 468 341" stroke-linejoin="bevel" stroke-miterlimit="10"/><path fill="none" stroke="black" paint-order="fill stroke markers" d=" M 491 345 L 491 341" stroke-linejoin="bevel" stroke-miterlimit="10"/><path fill="none" stroke="black" paint-order="fill stroke markers" d=" M 514 345 L 514 341" stroke-linejoin="bevel" stroke-miterlimit="10"/><path fill="none" stroke="black" paint-order="fill stroke markers" d=" M 537 345 L 537 341" stroke-linejoin="bevel" stroke-miterlimit="10"/><path fill="" stroke="black" paint-order="fill stroke markers" d=" M 560 345 L 560 341" stroke-linejoin="bevel" stroke-miterlimit="10"/><g transform="translate(99,352) rotate(0,0,0)"><text fill="" stroke="none" font-family="helvetica" font-size="12pt" font-style="normal" font-weight="normal" text-decoration="normal" x="0" y="0" text-anchor="middle" dominant-baseline="hanging">0</text><g transform="rotate(0,0,0) translate(-99,-352) translate(214,352) rotate(0,0,0)"><text fill="" stroke="none" font-family="helvetica" font-size="12pt" font-style="normal" font-weight="normal" text-decoration="normal" x="0" y="0" text-anchor="middle" dominant-baseline="hanging">0.5</text><g transform="rotate(0,0,0) translate(-214,-352) translate(330,352) rotate(0,0,0)"><text fill="" stroke="none" font-family="helvetica" font-size="12pt" font-style="normal" font-weight="normal" text-decoration="normal" x="0" y="0" text-anchor="middle" dominant-baseline="hanging">1</text><g transform="rotate(0,0,0) translate(-330,-352) translate(445,352) rotate(0,0,0)"><text fill="" stroke="none" font-family="helvetica" font-size="12pt" font-style="normal" font-weight="normal" text-decoration="normal" x="0" y="0" text-anchor="middle" dominant-baseline="hanging">1.5</text><g transform="rotate(0,0,0) translate(-445,-352) translate(560,352) rotate(0,0,0)"><text fill="" stroke="none" font-family="helvetica" font-size="12pt" font-style="normal" font-weight="normal" text-decoration="normal" x="0" y="0" text-anchor="middle" dominant-baseline="hanging">2</text><g transform="rotate(0,0,0) translate(-560,-352) translate(330,376) rotate(0,0,0)"><text fill="" stroke="none" font-family="helvetica" font-size="15pt" font-style="italic" font-weight="normal" text-decoration="normal" x="0" y="0" text-anchor="middle" dominant-baseline="hanging">Max latency(sec)</text><g transform="rotate(0,0,0) translate(-330,-376)"/></g></g></g></g></g></g></g><g fill="#444444"><path fill="none" stroke="black" paint-order="fill stroke markers" d=" M 89 341 L 89 5" stroke-linejoin="bevel" stroke-miterlimit="10"/><path fill="none" stroke="black" paint-order="fill stroke markers" d=" M 83 290 L 91 290" stroke-linejoin="bevel" stroke-miterlimit="10"/><path fill="none" stroke="black" paint-order="fill stroke markers" d=" M 83 237 L 91 237" stroke-linejoin="bevel" stroke-miterlimit="10"/><path fill="none" stroke="black" paint-order="fill stroke markers" d=" M 83 184 L 91 184" stroke-linejoin="bevel" stroke-miterlimit="10"/><path fill="none" stroke="black" paint-order="fill stroke markers" d=" M 83 131 L 91 131" stroke-linejoin="bevel" stroke-miterlimit="10"/><path fill="none" stroke="black" paint-order="fill stroke markers" d=" M 83 79 L 91 79" stroke-linejoin="bevel" stroke-miterlimit="10"/><path fill="none" stroke="black" paint-order="fill stroke markers" d=" M 83 26 L 91 26" stroke-linejoin="bevel" stroke-miterlimit="10"/><path fill="none" stroke="black" paint-order="fill stroke markers" d=" M 85 301 L 89 301" stroke-linejoin="bevel" stroke-miterlimit="10"/><path fill="none" stroke="black" paint-order="fill stroke markers" d=" M 85 311 L 89 311" stroke-linejoin="bevel" stroke-miterlimit="10"/><path fill="none" stroke="black" paint-order="fill stroke markers" d=" M 85 322 L 89 322" stroke-linejoin="bevel" stroke-miterlimit="10"/><path fill="none" stroke="black" paint-order="fill stroke markers" d=" M 85 333 L 89 333" stroke-linejoin="bevel" stroke-miterlimit="10"/><path fill="none" stroke="black" paint-order="fill stroke markers" d=" M 85 290 L 89 290" stroke-linejoin="bevel" stroke-miterlimit="10"/><path fill="none" stroke="black" paint-order="fill stroke markers" d=" M 85 280 L 89 280" stroke-linejoin="bevel" stroke-miterlimit="10"/><path fill="none" stroke="black" paint-order="fill stroke markers" d=" M 85 269 L 89 269" stroke-linejoin="bevel" stroke-miterlimit="10"/><path fill="none" stroke="black" paint-order="fill stroke markers" d=" M 85 259 L 89 259" stroke-linejoin="bevel" stroke-miterlimit="10"/><path fill="none" stroke="black" paint-order="fill stroke markers" d=" M 85 248 L 89 248" stroke-linejoin="bevel" stroke-miterlimit="10"/><path fill="none" stroke="black" paint-order="fill stroke markers" d=" M 85 237 L 89 237" stroke-linejoin="bevel" stroke-miterlimit="10"/><path fill="none" stroke="black" paint-order="fill stroke markers" d=" M 85 227 L 89 227" stroke-linejoin="bevel" stroke-miterlimit="10"/><path fill="none" stroke="black" paint-order="fill stroke markers" d=" M 85 216 L 89 216" stroke-linejoin="bevel" stroke-miterlimit="10"/><path fill="none" stroke="black" paint-order="fill stroke markers" d=" M 85 206 L 89 206" stroke-linejoin="bevel" stroke-miterlimit="10"/><path fill="none" stroke="black" paint-order="fill stroke markers" d=" M 85 195 L 89 195" stroke-linejoin="bevel" stroke-miterlimit="10"/><path fill="none" stroke="black" paint-order="fill stroke markers" d=" M 85 184 L 89 184" stroke-linejoin="bevel" stroke-miterlimit="10"/><path fill="none" stroke="black" paint-order="fill stroke markers" d=" M 85 174 L 89 174" stroke-linejoin="bevel" stroke-miterlimit="10"/><path fill="none" stroke="black" paint-order="fill stroke markers" d=" M 85 163 L 89 163" stroke-linejoin="bevel" stroke-miterlimit="10"/><path fill="none" stroke="black" paint-order="fill stroke markers" d=" M 85 153 L 89 153" stroke-linejoin="bevel" stroke-miterlimit="10"/><path fill="none" stroke="black" paint-order="fill stroke markers" d=" M 85 142 L 89 142" stroke-linejoin="bevel" stroke-miterlimit="10"/><path fill="none" stroke="black" paint-order="fill stroke markers" d=" M 85 131 L 89 131" stroke-linejoin="bevel" stroke-miterlimit="10"/><path fill="none" stroke="black" paint-order="fill stroke markers" d=" M 85 121 L 89 121" stroke-linejoin="bevel" stroke-miterlimit="10"/><path fill="none" stroke="black" paint-order="fill stroke markers" d=" M 85 110 L 89 110" stroke-linejoin="bevel" stroke-miterlimit="10"/><path fill="none" stroke="black" paint-order="fill stroke markers" d=" M 85 100 L 89 100" stroke-linejoin="bevel" stroke-miterlimit="10"/><path fill="none" stroke="black" paint-order="fill stroke markers" d=" M 85 89 L 89 89" stroke-linejoin="bevel" stroke-miterlimit="10"/><path fill="none" stroke="black" paint-order="fill stroke markers" d=" M 85 79 L 89 79" stroke-linejoin="bevel" stroke-miterlimit="10"/><path fill="none" stroke="black" paint-order="fill stroke markers" d=" M 85 68 L 89 68" stroke-linejoin="bevel" stroke-miterlimit="10"/><path fill="none" stroke="black" paint-order="fill stroke markers" d=" M 85 57 L 89 57" stroke-linejoin="bevel" stroke-miterlimit="10"/><path fill="none" stroke="black" paint-order="fill stroke markers" d=" M 85 47 L 89 47" stroke-linejoin="bevel" stroke-miterlimit="10"/><path fill="none" stroke="black" paint-order="fill stroke markers" d=" M 85 36 L 89 36" stroke-linejoin="bevel" stroke-miterlimit="10"/><path fill="none" stroke="black" paint-order="fill stroke markers" d=" M 85 26 L 89 26" stroke-linejoin="bevel" stroke-miterlimit="10"/><path fill="" stroke="black" paint-order="fill stroke markers" d=" M 85 15 L 89 15" stroke-linejoin="bevel" stroke-miterlimit="10"/><g transform="translate(78,290) rotate(0,0,0)"><text fill="" stroke="none" font-family="helvetica" font-size="12pt" font-style="normal" font-weight="normal" text-decoration="normal" x="0" y="0" text-anchor="end" dominant-baseline="central">2000</text><g transform="rotate(0,0,0) translate(-78,-290) translate(78,237) rotate(0,0,0)"><text fill="" stroke="none" font-family="helvetica" font-size="12pt" font-style="normal" font-weight="normal" text-decoration="normal" x="0" y="0" text-anchor="end" dominant-baseline="central">4000</text><g transform="rotate(0,0,0) translate(-78,-237) translate(78,184) rotate(0,0,0)"><text fill="" stroke="none" font-family="helvetica" font-size="12pt" font-style="normal" font-weight="normal" text-decoration="normal" x="0" y="0" text-anchor="end" dominant-baseline="central">6000</text><g transform="rotate(0,0,0) translate(-78,-184) translate(78,131) rotate(0,0,0)"><text fill="" stroke="none" font-family="helvetica" font-size="12pt" font-style="normal" font-weight="normal" text-decoration="normal" x="0" y="0" text-anchor="end" dominant-baseline="central">8000</text><g transform="rotate(0,0,0) translate(-78,-131) translate(78,79) rotate(0,0,0)"><text fill="" stroke="none" font-family="helvetica" font-size="12pt" font-style="normal" font-weight="normal" text-decoration="normal" x="0" y="0" text-anchor="end" dominant-baseline="central">10000</text><g transform="rotate(0,0,0) translate(-78,-79) translate(78,26) rotate(0,0,0)"><text fill="" stroke="none" font-family="helvetica" font-size="12pt" font-style="normal" font-weight="normal" text-decoration="normal" x="0" y="0" text-anchor="end" dominant-baseline="central">12000</text><g transform="rotate(0,0,0) translate(-78,-26) translate(24,173) rotate(-90,0,0)"><text fill="" stroke="none" font-family="helvetica" font-size="15pt" font-style="italic" font-weight="normal" text-decoration="normal" x="0" y="0" text-anchor="middle" dominant-baseline="alphabetic">Cost($)</text><g transform="rotate(90,0,0) translate(-24,-173)"/></g></g></g></g></g></g></g></g></g></g></g></svg>