<svg version="1.1" xmlns="http://www.w3.org/2000/svg" xmlns:xlink="http://www.w3.org/1999/xlink" width="1600" height="840" style="width: 1600px; height: 840px;"><defs><clipPath id="nGvcAhTDuMZe"><path fill="none" stroke="none" d=" M 69 5 L 1570 5 L 1570 792 L 69 792 L 69 5 Z"/></clipPath><clipPath id="OdnQKtxIMWiC"><path fill="none" stroke="none" d=" M 69 5 L 1570 5 L 1570 792 L 69 792 L 69 5 Z"/></clipPath></defs><g><g transform="scale(1,1) translate(0.5,0.5)"><rect fill="#FFFFFF" stroke="none" x="0" y="0" width="1600" height="840"/><rect fill="#ffffff" stroke="none" x="0" y="0" width="1600" height="840"/><rect fill="#FFFFFF" stroke="none" x="69" y="5" width="1501" height="787"/><rect fill="#ffffff" stroke="none" x="69" y="5" width="1501" height="787"/><g><rect fill="none" stroke="#e5e5e5" x="69" y="5" width="1501" height="787" stroke-linejoin="bevel" stroke-miterlimit="10"/></g><g clip-path="url(#nGvcAhTDuMZe)"><g><g><path fill="none" stroke="#e5e5e5" paint-order="fill stroke markers" d=" M 101 792 L 101 5" stroke-linejoin="bevel" stroke-miterlimit="10"/><path fill="none" stroke="#e5e5e5" paint-order="fill stroke markers" d=" M 460 792 L 460 5" stroke-linejoin="bevel" stroke-miterlimit="10"/><path fill="none" stroke="#e5e5e5" paint-order="fill stroke markers" d=" M 820 792 L 820 5" stroke-linejoin="bevel" stroke-miterlimit="10"/><path fill="none" stroke="#e5e5e5" paint-order="fill stroke markers" d=" M 1179 792 L 1179 5" stroke-linejoin="bevel" stroke-miterlimit="10"/><path fill="none" stroke="#e5e5e5" paint-order="fill stroke markers" d=" M 1538 792 L 1538 5" stroke-linejoin="bevel" stroke-miterlimit="10"/></g><g><path fill="none" stroke="#e5e5e5" paint-order="fill stroke markers" d=" M 69 692 L 1570 692" stroke-linejoin="bevel" stroke-miterlimit="10"/><path fill="none" stroke="#e5e5e5" paint-order="fill stroke markers" d=" M 69 565 L 1570 565" stroke-linejoin="bevel" stroke-miterlimit="10"/><path fill="none" stroke="#e5e5e5" paint-order="fill stroke markers" d=" M 69 437 L 1570 437" stroke-linejoin="bevel" stroke-miterlimit="10"/><path fill="none" stroke="#e5e5e5" paint-order="fill stroke markers" d=" M 69 309 L 1570 309" stroke-linejoin="bevel" stroke-miterlimit="10"/><path fill="none" stroke="#e5e5e5" paint-order="fill stroke markers" d=" M 69 181 L 1570 181" stroke-linejoin="bevel" stroke-miterlimit="10"/><path fill="none" stroke="#e5e5e5" paint-order="fill stroke markers" d=" M 69 54 L 1570 54" stroke-linejoin="bevel" stroke-miterlimit="10"/></g><g><path fill="none" stroke="none"/><path fill="none" stroke="#1f77b4" paint-order="fill stroke markers" d=" M 137.2272727272727 18.65310321318725 L 173.1363636363636 18.65310321318725 L 209.0454545454545 40.77272727272725 L 244.95454545454544 45.72936263807617 L 280.8636363636363 530.1318835168938 L 316.77272727272725 532.1183701130581 L 352.68181818181813 541.9869289268004 L 388.59090909090907 549.8306766441308 L 424.5 561.9028942221069 L 460.4090909090909 565.6267581628264 L 496.3181818181818 567.2874865068866 L 532.2272727272727 567.9964897614661 L 568.1363636363636 574.211446218276 L 604.0454545454545 574.038985967162 L 639.9545454545455 575.3611812257022 L 675.8636363636364 577.9225353255797 L 711.7727272727273 579.0850451664219 L 747.6818181818182 569.2420360195113 L 783.590909090909 573.36830721283 L 819.5 574.2050588015682 L 855.409090909091 576.3512308154304 L 891.3181818181819 577.5840022400598 L 927.2272727272726 576.1276712306532 L 963.1363636363636 576.0446348134501 L 999.0454545454545 578.1269326602333 L 1034.9545454545455 579.2191809172882 L 1070.8636363636365 579.6471378367191 L 1106.7727272727273 579.2447305841199 L 1142.6818181818182 580.2156179237244 L 1178.5909090909092 580.0112205890708 L 1214.5 581.3717403478586 L 1250.409090909091 581.0715317625861 L 1286.3181818181818 581.4547767650616 L 1322.2272727272727 582.8983329410523 L 1358.1363636363637 582.7514223567701 L 1394.0454545454547 582.5853495223641 L 1429.9545454545455 583.4221011111022 L 1465.8636363636363 583.3646143607308 L 1501.7727272727273 583.3646143607308" stroke-linejoin="bevel" stroke-miterlimit="10" stroke-width="2"/></g><g><path fill="none" stroke="none"/><path fill="none" stroke="dodgerblue" paint-order="fill stroke markers" d=" M 137.2272727272727 756.2272727272727 L 173.1363636363636 756.2272727272727 L 209.0454545454545 756.2272727272727 L 244.95454545454544 756.2272727272727 L 280.8636363636363 756.2272727272727 L 316.77272727272725 756.2272727272727 L 352.68181818181813 756.2272727272727 L 388.59090909090907 756.2272727272727 L 424.5 756.2272727272727 L 460.4090909090909 756.2272727272727 L 496.3181818181818 756.2272727272727 L 532.2272727272727 756.2272727272727 L 568.1363636363636 756.2272727272727 L 604.0454545454545 756.2272727272727 L 639.9545454545455 756.2272727272727 L 675.8636363636364 756.2272727272727 L 711.7727272727273 756.2272727272727 L 747.6818181818182 756.2272727272727 L 783.590909090909 756.2272727272727 L 819.5 756.2272727272727 L 855.409090909091 756.2272727272727 L 891.3181818181819 756.2272727272727 L 927.2272727272726 756.2272727272727 L 963.1363636363636 756.2272727272727 L 999.0454545454545 756.2272727272727 L 1034.9545454545455 756.2272727272727 L 1070.8636363636365 756.2272727272727 L 1106.7727272727273 756.2272727272727 L 1142.6818181818182 756.2272727272727 L 1178.5909090909092 756.2272727272727 L 1214.5 756.2272727272727 L 1250.409090909091 756.2272727272727 L 1286.3181818181818 756.2272727272727 L 1322.2272727272727 756.2272727272727 L 1358.1363636363637 756.2272727272727 L 1394.0454545454547 756.2272727272727 L 1429.9545454545455 756.2272727272727 L 1465.8636363636363 756.2272727272727 L 1501.7727272727273 756.2272727272727" stroke-linejoin="bevel" stroke-miterlimit="10" stroke-width="2"/></g><g><path fill="none" stroke="none"/><path fill="none" stroke="deepskyblue" paint-order="fill stroke markers" d=" M 137.2272727272727 82.52727029242521 L 173.1363636363636 82.52727029242521 L 209.0454545454545 104.64689435196533 L 244.95454545454544 109.60352971731425 L 280.8636363636363 594.0060505961319 L 316.77272727272725 595.9925371922961 L 352.68181818181813 605.8610960060385 L 388.59090909090907 613.7048437233689 L 424.5 625.7770613013449 L 460.4090909090909 629.5009252420645 L 496.3181818181818 631.1616535861247 L 532.2272727272727 631.8706568407042 L 568.1363636363636 638.0856132975141 L 604.0454545454545 637.9131530464001 L 639.9545454545455 639.2353483049403 L 675.8636363636364 641.7967024048178 L 711.7727272727273 642.95921224566 L 747.6818181818182 633.1162030987493 L 783.590909090909 637.2424742920681 L 819.5 638.0792258808061 L 855.409090909091 640.2253978946685 L 891.3181818181819 641.4581693192978 L 927.2272727272726 640.0018383098912 L 963.1363636363636 639.9188018926882 L 999.0454545454545 642.0010997394713 L 1034.9545454545455 643.0933479965263 L 1070.8636363636365 643.5213049159572 L 1106.7727272727273 643.118897663358 L 1142.6818181818182 644.0897850029625 L 1178.5909090909092 643.8853876683088 L 1214.5 645.2459074270967 L 1250.409090909091 644.9456988418242 L 1286.3181818181818 645.3289438442996 L 1322.2272727272727 646.7725000202904 L 1358.1363636363637 646.6255894360081 L 1394.0454545454547 646.4595166016022 L 1429.9545454545455 647.2962681903402 L 1465.8636363636363 647.2387814399689 L 1501.7727272727273 647.2387814399689" stroke-linejoin="bevel" stroke-miterlimit="10" stroke-width="2"/></g><g><path fill="none" stroke="none"/><path fill="#1f77b4" stroke="#1f77b4" paint-order="fill stroke markers" d=" M 212.5454545454545 40.77272727272725 A 3.5 3.5 0 1 1 212.54545279545465 40.769227273310584" stroke-linejoin="bevel" stroke-miterlimit="10"/><path fill="#1f77b4" stroke="#1f77b4" paint-order="fill stroke markers" d=" M 463.9090909090909 565.6267581628264 A 3.5 3.5 0 1 1 463.909089159091 565.6232581634097" stroke-linejoin="bevel" stroke-miterlimit="10"/><path fill="#1f77b4" stroke="#1f77b4" paint-order="fill stroke markers" d=" M 499.8181818181818 567.2874865068866 A 3.5 3.5 0 1 1 499.81818006818196 567.2839865074699" stroke-linejoin="bevel" stroke-miterlimit="10"/></g><g><path fill="none" stroke="none"/><path fill="dodgerblue" stroke="dodgerblue" paint-order="fill stroke markers" d=" M 140.7272727272727 756.2272727272727 A 3.5 3.5 0 1 1 140.72727097727284 756.223772727856" stroke-linejoin="bevel" stroke-miterlimit="10"/><path fill="dodgerblue" stroke="dodgerblue" paint-order="fill stroke markers" d=" M 176.6363636363636 756.2272727272727 A 3.5 3.5 0 1 1 176.63636188636374 756.223772727856" stroke-linejoin="bevel" stroke-miterlimit="10"/><path fill="dodgerblue" stroke="dodgerblue" paint-order="fill stroke markers" d=" M 212.5454545454545 756.2272727272727 A 3.5 3.5 0 1 1 212.54545279545465 756.223772727856" stroke-linejoin="bevel" stroke-miterlimit="10"/><path fill="dodgerblue" stroke="dodgerblue" paint-order="fill stroke markers" d=" M 248.45454545454544 756.2272727272727 A 3.5 3.5 0 1 1 248.45454370454559 756.223772727856" stroke-linejoin="bevel" stroke-miterlimit="10"/><path fill="dodgerblue" stroke="dodgerblue" paint-order="fill stroke markers" d=" M 284.3636363636363 756.2272727272727 A 3.5 3.5 0 1 1 284.36363461363646 756.223772727856" stroke-linejoin="bevel" stroke-miterlimit="10"/><path fill="dodgerblue" stroke="dodgerblue" paint-order="fill stroke markers" d=" M 320.27272727272725 756.2272727272727 A 3.5 3.5 0 1 1 320.2727255227274 756.223772727856" stroke-linejoin="bevel" stroke-miterlimit="10"/><path fill="dodgerblue" stroke="dodgerblue" paint-order="fill stroke markers" d=" M 356.18181818181813 756.2272727272727 A 3.5 3.5 0 1 1 356.1818164318183 756.223772727856" stroke-linejoin="bevel" stroke-miterlimit="10"/><path fill="dodgerblue" stroke="dodgerblue" paint-order="fill stroke markers" d=" M 392.09090909090907 756.2272727272727 A 3.5 3.5 0 1 1 392.0909073409092 756.223772727856" stroke-linejoin="bevel" stroke-miterlimit="10"/><path fill="dodgerblue" stroke="dodgerblue" paint-order="fill stroke markers" d=" M 428 756.2272727272727 A 3.5 3.5 0 1 1 427.99999825000015 756.223772727856" stroke-linejoin="bevel" stroke-miterlimit="10"/><path fill="dodgerblue" stroke="dodgerblue" paint-order="fill stroke markers" d=" M 463.9090909090909 756.2272727272727 A 3.5 3.5 0 1 1 463.909089159091 756.223772727856" stroke-linejoin="bevel" stroke-miterlimit="10"/><path fill="dodgerblue" stroke="dodgerblue" paint-order="fill stroke markers" d=" M 499.8181818181818 756.2272727272727 A 3.5 3.5 0 1 1 499.81818006818196 756.223772727856" stroke-linejoin="bevel" stroke-miterlimit="10"/><path fill="dodgerblue" stroke="dodgerblue" paint-order="fill stroke markers" d=" M 535.7272727272727 756.2272727272727 A 3.5 3.5 0 1 1 535.7272709772728 756.223772727856" stroke-linejoin="bevel" stroke-miterlimit="10"/><path fill="dodgerblue" stroke="dodgerblue" paint-order="fill stroke markers" d=" M 571.6363636363636 756.2272727272727 A 3.5 3.5 0 1 1 571.6363618863637 756.223772727856" stroke-linejoin="bevel" stroke-miterlimit="10"/><path fill="dodgerblue" stroke="dodgerblue" paint-order="fill stroke markers" d=" M 607.5454545454545 756.2272727272727 A 3.5 3.5 0 1 1 607.5454527954546 756.223772727856" stroke-linejoin="bevel" stroke-miterlimit="10"/><path fill="dodgerblue" stroke="dodgerblue" paint-order="fill stroke markers" d=" M 643.4545454545455 756.2272727272727 A 3.5 3.5 0 1 1 643.4545437045456 756.223772727856" stroke-linejoin="bevel" stroke-miterlimit="10"/><path fill="dodgerblue" stroke="dodgerblue" paint-order="fill stroke markers" d=" M 679.3636363636364 756.2272727272727 A 3.5 3.5 0 1 1 679.3636346136365 756.223772727856" stroke-linejoin="bevel" stroke-miterlimit="10"/><path fill="dodgerblue" stroke="dodgerblue" paint-order="fill stroke markers" d=" M 715.2727272727273 756.2272727272727 A 3.5 3.5 0 1 1 715.2727255227273 756.223772727856" stroke-linejoin="bevel" stroke-miterlimit="10"/><path fill="dodgerblue" stroke="dodgerblue" paint-order="fill stroke markers" d=" M 751.1818181818182 756.2272727272727 A 3.5 3.5 0 1 1 751.1818164318183 756.223772727856" stroke-linejoin="bevel" stroke-miterlimit="10"/><path fill="dodgerblue" stroke="dodgerblue" paint-order="fill stroke markers" d=" M 787.090909090909 756.2272727272727 A 3.5 3.5 0 1 1 787.0909073409091 756.223772727856" stroke-linejoin="bevel" stroke-miterlimit="10"/><path fill="dodgerblue" stroke="dodgerblue" paint-order="fill stroke markers" d=" M 823 756.2272727272727 A 3.5 3.5 0 1 1 822.9999982500001 756.223772727856" stroke-linejoin="bevel" stroke-miterlimit="10"/><path fill="dodgerblue" stroke="dodgerblue" paint-order="fill stroke markers" d=" M 858.909090909091 756.2272727272727 A 3.5 3.5 0 1 1 858.9090891590911 756.223772727856" stroke-linejoin="bevel" stroke-miterlimit="10"/><path fill="dodgerblue" stroke="dodgerblue" paint-order="fill stroke markers" d=" M 894.8181818181819 756.2272727272727 A 3.5 3.5 0 1 1 894.818180068182 756.223772727856" stroke-linejoin="bevel" stroke-miterlimit="10"/><path fill="dodgerblue" stroke="dodgerblue" paint-order="fill stroke markers" d=" M 930.7272727272726 756.2272727272727 A 3.5 3.5 0 1 1 930.7272709772727 756.223772727856" stroke-linejoin="bevel" stroke-miterlimit="10"/><path fill="dodgerblue" stroke="dodgerblue" paint-order="fill stroke markers" d=" M 966.6363636363636 756.2272727272727 A 3.5 3.5 0 1 1 966.6363618863637 756.223772727856" stroke-linejoin="bevel" stroke-miterlimit="10"/><path fill="dodgerblue" stroke="dodgerblue" paint-order="fill stroke markers" d=" M 1002.5454545454545 756.2272727272727 A 3.5 3.5 0 1 1 1002.5454527954546 756.223772727856" stroke-linejoin="bevel" stroke-miterlimit="10"/><path fill="dodgerblue" stroke="dodgerblue" paint-order="fill stroke markers" d=" M 1038.4545454545455 756.2272727272727 A 3.5 3.5 0 1 1 1038.4545437045456 756.223772727856" stroke-linejoin="bevel" stroke-miterlimit="10"/><path fill="dodgerblue" stroke="dodgerblue" paint-order="fill stroke markers" d=" M 1074.3636363636365 756.2272727272727 A 3.5 3.5 0 1 1 1074.3636346136366 756.223772727856" stroke-linejoin="bevel" stroke-miterlimit="10"/><path fill="dodgerblue" stroke="dodgerblue" paint-order="fill stroke markers" d=" M 1110.2727272727273 756.2272727272727 A 3.5 3.5 0 1 1 1110.2727255227273 756.223772727856" stroke-linejoin="bevel" stroke-miterlimit="10"/><path fill="dodgerblue" stroke="dodgerblue" paint-order="fill stroke markers" d=" M 1146.1818181818182 756.2272727272727 A 3.5 3.5 0 1 1 1146.1818164318183 756.223772727856" stroke-linejoin="bevel" stroke-miterlimit="10"/><path fill="dodgerblue" stroke="dodgerblue" paint-order="fill stroke markers" d=" M 1182.0909090909092 756.2272727272727 A 3.5 3.5 0 1 1 1182.0909073409093 756.223772727856" stroke-linejoin="bevel" stroke-miterlimit="10"/><path fill="dodgerblue" stroke="dodgerblue" paint-order="fill stroke markers" d=" M 1218 756.2272727272727 A 3.5 3.5 0 1 1 1217.99999825 756.223772727856" stroke-linejoin="bevel" stroke-miterlimit="10"/><path fill="dodgerblue" stroke="dodgerblue" paint-order="fill stroke markers" d=" M 1253.909090909091 756.2272727272727 A 3.5 3.5 0 1 1 1253.909089159091 756.223772727856" stroke-linejoin="bevel" stroke-miterlimit="10"/><path fill="dodgerblue" stroke="dodgerblue" paint-order="fill stroke markers" d=" M 1289.8181818181818 756.2272727272727 A 3.5 3.5 0 1 1 1289.8181800681818 756.223772727856" stroke-linejoin="bevel" stroke-miterlimit="10"/><path fill="dodgerblue" stroke="dodgerblue" paint-order="fill stroke markers" d=" M 1325.7272727272727 756.2272727272727 A 3.5 3.5 0 1 1 1325.7272709772728 756.223772727856" stroke-linejoin="bevel" stroke-miterlimit="10"/><path fill="dodgerblue" stroke="dodgerblue" paint-order="fill stroke markers" d=" M 1361.6363636363637 756.2272727272727 A 3.5 3.5 0 1 1 1361.6363618863638 756.223772727856" stroke-linejoin="bevel" stroke-miterlimit="10"/><path fill="dodgerblue" stroke="dodgerblue" paint-order="fill stroke markers" d=" M 1397.5454545454547 756.2272727272727 A 3.5 3.5 0 1 1 1397.5454527954548 756.223772727856" stroke-linejoin="bevel" stroke-miterlimit="10"/><path fill="dodgerblue" stroke="dodgerblue" paint-order="fill stroke markers" d=" M 1433.4545454545455 756.2272727272727 A 3.5 3.5 0 1 1 1433.4545437045456 756.223772727856" stroke-linejoin="bevel" stroke-miterlimit="10"/><path fill="dodgerblue" stroke="dodgerblue" paint-order="fill stroke markers" d=" M 1469.3636363636363 756.2272727272727 A 3.5 3.5 0 1 1 1469.3636346136363 756.223772727856" stroke-linejoin="bevel" stroke-miterlimit="10"/><path fill="dodgerblue" stroke="dodgerblue" paint-order="fill stroke markers" d=" M 1505.2727272727273 756.2272727272727 A 3.5 3.5 0 1 1 1505.2727255227273 756.223772727856" stroke-linejoin="bevel" stroke-miterlimit="10"/></g><g><path fill="none" stroke="none"/><path fill="deepskyblue" stroke="deepskyblue" paint-order="fill stroke markers" d=" M 212.5454545454545 104.64689435196533 A 3.5 3.5 0 1 1 212.54545279545465 104.64339435254865" stroke-linejoin="bevel" stroke-miterlimit="10"/><path fill="deepskyblue" stroke="deepskyblue" paint-order="fill stroke markers" d=" M 463.9090909090909 629.5009252420645 A 3.5 3.5 0 1 1 463.909089159091 629.4974252426478" stroke-linejoin="bevel" stroke-miterlimit="10"/><path fill="deepskyblue" stroke="deepskyblue" paint-order="fill stroke markers" d=" M 499.8181818181818 631.1616535861247 A 3.5 3.5 0 1 1 499.81818006818196 631.158153586708" stroke-linejoin="bevel" stroke-miterlimit="10"/></g></g></g><g clip-path="url(#OdnQKtxIMWiC)"><g><g/><g><path fill="#ffffff" stroke="#e5e5e5" paint-order="fill stroke markers" d=" M 79 15 L 157.921875 15 L 157.921875 101 L 79 101 L 79 15 Z" fill-opacity="0.95" stroke-linejoin="bevel" stroke-miterlimit="10" stroke-opacity="0.5"/><text fill="#444444" stroke="none" font-family="helvetica" font-size="10pt" font-style="normal" font-weight="normal" text-decoration="normal" x="114" y="35" text-anchor="start" dominant-baseline="central">Total.</text><g><path fill="none" stroke="#1f77b4" paint-order="fill stroke markers" d=" M 89 35 L 109 35" stroke-linejoin="bevel" stroke-miterlimit="10" stroke-width="2"/></g><text fill="#444444" stroke="none" font-family="helvetica" font-size="10pt" font-style="normal" font-weight="normal" text-decoration="normal" x="114" y="58" text-anchor="start" dominant-baseline="central">Edge.</text><g><path fill="none" stroke="dodgerblue" paint-order="fill stroke markers" d=" M 89 58 L 109 58" stroke-linejoin="bevel" stroke-miterlimit="10" stroke-width="2"/></g><text fill="#444444" stroke="none" font-family="helvetica" font-size="10pt" font-style="normal" font-weight="normal" text-decoration="normal" x="114" y="81" text-anchor="start" dominant-baseline="central">Fog.</text><g><path fill="none" stroke="deepskyblue" paint-order="fill stroke markers" d=" M 89 81 L 109 81" stroke-linejoin="bevel" stroke-miterlimit="10" stroke-width="2"/></g></g></g></g><g><g fill="#444444"><path fill="none" stroke="black" paint-order="fill stroke markers" d=" M 69 792 L 1570 792" stroke-linejoin="bevel" stroke-miterlimit="10"/><path fill="none" stroke="black" paint-order="fill stroke markers" d=" M 101 798 L 101 790" stroke-linejoin="bevel" stroke-miterlimit="10"/><path fill="none" stroke="black" paint-order="fill stroke markers" d=" M 460 798 L 460 790" stroke-linejoin="bevel" stroke-miterlimit="10"/><path fill="none" stroke="black" paint-order="fill stroke markers" d=" M 820 798 L 820 790" stroke-linejoin="bevel" stroke-miterlimit="10"/><path fill="none" stroke="black" paint-order="fill stroke markers" d=" M 1179 798 L 1179 790" stroke-linejoin="bevel" stroke-miterlimit="10"/><path fill="none" stroke="black" paint-order="fill stroke markers" d=" M 1538 798 L 1538 790" stroke-linejoin="bevel" stroke-miterlimit="10"/><path fill="none" stroke="black" paint-order="fill stroke markers" d=" M 101 796 L 101 792" stroke-linejoin="bevel" stroke-miterlimit="10"/><path fill="none" stroke="black" paint-order="fill stroke markers" d=" M 173 796 L 173 792" stroke-linejoin="bevel" stroke-miterlimit="10"/><path fill="none" stroke="black" paint-order="fill stroke markers" d=" M 245 796 L 245 792" stroke-linejoin="bevel" stroke-miterlimit="10"/><path fill="none" stroke="black" paint-order="fill stroke markers" d=" M 317 796 L 317 792" stroke-linejoin="bevel" stroke-miterlimit="10"/><path fill="none" stroke="black" paint-order="fill stroke markers" d=" M 389 796 L 389 792" stroke-linejoin="bevel" stroke-miterlimit="10"/><path fill="none" stroke="black" paint-order="fill stroke markers" d=" M 460 796 L 460 792" stroke-linejoin="bevel" stroke-miterlimit="10"/><path fill="none" stroke="black" paint-order="fill stroke markers" d=" M 532 796 L 532 792" stroke-linejoin="bevel" stroke-miterlimit="10"/><path fill="none" stroke="black" paint-order="fill stroke markers" d=" M 604 796 L 604 792" stroke-linejoin="bevel" stroke-miterlimit="10"/><path fill="none" stroke="black" paint-order="fill stroke markers" d=" M 676 796 L 676 792" stroke-linejoin="bevel" stroke-miterlimit="10"/><path fill="none" stroke="black" paint-order="fill stroke markers" d=" M 748 796 L 748 792" stroke-linejoin="bevel" stroke-miterlimit="10"/><path fill="none" stroke="black" paint-order="fill stroke markers" d=" M 820 796 L 820 792" stroke-linejoin="bevel" stroke-miterlimit="10"/><path fill="none" stroke="black" paint-order="fill stroke markers" d=" M 891 796 L 891 792" stroke-linejoin="bevel" stroke-miterlimit="10"/><path fill="none" stroke="black" paint-order="fill stroke markers" d=" M 963 796 L 963 792" stroke-linejoin="bevel" stroke-miterlimit="10"/><path fill="none" stroke="black" paint-order="fill stroke markers" d=" M 1035 796 L 1035 792" stroke-linejoin="bevel" stroke-miterlimit="10"/><path fill="none" stroke="black" paint-order="fill stroke markers" d=" M 1107 796 L 1107 792" stroke-linejoin="bevel" stroke-miterlimit="10"/><path fill="none" stroke="black" paint-order="fill stroke markers" d=" M 1179 796 L 1179 792" stroke-linejoin="bevel" stroke-miterlimit="10"/><path fill="none" stroke="black" paint-order="fill stroke markers" d=" M 1250 796 L 1250 792" stroke-linejoin="bevel" stroke-miterlimit="10"/><path fill="none" stroke="black" paint-order="fill stroke markers" d=" M 1322 796 L 1322 792" stroke-linejoin="bevel" stroke-miterlimit="10"/><path fill="none" stroke="black" paint-order="fill stroke markers" d=" M 1394 796 L 1394 792" stroke-linejoin="bevel" stroke-miterlimit="10"/><path fill="none" stroke="black" paint-order="fill stroke markers" d=" M 1466 796 L 1466 792" stroke-linejoin="bevel" stroke-miterlimit="10"/><path fill="" stroke="black" paint-order="fill stroke markers" d=" M 1538 796 L 1538 792" stroke-linejoin="bevel" stroke-miterlimit="10"/><g transform="translate(101,803) rotate(0,0,0)"><text fill="" stroke="none" font-family="helvetica" font-size="8pt" font-style="normal" font-weight="normal" text-decoration="normal" x="0" y="0" text-anchor="middle" dominant-baseline="hanging">0</text><g transform="rotate(0,0,0) translate(-101,-803) translate(460,803) rotate(0,0,0)"><text fill="" stroke="none" font-family="helvetica" font-size="8pt" font-style="normal" font-weight="normal" text-decoration="normal" x="0" y="0" text-anchor="middle" dominant-baseline="hanging">0.5</text><g transform="rotate(0,0,0) translate(-460,-803) translate(820,803) rotate(0,0,0)"><text fill="" stroke="none" font-family="helvetica" font-size="8pt" font-style="normal" font-weight="normal" text-decoration="normal" x="0" y="0" text-anchor="middle" dominant-baseline="hanging">1</text><g transform="rotate(0,0,0) translate(-820,-803) translate(1179,803) rotate(0,0,0)"><text fill="" stroke="none" font-family="helvetica" font-size="8pt" font-style="normal" font-weight="normal" text-decoration="normal" x="0" y="0" text-anchor="middle" dominant-baseline="hanging">1.5</text><g transform="rotate(0,0,0) translate(-1179,-803) translate(1538,803) rotate(0,0,0)"><text fill="" stroke="none" font-family="helvetica" font-size="8pt" font-style="normal" font-weight="normal" text-decoration="normal" x="0" y="0" text-anchor="middle" dominant-baseline="hanging">2</text><g transform="rotate(0,0,0) translate(-1538,-803) translate(820,821) rotate(0,0,0)"><text fill="" stroke="none" font-family="helvetica" font-size="12pt" font-style="italic" font-weight="normal" text-decoration="normal" x="0" y="0" text-anchor="middle" dominant-baseline="hanging">Max latency</text><g transform="rotate(0,0,0) translate(-820,-821)"/></g></g></g></g></g></g></g><g fill="#444444"><path fill="none" stroke="black" paint-order="fill stroke markers" d=" M 69 792 L 69 5" stroke-linejoin="bevel" stroke-miterlimit="10"/><path fill="none" stroke="black" paint-order="fill stroke markers" d=" M 63 692 L 71 692" stroke-linejoin="bevel" stroke-miterlimit="10"/><path fill="none" stroke="black" paint-order="fill stroke markers" d=" M 63 565 L 71 565" stroke-linejoin="bevel" stroke-miterlimit="10"/><path fill="none" stroke="black" paint-order="fill stroke markers" d=" M 63 437 L 71 437" stroke-linejoin="bevel" stroke-miterlimit="10"/><path fill="none" stroke="black" paint-order="fill stroke markers" d=" M 63 309 L 71 309" stroke-linejoin="bevel" stroke-miterlimit="10"/><path fill="none" stroke="black" paint-order="fill stroke markers" d=" M 63 181 L 71 181" stroke-linejoin="bevel" stroke-miterlimit="10"/><path fill="none" stroke="black" paint-order="fill stroke markers" d=" M 63 54 L 71 54" stroke-linejoin="bevel" stroke-miterlimit="10"/><path fill="none" stroke="black" paint-order="fill stroke markers" d=" M 65 718 L 69 718" stroke-linejoin="bevel" stroke-miterlimit="10"/><path fill="none" stroke="black" paint-order="fill stroke markers" d=" M 65 743 L 69 743" stroke-linejoin="bevel" stroke-miterlimit="10"/><path fill="none" stroke="black" paint-order="fill stroke markers" d=" M 65 769 L 69 769" stroke-linejoin="bevel" stroke-miterlimit="10"/><path fill="none" stroke="black" paint-order="fill stroke markers" d=" M 65 692 L 69 692" stroke-linejoin="bevel" stroke-miterlimit="10"/><path fill="none" stroke="black" paint-order="fill stroke markers" d=" M 65 667 L 69 667" stroke-linejoin="bevel" stroke-miterlimit="10"/><path fill="none" stroke="black" paint-order="fill stroke markers" d=" M 65 641 L 69 641" stroke-linejoin="bevel" stroke-miterlimit="10"/><path fill="none" stroke="black" paint-order="fill stroke markers" d=" M 65 616 L 69 616" stroke-linejoin="bevel" stroke-miterlimit="10"/><path fill="none" stroke="black" paint-order="fill stroke markers" d=" M 65 590 L 69 590" stroke-linejoin="bevel" stroke-miterlimit="10"/><path fill="none" stroke="black" paint-order="fill stroke markers" d=" M 65 565 L 69 565" stroke-linejoin="bevel" stroke-miterlimit="10"/><path fill="none" stroke="black" paint-order="fill stroke markers" d=" M 65 539 L 69 539" stroke-linejoin="bevel" stroke-miterlimit="10"/><path fill="none" stroke="black" paint-order="fill stroke markers" d=" M 65 514 L 69 514" stroke-linejoin="bevel" stroke-miterlimit="10"/><path fill="none" stroke="black" paint-order="fill stroke markers" d=" M 65 488 L 69 488" stroke-linejoin="bevel" stroke-miterlimit="10"/><path fill="none" stroke="black" paint-order="fill stroke markers" d=" M 65 462 L 69 462" stroke-linejoin="bevel" stroke-miterlimit="10"/><path fill="none" stroke="black" paint-order="fill stroke markers" d=" M 65 437 L 69 437" stroke-linejoin="bevel" stroke-miterlimit="10"/><path fill="none" stroke="black" paint-order="fill stroke markers" d=" M 65 411 L 69 411" stroke-linejoin="bevel" stroke-miterlimit="10"/><path fill="none" stroke="black" paint-order="fill stroke markers" d=" M 65 386 L 69 386" stroke-linejoin="bevel" stroke-miterlimit="10"/><path fill="none" stroke="black" paint-order="fill stroke markers" d=" M 65 360 L 69 360" stroke-linejoin="bevel" stroke-miterlimit="10"/><path fill="none" stroke="black" paint-order="fill stroke markers" d=" M 65 335 L 69 335" stroke-linejoin="bevel" stroke-miterlimit="10"/><path fill="none" stroke="black" paint-order="fill stroke markers" d=" M 65 309 L 69 309" stroke-linejoin="bevel" stroke-miterlimit="10"/><path fill="none" stroke="black" paint-order="fill stroke markers" d=" M 65 284 L 69 284" stroke-linejoin="bevel" stroke-miterlimit="10"/><path fill="none" stroke="black" paint-order="fill stroke markers" d=" M 65 258 L 69 258" stroke-linejoin="bevel" stroke-miterlimit="10"/><path fill="none" stroke="black" paint-order="fill stroke markers" d=" M 65 232 L 69 232" stroke-linejoin="bevel" stroke-miterlimit="10"/><path fill="none" stroke="black" paint-order="fill stroke markers" d=" M 65 207 L 69 207" stroke-linejoin="bevel" stroke-miterlimit="10"/><path fill="none" stroke="black" paint-order="fill stroke markers" d=" M 65 181 L 69 181" stroke-linejoin="bevel" stroke-miterlimit="10"/><path fill="none" stroke="black" paint-order="fill stroke markers" d=" M 65 156 L 69 156" stroke-linejoin="bevel" stroke-miterlimit="10"/><path fill="none" stroke="black" paint-order="fill stroke markers" d=" M 65 130 L 69 130" stroke-linejoin="bevel" stroke-miterlimit="10"/><path fill="none" stroke="black" paint-order="fill stroke markers" d=" M 65 105 L 69 105" stroke-linejoin="bevel" stroke-miterlimit="10"/><path fill="none" stroke="black" paint-order="fill stroke markers" d=" M 65 79 L 69 79" stroke-linejoin="bevel" stroke-miterlimit="10"/><path fill="none" stroke="black" paint-order="fill stroke markers" d=" M 65 54 L 69 54" stroke-linejoin="bevel" stroke-miterlimit="10"/><path fill="" stroke="black" paint-order="fill stroke markers" d=" M 65 28 L 69 28" stroke-linejoin="bevel" stroke-miterlimit="10"/><g transform="translate(58,692) rotate(0,0,0)"><text fill="" stroke="none" font-family="helvetica" font-size="8pt" font-style="normal" font-weight="normal" text-decoration="normal" x="0" y="0" text-anchor="end" dominant-baseline="central">2000</text><g transform="rotate(0,0,0) translate(-58,-692) translate(58,565) rotate(0,0,0)"><text fill="" stroke="none" font-family="helvetica" font-size="8pt" font-style="normal" font-weight="normal" text-decoration="normal" x="0" y="0" text-anchor="end" dominant-baseline="central">4000</text><g transform="rotate(0,0,0) translate(-58,-565) translate(58,437) rotate(0,0,0)"><text fill="" stroke="none" font-family="helvetica" font-size="8pt" font-style="normal" font-weight="normal" text-decoration="normal" x="0" y="0" text-anchor="end" dominant-baseline="central">6000</text><g transform="rotate(0,0,0) translate(-58,-437) translate(58,309) rotate(0,0,0)"><text fill="" stroke="none" font-family="helvetica" font-size="8pt" font-style="normal" font-weight="normal" text-decoration="normal" x="0" y="0" text-anchor="end" dominant-baseline="central">8000</text><g transform="rotate(0,0,0) translate(-58,-309) translate(58,181) rotate(0,0,0)"><text fill="" stroke="none" font-family="helvetica" font-size="8pt" font-style="normal" font-weight="normal" text-decoration="normal" x="0" y="0" text-anchor="end" dominant-baseline="central">10000</text><g transform="rotate(0,0,0) translate(-58,-181) translate(58,54) rotate(0,0,0)"><text fill="" stroke="none" font-family="helvetica" font-size="8pt" font-style="normal" font-weight="normal" text-decoration="normal" x="0" y="0" text-anchor="end" dominant-baseline="central">12000</text><g transform="rotate(0,0,0) translate(-58,-54) translate(19,399) rotate(-90,0,0)"><text fill="" stroke="none" font-family="helvetica" font-size="12pt" font-style="italic" font-weight="normal" text-decoration="normal" x="0" y="0" text-anchor="middle" dominant-baseline="alphabetic">Cost</text><g transform="rotate(90,0,0) translate(-19,-399)"/></g></g></g></g></g></g></g></g></g></g></g></svg>