<svg version="1.1" xmlns="http://www.w3.org/2000/svg" xmlns:xlink="http://www.w3.org/1999/xlink" width="600" height="400" style="width: 600px; height: 400px;"><defs><clipPath id="mSqhLkbQaiDa"><path fill="none" stroke="none" d=" M 69 5 L 595 5 L 595 341 L 69 341 L 69 5 Z"/></clipPath><clipPath id="DLmhAttZiPDb"><path fill="none" stroke="none" d=" M 69 5 L 595 5 L 595 341 L 69 341 L 69 5 Z"/></clipPath></defs><g><g transform="scale(1,1) translate(0.5,0.5)"><rect fill="#FFFFFF" stroke="none" x="0" y="0" width="600" height="400"/><rect fill="#ffffff" stroke="none" x="0" y="0" width="600" height="400"/><rect fill="#FFFFFF" stroke="none" x="69" y="5" width="526" height="336"/><rect fill="#ffffff" stroke="none" x="69" y="5" width="526" height="336"/><g><rect fill="none" stroke="#e5e5e5" x="69" y="5" width="526" height="336" stroke-linejoin="bevel" stroke-miterlimit="10"/></g><g clip-path="url(#mSqhLkbQaiDa)"><g><g/><g><path fill="none" stroke="#e5e5e5" paint-order="fill stroke markers" d=" M 69 307 L 595 307" stroke-linejoin="bevel" stroke-miterlimit="10"/><path fill="none" stroke="#e5e5e5" paint-order="fill stroke markers" d=" M 69 274 L 595 274" stroke-linejoin="bevel" stroke-miterlimit="10"/><path fill="none" stroke="#e5e5e5" paint-order="fill stroke markers" d=" M 69 240 L 595 240" stroke-linejoin="bevel" stroke-miterlimit="10"/><path fill="none" stroke="#e5e5e5" paint-order="fill stroke markers" d=" M 69 207 L 595 207" stroke-linejoin="bevel" stroke-miterlimit="10"/><path fill="none" stroke="#e5e5e5" paint-order="fill stroke markers" d=" M 69 173 L 595 173" stroke-linejoin="bevel" stroke-miterlimit="10"/><path fill="none" stroke="#e5e5e5" paint-order="fill stroke markers" d=" M 69 139 L 595 139" stroke-linejoin="bevel" stroke-miterlimit="10"/><path fill="none" stroke="#e5e5e5" paint-order="fill stroke markers" d=" M 69 106 L 595 106" stroke-linejoin="bevel" stroke-miterlimit="10"/><path fill="none" stroke="#e5e5e5" paint-order="fill stroke markers" d=" M 69 72 L 595 72" stroke-linejoin="bevel" stroke-miterlimit="10"/><path fill="none" stroke="#e5e5e5" paint-order="fill stroke markers" d=" M 69 39 L 595 39" stroke-linejoin="bevel" stroke-miterlimit="10"/></g><g><path fill="none" stroke="none"/><rect fill="#e84d60" stroke="none" x="100.08181818181818" y="321.9669333333333" width="14.345454545454544" height="19.033066666666684"/><path fill="none" stroke="#e84d60" paint-order="fill stroke markers" d=" M 100.08181818181818 321.9669333333333 L 114.42727272727272 321.9669333333333 L 114.42727272727272 341 L 100.08181818181818 341 L 100.08181818181818 321.9669333333333 Z" stroke-linejoin="bevel" stroke-miterlimit="10"/><rect fill="#e84d60" stroke="none" x="147.89999999999998" y="257.6621333333333" width="14.345454545454572" height="83.33786666666668"/><path fill="none" stroke="#e84d60" paint-order="fill stroke markers" d=" M 147.89999999999998 257.6621333333333 L 162.24545454545455 257.6621333333333 L 162.24545454545455 341 L 147.89999999999998 341 L 147.89999999999998 257.6621333333333 Z" stroke-linejoin="bevel" stroke-miterlimit="10"/><rect fill="#e84d60" stroke="none" x="195.7181818181818" y="191.4016" width="14.345454545454572" height="149.5984"/><path fill="none" stroke="#e84d60" paint-order="fill stroke markers" d=" M 195.7181818181818 191.4016 L 210.06363636363636 191.4016 L 210.06363636363636 341 L 195.7181818181818 341 L 195.7181818181818 191.4016 Z" stroke-linejoin="bevel" stroke-miterlimit="10"/><rect fill="#e84d60" stroke="none" x="243.53636363636366" y="323.6010524135804" width="14.345454545454515" height="17.39894758641958"/><path fill="none" stroke="#e84d60" paint-order="fill stroke markers" d=" M 243.53636363636366 323.6010524135804 L 257.8818181818182 323.6010524135804 L 257.8818181818182 341 L 243.53636363636366 341 L 243.53636363636366 323.6010524135804 Z" stroke-linejoin="bevel" stroke-miterlimit="10"/><rect fill="#e84d60" stroke="none" x="291.3545454545454" y="257.8682058404746" width="14.345454545454572" height="83.13179415952538"/><path fill="none" stroke="#e84d60" paint-order="fill stroke markers" d=" M 291.3545454545454 257.8682058404746 L 305.7 257.8682058404746 L 305.7 341 L 291.3545454545454 341 L 291.3545454545454 257.8682058404746 Z" stroke-linejoin="bevel" stroke-miterlimit="10"/><rect fill="#e84d60" stroke="none" x="339.1727272727273" y="190.4071454213658" width="14.345454545454572" height="150.5928545786342"/><path fill="none" stroke="#e84d60" paint-order="fill stroke markers" d=" M 339.1727272727273 190.4071454213658 L 353.51818181818186 190.4071454213658 L 353.51818181818186 341 L 339.1727272727273 341 L 339.1727272727273 190.4071454213658 Z" stroke-linejoin="bevel" stroke-miterlimit="10"/><rect fill="#e84d60" stroke="none" x="386.99090909090904" y="323.03358177833303" width="14.345454545454572" height="17.96641822166697"/><path fill="none" stroke="#e84d60" paint-order="fill stroke markers" d=" M 386.99090909090904 323.03358177833303 L 401.3363636363636 323.03358177833303 L 401.3363636363636 341 L 386.99090909090904 341 L 386.99090909090904 323.03358177833303 Z" stroke-linejoin="bevel" stroke-miterlimit="10"/><rect fill="#e84d60" stroke="none" x="434.8090909090909" y="256.9889090691087" width="14.345454545454572" height="84.01109093089133"/><path fill="none" stroke="#e84d60" paint-order="fill stroke markers" d=" M 434.8090909090909 256.9889090691087 L 449.1545454545455 256.9889090691087 L 449.1545454545455 341 L 434.8090909090909 341 L 434.8090909090909 256.9889090691087 Z" stroke-linejoin="bevel" stroke-miterlimit="10"/><rect fill="#e84d60" stroke="none" x="482.6272727272728" y="189.33510705956883" width="14.345454545454572" height="151.66489294043117"/><path fill="none" stroke="#e84d60" paint-order="fill stroke markers" d=" M 482.6272727272728 189.33510705956883 L 496.97272727272735 189.33510705956883 L 496.97272727272735 341 L 482.6272727272728 341 L 482.6272727272728 189.33510705956883 Z" stroke-linejoin="bevel" stroke-miterlimit="10"/><rect fill="#e84d60" stroke="none" x="530.4454545454546" y="248.82148698400783" width="14.345454545454459" height="92.17851301599217"/><path fill="none" stroke="#e84d60" paint-order="fill stroke markers" d=" M 530.4454545454546 248.82148698400783 L 544.790909090909 248.82148698400783 L 544.790909090909 341 L 530.4454545454546 341 L 530.4454545454546 248.82148698400783 Z" stroke-linejoin="bevel" stroke-miterlimit="10"/></g><g><path fill="none" stroke="none"/><rect fill="#718dbf" stroke="none" x="119.20909090909089" y="322.184" width="14.345454545454572" height="18.815999999999974"/><path fill="none" stroke="#718dbf" paint-order="fill stroke markers" d=" M 119.20909090909089 322.184 L 133.55454545454546 322.184 L 133.55454545454546 341 L 119.20909090909089 341 L 119.20909090909089 322.184 Z" stroke-linejoin="bevel" stroke-miterlimit="10"/><rect fill="#718dbf" stroke="none" x="167.0272727272727" y="321.512" width="14.345454545454572" height="19.488"/><path fill="none" stroke="#718dbf" paint-order="fill stroke markers" d=" M 167.0272727272727 321.512 L 181.37272727272727 321.512 L 181.37272727272727 341 L 167.0272727272727 341 L 167.0272727272727 321.512 Z" stroke-linejoin="bevel" stroke-miterlimit="10"/><rect fill="#718dbf" stroke="none" x="214.84545454545457" y="319.16" width="14.345454545454515" height="21.839999999999975"/><path fill="none" stroke="#718dbf" paint-order="fill stroke markers" d=" M 214.84545454545457 319.16 L 229.1909090909091 319.16 L 229.1909090909091 341 L 214.84545454545457 341 L 214.84545454545457 319.16 Z" stroke-linejoin="bevel" stroke-miterlimit="10"/><rect fill="#718dbf" stroke="none" x="262.66363636363644" y="222.056" width="14.345454545454459" height="118.94399999999999"/><path fill="none" stroke="#718dbf" paint-order="fill stroke markers" d=" M 262.66363636363644 222.056 L 277.0090909090909 222.056 L 277.0090909090909 341 L 262.66363636363644 341 L 262.66363636363644 222.056 Z" stroke-linejoin="bevel" stroke-miterlimit="10"/><rect fill="#718dbf" stroke="none" x="310.48181818181814" y="210.968" width="14.345454545454572" height="130.032"/><path fill="none" stroke="#718dbf" paint-order="fill stroke markers" d=" M 310.48181818181814 210.968 L 324.8272727272727 210.968 L 324.8272727272727 341 L 310.48181818181814 341 L 310.48181818181814 210.968 Z" stroke-linejoin="bevel" stroke-miterlimit="10"/><rect fill="#718dbf" stroke="none" x="358.3" y="221.048" width="14.345454545454572" height="119.952"/><path fill="none" stroke="#718dbf" paint-order="fill stroke markers" d=" M 358.3 221.048 L 372.6454545454546 221.048 L 372.6454545454546 341 L 358.3 341 L 358.3 221.048 Z" stroke-linejoin="bevel" stroke-miterlimit="10"/><rect fill="#718dbf" stroke="none" x="406.11818181818177" y="66.82400000000001" width="14.345454545454572" height="274.176"/><path fill="none" stroke="#718dbf" paint-order="fill stroke markers" d=" M 406.11818181818177 66.82400000000001 L 420.46363636363634 66.82400000000001 L 420.46363636363634 341 L 406.11818181818177 341 L 406.11818181818177 66.82400000000001 Z" stroke-linejoin="bevel" stroke-miterlimit="10"/><rect fill="#718dbf" stroke="none" x="453.93636363636364" y="76.56799999999998" width="14.345454545454572" height="264.432"/><path fill="none" stroke="#718dbf" paint-order="fill stroke markers" d=" M 453.93636363636364 76.56799999999998 L 468.2818181818182 76.56799999999998 L 468.2818181818182 341 L 453.93636363636364 341 L 453.93636363636364 76.56799999999998 Z" stroke-linejoin="bevel" stroke-miterlimit="10"/><rect fill="#718dbf" stroke="none" x="501.7545454545454" y="72.87200000000001" width="14.345454545454515" height="268.128"/><path fill="none" stroke="#718dbf" paint-order="fill stroke markers" d=" M 501.7545454545454 72.87200000000001 L 516.0999999999999 72.87200000000001 L 516.0999999999999 341 L 501.7545454545454 341 L 501.7545454545454 72.87200000000001 Z" stroke-linejoin="bevel" stroke-miterlimit="10"/><rect fill="#718dbf" stroke="none" x="549.5727272727272" y="54.05599999999998" width="14.345454545454686" height="286.944"/><path fill="none" stroke="#718dbf" paint-order="fill stroke markers" d=" M 549.5727272727272 54.05599999999998 L 563.9181818181819 54.05599999999998 L 563.9181818181819 341 L 549.5727272727272 341 L 549.5727272727272 54.05599999999998 Z" stroke-linejoin="bevel" stroke-miterlimit="10"/></g></g></g><g clip-path="url(#DLmhAttZiPDb)"><g><g/><g><path fill="#ffffff" stroke="#e5e5e5" paint-order="fill stroke markers" d=" M 379.203125 15 L 585 15 L 585 55 L 379.203125 55 L 379.203125 15 Z" fill-opacity="0.95" stroke-linejoin="bevel" stroke-miterlimit="10" stroke-opacity="0.5"/><text fill="#444444" stroke="none" font-family="helvetica" font-size="10pt" font-style="normal" font-weight="normal" text-decoration="normal" x="414.203125" y="35" text-anchor="start" dominant-baseline="central">Cost</text><rect fill="#e84d60" stroke="none" x="391.203125" y="27" width="16" height="16"/><path fill="none" stroke="#e84d60" paint-order="fill stroke markers" d=" M 391.203125 27 L 407.203125 27 L 407.203125 43 L 391.203125 43 L 391.203125 27 Z" stroke-linejoin="bevel" stroke-miterlimit="10"/><text fill="#444444" stroke="none" font-family="helvetica" font-size="10pt" font-style="normal" font-weight="normal" text-decoration="normal" x="468.90625" y="35" text-anchor="start" dominant-baseline="central">Number of Vehicle</text><rect fill="#718dbf" stroke="none" x="445.90625" y="27" width="16" height="16"/><path fill="none" stroke="#718dbf" paint-order="fill stroke markers" d=" M 445.90625 27 L 461.90625 27 L 461.90625 43 L 445.90625 43 L 445.90625 27 Z" stroke-linejoin="bevel" stroke-miterlimit="10"/></g></g></g><g><g fill="#444444"><path fill="none" stroke="black" paint-order="fill stroke markers" d=" M 69 341 L 595 341" stroke-linejoin="bevel" stroke-miterlimit="10"/><path fill="none" stroke="black" paint-order="fill stroke markers" d=" M 117 347 L 117 339" stroke-linejoin="bevel" stroke-miterlimit="10"/><path fill="none" stroke="black" paint-order="fill stroke markers" d=" M 165 347 L 165 339" stroke-linejoin="bevel" stroke-miterlimit="10"/><path fill="none" stroke="black" paint-order="fill stroke markers" d=" M 212 347 L 212 339" stroke-linejoin="bevel" stroke-miterlimit="10"/><path fill="none" stroke="black" paint-order="fill stroke markers" d=" M 260 347 L 260 339" stroke-linejoin="bevel" stroke-miterlimit="10"/><path fill="none" stroke="black" paint-order="fill stroke markers" d=" M 308 347 L 308 339" stroke-linejoin="bevel" stroke-miterlimit="10"/><path fill="none" stroke="black" paint-order="fill stroke markers" d=" M 356 347 L 356 339" stroke-linejoin="bevel" stroke-miterlimit="10"/><path fill="none" stroke="black" paint-order="fill stroke markers" d=" M 404 347 L 404 339" stroke-linejoin="bevel" stroke-miterlimit="10"/><path fill="none" stroke="black" paint-order="fill stroke markers" d=" M 452 347 L 452 339" stroke-linejoin="bevel" stroke-miterlimit="10"/><path fill="none" stroke="black" paint-order="fill stroke markers" d=" M 499 347 L 499 339" stroke-linejoin="bevel" stroke-miterlimit="10"/><path fill="" stroke="black" paint-order="fill stroke markers" d=" M 547 347 L 547 339" stroke-linejoin="bevel" stroke-miterlimit="10"/><g transform="translate(117,352) rotate(0,0,0)"><text fill="" stroke="none" font-family="helvetica" font-size="12pt" font-style="normal" font-weight="normal" text-decoration="normal" x="0" y="0" text-anchor="middle" dominant-baseline="hanging">F0</text><g transform="rotate(0,0,0) translate(-117,-352) translate(165,352) rotate(0,0,0)"><text fill="" stroke="none" font-family="helvetica" font-size="12pt" font-style="normal" font-weight="normal" text-decoration="normal" x="0" y="0" text-anchor="middle" dominant-baseline="hanging">F1</text><g transform="rotate(0,0,0) translate(-165,-352) translate(212,352) rotate(0,0,0)"><text fill="" stroke="none" font-family="helvetica" font-size="12pt" font-style="normal" font-weight="normal" text-decoration="normal" x="0" y="0" text-anchor="middle" dominant-baseline="hanging">F2</text><g transform="rotate(0,0,0) translate(-212,-352) translate(260,352) rotate(0,0,0)"><text fill="" stroke="none" font-family="helvetica" font-size="12pt" font-style="normal" font-weight="normal" text-decoration="normal" x="0" y="0" text-anchor="middle" dominant-baseline="hanging">F3</text><g transform="rotate(0,0,0) translate(-260,-352) translate(308,352) rotate(0,0,0)"><text fill="" stroke="none" font-family="helvetica" font-size="12pt" font-style="normal" font-weight="normal" text-decoration="normal" x="0" y="0" text-anchor="middle" dominant-baseline="hanging">F4</text><g transform="rotate(0,0,0) translate(-308,-352) translate(356,352) rotate(0,0,0)"><text fill="" stroke="none" font-family="helvetica" font-size="12pt" font-style="normal" font-weight="normal" text-decoration="normal" x="0" y="0" text-anchor="middle" dominant-baseline="hanging">F5</text><g transform="rotate(0,0,0) translate(-356,-352) translate(404,352) rotate(0,0,0)"><text fill="" stroke="none" font-family="helvetica" font-size="12pt" font-style="normal" font-weight="normal" text-decoration="normal" x="0" y="0" text-anchor="middle" dominant-baseline="hanging">F6</text><g transform="rotate(0,0,0) translate(-404,-352) translate(452,352) rotate(0,0,0)"><text fill="" stroke="none" font-family="helvetica" font-size="12pt" font-style="normal" font-weight="normal" text-decoration="normal" x="0" y="0" text-anchor="middle" dominant-baseline="hanging">F7</text><g transform="rotate(0,0,0) translate(-452,-352) translate(499,352) rotate(0,0,0)"><text fill="" stroke="none" font-family="helvetica" font-size="12pt" font-style="normal" font-weight="normal" text-decoration="normal" x="0" y="0" text-anchor="middle" dominant-baseline="hanging">F8</text><g transform="rotate(0,0,0) translate(-499,-352) translate(547,352) rotate(0,0,0)"><text fill="" stroke="none" font-family="helvetica" font-size="12pt" font-style="normal" font-weight="normal" text-decoration="normal" x="0" y="0" text-anchor="middle" dominant-baseline="hanging">F9</text><g transform="rotate(0,0,0) translate(-547,-352) translate(332,376) rotate(0,0,0)"><text fill="" stroke="none" font-family="helvetica" font-size="15pt" font-style="italic" font-weight="normal" text-decoration="normal" x="0" y="0" text-anchor="middle" dominant-baseline="hanging">Vehivular-fog Index</text><g transform="rotate(0,0,0) translate(-332,-376)"/></g></g></g></g></g></g></g></g></g></g></g></g><g fill="#444444"><path fill="none" stroke="black" paint-order="fill stroke markers" d=" M 69 341 L 69 5" stroke-linejoin="bevel" stroke-miterlimit="10"/><path fill="none" stroke="black" paint-order="fill stroke markers" d=" M 63 341 L 71 341" stroke-linejoin="bevel" stroke-miterlimit="10"/><path fill="none" stroke="black" paint-order="fill stroke markers" d=" M 63 307 L 71 307" stroke-linejoin="bevel" stroke-miterlimit="10"/><path fill="none" stroke="black" paint-order="fill stroke markers" d=" M 63 274 L 71 274" stroke-linejoin="bevel" stroke-miterlimit="10"/><path fill="none" stroke="black" paint-order="fill stroke markers" d=" M 63 240 L 71 240" stroke-linejoin="bevel" stroke-miterlimit="10"/><path fill="none" stroke="black" paint-order="fill stroke markers" d=" M 63 207 L 71 207" stroke-linejoin="bevel" stroke-miterlimit="10"/><path fill="none" stroke="black" paint-order="fill stroke markers" d=" M 63 173 L 71 173" stroke-linejoin="bevel" stroke-miterlimit="10"/><path fill="none" stroke="black" paint-order="fill stroke markers" d=" M 63 139 L 71 139" stroke-linejoin="bevel" stroke-miterlimit="10"/><path fill="none" stroke="black" paint-order="fill stroke markers" d=" M 63 106 L 71 106" stroke-linejoin="bevel" stroke-miterlimit="10"/><path fill="none" stroke="black" paint-order="fill stroke markers" d=" M 63 72 L 71 72" stroke-linejoin="bevel" stroke-miterlimit="10"/><path fill="none" stroke="black" paint-order="fill stroke markers" d=" M 63 39 L 71 39" stroke-linejoin="bevel" stroke-miterlimit="10"/><path fill="none" stroke="black" paint-order="fill stroke markers" d=" M 63 5 L 71 5" stroke-linejoin="bevel" stroke-miterlimit="10"/><path fill="none" stroke="black" paint-order="fill stroke markers" d=" M 65 341 L 69 341" stroke-linejoin="bevel" stroke-miterlimit="10"/><path fill="none" stroke="black" paint-order="fill stroke markers" d=" M 65 334 L 69 334" stroke-linejoin="bevel" stroke-miterlimit="10"/><path fill="none" stroke="black" paint-order="fill stroke markers" d=" M 65 328 L 69 328" stroke-linejoin="bevel" stroke-miterlimit="10"/><path fill="none" stroke="black" paint-order="fill stroke markers" d=" M 65 321 L 69 321" stroke-linejoin="bevel" stroke-miterlimit="10"/><path fill="none" stroke="black" paint-order="fill stroke markers" d=" M 65 314 L 69 314" stroke-linejoin="bevel" stroke-miterlimit="10"/><path fill="none" stroke="black" paint-order="fill stroke markers" d=" M 65 307 L 69 307" stroke-linejoin="bevel" stroke-miterlimit="10"/><path fill="none" stroke="black" paint-order="fill stroke markers" d=" M 65 301 L 69 301" stroke-linejoin="bevel" stroke-miterlimit="10"/><path fill="none" stroke="black" paint-order="fill stroke markers" d=" M 65 294 L 69 294" stroke-linejoin="bevel" stroke-miterlimit="10"/><path fill="none" stroke="black" paint-order="fill stroke markers" d=" M 65 287 L 69 287" stroke-linejoin="bevel" stroke-miterlimit="10"/><path fill="none" stroke="black" paint-order="fill stroke markers" d=" M 65 281 L 69 281" stroke-linejoin="bevel" stroke-miterlimit="10"/><path fill="none" stroke="black" paint-order="fill stroke markers" d=" M 65 274 L 69 274" stroke-linejoin="bevel" stroke-miterlimit="10"/><path fill="none" stroke="black" paint-order="fill stroke markers" d=" M 65 267 L 69 267" stroke-linejoin="bevel" stroke-miterlimit="10"/><path fill="none" stroke="black" paint-order="fill stroke markers" d=" M 65 260 L 69 260" stroke-linejoin="bevel" stroke-miterlimit="10"/><path fill="none" stroke="black" paint-order="fill stroke markers" d=" M 65 254 L 69 254" stroke-linejoin="bevel" stroke-miterlimit="10"/><path fill="none" stroke="black" paint-order="fill stroke markers" d=" M 65 247 L 69 247" stroke-linejoin="bevel" stroke-miterlimit="10"/><path fill="none" stroke="black" paint-order="fill stroke markers" d=" M 65 240 L 69 240" stroke-linejoin="bevel" stroke-miterlimit="10"/><path fill="none" stroke="black" paint-order="fill stroke markers" d=" M 65 233 L 69 233" stroke-linejoin="bevel" stroke-miterlimit="10"/><path fill="none" stroke="black" paint-order="fill stroke markers" d=" M 65 227 L 69 227" stroke-linejoin="bevel" stroke-miterlimit="10"/><path fill="none" stroke="black" paint-order="fill stroke markers" d=" M 65 220 L 69 220" stroke-linejoin="bevel" stroke-miterlimit="10"/><path fill="none" stroke="black" paint-order="fill stroke markers" d=" M 65 213 L 69 213" stroke-linejoin="bevel" stroke-miterlimit="10"/><path fill="none" stroke="black" paint-order="fill stroke markers" d=" M 65 207 L 69 207" stroke-linejoin="bevel" stroke-miterlimit="10"/><path fill="none" stroke="black" paint-order="fill stroke markers" d=" M 65 200 L 69 200" stroke-linejoin="bevel" stroke-miterlimit="10"/><path fill="none" stroke="black" paint-order="fill stroke markers" d=" M 65 193 L 69 193" stroke-linejoin="bevel" stroke-miterlimit="10"/><path fill="none" stroke="black" paint-order="fill stroke markers" d=" M 65 186 L 69 186" stroke-linejoin="bevel" stroke-miterlimit="10"/><path fill="none" stroke="black" paint-order="fill stroke markers" d=" M 65 180 L 69 180" stroke-linejoin="bevel" stroke-miterlimit="10"/><path fill="none" stroke="black" paint-order="fill stroke markers" d=" M 65 173 L 69 173" stroke-linejoin="bevel" stroke-miterlimit="10"/><path fill="none" stroke="black" paint-order="fill stroke markers" d=" M 65 166 L 69 166" stroke-linejoin="bevel" stroke-miterlimit="10"/><path fill="none" stroke="black" paint-order="fill stroke markers" d=" M 65 160 L 69 160" stroke-linejoin="bevel" stroke-miterlimit="10"/><path fill="none" stroke="black" paint-order="fill stroke markers" d=" M 65 153 L 69 153" stroke-linejoin="bevel" stroke-miterlimit="10"/><path fill="none" stroke="black" paint-order="fill stroke markers" d=" M 65 146 L 69 146" stroke-linejoin="bevel" stroke-miterlimit="10"/><path fill="none" stroke="black" paint-order="fill stroke markers" d=" M 65 139 L 69 139" stroke-linejoin="bevel" stroke-miterlimit="10"/><path fill="none" stroke="black" paint-order="fill stroke markers" d=" M 65 133 L 69 133" stroke-linejoin="bevel" stroke-miterlimit="10"/><path fill="none" stroke="black" paint-order="fill stroke markers" d=" M 65 126 L 69 126" stroke-linejoin="bevel" stroke-miterlimit="10"/><path fill="none" stroke="black" paint-order="fill stroke markers" d=" M 65 119 L 69 119" stroke-linejoin="bevel" stroke-miterlimit="10"/><path fill="none" stroke="black" paint-order="fill stroke markers" d=" M 65 113 L 69 113" stroke-linejoin="bevel" stroke-miterlimit="10"/><path fill="none" stroke="black" paint-order="fill stroke markers" d=" M 65 106 L 69 106" stroke-linejoin="bevel" stroke-miterlimit="10"/><path fill="none" stroke="black" paint-order="fill stroke markers" d=" M 65 99 L 69 99" stroke-linejoin="bevel" stroke-miterlimit="10"/><path fill="none" stroke="black" paint-order="fill stroke markers" d=" M 65 92 L 69 92" stroke-linejoin="bevel" stroke-miterlimit="10"/><path fill="none" stroke="black" paint-order="fill stroke markers" d=" M 65 86 L 69 86" stroke-linejoin="bevel" stroke-miterlimit="10"/><path fill="none" stroke="black" paint-order="fill stroke markers" d=" M 65 79 L 69 79" stroke-linejoin="bevel" stroke-miterlimit="10"/><path fill="none" stroke="black" paint-order="fill stroke markers" d=" M 65 72 L 69 72" stroke-linejoin="bevel" stroke-miterlimit="10"/><path fill="none" stroke="black" paint-order="fill stroke markers" d=" M 65 65 L 69 65" stroke-linejoin="bevel" stroke-miterlimit="10"/><path fill="none" stroke="black" paint-order="fill stroke markers" d=" M 65 59 L 69 59" stroke-linejoin="bevel" stroke-miterlimit="10"/><path fill="none" stroke="black" paint-order="fill stroke markers" d=" M 65 52 L 69 52" stroke-linejoin="bevel" stroke-miterlimit="10"/><path fill="none" stroke="black" paint-order="fill stroke markers" d=" M 65 45 L 69 45" stroke-linejoin="bevel" stroke-miterlimit="10"/><path fill="none" stroke="black" paint-order="fill stroke markers" d=" M 65 39 L 69 39" stroke-linejoin="bevel" stroke-miterlimit="10"/><path fill="none" stroke="black" paint-order="fill stroke markers" d=" M 65 32 L 69 32" stroke-linejoin="bevel" stroke-miterlimit="10"/><path fill="none" stroke="black" paint-order="fill stroke markers" d=" M 65 25 L 69 25" stroke-linejoin="bevel" stroke-miterlimit="10"/><path fill="none" stroke="black" paint-order="fill stroke markers" d=" M 65 18 L 69 18" stroke-linejoin="bevel" stroke-miterlimit="10"/><path fill="none" stroke="black" paint-order="fill stroke markers" d=" M 65 12 L 69 12" stroke-linejoin="bevel" stroke-miterlimit="10"/><path fill="" stroke="black" paint-order="fill stroke markers" d=" M 65 5 L 69 5" stroke-linejoin="bevel" stroke-miterlimit="10"/><g transform="translate(58,341) rotate(0,0,0)"><text fill="" stroke="none" font-family="helvetica" font-size="12pt" font-style="normal" font-weight="normal" text-decoration="normal" x="0" y="0" text-anchor="end" dominant-baseline="central">0</text><g transform="rotate(0,0,0) translate(-58,-341) translate(58,307) rotate(0,0,0)"><text fill="" stroke="none" font-family="helvetica" font-size="12pt" font-style="normal" font-weight="normal" text-decoration="normal" x="0" y="0" text-anchor="end" dominant-baseline="central">10</text><g transform="rotate(0,0,0) translate(-58,-307) translate(58,274) rotate(0,0,0)"><text fill="" stroke="none" font-family="helvetica" font-size="12pt" font-style="normal" font-weight="normal" text-decoration="normal" x="0" y="0" text-anchor="end" dominant-baseline="central">20</text><g transform="rotate(0,0,0) translate(-58,-274) translate(58,240) rotate(0,0,0)"><text fill="" stroke="none" font-family="helvetica" font-size="12pt" font-style="normal" font-weight="normal" text-decoration="normal" x="0" y="0" text-anchor="end" dominant-baseline="central">30</text><g transform="rotate(0,0,0) translate(-58,-240) translate(58,207) rotate(0,0,0)"><text fill="" stroke="none" font-family="helvetica" font-size="12pt" font-style="normal" font-weight="normal" text-decoration="normal" x="0" y="0" text-anchor="end" dominant-baseline="central">40</text><g transform="rotate(0,0,0) translate(-58,-207) translate(58,173) rotate(0,0,0)"><text fill="" stroke="none" font-family="helvetica" font-size="12pt" font-style="normal" font-weight="normal" text-decoration="normal" x="0" y="0" text-anchor="end" dominant-baseline="central">50</text><g transform="rotate(0,0,0) translate(-58,-173) translate(58,139) rotate(0,0,0)"><text fill="" stroke="none" font-family="helvetica" font-size="12pt" font-style="normal" font-weight="normal" text-decoration="normal" x="0" y="0" text-anchor="end" dominant-baseline="central">60</text><g transform="rotate(0,0,0) translate(-58,-139) translate(58,106) rotate(0,0,0)"><text fill="" stroke="none" font-family="helvetica" font-size="12pt" font-style="normal" font-weight="normal" text-decoration="normal" x="0" y="0" text-anchor="end" dominant-baseline="central">70</text><g transform="rotate(0,0,0) translate(-58,-106) translate(58,72) rotate(0,0,0)"><text fill="" stroke="none" font-family="helvetica" font-size="12pt" font-style="normal" font-weight="normal" text-decoration="normal" x="0" y="0" text-anchor="end" dominant-baseline="central">80</text><g transform="rotate(0,0,0) translate(-58,-72) translate(58,39) rotate(0,0,0)"><text fill="" stroke="none" font-family="helvetica" font-size="12pt" font-style="normal" font-weight="normal" text-decoration="normal" x="0" y="0" text-anchor="end" dominant-baseline="central">90</text><g transform="rotate(0,0,0) translate(-58,-39) translate(58,5) rotate(0,0,0)"><text fill="" stroke="none" font-family="helvetica" font-size="12pt" font-style="normal" font-weight="normal" text-decoration="normal" x="0" y="0" text-anchor="end" dominant-baseline="central">100</text><g transform="rotate(0,0,0) translate(-58,-5) translate(24,173) rotate(-90,0,0)"><text fill="" stroke="none" font-family="helvetica" font-size="15pt" font-style="italic" font-weight="normal" text-decoration="normal" x="0" y="0" text-anchor="middle" dominant-baseline="alphabetic">Normalized Unit</text><g transform="rotate(90,0,0) translate(-24,-173)"/></g></g></g></g></g></g></g></g></g></g></g></g></g></g></g></g></svg>