<svg version="1.1" xmlns="http://www.w3.org/2000/svg" xmlns:xlink="http://www.w3.org/1999/xlink" width="600" height="400" style="width: 600px; height: 400px;"><defs><clipPath id="hqIlVBcBpCOX"><path fill="none" stroke="none" d=" M 89 5 L 570 5 L 570 341 L 89 341 L 89 5 Z"/></clipPath><clipPath id="ksiLtRyRhASW"><path fill="none" stroke="none" d=" M 89 5 L 570 5 L 570 341 L 89 341 L 89 5 Z"/></clipPath></defs><g><g transform="scale(1,1) translate(0.5,0.5)"><rect fill="#FFFFFF" stroke="none" x="0" y="0" width="600" height="400"/><rect fill="#ffffff" stroke="none" x="0" y="0" width="600" height="400"/><rect fill="#FFFFFF" stroke="none" x="89" y="5" width="481" height="336"/><rect fill="#ffffff" stroke="none" x="89" y="5" width="481" height="336"/><g><rect fill="none" stroke="#e5e5e5" x="89" y="5" width="481" height="336" stroke-linejoin="bevel" stroke-miterlimit="10"/></g><g clip-path="url(#hqIlVBcBpCOX)"><g><g><path fill="none" stroke="#e5e5e5" paint-order="fill stroke markers" d=" M 102 341 L 102 5" stroke-linejoin="bevel" stroke-miterlimit="10"/><path fill="none" stroke="#e5e5e5" paint-order="fill stroke markers" d=" M 191 341 L 191 5" stroke-linejoin="bevel" stroke-miterlimit="10"/><path fill="none" stroke="#e5e5e5" paint-order="fill stroke markers" d=" M 280 341 L 280 5" stroke-linejoin="bevel" stroke-miterlimit="10"/><path fill="none" stroke="#e5e5e5" paint-order="fill stroke markers" d=" M 370 341 L 370 5" stroke-linejoin="bevel" stroke-miterlimit="10"/><path fill="none" stroke="#e5e5e5" paint-order="fill stroke markers" d=" M 459 341 L 459 5" stroke-linejoin="bevel" stroke-miterlimit="10"/><path fill="none" stroke="#e5e5e5" paint-order="fill stroke markers" d=" M 548 341 L 548 5" stroke-linejoin="bevel" stroke-miterlimit="10"/></g><g><path fill="none" stroke="#e5e5e5" paint-order="fill stroke markers" d=" M 89 326 L 570 326" stroke-linejoin="bevel" stroke-miterlimit="10"/><path fill="none" stroke="#e5e5e5" paint-order="fill stroke markers" d=" M 89 273 L 570 273" stroke-linejoin="bevel" stroke-miterlimit="10"/><path fill="none" stroke="#e5e5e5" paint-order="fill stroke markers" d=" M 89 220 L 570 220" stroke-linejoin="bevel" stroke-miterlimit="10"/><path fill="none" stroke="#e5e5e5" paint-order="fill stroke markers" d=" M 89 167 L 570 167" stroke-linejoin="bevel" stroke-miterlimit="10"/><path fill="none" stroke="#e5e5e5" paint-order="fill stroke markers" d=" M 89 114 L 570 114" stroke-linejoin="bevel" stroke-miterlimit="10"/><path fill="none" stroke="#e5e5e5" paint-order="fill stroke markers" d=" M 89 61 L 570 61" stroke-linejoin="bevel" stroke-miterlimit="10"/><path fill="none" stroke="#e5e5e5" paint-order="fill stroke markers" d=" M 89 8 L 570 8" stroke-linejoin="bevel" stroke-miterlimit="10"/></g><g><path fill="none" stroke="none"/><path fill="none" stroke="dodgerblue" paint-order="fill stroke markers" d=" M 110.86363636363637 325.72727272727275 L 119.78756957328386 325.72727272727275 L 128.71150278293135 325.72727272727275 L 137.63543599257886 325.72727272727275 L 146.55936920222635 325.72727272727275 L 155.48330241187386 325.72727272727275 L 164.40723562152135 325.72727272727275 L 173.33116883116884 325.72727272727275 L 182.25510204081633 325.72727272727275 L 191.1790352504638 324.66653775790303 L 200.10296846011133 324.1361702732182 L 209.02690166975884 323.0754353038485 L 217.95083487940633 322.54506781916365 L 226.87476808905382 318.8324954263697 L 235.7987012987013 313.5288205795212 L 244.7226345083488 317.24139297231517 L 253.64656771799628 315.6502905182606 L 262.5705009276438 311.93771812546663 L 271.4944341372913 307.69477824798787 L 280.4183673469388 303.45183837050905 L 289.3423005565863 302.9214708858242 L 298.26623376623377 302.3911034011394 L 307.19016697588125 300.8000009470848 L 316.1141001855288 300.8000009470848 L 325.0380333951763 300.8000009470848 L 333.9619666048238 299.7392659777151 L 342.88589981447126 299.7392659777151 L 351.80983302411875 299.7392659777151 L 360.7337662337663 299.7392659777151 L 369.6576994434138 299.2088984930303 L 378.58163265306126 299.2088984930303 L 387.50556586270875 299.2088984930303 L 396.42949907235624 299.2088984930303 L 405.3534322820037 299.2088984930303 L 414.27736549165127 299.2088984930303 L 423.20129870129875 299.2088984930303 L 432.12523191094624 299.2088984930303 L 441.0491651205937 299.2088984930303 L 449.9730983302412 299.2088984930303 L 458.8970315398887 299.2088984930303 L 467.8209647495362 299.2088984930303 L 476.74489795918373 299.2088984930303 L 485.6688311688312 299.2088984930303 L 494.5927643784787 299.2088984930303 L 503.5166975881262 299.2088984930303 L 512.4406307977737 299.2088984930303 L 521.3645640074211 299.2088984930303 L 530.2884972170687 299.2088984930303 L 539.2124304267162 299.2088984930303 L 548.1363636363636 299.2088984930303" stroke-linejoin="bevel" stroke-miterlimit="10" stroke-width="2"/></g><g><path fill="none" stroke="none"/><path fill="none" stroke="deepskyblue" paint-order="fill stroke markers" d=" M 110.86363636363637 325.37723018738075 L 119.78756957328386 324.68775245729046 L 128.71150278293135 323.6296693253442 L 137.63543599257886 322.2321510031996 L 146.55936920222635 320.55618975159547 L 155.48330241187386 319.06585711963106 L 164.40723562152135 317.5543097882792 L 173.33116883116884 315.85978567471113 L 182.25510204081633 314.4914375642242 L 191.1790352504638 313.4307025948545 L 200.10296846011133 311.7202674567459 L 209.02690166975884 309.71282652721374 L 217.95083487940633 309.352176637628 L 226.87476808905382 311.7070082696288 L 235.7987012987013 315.33472186487313 L 244.7226345083488 309.67304896586234 L 253.64656771799628 310.245845849322 L 262.5705009276438 313.5924646776834 L 271.4944341372913 316.31059803669325 L 280.4183673469388 320.7099963221541 L 289.3423005565863 320.5402787270549 L 298.26623376623377 320.16371781292867 L 307.19016697588125 320.3626056196855 L 316.1141001855288 319.15601959202746 L 325.0380333951763 318.3206908036488 L 333.9619666048238 318.07937359811723 L 342.88589981447126 316.9709055551259 L 351.80983302411875 315.62377214402636 L 360.7337662337663 313.7330120611249 L 369.6576994434138 311.69640091993506 L 378.58163265306126 309.55106444438485 L 387.50556586270875 305.8941806374828 L 396.42949907235624 300.48443229369735 L 405.3534322820037 294.387858057245 L 414.27736549165127 287.97571516740516 L 423.20129870129875 281.6192608634572 L 432.12523191094624 274.89685299507676 L 441.0491651205937 267.5486114947682 L 449.9730983302412 260.97205468467604 L 458.8970315398887 253.93142632548467 L 467.8209647495362 246.91731634052752 L 476.74489795918373 240.41501097829126 L 485.6688311688312 233.97369787679378 L 494.5927643784787 227.72066523235938 L 503.5166975881262 220.30347595904175 L 512.4406307977737 211.3720875169489 L 521.3645640074211 200.83368559626095 L 530.2884972170687 189.14438623380684 L 539.2124304267162 177.76800368731682 L 548.1363636363636 165.4263523187004" stroke-linejoin="bevel" stroke-miterlimit="10" stroke-width="2" stroke-dasharray="6,4,2,4"/></g><g><path fill="none" stroke="none"/><path fill="none" stroke="tomato" paint-order="fill stroke markers" d=" M 110.86363636363637 320.42359788042427 L 119.78756957328386 320.42359788042427 L 128.71150278293135 320.42359788042427 L 137.63543599257886 315.11992303357573 L 146.55936920222635 315.11992303357573 L 155.48330241187386 315.11992303357573 L 164.40723562152135 315.11992303357573 L 173.33116883116884 309.81624818672725 L 182.25510204081633 309.81624818672725 L 191.1790352504638 309.81624818672725 L 200.10296846011133 309.81624818672725 L 209.02690166975884 304.51257333987877 L 217.95083487940633 304.51257333987877 L 226.87476808905382 304.51257333987877 L 235.7987012987013 304.51257333987877 L 244.7226345083488 299.2088984930303 L 253.64656771799628 299.2088984930303 L 262.5705009276438 299.2088984930303 L 271.4944341372913 299.2088984930303 L 280.4183673469388 299.2088984930303 L 289.3423005565863 299.2088984930303 L 298.26623376623377 299.2088984930303 L 307.19016697588125 299.2088984930303 L 316.1141001855288 299.2088984930303 L 325.0380333951763 299.2088984930303 L 333.9619666048238 299.2088984930303 L 342.88589981447126 299.2088984930303 L 351.80983302411875 299.2088984930303 L 360.7337662337663 299.2088984930303 L 369.6576994434138 299.2088984930303 L 378.58163265306126 299.2088984930303 L 387.50556586270875 299.2088984930303 L 396.42949907235624 299.2088984930303 L 405.3534322820037 299.2088984930303 L 414.27736549165127 299.2088984930303 L 423.20129870129875 299.2088984930303 L 432.12523191094624 299.2088984930303 L 441.0491651205937 299.2088984930303 L 449.9730983302412 299.2088984930303 L 458.8970315398887 299.2088984930303 L 467.8209647495362 299.2088984930303 L 476.74489795918373 299.2088984930303 L 485.6688311688312 299.2088984930303 L 494.5927643784787 299.2088984930303 L 503.5166975881262 299.2088984930303 L 512.4406307977737 299.2088984930303 L 521.3645640074211 299.2088984930303 L 530.2884972170687 299.2088984930303 L 539.2124304267162 299.2088984930303 L 548.1363636363636 299.2088984930303" stroke-linejoin="bevel" stroke-miterlimit="10"/></g><g><path fill="none" stroke="none"/><path fill="none" stroke="orange" paint-order="fill stroke markers" d=" M 110.86363636363637 325.3560154879934 L 119.78756957328386 324.6824487824436 L 128.71150278293135 323.2822786228756 L 137.63543599257886 322.0862999449113 L 146.55936920222635 320.44216074238824 L 155.48330241187386 320.40238318103684 L 164.40723562152135 320.40238318103684 L 173.33116883116884 320.0443851288746 L 182.25510204081633 320.0443851288746 L 191.1790352504638 320.0443851288746 L 200.10296846011133 320.0443851288746 L 209.02690166975884 320.0443851288746 L 217.95083487940633 320.0443851288746 L 226.87476808905382 320.0443851288746 L 235.7987012987013 320.0443851288746 L 244.7226345083488 320.0443851288746 L 253.64656771799628 320.0443851288746 L 262.5705009276438 320.0443851288746 L 271.4944341372913 320.0443851288746 L 280.4183673469388 320.0443851288746 L 289.3423005565863 320.0443851288746 L 298.26623376623377 320.0443851288746 L 307.19016697588125 320.0443851288746 L 316.1141001855288 320.00460756752324 L 325.0380333951763 319.37612209817166 L 333.9619666048238 317.6444722606756 L 342.88589981447126 315.9207779354499 L 351.80983302411875 309.1214667817901 L 360.7337662337663 305.2365249564736 L 369.6576994434138 301.1606508366705 L 378.58163265306126 296.2759663027231 L 387.50556586270875 291.37802258165846 L 396.42949907235624 263.19164260808213 L 405.3534322820037 256.63099682253056 L 414.27736549165127 250.16581718422222 L 423.20129870129875 243.4142391041841 L 432.12523191094624 237.42108652724528 L 441.0491651205937 231.38020087668485 L 449.9730983302412 225.23058989176403 L 458.8970315398887 219.36207367372617 L 467.8209647495362 181.24456254942604 L 476.74489795918373 173.4004274509371 L 485.6688311688312 165.15056122666425 L 494.5927643784787 156.7548439441031 L 503.5166975881262 149.02208601739798 L 512.4406307977737 142.12730871649492 L 521.3645640074211 71.63881816445499 L 530.2884972170687 61.039423983028314 L 539.2124304267162 52.717958148322964 L 548.1363636363636 46.79110150696977" stroke-linejoin="bevel" stroke-miterlimit="10"/></g><g><path fill="none" stroke="none"/><path fill="none" stroke="#1f77b4" paint-order="fill stroke markers" d=" M 110.86363636363637 325.37723018738075 L 119.78756957328386 324.68775245729046 L 128.71150278293135 323.6296693253442 L 137.63543599257886 322.2321510031996 L 146.55936920222635 320.55618975159547 L 155.48330241187386 319.06585711963106 L 164.40723562152135 317.5543097882792 L 173.33116883116884 315.85978567471113 L 182.25510204081633 314.4914375642242 L 191.1790352504638 312.36996762548483 L 200.10296846011133 310.1291650026913 L 209.02690166975884 307.06098910378944 L 217.95083487940633 306.1699717295189 L 226.87476808905382 304.8122309687257 L 235.7987012987013 303.1362697171216 L 244.7226345083488 301.18716921090476 L 253.64656771799628 300.16886364030984 L 262.5705009276438 299.8029100758773 L 271.4944341372913 298.2781035574084 L 280.4183673469388 298.4345619653904 L 289.3423005565863 297.7344768856064 L 298.26623376623377 296.8275484867953 L 307.19016697588125 295.43533383949756 L 316.1141001855288 294.2287478118395 L 325.0380333951763 293.39341902346086 L 333.9619666048238 292.0913668485596 L 342.88589981447126 290.98289880556825 L 351.80983302411875 289.63576539446876 L 360.7337662337663 287.74500531156724 L 369.6576994434138 285.17802668569254 L 378.58163265306126 283.03269021014233 L 387.50556586270875 279.3758064032403 L 396.42949907235624 273.96605805945484 L 405.3534322820037 267.8694838230025 L 414.27736549165127 261.45734093316264 L 423.20129870129875 255.10088662921476 L 432.12523191094624 248.37847876083427 L 441.0491651205937 241.03023726052567 L 449.9730983302412 234.45368045043355 L 458.8970315398887 227.41305209124218 L 467.8209647495362 220.39894210628503 L 476.74489795918373 213.89663674404878 L 485.6688311688312 207.4553236425513 L 494.5927643784787 201.2022909981169 L 503.5166975881262 193.7851017247993 L 512.4406307977737 184.85371328270642 L 521.3645640074211 174.31531136201846 L 530.2884972170687 162.62601199956438 L 539.2124304267162 151.24962945307433 L 548.1363636363636 138.9079780844579" stroke-linejoin="bevel" stroke-miterlimit="10" stroke-width="3"/></g><g><path fill="none" stroke="none"/><path fill="none" stroke="red" paint-order="fill stroke markers" d=" M 110.86363636363637 320.05234064114484 L 119.78756957328386 319.3787739355951 L 128.71150278293135 317.9786037760271 L 137.63543599257886 311.47895025121426 L 146.55936920222635 309.8348110486912 L 155.48330241187386 309.7950334873399 L 164.40723562152135 309.7950334873399 L 173.33116883116884 304.1333605883291 L 182.25510204081633 304.1333605883291 L 191.1790352504638 304.1333605883291 L 200.10296846011133 304.1333605883291 L 209.02690166975884 298.8296857414806 L 217.95083487940633 298.8296857414806 L 226.87476808905382 298.8296857414806 L 235.7987012987013 298.8296857414806 L 244.7226345083488 293.5260108946321 L 253.64656771799628 293.5260108946321 L 262.5705009276438 293.5260108946321 L 271.4944341372913 293.5260108946321 L 280.4183673469388 293.5260108946321 L 289.3423005565863 293.5260108946321 L 298.26623376623377 293.5260108946321 L 307.19016697588125 293.5260108946321 L 316.1141001855288 293.4862333332807 L 325.0380333951763 292.8577478639292 L 333.9619666048238 291.12609802643317 L 342.88589981447126 289.4024037012074 L 351.80983302411875 282.60309254754765 L 360.7337662337663 278.7181507222311 L 369.6576994434138 274.642276602428 L 378.58163265306126 269.75759206848056 L 387.50556586270875 264.859648347416 L 396.42949907235624 236.67326837383968 L 405.3534322820037 230.11262258828805 L 414.27736549165127 223.64744294997973 L 423.20129870129875 216.8958648699416 L 432.12523191094624 210.90271229300282 L 441.0491651205937 204.86182664244237 L 449.9730983302412 198.71221565752154 L 458.8970315398887 192.8436994394837 L 467.8209647495362 154.72618831518355 L 476.74489795918373 146.88205321669463 L 485.6688311688312 138.63218699242177 L 494.5927643784787 130.23646970986061 L 503.5166975881262 122.5037117831555 L 512.4406307977737 115.60893448225247 L 521.3645640074211 45.1204439302125 L 530.2884972170687 34.5210497487858 L 539.2124304267162 26.199583914080506 L 548.1363636363636 20.27272727272731" stroke-linejoin="bevel" stroke-miterlimit="10" stroke-width="2"/></g><g><path fill="none" stroke="none"/><path fill="red" stroke="red" paint-order="fill stroke markers" d=" M 113.86363636363637 320.05234064114484 A 3 3 0 1 1 113.8636348636365 320.04934064164485" stroke-linejoin="bevel" stroke-miterlimit="10"/><path fill="red" stroke="red" paint-order="fill stroke markers" d=" M 122.78756957328386 319.3787739355951 A 3 3 0 1 1 122.78756807328399 319.37577393609513" stroke-linejoin="bevel" stroke-miterlimit="10"/><path fill="red" stroke="red" paint-order="fill stroke markers" d=" M 131.71150278293135 317.9786037760271 A 3 3 0 1 1 131.71150128293147 317.9756037765271" stroke-linejoin="bevel" stroke-miterlimit="10"/><path fill="red" stroke="red" paint-order="fill stroke markers" d=" M 140.63543599257886 311.47895025121426 A 3 3 0 1 1 140.63543449257898 311.47595025171427" stroke-linejoin="bevel" stroke-miterlimit="10"/><path fill="red" stroke="red" paint-order="fill stroke markers" d=" M 149.55936920222635 309.8348110486912 A 3 3 0 1 1 149.55936770222647 309.83181104919123" stroke-linejoin="bevel" stroke-miterlimit="10"/><path fill="red" stroke="red" paint-order="fill stroke markers" d=" M 158.48330241187386 309.7950334873399 A 3 3 0 1 1 158.48330091187398 309.7920334878399" stroke-linejoin="bevel" stroke-miterlimit="10"/><path fill="red" stroke="red" paint-order="fill stroke markers" d=" M 167.40723562152135 309.7950334873399 A 3 3 0 1 1 167.40723412152147 309.7920334878399" stroke-linejoin="bevel" stroke-miterlimit="10"/><path fill="red" stroke="red" paint-order="fill stroke markers" d=" M 176.33116883116884 304.1333605883291 A 3 3 0 1 1 176.33116733116896 304.1303605888291" stroke-linejoin="bevel" stroke-miterlimit="10"/><path fill="red" stroke="red" paint-order="fill stroke markers" d=" M 185.25510204081633 304.1333605883291 A 3 3 0 1 1 185.25510054081644 304.1303605888291" stroke-linejoin="bevel" stroke-miterlimit="10"/><path fill="red" stroke="red" paint-order="fill stroke markers" d=" M 194.1790352504638 304.1333605883291 A 3 3 0 1 1 194.17903375046393 304.1303605888291" stroke-linejoin="bevel" stroke-miterlimit="10"/><path fill="red" stroke="red" paint-order="fill stroke markers" d=" M 203.10296846011133 304.1333605883291 A 3 3 0 1 1 203.10296696011144 304.1303605888291" stroke-linejoin="bevel" stroke-miterlimit="10"/><path fill="red" stroke="red" paint-order="fill stroke markers" d=" M 212.02690166975884 298.8296857414806 A 3 3 0 1 1 212.02690016975896 298.8266857419806" stroke-linejoin="bevel" stroke-miterlimit="10"/><path fill="red" stroke="red" paint-order="fill stroke markers" d=" M 220.95083487940633 298.8296857414806 A 3 3 0 1 1 220.95083337940645 298.8266857419806" stroke-linejoin="bevel" stroke-miterlimit="10"/><path fill="red" stroke="red" paint-order="fill stroke markers" d=" M 229.87476808905382 298.8296857414806 A 3 3 0 1 1 229.87476658905393 298.8266857419806" stroke-linejoin="bevel" stroke-miterlimit="10"/><path fill="red" stroke="red" paint-order="fill stroke markers" d=" M 238.7987012987013 298.8296857414806 A 3 3 0 1 1 238.79869979870142 298.8266857419806" stroke-linejoin="bevel" stroke-miterlimit="10"/><path fill="red" stroke="red" paint-order="fill stroke markers" d=" M 247.7226345083488 293.5260108946321 A 3 3 0 1 1 247.7226330083489 293.52301089513213" stroke-linejoin="bevel" stroke-miterlimit="10"/><path fill="red" stroke="red" paint-order="fill stroke markers" d=" M 256.6465677179963 293.5260108946321 A 3 3 0 1 1 256.6465662179964 293.52301089513213" stroke-linejoin="bevel" stroke-miterlimit="10"/><path fill="red" stroke="red" paint-order="fill stroke markers" d=" M 265.5705009276438 293.5260108946321 A 3 3 0 1 1 265.57049942764394 293.52301089513213" stroke-linejoin="bevel" stroke-miterlimit="10"/><path fill="red" stroke="red" paint-order="fill stroke markers" d=" M 274.4944341372913 293.5260108946321 A 3 3 0 1 1 274.4944326372914 293.52301089513213" stroke-linejoin="bevel" stroke-miterlimit="10"/><path fill="red" stroke="red" paint-order="fill stroke markers" d=" M 283.4183673469388 293.5260108946321 A 3 3 0 1 1 283.4183658469389 293.52301089513213" stroke-linejoin="bevel" stroke-miterlimit="10"/><path fill="red" stroke="red" paint-order="fill stroke markers" d=" M 292.3423005565863 293.5260108946321 A 3 3 0 1 1 292.3422990565864 293.52301089513213" stroke-linejoin="bevel" stroke-miterlimit="10"/><path fill="red" stroke="red" paint-order="fill stroke markers" d=" M 301.26623376623377 293.5260108946321 A 3 3 0 1 1 301.2662322662339 293.52301089513213" stroke-linejoin="bevel" stroke-miterlimit="10"/><path fill="red" stroke="red" paint-order="fill stroke markers" d=" M 310.19016697588125 293.5260108946321 A 3 3 0 1 1 310.1901654758814 293.52301089513213" stroke-linejoin="bevel" stroke-miterlimit="10"/><path fill="red" stroke="red" paint-order="fill stroke markers" d=" M 319.1141001855288 293.4862333332807 A 3 3 0 1 1 319.1140986855289 293.48323333378073" stroke-linejoin="bevel" stroke-miterlimit="10"/><path fill="red" stroke="red" paint-order="fill stroke markers" d=" M 328.0380333951763 292.8577478639292 A 3 3 0 1 1 328.0380318951764 292.8547478644292" stroke-linejoin="bevel" stroke-miterlimit="10"/><path fill="red" stroke="red" paint-order="fill stroke markers" d=" M 336.9619666048238 291.12609802643317 A 3 3 0 1 1 336.9619651048239 291.1230980269332" stroke-linejoin="bevel" stroke-miterlimit="10"/><path fill="red" stroke="red" paint-order="fill stroke markers" d=" M 345.88589981447126 289.4024037012074 A 3 3 0 1 1 345.8858983144714 289.3994037017074" stroke-linejoin="bevel" stroke-miterlimit="10"/><path fill="red" stroke="red" paint-order="fill stroke markers" d=" M 354.80983302411875 282.60309254754765 A 3 3 0 1 1 354.80983152411886 282.60009254804766" stroke-linejoin="bevel" stroke-miterlimit="10"/><path fill="red" stroke="red" paint-order="fill stroke markers" d=" M 363.7337662337663 278.7181507222311 A 3 3 0 1 1 363.7337647337664 278.7151507227311" stroke-linejoin="bevel" stroke-miterlimit="10"/><path fill="red" stroke="red" paint-order="fill stroke markers" d=" M 372.6576994434138 274.642276602428 A 3 3 0 1 1 372.6576979434139 274.639276602928" stroke-linejoin="bevel" stroke-miterlimit="10"/><path fill="red" stroke="red" paint-order="fill stroke markers" d=" M 381.58163265306126 269.75759206848056 A 3 3 0 1 1 381.5816311530614 269.75459206898057" stroke-linejoin="bevel" stroke-miterlimit="10"/><path fill="red" stroke="red" paint-order="fill stroke markers" d=" M 390.50556586270875 264.859648347416 A 3 3 0 1 1 390.50556436270887 264.856648347916" stroke-linejoin="bevel" stroke-miterlimit="10"/><path fill="red" stroke="red" paint-order="fill stroke markers" d=" M 399.42949907235624 236.67326837383968 A 3 3 0 1 1 399.42949757235635 236.67026837433968" stroke-linejoin="bevel" stroke-miterlimit="10"/><path fill="red" stroke="red" paint-order="fill stroke markers" d=" M 408.3534322820037 230.11262258828805 A 3 3 0 1 1 408.35343078200384 230.10962258878806" stroke-linejoin="bevel" stroke-miterlimit="10"/><path fill="red" stroke="red" paint-order="fill stroke markers" d=" M 417.27736549165127 223.64744294997973 A 3 3 0 1 1 417.2773639916514 223.64444295047974" stroke-linejoin="bevel" stroke-miterlimit="10"/><path fill="red" stroke="red" paint-order="fill stroke markers" d=" M 426.20129870129875 216.8958648699416 A 3 3 0 1 1 426.20129720129887 216.8928648704416" stroke-linejoin="bevel" stroke-miterlimit="10"/><path fill="red" stroke="red" paint-order="fill stroke markers" d=" M 435.12523191094624 210.90271229300282 A 3 3 0 1 1 435.12523041094636 210.89971229350283" stroke-linejoin="bevel" stroke-miterlimit="10"/><path fill="red" stroke="red" paint-order="fill stroke markers" d=" M 444.0491651205937 204.86182664244237 A 3 3 0 1 1 444.04916362059384 204.85882664294238" stroke-linejoin="bevel" stroke-miterlimit="10"/><path fill="red" stroke="red" paint-order="fill stroke markers" d=" M 452.9730983302412 198.71221565752154 A 3 3 0 1 1 452.97309683024133 198.70921565802155" stroke-linejoin="bevel" stroke-miterlimit="10"/><path fill="red" stroke="red" paint-order="fill stroke markers" d=" M 461.8970315398887 192.8436994394837 A 3 3 0 1 1 461.8970300398888 192.8406994399837" stroke-linejoin="bevel" stroke-miterlimit="10"/><path fill="red" stroke="red" paint-order="fill stroke markers" d=" M 470.8209647495362 154.72618831518355 A 3 3 0 1 1 470.8209632495363 154.72318831568356" stroke-linejoin="bevel" stroke-miterlimit="10"/><path fill="red" stroke="red" paint-order="fill stroke markers" d=" M 479.74489795918373 146.88205321669463 A 3 3 0 1 1 479.74489645918385 146.87905321719464" stroke-linejoin="bevel" stroke-miterlimit="10"/><path fill="red" stroke="red" paint-order="fill stroke markers" d=" M 488.6688311688312 138.63218699242177 A 3 3 0 1 1 488.66882966883134 138.62918699292177" stroke-linejoin="bevel" stroke-miterlimit="10"/><path fill="red" stroke="red" paint-order="fill stroke markers" d=" M 497.5927643784787 130.23646970986061 A 3 3 0 1 1 497.5927628784788 130.23346971036062" stroke-linejoin="bevel" stroke-miterlimit="10"/><path fill="red" stroke="red" paint-order="fill stroke markers" d=" M 506.5166975881262 122.5037117831555 A 3 3 0 1 1 506.5166960881263 122.50071178365549" stroke-linejoin="bevel" stroke-miterlimit="10"/><path fill="red" stroke="red" paint-order="fill stroke markers" d=" M 515.4406307977737 115.60893448225247 A 3 3 0 1 1 515.4406292977739 115.60593448275246" stroke-linejoin="bevel" stroke-miterlimit="10"/><path fill="red" stroke="red" paint-order="fill stroke markers" d=" M 524.3645640074211 45.1204439302125 A 3 3 0 1 1 524.3645625074213 45.117443930712504" stroke-linejoin="bevel" stroke-miterlimit="10"/><path fill="red" stroke="red" paint-order="fill stroke markers" d=" M 533.2884972170687 34.5210497487858 A 3 3 0 1 1 533.2884957170688 34.5180497492858" stroke-linejoin="bevel" stroke-miterlimit="10"/><path fill="red" stroke="red" paint-order="fill stroke markers" d=" M 542.2124304267162 26.199583914080506 A 3 3 0 1 1 542.2124289267164 26.196583914580504" stroke-linejoin="bevel" stroke-miterlimit="10"/><path fill="red" stroke="red" paint-order="fill stroke markers" d=" M 551.1363636363636 20.27272727272731 A 3 3 0 1 1 551.1363621363638 20.269727273227307" stroke-linejoin="bevel" stroke-miterlimit="10"/></g><g stroke="tomato" stroke-linejoin="bevel" stroke-miterlimit="10"><path fill="none" stroke="none"/><path fill="none" stroke="" d=""/><g transform="translate(110.86363636363637,320.42359788042427)"><path fill="none" stroke="" paint-order="fill stroke markers" d=" M -2.5 2.5 L 2.5 -2.5 M -2.5 -2.5 L 2.5 2.5"/><g transform="translate(-110.86363636363637,-320.42359788042427)"><path fill="none" stroke="" d=""/><g transform="translate(119.78756957328386,320.42359788042427)"><path fill="none" stroke="" paint-order="fill stroke markers" d=" M -2.5 2.5 L 2.5 -2.5 M -2.5 -2.5 L 2.5 2.5"/><g transform="translate(-119.78756957328386,-320.42359788042427)"><path fill="none" stroke="" d=""/><g transform="translate(128.71150278293135,320.42359788042427)"><path fill="none" stroke="" paint-order="fill stroke markers" d=" M -2.5 2.5 L 2.5 -2.5 M -2.5 -2.5 L 2.5 2.5"/><g transform="translate(-128.71150278293135,-320.42359788042427)"><path fill="none" stroke="" d=""/><g transform="translate(137.63543599257886,315.11992303357573)"><path fill="none" stroke="" paint-order="fill stroke markers" d=" M -2.5 2.5 L 2.5 -2.5 M -2.5 -2.5 L 2.5 2.5"/><g transform="translate(-137.63543599257886,-315.11992303357573)"><path fill="none" stroke="" d=""/><g transform="translate(146.55936920222635,315.11992303357573)"><path fill="none" stroke="" paint-order="fill stroke markers" d=" M -2.5 2.5 L 2.5 -2.5 M -2.5 -2.5 L 2.5 2.5"/><g transform="translate(-146.55936920222635,-315.11992303357573)"><path fill="none" stroke="" d=""/><g transform="translate(155.48330241187386,315.11992303357573)"><path fill="none" stroke="" paint-order="fill stroke markers" d=" M -2.5 2.5 L 2.5 -2.5 M -2.5 -2.5 L 2.5 2.5"/><g transform="translate(-155.48330241187386,-315.11992303357573)"><path fill="none" stroke="" d=""/><g transform="translate(164.40723562152135,315.11992303357573)"><path fill="none" stroke="" paint-order="fill stroke markers" d=" M -2.5 2.5 L 2.5 -2.5 M -2.5 -2.5 L 2.5 2.5"/><g transform="translate(-164.40723562152135,-315.11992303357573)"><path fill="none" stroke="" d=""/><g transform="translate(173.33116883116884,309.81624818672725)"><path fill="none" stroke="" paint-order="fill stroke markers" d=" M -2.5 2.5 L 2.5 -2.5 M -2.5 -2.5 L 2.5 2.5"/><g transform="translate(-173.33116883116884,-309.81624818672725)"><path fill="none" stroke="" d=""/><g transform="translate(182.25510204081633,309.81624818672725)"><path fill="none" stroke="" paint-order="fill stroke markers" d=" M -2.5 2.5 L 2.5 -2.5 M -2.5 -2.5 L 2.5 2.5"/><g transform="translate(-182.25510204081633,-309.81624818672725)"><path fill="none" stroke="" d=""/><g transform="translate(191.1790352504638,309.81624818672725)"><path fill="none" stroke="" paint-order="fill stroke markers" d=" M -2.5 2.5 L 2.5 -2.5 M -2.5 -2.5 L 2.5 2.5"/><g transform="translate(-191.1790352504638,-309.81624818672725)"><path fill="none" stroke="" d=""/><g transform="translate(200.10296846011133,309.81624818672725)"><path fill="none" stroke="" paint-order="fill stroke markers" d=" M -2.5 2.5 L 2.5 -2.5 M -2.5 -2.5 L 2.5 2.5"/><g transform="translate(-200.10296846011133,-309.81624818672725)"><path fill="none" stroke="" d=""/><g transform="translate(209.02690166975884,304.51257333987877)"><path fill="none" stroke="" paint-order="fill stroke markers" d=" M -2.5 2.5 L 2.5 -2.5 M -2.5 -2.5 L 2.5 2.5"/><g transform="translate(-209.02690166975884,-304.51257333987877)"><path fill="none" stroke="" d=""/><g transform="translate(217.95083487940633,304.51257333987877)"><path fill="none" stroke="" paint-order="fill stroke markers" d=" M -2.5 2.5 L 2.5 -2.5 M -2.5 -2.5 L 2.5 2.5"/><g transform="translate(-217.95083487940633,-304.51257333987877)"><path fill="none" stroke="" d=""/><g transform="translate(226.87476808905382,304.51257333987877)"><path fill="none" stroke="" paint-order="fill stroke markers" d=" M -2.5 2.5 L 2.5 -2.5 M -2.5 -2.5 L 2.5 2.5"/><g transform="translate(-226.87476808905382,-304.51257333987877)"><path fill="none" stroke="" d=""/><g transform="translate(235.7987012987013,304.51257333987877)"><path fill="none" stroke="" paint-order="fill stroke markers" d=" M -2.5 2.5 L 2.5 -2.5 M -2.5 -2.5 L 2.5 2.5"/><g transform="translate(-235.7987012987013,-304.51257333987877)"><path fill="none" stroke="" d=""/><g transform="translate(244.7226345083488,299.2088984930303)"><path fill="none" stroke="" paint-order="fill stroke markers" d=" M -2.5 2.5 L 2.5 -2.5 M -2.5 -2.5 L 2.5 2.5"/><g transform="translate(-244.7226345083488,-299.2088984930303)"><path fill="none" stroke="" d=""/><g transform="translate(253.64656771799628,299.2088984930303)"><path fill="none" stroke="" paint-order="fill stroke markers" d=" M -2.5 2.5 L 2.5 -2.5 M -2.5 -2.5 L 2.5 2.5"/><g transform="translate(-253.64656771799628,-299.2088984930303)"><path fill="none" stroke="" d=""/><g transform="translate(262.5705009276438,299.2088984930303)"><path fill="none" stroke="" paint-order="fill stroke markers" d=" M -2.5 2.5 L 2.5 -2.5 M -2.5 -2.5 L 2.5 2.5"/><g transform="translate(-262.5705009276438,-299.2088984930303)"><path fill="none" stroke="" d=""/><g transform="translate(271.4944341372913,299.2088984930303)"><path fill="none" stroke="" paint-order="fill stroke markers" d=" M -2.5 2.5 L 2.5 -2.5 M -2.5 -2.5 L 2.5 2.5"/><g transform="translate(-271.4944341372913,-299.2088984930303)"><path fill="none" stroke="" d=""/><g transform="translate(280.4183673469388,299.2088984930303)"><path fill="none" stroke="" paint-order="fill stroke markers" d=" M -2.5 2.5 L 2.5 -2.5 M -2.5 -2.5 L 2.5 2.5"/><g transform="translate(-280.4183673469388,-299.2088984930303)"><path fill="none" stroke="" d=""/><g transform="translate(289.3423005565863,299.2088984930303)"><path fill="none" stroke="" paint-order="fill stroke markers" d=" M -2.5 2.5 L 2.5 -2.5 M -2.5 -2.5 L 2.5 2.5"/><g transform="translate(-289.3423005565863,-299.2088984930303)"><path fill="none" stroke="" d=""/><g transform="translate(298.26623376623377,299.2088984930303)"><path fill="none" stroke="" paint-order="fill stroke markers" d=" M -2.5 2.5 L 2.5 -2.5 M -2.5 -2.5 L 2.5 2.5"/><g transform="translate(-298.26623376623377,-299.2088984930303)"><path fill="none" stroke="" d=""/><g transform="translate(307.19016697588125,299.2088984930303)"><path fill="none" stroke="" paint-order="fill stroke markers" d=" M -2.5 2.5 L 2.5 -2.5 M -2.5 -2.5 L 2.5 2.5"/><g transform="translate(-307.19016697588125,-299.2088984930303)"><path fill="none" stroke="" d=""/><g transform="translate(316.1141001855288,299.2088984930303)"><path fill="none" stroke="" paint-order="fill stroke markers" d=" M -2.5 2.5 L 2.5 -2.5 M -2.5 -2.5 L 2.5 2.5"/><g transform="translate(-316.1141001855288,-299.2088984930303)"><path fill="none" stroke="" d=""/><g transform="translate(325.0380333951763,299.2088984930303)"><path fill="none" stroke="" paint-order="fill stroke markers" d=" M -2.5 2.5 L 2.5 -2.5 M -2.5 -2.5 L 2.5 2.5"/><g transform="translate(-325.0380333951763,-299.2088984930303)"><path fill="none" stroke="" d=""/><g transform="translate(333.9619666048238,299.2088984930303)"><path fill="none" stroke="" paint-order="fill stroke markers" d=" M -2.5 2.5 L 2.5 -2.5 M -2.5 -2.5 L 2.5 2.5"/><g transform="translate(-333.9619666048238,-299.2088984930303)"><path fill="none" stroke="" d=""/><g transform="translate(342.88589981447126,299.2088984930303)"><path fill="none" stroke="" paint-order="fill stroke markers" d=" M -2.5 2.5 L 2.5 -2.5 M -2.5 -2.5 L 2.5 2.5"/><g transform="translate(-342.88589981447126,-299.2088984930303)"><path fill="none" stroke="" d=""/><g transform="translate(351.80983302411875,299.2088984930303)"><path fill="none" stroke="" paint-order="fill stroke markers" d=" M -2.5 2.5 L 2.5 -2.5 M -2.5 -2.5 L 2.5 2.5"/><g transform="translate(-351.80983302411875,-299.2088984930303)"><path fill="none" stroke="" d=""/><g transform="translate(360.7337662337663,299.2088984930303)"><path fill="none" stroke="" paint-order="fill stroke markers" d=" M -2.5 2.5 L 2.5 -2.5 M -2.5 -2.5 L 2.5 2.5"/><g transform="translate(-360.7337662337663,-299.2088984930303)"><path fill="none" stroke="" d=""/><g transform="translate(369.6576994434138,299.2088984930303)"><path fill="none" stroke="" paint-order="fill stroke markers" d=" M -2.5 2.5 L 2.5 -2.5 M -2.5 -2.5 L 2.5 2.5"/><g transform="translate(-369.6576994434138,-299.2088984930303)"><path fill="none" stroke="" d=""/><g transform="translate(378.58163265306126,299.2088984930303)"><path fill="none" stroke="" paint-order="fill stroke markers" d=" M -2.5 2.5 L 2.5 -2.5 M -2.5 -2.5 L 2.5 2.5"/><g transform="translate(-378.58163265306126,-299.2088984930303)"><path fill="none" stroke="" d=""/><g transform="translate(387.50556586270875,299.2088984930303)"><path fill="none" stroke="" paint-order="fill stroke markers" d=" M -2.5 2.5 L 2.5 -2.5 M -2.5 -2.5 L 2.5 2.5"/><g transform="translate(-387.50556586270875,-299.2088984930303)"><path fill="none" stroke="" d=""/><g transform="translate(396.42949907235624,299.2088984930303)"><path fill="none" stroke="" paint-order="fill stroke markers" d=" M -2.5 2.5 L 2.5 -2.5 M -2.5 -2.5 L 2.5 2.5"/><g transform="translate(-396.42949907235624,-299.2088984930303)"><path fill="none" stroke="" d=""/><g transform="translate(405.3534322820037,299.2088984930303)"><path fill="none" stroke="" paint-order="fill stroke markers" d=" M -2.5 2.5 L 2.5 -2.5 M -2.5 -2.5 L 2.5 2.5"/><g transform="translate(-405.3534322820037,-299.2088984930303)"><path fill="none" stroke="" d=""/><g transform="translate(414.27736549165127,299.2088984930303)"><path fill="none" stroke="" paint-order="fill stroke markers" d=" M -2.5 2.5 L 2.5 -2.5 M -2.5 -2.5 L 2.5 2.5"/><g transform="translate(-414.27736549165127,-299.2088984930303)"><path fill="none" stroke="" d=""/><g transform="translate(423.20129870129875,299.2088984930303)"><path fill="none" stroke="" paint-order="fill stroke markers" d=" M -2.5 2.5 L 2.5 -2.5 M -2.5 -2.5 L 2.5 2.5"/><g transform="translate(-423.20129870129875,-299.2088984930303)"><path fill="none" stroke="" d=""/><g transform="translate(432.12523191094624,299.2088984930303)"><path fill="none" stroke="" paint-order="fill stroke markers" d=" M -2.5 2.5 L 2.5 -2.5 M -2.5 -2.5 L 2.5 2.5"/><g transform="translate(-432.12523191094624,-299.2088984930303)"><path fill="none" stroke="" d=""/><g transform="translate(441.0491651205937,299.2088984930303)"><path fill="none" stroke="" paint-order="fill stroke markers" d=" M -2.5 2.5 L 2.5 -2.5 M -2.5 -2.5 L 2.5 2.5"/><g transform="translate(-441.0491651205937,-299.2088984930303)"><path fill="none" stroke="" d=""/><g transform="translate(449.9730983302412,299.2088984930303)"><path fill="none" stroke="" paint-order="fill stroke markers" d=" M -2.5 2.5 L 2.5 -2.5 M -2.5 -2.5 L 2.5 2.5"/><g transform="translate(-449.9730983302412,-299.2088984930303)"><path fill="none" stroke="" d=""/><g transform="translate(458.8970315398887,299.2088984930303)"><path fill="none" stroke="" paint-order="fill stroke markers" d=" M -2.5 2.5 L 2.5 -2.5 M -2.5 -2.5 L 2.5 2.5"/><g transform="translate(-458.8970315398887,-299.2088984930303)"><path fill="none" stroke="" d=""/><g transform="translate(467.8209647495362,299.2088984930303)"><path fill="none" stroke="" paint-order="fill stroke markers" d=" M -2.5 2.5 L 2.5 -2.5 M -2.5 -2.5 L 2.5 2.5"/><g transform="translate(-467.8209647495362,-299.2088984930303)"><path fill="none" stroke="" d=""/><g transform="translate(476.74489795918373,299.2088984930303)"><path fill="none" stroke="" paint-order="fill stroke markers" d=" M -2.5 2.5 L 2.5 -2.5 M -2.5 -2.5 L 2.5 2.5"/><g transform="translate(-476.74489795918373,-299.2088984930303)"><path fill="none" stroke="" d=""/><g transform="translate(485.6688311688312,299.2088984930303)"><path fill="none" stroke="" paint-order="fill stroke markers" d=" M -2.5 2.5 L 2.5 -2.5 M -2.5 -2.5 L 2.5 2.5"/><g transform="translate(-485.6688311688312,-299.2088984930303)"><path fill="none" stroke="" d=""/><g transform="translate(494.5927643784787,299.2088984930303)"><path fill="none" stroke="" paint-order="fill stroke markers" d=" M -2.5 2.5 L 2.5 -2.5 M -2.5 -2.5 L 2.5 2.5"/><g transform="translate(-494.5927643784787,-299.2088984930303)"><path fill="none" stroke="" d=""/><g transform="translate(503.5166975881262,299.2088984930303)"><path fill="none" stroke="" paint-order="fill stroke markers" d=" M -2.5 2.5 L 2.5 -2.5 M -2.5 -2.5 L 2.5 2.5"/><g transform="translate(-503.5166975881262,-299.2088984930303)"><path fill="none" stroke="" d=""/><g transform="translate(512.4406307977737,299.2088984930303)"><path fill="none" stroke="" paint-order="fill stroke markers" d=" M -2.5 2.5 L 2.5 -2.5 M -2.5 -2.5 L 2.5 2.5"/><g transform="translate(-512.4406307977737,-299.2088984930303)"><path fill="none" stroke="" d=""/><g transform="translate(521.3645640074211,299.2088984930303)"><path fill="none" stroke="" paint-order="fill stroke markers" d=" M -2.5 2.5 L 2.5 -2.5 M -2.5 -2.5 L 2.5 2.5"/><g transform="translate(-521.3645640074211,-299.2088984930303)"><path fill="none" stroke="" d=""/><g transform="translate(530.2884972170687,299.2088984930303)"><path fill="none" stroke="" paint-order="fill stroke markers" d=" M -2.5 2.5 L 2.5 -2.5 M -2.5 -2.5 L 2.5 2.5"/><g transform="translate(-530.2884972170687,-299.2088984930303)"><path fill="none" stroke="" d=""/><g transform="translate(539.2124304267162,299.2088984930303)"><path fill="none" stroke="" paint-order="fill stroke markers" d=" M -2.5 2.5 L 2.5 -2.5 M -2.5 -2.5 L 2.5 2.5"/><g transform="translate(-539.2124304267162,-299.2088984930303)"><path fill="none" stroke="" d=""/><g transform="translate(548.1363636363636,299.2088984930303)"><path fill="none" stroke="" paint-order="fill stroke markers" d=" M -2.5 2.5 L 2.5 -2.5 M -2.5 -2.5 L 2.5 2.5"/><g transform="translate(-548.1363636363636,-299.2088984930303)"/></g></g></g></g></g></g></g></g></g></g></g></g></g></g></g></g></g></g></g></g></g></g></g></g></g></g></g></g></g></g></g></g></g></g></g></g></g></g></g></g></g></g></g></g></g></g></g></g></g></g></g></g></g></g></g></g></g></g></g></g></g></g></g></g></g></g></g></g></g></g></g></g></g></g></g></g></g></g></g></g></g></g></g></g></g></g></g></g></g></g></g></g></g></g></g></g></g></g></g></g><g><path fill="none" stroke="none"/><path fill="white" stroke="orange" paint-order="fill stroke markers" d=" M 113.36363636363637 325.3560154879934 A 2.5 2.5 0 1 1 113.36363511363648 325.35351548841004" stroke-linejoin="bevel" stroke-miterlimit="10"/><path fill="white" stroke="orange" paint-order="fill stroke markers" d=" M 122.28756957328386 324.6824487824436 A 2.5 2.5 0 1 1 122.28756832328396 324.67994878286027" stroke-linejoin="bevel" stroke-miterlimit="10"/><path fill="white" stroke="orange" paint-order="fill stroke markers" d=" M 131.21150278293135 323.2822786228756 A 2.5 2.5 0 1 1 131.21150153293146 323.27977862329226" stroke-linejoin="bevel" stroke-miterlimit="10"/><path fill="white" stroke="orange" paint-order="fill stroke markers" d=" M 140.13543599257886 322.0862999449113 A 2.5 2.5 0 1 1 140.13543474257898 322.08379994532794" stroke-linejoin="bevel" stroke-miterlimit="10"/><path fill="white" stroke="orange" paint-order="fill stroke markers" d=" M 149.05936920222635 320.44216074238824 A 2.5 2.5 0 1 1 149.05936795222647 320.4396607428049" stroke-linejoin="bevel" stroke-miterlimit="10"/><path fill="white" stroke="orange" paint-order="fill stroke markers" d=" M 157.98330241187386 320.40238318103684 A 2.5 2.5 0 1 1 157.98330116187398 320.3998831814535" stroke-linejoin="bevel" stroke-miterlimit="10"/><path fill="white" stroke="orange" paint-order="fill stroke markers" d=" M 166.90723562152135 320.40238318103684 A 2.5 2.5 0 1 1 166.90723437152147 320.3998831814535" stroke-linejoin="bevel" stroke-miterlimit="10"/><path fill="white" stroke="orange" paint-order="fill stroke markers" d=" M 175.83116883116884 320.0443851288746 A 2.5 2.5 0 1 1 175.83116758116896 320.04188512929124" stroke-linejoin="bevel" stroke-miterlimit="10"/><path fill="white" stroke="orange" paint-order="fill stroke markers" d=" M 184.75510204081633 320.0443851288746 A 2.5 2.5 0 1 1 184.75510079081644 320.04188512929124" stroke-linejoin="bevel" stroke-miterlimit="10"/><path fill="white" stroke="orange" paint-order="fill stroke markers" d=" M 193.6790352504638 320.0443851288746 A 2.5 2.5 0 1 1 193.67903400046393 320.04188512929124" stroke-linejoin="bevel" stroke-miterlimit="10"/><path fill="white" stroke="orange" paint-order="fill stroke markers" d=" M 202.60296846011133 320.0443851288746 A 2.5 2.5 0 1 1 202.60296721011144 320.04188512929124" stroke-linejoin="bevel" stroke-miterlimit="10"/><path fill="white" stroke="orange" paint-order="fill stroke markers" d=" M 211.52690166975884 320.0443851288746 A 2.5 2.5 0 1 1 211.52690041975896 320.04188512929124" stroke-linejoin="bevel" stroke-miterlimit="10"/><path fill="white" stroke="orange" paint-order="fill stroke markers" d=" M 220.45083487940633 320.0443851288746 A 2.5 2.5 0 1 1 220.45083362940645 320.04188512929124" stroke-linejoin="bevel" stroke-miterlimit="10"/><path fill="white" stroke="orange" paint-order="fill stroke markers" d=" M 229.37476808905382 320.0443851288746 A 2.5 2.5 0 1 1 229.37476683905393 320.04188512929124" stroke-linejoin="bevel" stroke-miterlimit="10"/><path fill="white" stroke="orange" paint-order="fill stroke markers" d=" M 238.2987012987013 320.0443851288746 A 2.5 2.5 0 1 1 238.29870004870142 320.04188512929124" stroke-linejoin="bevel" stroke-miterlimit="10"/><path fill="white" stroke="orange" paint-order="fill stroke markers" d=" M 247.2226345083488 320.0443851288746 A 2.5 2.5 0 1 1 247.2226332583489 320.04188512929124" stroke-linejoin="bevel" stroke-miterlimit="10"/><path fill="white" stroke="orange" paint-order="fill stroke markers" d=" M 256.1465677179963 320.0443851288746 A 2.5 2.5 0 1 1 256.14656646799637 320.04188512929124" stroke-linejoin="bevel" stroke-miterlimit="10"/><path fill="white" stroke="orange" paint-order="fill stroke markers" d=" M 265.0705009276438 320.0443851288746 A 2.5 2.5 0 1 1 265.0704996776439 320.04188512929124" stroke-linejoin="bevel" stroke-miterlimit="10"/><path fill="white" stroke="orange" paint-order="fill stroke markers" d=" M 273.9944341372913 320.0443851288746 A 2.5 2.5 0 1 1 273.9944328872914 320.04188512929124" stroke-linejoin="bevel" stroke-miterlimit="10"/><path fill="white" stroke="orange" paint-order="fill stroke markers" d=" M 282.9183673469388 320.0443851288746 A 2.5 2.5 0 1 1 282.9183660969389 320.04188512929124" stroke-linejoin="bevel" stroke-miterlimit="10"/><path fill="white" stroke="orange" paint-order="fill stroke markers" d=" M 291.8423005565863 320.0443851288746 A 2.5 2.5 0 1 1 291.84229930658637 320.04188512929124" stroke-linejoin="bevel" stroke-miterlimit="10"/><path fill="white" stroke="orange" paint-order="fill stroke markers" d=" M 300.76623376623377 320.0443851288746 A 2.5 2.5 0 1 1 300.76623251623386 320.04188512929124" stroke-linejoin="bevel" stroke-miterlimit="10"/><path fill="white" stroke="orange" paint-order="fill stroke markers" d=" M 309.69016697588125 320.0443851288746 A 2.5 2.5 0 1 1 309.69016572588134 320.04188512929124" stroke-linejoin="bevel" stroke-miterlimit="10"/><path fill="white" stroke="orange" paint-order="fill stroke markers" d=" M 318.6141001855288 320.00460756752324 A 2.5 2.5 0 1 1 318.6140989355289 320.0021075679399" stroke-linejoin="bevel" stroke-miterlimit="10"/><path fill="white" stroke="orange" paint-order="fill stroke markers" d=" M 327.5380333951763 319.37612209817166 A 2.5 2.5 0 1 1 327.5380321451764 319.3736220985883" stroke-linejoin="bevel" stroke-miterlimit="10"/><path fill="white" stroke="orange" paint-order="fill stroke markers" d=" M 336.4619666048238 317.6444722606756 A 2.5 2.5 0 1 1 336.46196535482386 317.6419722610923" stroke-linejoin="bevel" stroke-miterlimit="10"/><path fill="white" stroke="orange" paint-order="fill stroke markers" d=" M 345.38589981447126 315.9207779354499 A 2.5 2.5 0 1 1 345.38589856447135 315.91827793586657" stroke-linejoin="bevel" stroke-miterlimit="10"/><path fill="white" stroke="orange" paint-order="fill stroke markers" d=" M 354.30983302411875 309.1214667817901 A 2.5 2.5 0 1 1 354.30983177411883 309.11896678220677" stroke-linejoin="bevel" stroke-miterlimit="10"/><path fill="white" stroke="orange" paint-order="fill stroke markers" d=" M 363.2337662337663 305.2365249564736 A 2.5 2.5 0 1 1 363.2337649837664 305.23402495689027" stroke-linejoin="bevel" stroke-miterlimit="10"/><path fill="white" stroke="orange" paint-order="fill stroke markers" d=" M 372.1576994434138 301.1606508366705 A 2.5 2.5 0 1 1 372.15769819341386 301.1581508370872" stroke-linejoin="bevel" stroke-miterlimit="10"/><path fill="white" stroke="orange" paint-order="fill stroke markers" d=" M 381.08163265306126 296.2759663027231 A 2.5 2.5 0 1 1 381.08163140306135 296.27346630313974" stroke-linejoin="bevel" stroke-miterlimit="10"/><path fill="white" stroke="orange" paint-order="fill stroke markers" d=" M 390.00556586270875 291.37802258165846 A 2.5 2.5 0 1 1 390.00556461270884 291.3755225820751" stroke-linejoin="bevel" stroke-miterlimit="10"/><path fill="white" stroke="orange" paint-order="fill stroke markers" d=" M 398.92949907235624 263.19164260808213 A 2.5 2.5 0 1 1 398.9294978223563 263.1891426084988" stroke-linejoin="bevel" stroke-miterlimit="10"/><path fill="white" stroke="orange" paint-order="fill stroke markers" d=" M 407.8534322820037 256.63099682253056 A 2.5 2.5 0 1 1 407.8534310320038 256.6284968229472" stroke-linejoin="bevel" stroke-miterlimit="10"/><path fill="white" stroke="orange" paint-order="fill stroke markers" d=" M 416.77736549165127 250.16581718422222 A 2.5 2.5 0 1 1 416.77736424165136 250.16331718463888" stroke-linejoin="bevel" stroke-miterlimit="10"/><path fill="white" stroke="orange" paint-order="fill stroke markers" d=" M 425.70129870129875 243.4142391041841 A 2.5 2.5 0 1 1 425.70129745129884 243.41173910460077" stroke-linejoin="bevel" stroke-miterlimit="10"/><path fill="white" stroke="orange" paint-order="fill stroke markers" d=" M 434.62523191094624 237.42108652724528 A 2.5 2.5 0 1 1 434.62523066094633 237.41858652766194" stroke-linejoin="bevel" stroke-miterlimit="10"/><path fill="white" stroke="orange" paint-order="fill stroke markers" d=" M 443.5491651205937 231.38020087668485 A 2.5 2.5 0 1 1 443.5491638705938 231.37770087710152" stroke-linejoin="bevel" stroke-miterlimit="10"/><path fill="white" stroke="orange" paint-order="fill stroke markers" d=" M 452.4730983302412 225.23058989176403 A 2.5 2.5 0 1 1 452.4730970802413 225.2280898921807" stroke-linejoin="bevel" stroke-miterlimit="10"/><path fill="white" stroke="orange" paint-order="fill stroke markers" d=" M 461.3970315398887 219.36207367372617 A 2.5 2.5 0 1 1 461.3970302898888 219.35957367414284" stroke-linejoin="bevel" stroke-miterlimit="10"/><path fill="white" stroke="orange" paint-order="fill stroke markers" d=" M 470.3209647495362 181.24456254942604 A 2.5 2.5 0 1 1 470.3209634995363 181.2420625498427" stroke-linejoin="bevel" stroke-miterlimit="10"/><path fill="white" stroke="orange" paint-order="fill stroke markers" d=" M 479.24489795918373 173.4004274509371 A 2.5 2.5 0 1 1 479.2448967091838 173.39792745135375" stroke-linejoin="bevel" stroke-miterlimit="10"/><path fill="white" stroke="orange" paint-order="fill stroke markers" d=" M 488.1688311688312 165.15056122666425 A 2.5 2.5 0 1 1 488.1688299188313 165.14806122708092" stroke-linejoin="bevel" stroke-miterlimit="10"/><path fill="white" stroke="orange" paint-order="fill stroke markers" d=" M 497.0927643784787 156.7548439441031 A 2.5 2.5 0 1 1 497.0927631284788 156.75234394451977" stroke-linejoin="bevel" stroke-miterlimit="10"/><path fill="white" stroke="orange" paint-order="fill stroke markers" d=" M 506.0166975881262 149.02208601739798 A 2.5 2.5 0 1 1 506.0166963381263 149.01958601781465" stroke-linejoin="bevel" stroke-miterlimit="10"/><path fill="white" stroke="orange" paint-order="fill stroke markers" d=" M 514.9406307977737 142.12730871649492 A 2.5 2.5 0 1 1 514.9406295477738 142.1248087169116" stroke-linejoin="bevel" stroke-miterlimit="10"/><path fill="white" stroke="orange" paint-order="fill stroke markers" d=" M 523.8645640074211 71.63881816445499 A 2.5 2.5 0 1 1 523.8645627574213 71.63631816487165" stroke-linejoin="bevel" stroke-miterlimit="10"/><path fill="white" stroke="orange" paint-order="fill stroke markers" d=" M 532.7884972170687 61.039423983028314 A 2.5 2.5 0 1 1 532.7884959670688 61.03692398344498" stroke-linejoin="bevel" stroke-miterlimit="10"/><path fill="white" stroke="orange" paint-order="fill stroke markers" d=" M 541.7124304267162 52.717958148322964 A 2.5 2.5 0 1 1 541.7124291767163 52.71545814873963" stroke-linejoin="bevel" stroke-miterlimit="10"/><path fill="white" stroke="orange" paint-order="fill stroke markers" d=" M 550.6363636363636 46.79110150696977 A 2.5 2.5 0 1 1 550.6363623863638 46.78860150738643" stroke-linejoin="bevel" stroke-miterlimit="10"/></g></g></g><g clip-path="url(#ksiLtRyRhASW)"><g><g/><g stroke="orange" stroke-linejoin="bevel" stroke-miterlimit="10" fill="#444444"><path fill="#ffffff" stroke="#e5e5e5" paint-order="fill stroke markers" d=" M 99 15 L 264.28125 15 L 264.28125 170 L 99 170 L 99 15 Z" fill-opacity="0.95" stroke-linejoin="bevel" stroke-miterlimit="10" stroke-opacity="0.5"/><text fill="#444444" stroke="none" font-family="helvetica" font-size="10pt" font-style="normal" font-weight="normal" text-decoration="normal" x="134" y="35" text-anchor="start" dominant-baseline="central">Edge Cost Three-tier</text><g><path fill="none" stroke="dodgerblue" paint-order="fill stroke markers" d=" M 109 35 L 129 35" stroke-linejoin="bevel" stroke-miterlimit="10" stroke-width="2"/></g><text fill="#444444" stroke="none" font-family="helvetica" font-size="10pt" font-style="normal" font-weight="normal" text-decoration="normal" x="134" y="58" text-anchor="start" dominant-baseline="central">Fog Cost Three-tier</text><g><path fill="none" stroke="deepskyblue" paint-order="fill stroke markers" d=" M 109 58 L 129 58" stroke-linejoin="bevel" stroke-miterlimit="10" stroke-width="2" stroke-dasharray="6,4,2,4"/></g><text fill="#444444" stroke="none" font-family="helvetica" font-size="10pt" font-style="normal" font-weight="normal" text-decoration="normal" x="134" y="81" text-anchor="start" dominant-baseline="central">Edge Cost Two-tier</text><g><path fill="none" stroke="tomato" paint-order="fill stroke markers" d=" M 109 81 L 129 81" stroke-linejoin="bevel" stroke-miterlimit="10"/></g><path fill="" stroke="" d=""/><g transform="translate(119,81)"><path fill="" stroke="" paint-order="fill stroke markers" d=" M -4 4 L 4 -4 M -4 -4 L 4 4"/><g transform="translate(-119,-81)"><text fill="" stroke="none" font-family="helvetica" font-size="10pt" font-style="normal" font-weight="normal" text-decoration="normal" x="134" y="104" text-anchor="start" dominant-baseline="central">Fog Cost Two-tier</text><g><path fill="none" stroke="" paint-order="fill stroke markers" d=" M 109 104 L 129 104"/></g><path fill="white" stroke="orange" paint-order="fill stroke markers" d=" M 123 104 A 4 4 0 1 1 122.99999800000016 103.99600000066667" stroke-linejoin="bevel" stroke-miterlimit="10"/><text fill="#444444" stroke="none" font-family="helvetica" font-size="10pt" font-style="normal" font-weight="normal" text-decoration="normal" x="134" y="127" text-anchor="start" dominant-baseline="central">Total Cost Three-tier</text><g><path fill="none" stroke="#1f77b4" paint-order="fill stroke markers" d=" M 109 127 L 129 127" stroke-linejoin="bevel" stroke-miterlimit="10" stroke-width="3"/></g><text fill="#444444" stroke="none" font-family="helvetica" font-size="10pt" font-style="normal" font-weight="normal" text-decoration="normal" x="134" y="150" text-anchor="start" dominant-baseline="central">Total Cost Two-tier</text><g><path fill="none" stroke="red" paint-order="fill stroke markers" d=" M 109 150 L 129 150" stroke-linejoin="bevel" stroke-miterlimit="10" stroke-width="2"/></g><path fill="red" stroke="red" paint-order="fill stroke markers" d=" M 123 150 A 4 4 0 1 1 122.99999800000016 149.99600000066667" stroke-linejoin="bevel" stroke-miterlimit="10"/></g></g></g></g></g><g><g fill="#444444"><path fill="none" stroke="black" paint-order="fill stroke markers" d=" M 89 341 L 570 341" stroke-linejoin="bevel" stroke-miterlimit="10"/><path fill="none" stroke="black" paint-order="fill stroke markers" d=" M 102 347 L 102 339" stroke-linejoin="bevel" stroke-miterlimit="10"/><path fill="none" stroke="black" paint-order="fill stroke markers" d=" M 191 347 L 191 339" stroke-linejoin="bevel" stroke-miterlimit="10"/><path fill="none" stroke="black" paint-order="fill stroke markers" d=" M 280 347 L 280 339" stroke-linejoin="bevel" stroke-miterlimit="10"/><path fill="none" stroke="black" paint-order="fill stroke markers" d=" M 370 347 L 370 339" stroke-linejoin="bevel" stroke-miterlimit="10"/><path fill="none" stroke="black" paint-order="fill stroke markers" d=" M 459 347 L 459 339" stroke-linejoin="bevel" stroke-miterlimit="10"/><path fill="none" stroke="black" paint-order="fill stroke markers" d=" M 548 347 L 548 339" stroke-linejoin="bevel" stroke-miterlimit="10"/><path fill="none" stroke="black" paint-order="fill stroke markers" d=" M 102 345 L 102 341" stroke-linejoin="bevel" stroke-miterlimit="10"/><path fill="none" stroke="black" paint-order="fill stroke markers" d=" M 120 345 L 120 341" stroke-linejoin="bevel" stroke-miterlimit="10"/><path fill="none" stroke="black" paint-order="fill stroke markers" d=" M 138 345 L 138 341" stroke-linejoin="bevel" stroke-miterlimit="10"/><path fill="none" stroke="black" paint-order="fill stroke markers" d=" M 155 345 L 155 341" stroke-linejoin="bevel" stroke-miterlimit="10"/><path fill="none" stroke="black" paint-order="fill stroke markers" d=" M 173 345 L 173 341" stroke-linejoin="bevel" stroke-miterlimit="10"/><path fill="none" stroke="black" paint-order="fill stroke markers" d=" M 191 345 L 191 341" stroke-linejoin="bevel" stroke-miterlimit="10"/><path fill="none" stroke="black" paint-order="fill stroke markers" d=" M 209 345 L 209 341" stroke-linejoin="bevel" stroke-miterlimit="10"/><path fill="none" stroke="black" paint-order="fill stroke markers" d=" M 227 345 L 227 341" stroke-linejoin="bevel" stroke-miterlimit="10"/><path fill="none" stroke="black" paint-order="fill stroke markers" d=" M 245 345 L 245 341" stroke-linejoin="bevel" stroke-miterlimit="10"/><path fill="none" stroke="black" paint-order="fill stroke markers" d=" M 263 345 L 263 341" stroke-linejoin="bevel" stroke-miterlimit="10"/><path fill="none" stroke="black" paint-order="fill stroke markers" d=" M 280 345 L 280 341" stroke-linejoin="bevel" stroke-miterlimit="10"/><path fill="none" stroke="black" paint-order="fill stroke markers" d=" M 298 345 L 298 341" stroke-linejoin="bevel" stroke-miterlimit="10"/><path fill="none" stroke="black" paint-order="fill stroke markers" d=" M 316 345 L 316 341" stroke-linejoin="bevel" stroke-miterlimit="10"/><path fill="none" stroke="black" paint-order="fill stroke markers" d=" M 334 345 L 334 341" stroke-linejoin="bevel" stroke-miterlimit="10"/><path fill="none" stroke="black" paint-order="fill stroke markers" d=" M 352 345 L 352 341" stroke-linejoin="bevel" stroke-miterlimit="10"/><path fill="none" stroke="black" paint-order="fill stroke markers" d=" M 370 345 L 370 341" stroke-linejoin="bevel" stroke-miterlimit="10"/><path fill="none" stroke="black" paint-order="fill stroke markers" d=" M 388 345 L 388 341" stroke-linejoin="bevel" stroke-miterlimit="10"/><path fill="none" stroke="black" paint-order="fill stroke markers" d=" M 405 345 L 405 341" stroke-linejoin="bevel" stroke-miterlimit="10"/><path fill="none" stroke="black" paint-order="fill stroke markers" d=" M 423 345 L 423 341" stroke-linejoin="bevel" stroke-miterlimit="10"/><path fill="none" stroke="black" paint-order="fill stroke markers" d=" M 441 345 L 441 341" stroke-linejoin="bevel" stroke-miterlimit="10"/><path fill="none" stroke="black" paint-order="fill stroke markers" d=" M 459 345 L 459 341" stroke-linejoin="bevel" stroke-miterlimit="10"/><path fill="none" stroke="black" paint-order="fill stroke markers" d=" M 477 345 L 477 341" stroke-linejoin="bevel" stroke-miterlimit="10"/><path fill="none" stroke="black" paint-order="fill stroke markers" d=" M 495 345 L 495 341" stroke-linejoin="bevel" stroke-miterlimit="10"/><path fill="none" stroke="black" paint-order="fill stroke markers" d=" M 512 345 L 512 341" stroke-linejoin="bevel" stroke-miterlimit="10"/><path fill="none" stroke="black" paint-order="fill stroke markers" d=" M 530 345 L 530 341" stroke-linejoin="bevel" stroke-miterlimit="10"/><path fill="none" stroke="black" paint-order="fill stroke markers" d=" M 548 345 L 548 341" stroke-linejoin="bevel" stroke-miterlimit="10"/><path fill="" stroke="black" paint-order="fill stroke markers" d=" M 566 345 L 566 341" stroke-linejoin="bevel" stroke-miterlimit="10"/><g transform="translate(102,352) rotate(0,0,0)"><text fill="" stroke="none" font-family="helvetica" font-size="12pt" font-style="normal" font-weight="normal" text-decoration="normal" x="0" y="0" text-anchor="middle" dominant-baseline="hanging">0</text><g transform="rotate(0,0,0) translate(-102,-352) translate(191,352) rotate(0,0,0)"><text fill="" stroke="none" font-family="helvetica" font-size="12pt" font-style="normal" font-weight="normal" text-decoration="normal" x="0" y="0" text-anchor="middle" dominant-baseline="hanging">500</text><g transform="rotate(0,0,0) translate(-191,-352) translate(280,352) rotate(0,0,0)"><text fill="" stroke="none" font-family="helvetica" font-size="12pt" font-style="normal" font-weight="normal" text-decoration="normal" x="0" y="0" text-anchor="middle" dominant-baseline="hanging">1000</text><g transform="rotate(0,0,0) translate(-280,-352) translate(370,352) rotate(0,0,0)"><text fill="" stroke="none" font-family="helvetica" font-size="12pt" font-style="normal" font-weight="normal" text-decoration="normal" x="0" y="0" text-anchor="middle" dominant-baseline="hanging">1500</text><g transform="rotate(0,0,0) translate(-370,-352) translate(459,352) rotate(0,0,0)"><text fill="" stroke="none" font-family="helvetica" font-size="12pt" font-style="normal" font-weight="normal" text-decoration="normal" x="0" y="0" text-anchor="middle" dominant-baseline="hanging">2000</text><g transform="rotate(0,0,0) translate(-459,-352) translate(548,352) rotate(0,0,0)"><text fill="" stroke="none" font-family="helvetica" font-size="12pt" font-style="normal" font-weight="normal" text-decoration="normal" x="0" y="0" text-anchor="middle" dominant-baseline="hanging">2500</text><g transform="rotate(0,0,0) translate(-548,-352) translate(330,376) rotate(0,0,0)"><text fill="" stroke="none" font-family="helvetica" font-size="15pt" font-style="italic" font-weight="normal" text-decoration="normal" x="0" y="0" text-anchor="middle" dominant-baseline="hanging">Araival Traffic</text><g transform="rotate(0,0,0) translate(-330,-376)"/></g></g></g></g></g></g></g></g><g fill="#444444"><path fill="none" stroke="black" paint-order="fill stroke markers" d=" M 89 341 L 89 5" stroke-linejoin="bevel" stroke-miterlimit="10"/><path fill="none" stroke="black" paint-order="fill stroke markers" d=" M 83 326 L 91 326" stroke-linejoin="bevel" stroke-miterlimit="10"/><path fill="none" stroke="black" paint-order="fill stroke markers" d=" M 83 273 L 91 273" stroke-linejoin="bevel" stroke-miterlimit="10"/><path fill="none" stroke="black" paint-order="fill stroke markers" d=" M 83 220 L 91 220" stroke-linejoin="bevel" stroke-miterlimit="10"/><path fill="none" stroke="black" paint-order="fill stroke markers" d=" M 83 167 L 91 167" stroke-linejoin="bevel" stroke-miterlimit="10"/><path fill="none" stroke="black" paint-order="fill stroke markers" d=" M 83 114 L 91 114" stroke-linejoin="bevel" stroke-miterlimit="10"/><path fill="none" stroke="black" paint-order="fill stroke markers" d=" M 83 61 L 91 61" stroke-linejoin="bevel" stroke-miterlimit="10"/><path fill="none" stroke="black" paint-order="fill stroke markers" d=" M 83 8 L 91 8" stroke-linejoin="bevel" stroke-miterlimit="10"/><path fill="none" stroke="black" paint-order="fill stroke markers" d=" M 85 336 L 89 336" stroke-linejoin="bevel" stroke-miterlimit="10"/><path fill="none" stroke="black" paint-order="fill stroke markers" d=" M 85 326 L 89 326" stroke-linejoin="bevel" stroke-miterlimit="10"/><path fill="none" stroke="black" paint-order="fill stroke markers" d=" M 85 315 L 89 315" stroke-linejoin="bevel" stroke-miterlimit="10"/><path fill="none" stroke="black" paint-order="fill stroke markers" d=" M 85 305 L 89 305" stroke-linejoin="bevel" stroke-miterlimit="10"/><path fill="none" stroke="black" paint-order="fill stroke markers" d=" M 85 294 L 89 294" stroke-linejoin="bevel" stroke-miterlimit="10"/><path fill="none" stroke="black" paint-order="fill stroke markers" d=" M 85 283 L 89 283" stroke-linejoin="bevel" stroke-miterlimit="10"/><path fill="none" stroke="black" paint-order="fill stroke markers" d=" M 85 273 L 89 273" stroke-linejoin="bevel" stroke-miterlimit="10"/><path fill="none" stroke="black" paint-order="fill stroke markers" d=" M 85 262 L 89 262" stroke-linejoin="bevel" stroke-miterlimit="10"/><path fill="none" stroke="black" paint-order="fill stroke markers" d=" M 85 251 L 89 251" stroke-linejoin="bevel" stroke-miterlimit="10"/><path fill="none" stroke="black" paint-order="fill stroke markers" d=" M 85 241 L 89 241" stroke-linejoin="bevel" stroke-miterlimit="10"/><path fill="none" stroke="black" paint-order="fill stroke markers" d=" M 85 230 L 89 230" stroke-linejoin="bevel" stroke-miterlimit="10"/><path fill="none" stroke="black" paint-order="fill stroke markers" d=" M 85 220 L 89 220" stroke-linejoin="bevel" stroke-miterlimit="10"/><path fill="none" stroke="black" paint-order="fill stroke markers" d=" M 85 209 L 89 209" stroke-linejoin="bevel" stroke-miterlimit="10"/><path fill="none" stroke="black" paint-order="fill stroke markers" d=" M 85 198 L 89 198" stroke-linejoin="bevel" stroke-miterlimit="10"/><path fill="none" stroke="black" paint-order="fill stroke markers" d=" M 85 188 L 89 188" stroke-linejoin="bevel" stroke-miterlimit="10"/><path fill="none" stroke="black" paint-order="fill stroke markers" d=" M 85 177 L 89 177" stroke-linejoin="bevel" stroke-miterlimit="10"/><path fill="none" stroke="black" paint-order="fill stroke markers" d=" M 85 167 L 89 167" stroke-linejoin="bevel" stroke-miterlimit="10"/><path fill="none" stroke="black" paint-order="fill stroke markers" d=" M 85 156 L 89 156" stroke-linejoin="bevel" stroke-miterlimit="10"/><path fill="none" stroke="black" paint-order="fill stroke markers" d=" M 85 145 L 89 145" stroke-linejoin="bevel" stroke-miterlimit="10"/><path fill="none" stroke="black" paint-order="fill stroke markers" d=" M 85 135 L 89 135" stroke-linejoin="bevel" stroke-miterlimit="10"/><path fill="none" stroke="black" paint-order="fill stroke markers" d=" M 85 124 L 89 124" stroke-linejoin="bevel" stroke-miterlimit="10"/><path fill="none" stroke="black" paint-order="fill stroke markers" d=" M 85 114 L 89 114" stroke-linejoin="bevel" stroke-miterlimit="10"/><path fill="none" stroke="black" paint-order="fill stroke markers" d=" M 85 103 L 89 103" stroke-linejoin="bevel" stroke-miterlimit="10"/><path fill="none" stroke="black" paint-order="fill stroke markers" d=" M 85 92 L 89 92" stroke-linejoin="bevel" stroke-miterlimit="10"/><path fill="none" stroke="black" paint-order="fill stroke markers" d=" M 85 82 L 89 82" stroke-linejoin="bevel" stroke-miterlimit="10"/><path fill="none" stroke="black" paint-order="fill stroke markers" d=" M 85 71 L 89 71" stroke-linejoin="bevel" stroke-miterlimit="10"/><path fill="none" stroke="black" paint-order="fill stroke markers" d=" M 85 61 L 89 61" stroke-linejoin="bevel" stroke-miterlimit="10"/><path fill="none" stroke="black" paint-order="fill stroke markers" d=" M 85 50 L 89 50" stroke-linejoin="bevel" stroke-miterlimit="10"/><path fill="none" stroke="black" paint-order="fill stroke markers" d=" M 85 39 L 89 39" stroke-linejoin="bevel" stroke-miterlimit="10"/><path fill="none" stroke="black" paint-order="fill stroke markers" d=" M 85 29 L 89 29" stroke-linejoin="bevel" stroke-miterlimit="10"/><path fill="none" stroke="black" paint-order="fill stroke markers" d=" M 85 18 L 89 18" stroke-linejoin="bevel" stroke-miterlimit="10"/><path fill="" stroke="black" paint-order="fill stroke markers" d=" M 85 8 L 89 8" stroke-linejoin="bevel" stroke-miterlimit="10"/><g transform="translate(78,326) rotate(0,0,0)"><text fill="" stroke="none" font-family="helvetica" font-size="12pt" font-style="normal" font-weight="normal" text-decoration="normal" x="0" y="0" text-anchor="end" dominant-baseline="central">0</text><g transform="rotate(0,0,0) translate(-78,-326) translate(78,273) rotate(0,0,0)"><text fill="" stroke="none" font-family="helvetica" font-size="12pt" font-style="normal" font-weight="normal" text-decoration="normal" x="0" y="0" text-anchor="end" dominant-baseline="central">2000</text><g transform="rotate(0,0,0) translate(-78,-273) translate(78,220) rotate(0,0,0)"><text fill="" stroke="none" font-family="helvetica" font-size="12pt" font-style="normal" font-weight="normal" text-decoration="normal" x="0" y="0" text-anchor="end" dominant-baseline="central">4000</text><g transform="rotate(0,0,0) translate(-78,-220) translate(78,167) rotate(0,0,0)"><text fill="" stroke="none" font-family="helvetica" font-size="12pt" font-style="normal" font-weight="normal" text-decoration="normal" x="0" y="0" text-anchor="end" dominant-baseline="central">6000</text><g transform="rotate(0,0,0) translate(-78,-167) translate(78,114) rotate(0,0,0)"><text fill="" stroke="none" font-family="helvetica" font-size="12pt" font-style="normal" font-weight="normal" text-decoration="normal" x="0" y="0" text-anchor="end" dominant-baseline="central">8000</text><g transform="rotate(0,0,0) translate(-78,-114) translate(78,61) rotate(0,0,0)"><text fill="" stroke="none" font-family="helvetica" font-size="12pt" font-style="normal" font-weight="normal" text-decoration="normal" x="0" y="0" text-anchor="end" dominant-baseline="central">10000</text><g transform="rotate(0,0,0) translate(-78,-61) translate(78,8) rotate(0,0,0)"><text fill="" stroke="none" font-family="helvetica" font-size="12pt" font-style="normal" font-weight="normal" text-decoration="normal" x="0" y="0" text-anchor="end" dominant-baseline="central">12000</text><g transform="rotate(0,0,0) translate(-78,-8) translate(24,173) rotate(-90,0,0)"><text fill="" stroke="none" font-family="helvetica" font-size="15pt" font-style="italic" font-weight="normal" text-decoration="normal" x="0" y="0" text-anchor="middle" dominant-baseline="alphabetic">Cost</text><g transform="rotate(90,0,0) translate(-24,-173)"/></g></g></g></g></g></g></g></g></g></g></g></g></svg>