<svg version="1.1" xmlns="http://www.w3.org/2000/svg" xmlns:xlink="http://www.w3.org/1999/xlink" width="600" height="400" style="width: 600px; height: 400px;"><defs><clipPath id="yNaFRNPrOPzQ"><path fill="none" stroke="none" d=" M 69 5 L 570 5 L 570 341 L 69 341 L 69 5 Z"/></clipPath><clipPath id="wGBLXMKRkgyw"><path fill="none" stroke="none" d=" M 69 5 L 570 5 L 570 341 L 69 341 L 69 5 Z"/></clipPath></defs><g><g transform="scale(1,1) translate(0.5,0.5)"><rect fill="#FFFFFF" stroke="none" x="0" y="0" width="600" height="400"/><rect fill="#ffffff" stroke="none" x="0" y="0" width="600" height="400"/><rect fill="#FFFFFF" stroke="none" x="69" y="5" width="501" height="336"/><rect fill="#ffffff" stroke="none" x="69" y="5" width="501" height="336"/><g><rect fill="none" stroke="#e5e5e5" x="69" y="5" width="501" height="336" stroke-linejoin="bevel" stroke-miterlimit="10"/></g><g clip-path="url(#yNaFRNPrOPzQ)"><g><g><path fill="none" stroke="#e5e5e5" paint-order="fill stroke markers" d=" M 82 341 L 82 5" stroke-linejoin="bevel" stroke-miterlimit="10"/><path fill="none" stroke="#e5e5e5" paint-order="fill stroke markers" d=" M 175 341 L 175 5" stroke-linejoin="bevel" stroke-miterlimit="10"/><path fill="none" stroke="#e5e5e5" paint-order="fill stroke markers" d=" M 268 341 L 268 5" stroke-linejoin="bevel" stroke-miterlimit="10"/><path fill="none" stroke="#e5e5e5" paint-order="fill stroke markers" d=" M 361 341 L 361 5" stroke-linejoin="bevel" stroke-miterlimit="10"/><path fill="none" stroke="#e5e5e5" paint-order="fill stroke markers" d=" M 454 341 L 454 5" stroke-linejoin="bevel" stroke-miterlimit="10"/><path fill="none" stroke="#e5e5e5" paint-order="fill stroke markers" d=" M 547 341 L 547 5" stroke-linejoin="bevel" stroke-miterlimit="10"/></g><g><path fill="none" stroke="#e5e5e5" paint-order="fill stroke markers" d=" M 69 274 L 570 274" stroke-linejoin="bevel" stroke-miterlimit="10"/><path fill="none" stroke="#e5e5e5" paint-order="fill stroke markers" d=" M 69 207 L 570 207" stroke-linejoin="bevel" stroke-miterlimit="10"/><path fill="none" stroke="#e5e5e5" paint-order="fill stroke markers" d=" M 69 139 L 570 139" stroke-linejoin="bevel" stroke-miterlimit="10"/><path fill="none" stroke="#e5e5e5" paint-order="fill stroke markers" d=" M 69 72 L 570 72" stroke-linejoin="bevel" stroke-miterlimit="10"/></g><g><path fill="none" stroke="none"/><path fill="none" stroke="#1f77b4" paint-order="fill stroke markers" d=" M 91.77272727272727 340.6304 L 101.06771799628942 339.9024 L 110.36270871985157 338.7852 L 119.65769944341372 337.3096 L 128.95269016697588 335.54 L 138.24768089053802 333.9664 L 147.5426716141002 332.3704 L 156.83766233766232 330.5812 L 166.1326530612245 329.1364 L 175.42764378478665 326.8964 L 184.7226345083488 325.0456 L 194.01762523191093 321.3552 L 203.3126159554731 320.3584 L 212.60760667903526 319.538 L 221.9025974025974 318.7456 L 231.19758812615956 315.0972 L 240.4925788497217 314.3384 L 249.78756957328386 313.9968 L 259.082560296846 313.1456 L 268.3775510204082 312.18240000000003 L 277.6725417439703 311.4432 L 286.96753246753246 310.4856 L 296.2625231910946 309.0156 L 305.55751391465674 307.7416 L 314.8525046382189 306.8596 L 324.14749536178107 305.4848 L 333.44248608534326 304.3144 L 342.7374768089054 302.892 L 352.03246753246754 300.8956 L 361.3274582560297 298.1852 L 370.6224489795918 295.92 L 379.917439703154 292.0588 L 389.21243042671614 286.34680000000003 L 398.5074211502783 279.9096 L 407.8024118738404 273.1392 L 417.0974025974026 266.4276 L 426.39239332096474 259.3296 L 435.6873840445269 251.57080000000002 L 444.9823747680891 244.6268 L 454.2773654916512 237.1928 L 463.57235621521335 229.7868 L 472.8673469387755 222.9212 L 482.1623376623377 216.12 L 491.4573283858998 209.5176 L 500.75231910946195 201.686 L 510.0473098330241 192.2556 L 519.3423005565862 181.12840000000003 L 528.6372912801485 168.786 L 537.9322820037105 156.774 L 547.2272727272727 143.74280000000002" stroke-linejoin="bevel" stroke-miterlimit="10" stroke-width="3"/></g><g><path fill="none" stroke="none"/><path fill="none" stroke="dodgerblue" paint-order="fill stroke markers" d=" M 91.77272727272727 341 L 101.06771799628942 341 L 110.36270871985157 341 L 119.65769944341372 341 L 128.95269016697588 341 L 138.24768089053802 341 L 147.5426716141002 341 L 156.83766233766232 341 L 166.1326530612245 341 L 175.42764378478665 339.88 L 184.7226345083488 334.28 L 194.01762523191093 334.84 L 203.3126159554731 335.96 L 212.60760667903526 328.68 L 221.9025974025974 321.4 L 231.19758812615956 330.36 L 240.4925788497217 325.32 L 249.78756957328386 321.4 L 259.082560296846 315.8 L 268.3775510204082 317.48 L 277.6725417439703 316.92 L 286.96753246753246 316.36 L 296.2625231910946 314.68 L 305.55751391465674 314.68 L 314.8525046382189 314.68 L 324.14749536178107 313.56 L 333.44248608534326 313.56 L 342.7374768089054 313.56 L 352.03246753246754 313.56 L 361.3274582560297 313 L 370.6224489795918 313 L 379.917439703154 313 L 389.21243042671614 313 L 398.5074211502783 313 L 407.8024118738404 313 L 417.0974025974026 313 L 426.39239332096474 313 L 435.6873840445269 313 L 444.9823747680891 313 L 454.2773654916512 313 L 463.57235621521335 313 L 472.8673469387755 313 L 482.1623376623377 313 L 491.4573283858998 313 L 500.75231910946195 313 L 510.0473098330241 313 L 519.3423005565862 313 L 528.6372912801485 313 L 537.9322820037105 313 L 547.2272727272727 313" stroke-linejoin="bevel" stroke-miterlimit="10" stroke-width="2"/></g><g><path fill="none" stroke="none"/><path fill="none" stroke="deepskyblue" paint-order="fill stroke markers" d=" M 91.77272727272727 340.6304 L 101.06771799628942 339.9024 L 110.36270871985157 338.7852 L 119.65769944341372 337.3096 L 128.95269016697588 335.54 L 138.24768089053802 333.9664 L 147.5426716141002 332.3704 L 156.83766233766232 330.5812 L 166.1326530612245 329.1364 L 175.42764378478665 328.0164 L 184.7226345083488 331.7656 L 194.01762523191093 327.5152 L 203.3126159554731 325.3984 L 212.60760667903526 331.858 L 221.9025974025974 338.3456 L 231.19758812615956 325.7372 L 240.4925788497217 330.0184 L 249.78756957328386 333.5968 L 259.082560296846 338.3456 L 268.3775510204082 335.7024 L 277.6725417439703 335.5232 L 286.96753246753246 335.1256 L 296.2625231910946 335.3356 L 305.55751391465674 334.0616 L 314.8525046382189 333.1796 L 324.14749536178107 332.9248 L 333.44248608534326 331.7544 L 342.7374768089054 330.332 L 352.03246753246754 328.3356 L 361.3274582560297 326.1852 L 370.6224489795918 323.92 L 379.917439703154 320.0588 L 389.21243042671614 314.34680000000003 L 398.5074211502783 307.9096 L 407.8024118738404 301.1392 L 417.0974025974026 294.4276 L 426.39239332096474 287.3296 L 435.6873840445269 279.57079999999996 L 444.9823747680891 272.6268 L 454.2773654916512 265.19280000000003 L 463.57235621521335 257.78679999999997 L 472.8673469387755 250.9212 L 482.1623376623377 244.12 L 491.4573283858998 237.51760000000002 L 500.75231910946195 229.68599999999998 L 510.0473098330241 220.25560000000002 L 519.3423005565862 209.12840000000003 L 528.6372912801485 196.786 L 537.9322820037105 184.77400000000003 L 547.2272727272727 171.74280000000002" stroke-linejoin="bevel" stroke-miterlimit="10" stroke-width="2" stroke-dasharray="6,4,2,4"/></g><g><path fill="none" stroke="none"/><path fill="none" stroke="red" paint-order="fill stroke markers" d=" M 91.77272727272727 335.008 L 101.06771799628942 334.2968 L 110.36270871985157 332.8184 L 119.65769944341372 325.9556 L 128.95269016697588 324.2196 L 138.24768089053802 324.1776 L 147.5426716141002 324.1776 L 156.83766233766232 318.19960000000003 L 166.1326530612245 318.19960000000003 L 175.42764378478665 318.19960000000003 L 184.7226345083488 318.19960000000003 L 194.01762523191093 312.5996 L 203.3126159554731 312.5996 L 212.60760667903526 312.5996 L 221.9025974025974 312.5996 L 231.19758812615956 306.9996 L 240.4925788497217 306.9996 L 249.78756957328386 306.9996 L 259.082560296846 306.9996 L 268.3775510204082 306.9996 L 277.6725417439703 306.9996 L 286.96753246753246 306.9996 L 296.2625231910946 306.9996 L 305.55751391465674 306.9576 L 314.8525046382189 306.294 L 324.14749536178107 304.4656 L 333.44248608534326 302.6456 L 342.7374768089054 295.4664 L 352.03246753246754 291.3644 L 361.3274582560297 287.0608 L 370.6224489795918 281.9032 L 379.917439703154 276.7316 L 389.21243042671614 246.9704 L 398.5074211502783 240.0432 L 407.8024118738404 233.2168 L 417.0974025974026 226.088 L 426.39239332096474 219.76 L 435.6873840445269 213.3816 L 444.9823747680891 206.88840000000002 L 454.2773654916512 200.692 L 463.57235621521335 160.44480000000001 L 472.8673469387755 152.1624 L 482.1623376623377 143.45159999999998 L 491.4573283858998 134.5868 L 500.75231910946195 126.42200000000003 L 510.0473098330241 119.142 L 519.3423005565862 44.71519999999998 L 528.6372912801485 33.523600000000044 L 537.9322820037105 24.73720000000003 L 547.2272727272727 18.47920000000005" stroke-linejoin="bevel" stroke-miterlimit="10" stroke-width="2"/></g><g><path fill="none" stroke="none"/><path fill="none" stroke="tomato" paint-order="fill stroke markers" d=" M 91.77272727272727 335.4 L 101.06771799628942 335.4 L 110.36270871985157 335.4 L 119.65769944341372 329.8 L 128.95269016697588 329.8 L 138.24768089053802 329.8 L 147.5426716141002 329.8 L 156.83766233766232 324.2 L 166.1326530612245 324.2 L 175.42764378478665 324.2 L 184.7226345083488 324.2 L 194.01762523191093 318.6 L 203.3126159554731 318.6 L 212.60760667903526 318.6 L 221.9025974025974 318.6 L 231.19758812615956 313 L 240.4925788497217 313 L 249.78756957328386 313 L 259.082560296846 313 L 268.3775510204082 313 L 277.6725417439703 313 L 286.96753246753246 313 L 296.2625231910946 313 L 305.55751391465674 313 L 314.8525046382189 313 L 324.14749536178107 313 L 333.44248608534326 313 L 342.7374768089054 313 L 352.03246753246754 313 L 361.3274582560297 313 L 370.6224489795918 313 L 379.917439703154 313 L 389.21243042671614 313 L 398.5074211502783 313 L 407.8024118738404 313 L 417.0974025974026 313 L 426.39239332096474 313 L 435.6873840445269 313 L 444.9823747680891 313 L 454.2773654916512 313 L 463.57235621521335 313 L 472.8673469387755 313 L 482.1623376623377 313 L 491.4573283858998 313 L 500.75231910946195 313 L 510.0473098330241 313 L 519.3423005565862 313 L 528.6372912801485 313 L 537.9322820037105 313 L 547.2272727272727 313" stroke-linejoin="bevel" stroke-miterlimit="10"/></g><g><path fill="none" stroke="none"/><path fill="none" stroke="orange" paint-order="fill stroke markers" d=" M 91.77272727272727 340.608 L 101.06771799628942 339.8968 L 110.36270871985157 338.4184 L 119.65769944341372 337.1556 L 128.95269016697588 335.4196 L 138.24768089053802 335.3776 L 147.5426716141002 335.3776 L 156.83766233766232 334.9996 L 166.1326530612245 334.9996 L 175.42764378478665 334.9996 L 184.7226345083488 334.9996 L 194.01762523191093 334.9996 L 203.3126159554731 334.9996 L 212.60760667903526 334.9996 L 221.9025974025974 334.9996 L 231.19758812615956 334.9996 L 240.4925788497217 334.9996 L 249.78756957328386 334.9996 L 259.082560296846 334.9996 L 268.3775510204082 334.9996 L 277.6725417439703 334.9996 L 286.96753246753246 334.9996 L 296.2625231910946 334.9996 L 305.55751391465674 334.9576 L 314.8525046382189 334.294 L 324.14749536178107 332.4656 L 333.44248608534326 330.6456 L 342.7374768089054 323.4664 L 352.03246753246754 319.3644 L 361.3274582560297 315.0608 L 370.6224489795918 309.9032 L 379.917439703154 304.7316 L 389.21243042671614 274.97040000000004 L 398.5074211502783 268.0432 L 407.8024118738404 261.21680000000003 L 417.0974025974026 254.08800000000002 L 426.39239332096474 247.76 L 435.6873840445269 241.3816 L 444.9823747680891 234.88840000000002 L 454.2773654916512 228.692 L 463.57235621521335 188.44480000000001 L 472.8673469387755 180.16240000000002 L 482.1623376623377 171.4516 L 491.4573283858998 162.5868 L 500.75231910946195 154.422 L 510.0473098330241 147.142 L 519.3423005565862 72.71520000000004 L 528.6372912801485 61.523600000000044 L 537.9322820037105 52.73719999999997 L 547.2272727272727 46.47919999999999" stroke-linejoin="bevel" stroke-miterlimit="10"/></g><g><path fill="none" stroke="none"/><path fill="red" stroke="red" paint-order="fill stroke markers" d=" M 94.77272727272727 335.008 A 3 3 0 1 1 94.7727257727274 335.0050000005" stroke-linejoin="bevel" stroke-miterlimit="10"/><path fill="red" stroke="red" paint-order="fill stroke markers" d=" M 104.06771799628942 334.2968 A 3 3 0 1 1 104.06771649628955 334.2938000005" stroke-linejoin="bevel" stroke-miterlimit="10"/><path fill="red" stroke="red" paint-order="fill stroke markers" d=" M 113.36270871985157 332.8184 A 3 3 0 1 1 113.3627072198517 332.8154000005" stroke-linejoin="bevel" stroke-miterlimit="10"/><path fill="red" stroke="red" paint-order="fill stroke markers" d=" M 122.65769944341372 325.9556 A 3 3 0 1 1 122.65769794341385 325.9526000005" stroke-linejoin="bevel" stroke-miterlimit="10"/><path fill="red" stroke="red" paint-order="fill stroke markers" d=" M 131.95269016697588 324.2196 A 3 3 0 1 1 131.952688666976 324.2166000005" stroke-linejoin="bevel" stroke-miterlimit="10"/><path fill="red" stroke="red" paint-order="fill stroke markers" d=" M 141.24768089053802 324.1776 A 3 3 0 1 1 141.24767939053814 324.1746000005" stroke-linejoin="bevel" stroke-miterlimit="10"/><path fill="red" stroke="red" paint-order="fill stroke markers" d=" M 150.5426716141002 324.1776 A 3 3 0 1 1 150.5426701141003 324.1746000005" stroke-linejoin="bevel" stroke-miterlimit="10"/><path fill="red" stroke="red" paint-order="fill stroke markers" d=" M 159.83766233766232 318.19960000000003 A 3 3 0 1 1 159.83766083766244 318.19660000050004" stroke-linejoin="bevel" stroke-miterlimit="10"/><path fill="red" stroke="red" paint-order="fill stroke markers" d=" M 169.1326530612245 318.19960000000003 A 3 3 0 1 1 169.1326515612246 318.19660000050004" stroke-linejoin="bevel" stroke-miterlimit="10"/><path fill="red" stroke="red" paint-order="fill stroke markers" d=" M 178.42764378478665 318.19960000000003 A 3 3 0 1 1 178.42764228478677 318.19660000050004" stroke-linejoin="bevel" stroke-miterlimit="10"/><path fill="red" stroke="red" paint-order="fill stroke markers" d=" M 187.7226345083488 318.19960000000003 A 3 3 0 1 1 187.7226330083489 318.19660000050004" stroke-linejoin="bevel" stroke-miterlimit="10"/><path fill="red" stroke="red" paint-order="fill stroke markers" d=" M 197.01762523191093 312.5996 A 3 3 0 1 1 197.01762373191104 312.5966000005" stroke-linejoin="bevel" stroke-miterlimit="10"/><path fill="red" stroke="red" paint-order="fill stroke markers" d=" M 206.3126159554731 312.5996 A 3 3 0 1 1 206.3126144554732 312.5966000005" stroke-linejoin="bevel" stroke-miterlimit="10"/><path fill="red" stroke="red" paint-order="fill stroke markers" d=" M 215.60760667903526 312.5996 A 3 3 0 1 1 215.60760517903537 312.5966000005" stroke-linejoin="bevel" stroke-miterlimit="10"/><path fill="red" stroke="red" paint-order="fill stroke markers" d=" M 224.9025974025974 312.5996 A 3 3 0 1 1 224.9025959025975 312.5966000005" stroke-linejoin="bevel" stroke-miterlimit="10"/><path fill="red" stroke="red" paint-order="fill stroke markers" d=" M 234.19758812615956 306.9996 A 3 3 0 1 1 234.19758662615968 306.9966000005" stroke-linejoin="bevel" stroke-miterlimit="10"/><path fill="red" stroke="red" paint-order="fill stroke markers" d=" M 243.4925788497217 306.9996 A 3 3 0 1 1 243.4925773497218 306.9966000005" stroke-linejoin="bevel" stroke-miterlimit="10"/><path fill="red" stroke="red" paint-order="fill stroke markers" d=" M 252.78756957328386 306.9996 A 3 3 0 1 1 252.78756807328398 306.9966000005" stroke-linejoin="bevel" stroke-miterlimit="10"/><path fill="red" stroke="red" paint-order="fill stroke markers" d=" M 262.082560296846 306.9996 A 3 3 0 1 1 262.0825587968461 306.9966000005" stroke-linejoin="bevel" stroke-miterlimit="10"/><path fill="red" stroke="red" paint-order="fill stroke markers" d=" M 271.3775510204082 306.9996 A 3 3 0 1 1 271.3775495204083 306.9966000005" stroke-linejoin="bevel" stroke-miterlimit="10"/><path fill="red" stroke="red" paint-order="fill stroke markers" d=" M 280.6725417439703 306.9996 A 3 3 0 1 1 280.67254024397045 306.9966000005" stroke-linejoin="bevel" stroke-miterlimit="10"/><path fill="red" stroke="red" paint-order="fill stroke markers" d=" M 289.96753246753246 306.9996 A 3 3 0 1 1 289.9675309675326 306.9966000005" stroke-linejoin="bevel" stroke-miterlimit="10"/><path fill="red" stroke="red" paint-order="fill stroke markers" d=" M 299.2625231910946 306.9996 A 3 3 0 1 1 299.2625216910947 306.9966000005" stroke-linejoin="bevel" stroke-miterlimit="10"/><path fill="red" stroke="red" paint-order="fill stroke markers" d=" M 308.55751391465674 306.9576 A 3 3 0 1 1 308.55751241465686 306.9546000005" stroke-linejoin="bevel" stroke-miterlimit="10"/><path fill="red" stroke="red" paint-order="fill stroke markers" d=" M 317.8525046382189 306.294 A 3 3 0 1 1 317.852503138219 306.2910000005" stroke-linejoin="bevel" stroke-miterlimit="10"/><path fill="red" stroke="red" paint-order="fill stroke markers" d=" M 327.14749536178107 304.4656 A 3 3 0 1 1 327.1474938617812 304.4626000005" stroke-linejoin="bevel" stroke-miterlimit="10"/><path fill="red" stroke="red" paint-order="fill stroke markers" d=" M 336.44248608534326 302.6456 A 3 3 0 1 1 336.4424845853434 302.6426000005" stroke-linejoin="bevel" stroke-miterlimit="10"/><path fill="red" stroke="red" paint-order="fill stroke markers" d=" M 345.7374768089054 295.4664 A 3 3 0 1 1 345.7374753089055 295.46340000050003" stroke-linejoin="bevel" stroke-miterlimit="10"/><path fill="red" stroke="red" paint-order="fill stroke markers" d=" M 355.03246753246754 291.3644 A 3 3 0 1 1 355.03246603246765 291.3614000005" stroke-linejoin="bevel" stroke-miterlimit="10"/><path fill="red" stroke="red" paint-order="fill stroke markers" d=" M 364.3274582560297 287.0608 A 3 3 0 1 1 364.3274567560298 287.0578000005" stroke-linejoin="bevel" stroke-miterlimit="10"/><path fill="red" stroke="red" paint-order="fill stroke markers" d=" M 373.6224489795918 281.9032 A 3 3 0 1 1 373.6224474795919 281.90020000050004" stroke-linejoin="bevel" stroke-miterlimit="10"/><path fill="red" stroke="red" paint-order="fill stroke markers" d=" M 382.917439703154 276.7316 A 3 3 0 1 1 382.9174382031541 276.7286000005" stroke-linejoin="bevel" stroke-miterlimit="10"/><path fill="red" stroke="red" paint-order="fill stroke markers" d=" M 392.21243042671614 246.9704 A 3 3 0 1 1 392.21242892671626 246.96740000050002" stroke-linejoin="bevel" stroke-miterlimit="10"/><path fill="red" stroke="red" paint-order="fill stroke markers" d=" M 401.5074211502783 240.0432 A 3 3 0 1 1 401.5074196502784 240.04020000050002" stroke-linejoin="bevel" stroke-miterlimit="10"/><path fill="red" stroke="red" paint-order="fill stroke markers" d=" M 410.8024118738404 233.2168 A 3 3 0 1 1 410.80241037384053 233.21380000050002" stroke-linejoin="bevel" stroke-miterlimit="10"/><path fill="red" stroke="red" paint-order="fill stroke markers" d=" M 420.0974025974026 226.088 A 3 3 0 1 1 420.0974010974027 226.0850000005" stroke-linejoin="bevel" stroke-miterlimit="10"/><path fill="red" stroke="red" paint-order="fill stroke markers" d=" M 429.39239332096474 219.76 A 3 3 0 1 1 429.39239182096486 219.7570000005" stroke-linejoin="bevel" stroke-miterlimit="10"/><path fill="red" stroke="red" paint-order="fill stroke markers" d=" M 438.6873840445269 213.3816 A 3 3 0 1 1 438.687382544527 213.3786000005" stroke-linejoin="bevel" stroke-miterlimit="10"/><path fill="red" stroke="red" paint-order="fill stroke markers" d=" M 447.9823747680891 206.88840000000002 A 3 3 0 1 1 447.9823732680892 206.88540000050003" stroke-linejoin="bevel" stroke-miterlimit="10"/><path fill="red" stroke="red" paint-order="fill stroke markers" d=" M 457.2773654916512 200.692 A 3 3 0 1 1 457.2773639916513 200.68900000050002" stroke-linejoin="bevel" stroke-miterlimit="10"/><path fill="red" stroke="red" paint-order="fill stroke markers" d=" M 466.57235621521335 160.44480000000001 A 3 3 0 1 1 466.57235471521346 160.44180000050002" stroke-linejoin="bevel" stroke-miterlimit="10"/><path fill="red" stroke="red" paint-order="fill stroke markers" d=" M 475.8673469387755 152.1624 A 3 3 0 1 1 475.8673454387756 152.1594000005" stroke-linejoin="bevel" stroke-miterlimit="10"/><path fill="red" stroke="red" paint-order="fill stroke markers" d=" M 485.1623376623377 143.45159999999998 A 3 3 0 1 1 485.1623361623378 143.4486000005" stroke-linejoin="bevel" stroke-miterlimit="10"/><path fill="red" stroke="red" paint-order="fill stroke markers" d=" M 494.4573283858998 134.5868 A 3 3 0 1 1 494.45732688589993 134.58380000050002" stroke-linejoin="bevel" stroke-miterlimit="10"/><path fill="red" stroke="red" paint-order="fill stroke markers" d=" M 503.75231910946195 126.42200000000003 A 3 3 0 1 1 503.75231760946207 126.41900000050002" stroke-linejoin="bevel" stroke-miterlimit="10"/><path fill="red" stroke="red" paint-order="fill stroke markers" d=" M 513.0473098330241 119.142 A 3 3 0 1 1 513.0473083330243 119.13900000049999" stroke-linejoin="bevel" stroke-miterlimit="10"/><path fill="red" stroke="red" paint-order="fill stroke markers" d=" M 522.3423005565862 44.71519999999998 A 3 3 0 1 1 522.3422990565864 44.71220000049998" stroke-linejoin="bevel" stroke-miterlimit="10"/><path fill="red" stroke="red" paint-order="fill stroke markers" d=" M 531.6372912801485 33.523600000000044 A 3 3 0 1 1 531.6372897801486 33.520600000500046" stroke-linejoin="bevel" stroke-miterlimit="10"/><path fill="red" stroke="red" paint-order="fill stroke markers" d=" M 540.9322820037105 24.73720000000003 A 3 3 0 1 1 540.9322805037107 24.734200000500028" stroke-linejoin="bevel" stroke-miterlimit="10"/><path fill="red" stroke="red" paint-order="fill stroke markers" d=" M 550.2272727272727 18.47920000000005 A 3 3 0 1 1 550.2272712272729 18.476200000500047" stroke-linejoin="bevel" stroke-miterlimit="10"/></g><g stroke="tomato" stroke-linejoin="bevel" stroke-miterlimit="10"><path fill="none" stroke="none"/><path fill="none" stroke="" d=""/><g transform="translate(91.77272727272727,335.4)"><path fill="none" stroke="" paint-order="fill stroke markers" d=" M -2.5 2.5 L 2.5 -2.5 M -2.5 -2.5 L 2.5 2.5"/><g transform="translate(-91.77272727272727,-335.4)"><path fill="none" stroke="" d=""/><g transform="translate(101.06771799628942,335.4)"><path fill="none" stroke="" paint-order="fill stroke markers" d=" M -2.5 2.5 L 2.5 -2.5 M -2.5 -2.5 L 2.5 2.5"/><g transform="translate(-101.06771799628942,-335.4)"><path fill="none" stroke="" d=""/><g transform="translate(110.36270871985157,335.4)"><path fill="none" stroke="" paint-order="fill stroke markers" d=" M -2.5 2.5 L 2.5 -2.5 M -2.5 -2.5 L 2.5 2.5"/><g transform="translate(-110.36270871985157,-335.4)"><path fill="none" stroke="" d=""/><g transform="translate(119.65769944341372,329.8)"><path fill="none" stroke="" paint-order="fill stroke markers" d=" M -2.5 2.5 L 2.5 -2.5 M -2.5 -2.5 L 2.5 2.5"/><g transform="translate(-119.65769944341372,-329.8)"><path fill="none" stroke="" d=""/><g transform="translate(128.95269016697588,329.8)"><path fill="none" stroke="" paint-order="fill stroke markers" d=" M -2.5 2.5 L 2.5 -2.5 M -2.5 -2.5 L 2.5 2.5"/><g transform="translate(-128.95269016697588,-329.8)"><path fill="none" stroke="" d=""/><g transform="translate(138.24768089053802,329.8)"><path fill="none" stroke="" paint-order="fill stroke markers" d=" M -2.5 2.5 L 2.5 -2.5 M -2.5 -2.5 L 2.5 2.5"/><g transform="translate(-138.24768089053802,-329.8)"><path fill="none" stroke="" d=""/><g transform="translate(147.5426716141002,329.8)"><path fill="none" stroke="" paint-order="fill stroke markers" d=" M -2.5 2.5 L 2.5 -2.5 M -2.5 -2.5 L 2.5 2.5"/><g transform="translate(-147.5426716141002,-329.8)"><path fill="none" stroke="" d=""/><g transform="translate(156.83766233766232,324.2)"><path fill="none" stroke="" paint-order="fill stroke markers" d=" M -2.5 2.5 L 2.5 -2.5 M -2.5 -2.5 L 2.5 2.5"/><g transform="translate(-156.83766233766232,-324.2)"><path fill="none" stroke="" d=""/><g transform="translate(166.1326530612245,324.2)"><path fill="none" stroke="" paint-order="fill stroke markers" d=" M -2.5 2.5 L 2.5 -2.5 M -2.5 -2.5 L 2.5 2.5"/><g transform="translate(-166.1326530612245,-324.2)"><path fill="none" stroke="" d=""/><g transform="translate(175.42764378478665,324.2)"><path fill="none" stroke="" paint-order="fill stroke markers" d=" M -2.5 2.5 L 2.5 -2.5 M -2.5 -2.5 L 2.5 2.5"/><g transform="translate(-175.42764378478665,-324.2)"><path fill="none" stroke="" d=""/><g transform="translate(184.7226345083488,324.2)"><path fill="none" stroke="" paint-order="fill stroke markers" d=" M -2.5 2.5 L 2.5 -2.5 M -2.5 -2.5 L 2.5 2.5"/><g transform="translate(-184.7226345083488,-324.2)"><path fill="none" stroke="" d=""/><g transform="translate(194.01762523191093,318.6)"><path fill="none" stroke="" paint-order="fill stroke markers" d=" M -2.5 2.5 L 2.5 -2.5 M -2.5 -2.5 L 2.5 2.5"/><g transform="translate(-194.01762523191093,-318.6)"><path fill="none" stroke="" d=""/><g transform="translate(203.3126159554731,318.6)"><path fill="none" stroke="" paint-order="fill stroke markers" d=" M -2.5 2.5 L 2.5 -2.5 M -2.5 -2.5 L 2.5 2.5"/><g transform="translate(-203.3126159554731,-318.6)"><path fill="none" stroke="" d=""/><g transform="translate(212.60760667903526,318.6)"><path fill="none" stroke="" paint-order="fill stroke markers" d=" M -2.5 2.5 L 2.5 -2.5 M -2.5 -2.5 L 2.5 2.5"/><g transform="translate(-212.60760667903526,-318.6)"><path fill="none" stroke="" d=""/><g transform="translate(221.9025974025974,318.6)"><path fill="none" stroke="" paint-order="fill stroke markers" d=" M -2.5 2.5 L 2.5 -2.5 M -2.5 -2.5 L 2.5 2.5"/><g transform="translate(-221.9025974025974,-318.6)"><path fill="none" stroke="" d=""/><g transform="translate(231.19758812615956,313)"><path fill="none" stroke="" paint-order="fill stroke markers" d=" M -2.5 2.5 L 2.5 -2.5 M -2.5 -2.5 L 2.5 2.5"/><g transform="translate(-231.19758812615956,-313)"><path fill="none" stroke="" d=""/><g transform="translate(240.4925788497217,313)"><path fill="none" stroke="" paint-order="fill stroke markers" d=" M -2.5 2.5 L 2.5 -2.5 M -2.5 -2.5 L 2.5 2.5"/><g transform="translate(-240.4925788497217,-313)"><path fill="none" stroke="" d=""/><g transform="translate(249.78756957328386,313)"><path fill="none" stroke="" paint-order="fill stroke markers" d=" M -2.5 2.5 L 2.5 -2.5 M -2.5 -2.5 L 2.5 2.5"/><g transform="translate(-249.78756957328386,-313)"><path fill="none" stroke="" d=""/><g transform="translate(259.082560296846,313)"><path fill="none" stroke="" paint-order="fill stroke markers" d=" M -2.5 2.5 L 2.5 -2.5 M -2.5 -2.5 L 2.5 2.5"/><g transform="translate(-259.082560296846,-313)"><path fill="none" stroke="" d=""/><g transform="translate(268.3775510204082,313)"><path fill="none" stroke="" paint-order="fill stroke markers" d=" M -2.5 2.5 L 2.5 -2.5 M -2.5 -2.5 L 2.5 2.5"/><g transform="translate(-268.3775510204082,-313)"><path fill="none" stroke="" d=""/><g transform="translate(277.6725417439703,313)"><path fill="none" stroke="" paint-order="fill stroke markers" d=" M -2.5 2.5 L 2.5 -2.5 M -2.5 -2.5 L 2.5 2.5"/><g transform="translate(-277.6725417439703,-313)"><path fill="none" stroke="" d=""/><g transform="translate(286.96753246753246,313)"><path fill="none" stroke="" paint-order="fill stroke markers" d=" M -2.5 2.5 L 2.5 -2.5 M -2.5 -2.5 L 2.5 2.5"/><g transform="translate(-286.96753246753246,-313)"><path fill="none" stroke="" d=""/><g transform="translate(296.2625231910946,313)"><path fill="none" stroke="" paint-order="fill stroke markers" d=" M -2.5 2.5 L 2.5 -2.5 M -2.5 -2.5 L 2.5 2.5"/><g transform="translate(-296.2625231910946,-313)"><path fill="none" stroke="" d=""/><g transform="translate(305.55751391465674,313)"><path fill="none" stroke="" paint-order="fill stroke markers" d=" M -2.5 2.5 L 2.5 -2.5 M -2.5 -2.5 L 2.5 2.5"/><g transform="translate(-305.55751391465674,-313)"><path fill="none" stroke="" d=""/><g transform="translate(314.8525046382189,313)"><path fill="none" stroke="" paint-order="fill stroke markers" d=" M -2.5 2.5 L 2.5 -2.5 M -2.5 -2.5 L 2.5 2.5"/><g transform="translate(-314.8525046382189,-313)"><path fill="none" stroke="" d=""/><g transform="translate(324.14749536178107,313)"><path fill="none" stroke="" paint-order="fill stroke markers" d=" M -2.5 2.5 L 2.5 -2.5 M -2.5 -2.5 L 2.5 2.5"/><g transform="translate(-324.14749536178107,-313)"><path fill="none" stroke="" d=""/><g transform="translate(333.44248608534326,313)"><path fill="none" stroke="" paint-order="fill stroke markers" d=" M -2.5 2.5 L 2.5 -2.5 M -2.5 -2.5 L 2.5 2.5"/><g transform="translate(-333.44248608534326,-313)"><path fill="none" stroke="" d=""/><g transform="translate(342.7374768089054,313)"><path fill="none" stroke="" paint-order="fill stroke markers" d=" M -2.5 2.5 L 2.5 -2.5 M -2.5 -2.5 L 2.5 2.5"/><g transform="translate(-342.7374768089054,-313)"><path fill="none" stroke="" d=""/><g transform="translate(352.03246753246754,313)"><path fill="none" stroke="" paint-order="fill stroke markers" d=" M -2.5 2.5 L 2.5 -2.5 M -2.5 -2.5 L 2.5 2.5"/><g transform="translate(-352.03246753246754,-313)"><path fill="none" stroke="" d=""/><g transform="translate(361.3274582560297,313)"><path fill="none" stroke="" paint-order="fill stroke markers" d=" M -2.5 2.5 L 2.5 -2.5 M -2.5 -2.5 L 2.5 2.5"/><g transform="translate(-361.3274582560297,-313)"><path fill="none" stroke="" d=""/><g transform="translate(370.6224489795918,313)"><path fill="none" stroke="" paint-order="fill stroke markers" d=" M -2.5 2.5 L 2.5 -2.5 M -2.5 -2.5 L 2.5 2.5"/><g transform="translate(-370.6224489795918,-313)"><path fill="none" stroke="" d=""/><g transform="translate(379.917439703154,313)"><path fill="none" stroke="" paint-order="fill stroke markers" d=" M -2.5 2.5 L 2.5 -2.5 M -2.5 -2.5 L 2.5 2.5"/><g transform="translate(-379.917439703154,-313)"><path fill="none" stroke="" d=""/><g transform="translate(389.21243042671614,313)"><path fill="none" stroke="" paint-order="fill stroke markers" d=" M -2.5 2.5 L 2.5 -2.5 M -2.5 -2.5 L 2.5 2.5"/><g transform="translate(-389.21243042671614,-313)"><path fill="none" stroke="" d=""/><g transform="translate(398.5074211502783,313)"><path fill="none" stroke="" paint-order="fill stroke markers" d=" M -2.5 2.5 L 2.5 -2.5 M -2.5 -2.5 L 2.5 2.5"/><g transform="translate(-398.5074211502783,-313)"><path fill="none" stroke="" d=""/><g transform="translate(407.8024118738404,313)"><path fill="none" stroke="" paint-order="fill stroke markers" d=" M -2.5 2.5 L 2.5 -2.5 M -2.5 -2.5 L 2.5 2.5"/><g transform="translate(-407.8024118738404,-313)"><path fill="none" stroke="" d=""/><g transform="translate(417.0974025974026,313)"><path fill="none" stroke="" paint-order="fill stroke markers" d=" M -2.5 2.5 L 2.5 -2.5 M -2.5 -2.5 L 2.5 2.5"/><g transform="translate(-417.0974025974026,-313)"><path fill="none" stroke="" d=""/><g transform="translate(426.39239332096474,313)"><path fill="none" stroke="" paint-order="fill stroke markers" d=" M -2.5 2.5 L 2.5 -2.5 M -2.5 -2.5 L 2.5 2.5"/><g transform="translate(-426.39239332096474,-313)"><path fill="none" stroke="" d=""/><g transform="translate(435.6873840445269,313)"><path fill="none" stroke="" paint-order="fill stroke markers" d=" M -2.5 2.5 L 2.5 -2.5 M -2.5 -2.5 L 2.5 2.5"/><g transform="translate(-435.6873840445269,-313)"><path fill="none" stroke="" d=""/><g transform="translate(444.9823747680891,313)"><path fill="none" stroke="" paint-order="fill stroke markers" d=" M -2.5 2.5 L 2.5 -2.5 M -2.5 -2.5 L 2.5 2.5"/><g transform="translate(-444.9823747680891,-313)"><path fill="none" stroke="" d=""/><g transform="translate(454.2773654916512,313)"><path fill="none" stroke="" paint-order="fill stroke markers" d=" M -2.5 2.5 L 2.5 -2.5 M -2.5 -2.5 L 2.5 2.5"/><g transform="translate(-454.2773654916512,-313)"><path fill="none" stroke="" d=""/><g transform="translate(463.57235621521335,313)"><path fill="none" stroke="" paint-order="fill stroke markers" d=" M -2.5 2.5 L 2.5 -2.5 M -2.5 -2.5 L 2.5 2.5"/><g transform="translate(-463.57235621521335,-313)"><path fill="none" stroke="" d=""/><g transform="translate(472.8673469387755,313)"><path fill="none" stroke="" paint-order="fill stroke markers" d=" M -2.5 2.5 L 2.5 -2.5 M -2.5 -2.5 L 2.5 2.5"/><g transform="translate(-472.8673469387755,-313)"><path fill="none" stroke="" d=""/><g transform="translate(482.1623376623377,313)"><path fill="none" stroke="" paint-order="fill stroke markers" d=" M -2.5 2.5 L 2.5 -2.5 M -2.5 -2.5 L 2.5 2.5"/><g transform="translate(-482.1623376623377,-313)"><path fill="none" stroke="" d=""/><g transform="translate(491.4573283858998,313)"><path fill="none" stroke="" paint-order="fill stroke markers" d=" M -2.5 2.5 L 2.5 -2.5 M -2.5 -2.5 L 2.5 2.5"/><g transform="translate(-491.4573283858998,-313)"><path fill="none" stroke="" d=""/><g transform="translate(500.75231910946195,313)"><path fill="none" stroke="" paint-order="fill stroke markers" d=" M -2.5 2.5 L 2.5 -2.5 M -2.5 -2.5 L 2.5 2.5"/><g transform="translate(-500.75231910946195,-313)"><path fill="none" stroke="" d=""/><g transform="translate(510.0473098330241,313)"><path fill="none" stroke="" paint-order="fill stroke markers" d=" M -2.5 2.5 L 2.5 -2.5 M -2.5 -2.5 L 2.5 2.5"/><g transform="translate(-510.0473098330241,-313)"><path fill="none" stroke="" d=""/><g transform="translate(519.3423005565862,313)"><path fill="none" stroke="" paint-order="fill stroke markers" d=" M -2.5 2.5 L 2.5 -2.5 M -2.5 -2.5 L 2.5 2.5"/><g transform="translate(-519.3423005565862,-313)"><path fill="none" stroke="" d=""/><g transform="translate(528.6372912801485,313)"><path fill="none" stroke="" paint-order="fill stroke markers" d=" M -2.5 2.5 L 2.5 -2.5 M -2.5 -2.5 L 2.5 2.5"/><g transform="translate(-528.6372912801485,-313)"><path fill="none" stroke="" d=""/><g transform="translate(537.9322820037105,313)"><path fill="none" stroke="" paint-order="fill stroke markers" d=" M -2.5 2.5 L 2.5 -2.5 M -2.5 -2.5 L 2.5 2.5"/><g transform="translate(-537.9322820037105,-313)"><path fill="none" stroke="" d=""/><g transform="translate(547.2272727272727,313)"><path fill="none" stroke="" paint-order="fill stroke markers" d=" M -2.5 2.5 L 2.5 -2.5 M -2.5 -2.5 L 2.5 2.5"/><g transform="translate(-547.2272727272727,-313)"/></g></g></g></g></g></g></g></g></g></g></g></g></g></g></g></g></g></g></g></g></g></g></g></g></g></g></g></g></g></g></g></g></g></g></g></g></g></g></g></g></g></g></g></g></g></g></g></g></g></g></g></g></g></g></g></g></g></g></g></g></g></g></g></g></g></g></g></g></g></g></g></g></g></g></g></g></g></g></g></g></g></g></g></g></g></g></g></g></g></g></g></g></g></g></g></g></g></g></g></g><g><path fill="none" stroke="none"/><path fill="white" stroke="orange" paint-order="fill stroke markers" d=" M 94.27272727272727 340.608 A 2.5 2.5 0 1 1 94.27272602272737 340.60550000041667" stroke-linejoin="bevel" stroke-miterlimit="10"/><path fill="white" stroke="orange" paint-order="fill stroke markers" d=" M 103.56771799628942 339.8968 A 2.5 2.5 0 1 1 103.56771674628952 339.89430000041665" stroke-linejoin="bevel" stroke-miterlimit="10"/><path fill="white" stroke="orange" paint-order="fill stroke markers" d=" M 112.86270871985157 338.4184 A 2.5 2.5 0 1 1 112.86270746985167 338.4159000004167" stroke-linejoin="bevel" stroke-miterlimit="10"/><path fill="white" stroke="orange" paint-order="fill stroke markers" d=" M 122.15769944341372 337.1556 A 2.5 2.5 0 1 1 122.15769819341382 337.15310000041666" stroke-linejoin="bevel" stroke-miterlimit="10"/><path fill="white" stroke="orange" paint-order="fill stroke markers" d=" M 131.45269016697588 335.4196 A 2.5 2.5 0 1 1 131.452688916976 335.41710000041667" stroke-linejoin="bevel" stroke-miterlimit="10"/><path fill="white" stroke="orange" paint-order="fill stroke markers" d=" M 140.74768089053802 335.3776 A 2.5 2.5 0 1 1 140.74767964053814 335.37510000041664" stroke-linejoin="bevel" stroke-miterlimit="10"/><path fill="white" stroke="orange" paint-order="fill stroke markers" d=" M 150.0426716141002 335.3776 A 2.5 2.5 0 1 1 150.0426703641003 335.37510000041664" stroke-linejoin="bevel" stroke-miterlimit="10"/><path fill="white" stroke="orange" paint-order="fill stroke markers" d=" M 159.33766233766232 334.9996 A 2.5 2.5 0 1 1 159.33766108766244 334.99710000041665" stroke-linejoin="bevel" stroke-miterlimit="10"/><path fill="white" stroke="orange" paint-order="fill stroke markers" d=" M 168.6326530612245 334.9996 A 2.5 2.5 0 1 1 168.6326518112246 334.99710000041665" stroke-linejoin="bevel" stroke-miterlimit="10"/><path fill="white" stroke="orange" paint-order="fill stroke markers" d=" M 177.92764378478665 334.9996 A 2.5 2.5 0 1 1 177.92764253478677 334.99710000041665" stroke-linejoin="bevel" stroke-miterlimit="10"/><path fill="white" stroke="orange" paint-order="fill stroke markers" d=" M 187.2226345083488 334.9996 A 2.5 2.5 0 1 1 187.2226332583489 334.99710000041665" stroke-linejoin="bevel" stroke-miterlimit="10"/><path fill="white" stroke="orange" paint-order="fill stroke markers" d=" M 196.51762523191093 334.9996 A 2.5 2.5 0 1 1 196.51762398191104 334.99710000041665" stroke-linejoin="bevel" stroke-miterlimit="10"/><path fill="white" stroke="orange" paint-order="fill stroke markers" d=" M 205.8126159554731 334.9996 A 2.5 2.5 0 1 1 205.8126147054732 334.99710000041665" stroke-linejoin="bevel" stroke-miterlimit="10"/><path fill="white" stroke="orange" paint-order="fill stroke markers" d=" M 215.10760667903526 334.9996 A 2.5 2.5 0 1 1 215.10760542903537 334.99710000041665" stroke-linejoin="bevel" stroke-miterlimit="10"/><path fill="white" stroke="orange" paint-order="fill stroke markers" d=" M 224.4025974025974 334.9996 A 2.5 2.5 0 1 1 224.4025961525975 334.99710000041665" stroke-linejoin="bevel" stroke-miterlimit="10"/><path fill="white" stroke="orange" paint-order="fill stroke markers" d=" M 233.69758812615956 334.9996 A 2.5 2.5 0 1 1 233.69758687615968 334.99710000041665" stroke-linejoin="bevel" stroke-miterlimit="10"/><path fill="white" stroke="orange" paint-order="fill stroke markers" d=" M 242.9925788497217 334.9996 A 2.5 2.5 0 1 1 242.9925775997218 334.99710000041665" stroke-linejoin="bevel" stroke-miterlimit="10"/><path fill="white" stroke="orange" paint-order="fill stroke markers" d=" M 252.28756957328386 334.9996 A 2.5 2.5 0 1 1 252.28756832328398 334.99710000041665" stroke-linejoin="bevel" stroke-miterlimit="10"/><path fill="white" stroke="orange" paint-order="fill stroke markers" d=" M 261.582560296846 334.9996 A 2.5 2.5 0 1 1 261.5825590468461 334.99710000041665" stroke-linejoin="bevel" stroke-miterlimit="10"/><path fill="white" stroke="orange" paint-order="fill stroke markers" d=" M 270.8775510204082 334.9996 A 2.5 2.5 0 1 1 270.8775497704083 334.99710000041665" stroke-linejoin="bevel" stroke-miterlimit="10"/><path fill="white" stroke="orange" paint-order="fill stroke markers" d=" M 280.1725417439703 334.9996 A 2.5 2.5 0 1 1 280.1725404939704 334.99710000041665" stroke-linejoin="bevel" stroke-miterlimit="10"/><path fill="white" stroke="orange" paint-order="fill stroke markers" d=" M 289.46753246753246 334.9996 A 2.5 2.5 0 1 1 289.46753121753255 334.99710000041665" stroke-linejoin="bevel" stroke-miterlimit="10"/><path fill="white" stroke="orange" paint-order="fill stroke markers" d=" M 298.7625231910946 334.9996 A 2.5 2.5 0 1 1 298.7625219410947 334.99710000041665" stroke-linejoin="bevel" stroke-miterlimit="10"/><path fill="white" stroke="orange" paint-order="fill stroke markers" d=" M 308.05751391465674 334.9576 A 2.5 2.5 0 1 1 308.0575126646568 334.9551000004167" stroke-linejoin="bevel" stroke-miterlimit="10"/><path fill="white" stroke="orange" paint-order="fill stroke markers" d=" M 317.3525046382189 334.294 A 2.5 2.5 0 1 1 317.35250338821896 334.29150000041665" stroke-linejoin="bevel" stroke-miterlimit="10"/><path fill="white" stroke="orange" paint-order="fill stroke markers" d=" M 326.64749536178107 332.4656 A 2.5 2.5 0 1 1 326.64749411178116 332.46310000041666" stroke-linejoin="bevel" stroke-miterlimit="10"/><path fill="white" stroke="orange" paint-order="fill stroke markers" d=" M 335.94248608534326 330.6456 A 2.5 2.5 0 1 1 335.94248483534335 330.64310000041667" stroke-linejoin="bevel" stroke-miterlimit="10"/><path fill="white" stroke="orange" paint-order="fill stroke markers" d=" M 345.2374768089054 323.4664 A 2.5 2.5 0 1 1 345.2374755589055 323.4639000004167" stroke-linejoin="bevel" stroke-miterlimit="10"/><path fill="white" stroke="orange" paint-order="fill stroke markers" d=" M 354.53246753246754 319.3644 A 2.5 2.5 0 1 1 354.5324662824676 319.36190000041665" stroke-linejoin="bevel" stroke-miterlimit="10"/><path fill="white" stroke="orange" paint-order="fill stroke markers" d=" M 363.8274582560297 315.0608 A 2.5 2.5 0 1 1 363.82745700602976 315.05830000041664" stroke-linejoin="bevel" stroke-miterlimit="10"/><path fill="white" stroke="orange" paint-order="fill stroke markers" d=" M 373.1224489795918 309.9032 A 2.5 2.5 0 1 1 373.1224477295919 309.9007000004167" stroke-linejoin="bevel" stroke-miterlimit="10"/><path fill="white" stroke="orange" paint-order="fill stroke markers" d=" M 382.417439703154 304.7316 A 2.5 2.5 0 1 1 382.4174384531541 304.7291000004167" stroke-linejoin="bevel" stroke-miterlimit="10"/><path fill="white" stroke="orange" paint-order="fill stroke markers" d=" M 391.71243042671614 274.97040000000004 A 2.5 2.5 0 1 1 391.7124291767162 274.9679000004167" stroke-linejoin="bevel" stroke-miterlimit="10"/><path fill="white" stroke="orange" paint-order="fill stroke markers" d=" M 401.0074211502783 268.0432 A 2.5 2.5 0 1 1 401.00741990027836 268.0407000004167" stroke-linejoin="bevel" stroke-miterlimit="10"/><path fill="white" stroke="orange" paint-order="fill stroke markers" d=" M 410.3024118738404 261.21680000000003 A 2.5 2.5 0 1 1 410.3024106238405 261.2143000004167" stroke-linejoin="bevel" stroke-miterlimit="10"/><path fill="white" stroke="orange" paint-order="fill stroke markers" d=" M 419.5974025974026 254.08800000000002 A 2.5 2.5 0 1 1 419.5974013474027 254.0855000004167" stroke-linejoin="bevel" stroke-miterlimit="10"/><path fill="white" stroke="orange" paint-order="fill stroke markers" d=" M 428.89239332096474 247.76 A 2.5 2.5 0 1 1 428.89239207096483 247.75750000041666" stroke-linejoin="bevel" stroke-miterlimit="10"/><path fill="white" stroke="orange" paint-order="fill stroke markers" d=" M 438.1873840445269 241.3816 A 2.5 2.5 0 1 1 438.18738279452697 241.37910000041666" stroke-linejoin="bevel" stroke-miterlimit="10"/><path fill="white" stroke="orange" paint-order="fill stroke markers" d=" M 447.4823747680891 234.88840000000002 A 2.5 2.5 0 1 1 447.48237351808916 234.88590000041668" stroke-linejoin="bevel" stroke-miterlimit="10"/><path fill="white" stroke="orange" paint-order="fill stroke markers" d=" M 456.7773654916512 228.692 A 2.5 2.5 0 1 1 456.7773642416513 228.68950000041667" stroke-linejoin="bevel" stroke-miterlimit="10"/><path fill="white" stroke="orange" paint-order="fill stroke markers" d=" M 466.07235621521335 188.44480000000001 A 2.5 2.5 0 1 1 466.07235496521344 188.44230000041668" stroke-linejoin="bevel" stroke-miterlimit="10"/><path fill="white" stroke="orange" paint-order="fill stroke markers" d=" M 475.3673469387755 180.16240000000002 A 2.5 2.5 0 1 1 475.3673456887756 180.15990000041668" stroke-linejoin="bevel" stroke-miterlimit="10"/><path fill="white" stroke="orange" paint-order="fill stroke markers" d=" M 484.6623376623377 171.4516 A 2.5 2.5 0 1 1 484.66233641233777 171.44910000041668" stroke-linejoin="bevel" stroke-miterlimit="10"/><path fill="white" stroke="orange" paint-order="fill stroke markers" d=" M 493.9573283858998 162.5868 A 2.5 2.5 0 1 1 493.9573271358999 162.58430000041668" stroke-linejoin="bevel" stroke-miterlimit="10"/><path fill="white" stroke="orange" paint-order="fill stroke markers" d=" M 503.25231910946195 154.422 A 2.5 2.5 0 1 1 503.25231785946204 154.41950000041666" stroke-linejoin="bevel" stroke-miterlimit="10"/><path fill="white" stroke="orange" paint-order="fill stroke markers" d=" M 512.5473098330241 147.142 A 2.5 2.5 0 1 1 512.5473085830242 147.13950000041666" stroke-linejoin="bevel" stroke-miterlimit="10"/><path fill="white" stroke="orange" paint-order="fill stroke markers" d=" M 521.8423005565862 72.71520000000004 A 2.5 2.5 0 1 1 521.8422993065864 72.7127000004167" stroke-linejoin="bevel" stroke-miterlimit="10"/><path fill="white" stroke="orange" paint-order="fill stroke markers" d=" M 531.1372912801485 61.523600000000044 A 2.5 2.5 0 1 1 531.1372900301486 61.52110000041671" stroke-linejoin="bevel" stroke-miterlimit="10"/><path fill="white" stroke="orange" paint-order="fill stroke markers" d=" M 540.4322820037105 52.73719999999997 A 2.5 2.5 0 1 1 540.4322807537106 52.73470000041664" stroke-linejoin="bevel" stroke-miterlimit="10"/><path fill="white" stroke="orange" paint-order="fill stroke markers" d=" M 549.7272727272727 46.47919999999999 A 2.5 2.5 0 1 1 549.7272714772729 46.476700000416656" stroke-linejoin="bevel" stroke-miterlimit="10"/></g></g></g><g clip-path="url(#wGBLXMKRkgyw)"><g><g/><g stroke="orange" stroke-linejoin="bevel" stroke-miterlimit="10" fill="#444444"><path fill="#ffffff" stroke="#e5e5e5" paint-order="fill stroke markers" d=" M 79 15 L 309.921875 15 L 309.921875 170 L 79 170 L 79 15 Z" fill-opacity="0.95" stroke-linejoin="bevel" stroke-miterlimit="10" stroke-opacity="0.5"/><text fill="#444444" stroke="none" font-family="helvetica" font-size="10pt" font-style="normal" font-weight="normal" text-decoration="normal" x="114" y="35" text-anchor="start" dominant-baseline="central">Total Cost Two-tier with RSU</text><g><path fill="none" stroke="#1f77b4" paint-order="fill stroke markers" d=" M 89 35 L 109 35" stroke-linejoin="bevel" stroke-miterlimit="10" stroke-width="3"/></g><text fill="#444444" stroke="none" font-family="helvetica" font-size="10pt" font-style="normal" font-weight="normal" text-decoration="normal" x="114" y="58" text-anchor="start" dominant-baseline="central">Edge Cost Two-tier with RSU</text><g><path fill="none" stroke="dodgerblue" paint-order="fill stroke markers" d=" M 89 58 L 109 58" stroke-linejoin="bevel" stroke-miterlimit="10" stroke-width="2"/></g><text fill="#444444" stroke="none" font-family="helvetica" font-size="10pt" font-style="normal" font-weight="normal" text-decoration="normal" x="114" y="81" text-anchor="start" dominant-baseline="central">Fog Cost Two-tier with RSU</text><g><path fill="none" stroke="deepskyblue" paint-order="fill stroke markers" d=" M 89 81 L 109 81" stroke-linejoin="bevel" stroke-miterlimit="10" stroke-width="2" stroke-dasharray="6,4,2,4"/></g><text fill="#444444" stroke="none" font-family="helvetica" font-size="10pt" font-style="normal" font-weight="normal" text-decoration="normal" x="114" y="104" text-anchor="start" dominant-baseline="central">Total Cost Two-tier without RSU</text><g><path fill="none" stroke="red" paint-order="fill stroke markers" d=" M 89 104 L 109 104" stroke-linejoin="bevel" stroke-miterlimit="10" stroke-width="2"/></g><path fill="red" stroke="red" paint-order="fill stroke markers" d=" M 103 104 A 4 4 0 1 1 102.99999800000016 103.99600000066667" stroke-linejoin="bevel" stroke-miterlimit="10"/><text fill="#444444" stroke="none" font-family="helvetica" font-size="10pt" font-style="normal" font-weight="normal" text-decoration="normal" x="114" y="127" text-anchor="start" dominant-baseline="central">Edge Cost Two-tier without RSU</text><g><path fill="none" stroke="tomato" paint-order="fill stroke markers" d=" M 89 127 L 109 127" stroke-linejoin="bevel" stroke-miterlimit="10"/></g><path fill="" stroke="" d=""/><g transform="translate(99,127)"><path fill="" stroke="" paint-order="fill stroke markers" d=" M -4 4 L 4 -4 M -4 -4 L 4 4"/><g transform="translate(-99,-127)"><text fill="" stroke="none" font-family="helvetica" font-size="10pt" font-style="normal" font-weight="normal" text-decoration="normal" x="114" y="150" text-anchor="start" dominant-baseline="central">Fog Cost Two-tier without RSU</text><g><path fill="none" stroke="" paint-order="fill stroke markers" d=" M 89 150 L 109 150"/></g><path fill="white" stroke="orange" paint-order="fill stroke markers" d=" M 103 150 A 4 4 0 1 1 102.99999800000016 149.99600000066667" stroke-linejoin="bevel" stroke-miterlimit="10"/></g></g></g></g></g><g><g fill="#444444"><path fill="none" stroke="black" paint-order="fill stroke markers" d=" M 69 341 L 570 341" stroke-linejoin="bevel" stroke-miterlimit="10"/><path fill="none" stroke="black" paint-order="fill stroke markers" d=" M 82 347 L 82 339" stroke-linejoin="bevel" stroke-miterlimit="10"/><path fill="none" stroke="black" paint-order="fill stroke markers" d=" M 175 347 L 175 339" stroke-linejoin="bevel" stroke-miterlimit="10"/><path fill="none" stroke="black" paint-order="fill stroke markers" d=" M 268 347 L 268 339" stroke-linejoin="bevel" stroke-miterlimit="10"/><path fill="none" stroke="black" paint-order="fill stroke markers" d=" M 361 347 L 361 339" stroke-linejoin="bevel" stroke-miterlimit="10"/><path fill="none" stroke="black" paint-order="fill stroke markers" d=" M 454 347 L 454 339" stroke-linejoin="bevel" stroke-miterlimit="10"/><path fill="none" stroke="black" paint-order="fill stroke markers" d=" M 547 347 L 547 339" stroke-linejoin="bevel" stroke-miterlimit="10"/><path fill="none" stroke="black" paint-order="fill stroke markers" d=" M 82 345 L 82 341" stroke-linejoin="bevel" stroke-miterlimit="10"/><path fill="none" stroke="black" paint-order="fill stroke markers" d=" M 101 345 L 101 341" stroke-linejoin="bevel" stroke-miterlimit="10"/><path fill="none" stroke="black" paint-order="fill stroke markers" d=" M 120 345 L 120 341" stroke-linejoin="bevel" stroke-miterlimit="10"/><path fill="none" stroke="black" paint-order="fill stroke markers" d=" M 138 345 L 138 341" stroke-linejoin="bevel" stroke-miterlimit="10"/><path fill="none" stroke="black" paint-order="fill stroke markers" d=" M 157 345 L 157 341" stroke-linejoin="bevel" stroke-miterlimit="10"/><path fill="none" stroke="black" paint-order="fill stroke markers" d=" M 175 345 L 175 341" stroke-linejoin="bevel" stroke-miterlimit="10"/><path fill="none" stroke="black" paint-order="fill stroke markers" d=" M 194 345 L 194 341" stroke-linejoin="bevel" stroke-miterlimit="10"/><path fill="none" stroke="black" paint-order="fill stroke markers" d=" M 213 345 L 213 341" stroke-linejoin="bevel" stroke-miterlimit="10"/><path fill="none" stroke="black" paint-order="fill stroke markers" d=" M 231 345 L 231 341" stroke-linejoin="bevel" stroke-miterlimit="10"/><path fill="none" stroke="black" paint-order="fill stroke markers" d=" M 250 345 L 250 341" stroke-linejoin="bevel" stroke-miterlimit="10"/><path fill="none" stroke="black" paint-order="fill stroke markers" d=" M 268 345 L 268 341" stroke-linejoin="bevel" stroke-miterlimit="10"/><path fill="none" stroke="black" paint-order="fill stroke markers" d=" M 287 345 L 287 341" stroke-linejoin="bevel" stroke-miterlimit="10"/><path fill="none" stroke="black" paint-order="fill stroke markers" d=" M 306 345 L 306 341" stroke-linejoin="bevel" stroke-miterlimit="10"/><path fill="none" stroke="black" paint-order="fill stroke markers" d=" M 324 345 L 324 341" stroke-linejoin="bevel" stroke-miterlimit="10"/><path fill="none" stroke="black" paint-order="fill stroke markers" d=" M 343 345 L 343 341" stroke-linejoin="bevel" stroke-miterlimit="10"/><path fill="none" stroke="black" paint-order="fill stroke markers" d=" M 361 345 L 361 341" stroke-linejoin="bevel" stroke-miterlimit="10"/><path fill="none" stroke="black" paint-order="fill stroke markers" d=" M 380 345 L 380 341" stroke-linejoin="bevel" stroke-miterlimit="10"/><path fill="none" stroke="black" paint-order="fill stroke markers" d=" M 399 345 L 399 341" stroke-linejoin="bevel" stroke-miterlimit="10"/><path fill="none" stroke="black" paint-order="fill stroke markers" d=" M 417 345 L 417 341" stroke-linejoin="bevel" stroke-miterlimit="10"/><path fill="none" stroke="black" paint-order="fill stroke markers" d=" M 436 345 L 436 341" stroke-linejoin="bevel" stroke-miterlimit="10"/><path fill="none" stroke="black" paint-order="fill stroke markers" d=" M 454 345 L 454 341" stroke-linejoin="bevel" stroke-miterlimit="10"/><path fill="none" stroke="black" paint-order="fill stroke markers" d=" M 473 345 L 473 341" stroke-linejoin="bevel" stroke-miterlimit="10"/><path fill="none" stroke="black" paint-order="fill stroke markers" d=" M 491 345 L 491 341" stroke-linejoin="bevel" stroke-miterlimit="10"/><path fill="none" stroke="black" paint-order="fill stroke markers" d=" M 510 345 L 510 341" stroke-linejoin="bevel" stroke-miterlimit="10"/><path fill="none" stroke="black" paint-order="fill stroke markers" d=" M 529 345 L 529 341" stroke-linejoin="bevel" stroke-miterlimit="10"/><path fill="none" stroke="black" paint-order="fill stroke markers" d=" M 547 345 L 547 341" stroke-linejoin="bevel" stroke-miterlimit="10"/><path fill="" stroke="black" paint-order="fill stroke markers" d=" M 566 345 L 566 341" stroke-linejoin="bevel" stroke-miterlimit="10"/><g transform="translate(82,352) rotate(0,0,0)"><text fill="" stroke="none" font-family="helvetica" font-size="12pt" font-style="normal" font-weight="normal" text-decoration="normal" x="0" y="0" text-anchor="middle" dominant-baseline="hanging">0</text><g transform="rotate(0,0,0) translate(-82,-352) translate(175,352) rotate(0,0,0)"><text fill="" stroke="none" font-family="helvetica" font-size="12pt" font-style="normal" font-weight="normal" text-decoration="normal" x="0" y="0" text-anchor="middle" dominant-baseline="hanging">500</text><g transform="rotate(0,0,0) translate(-175,-352) translate(268,352) rotate(0,0,0)"><text fill="" stroke="none" font-family="helvetica" font-size="12pt" font-style="normal" font-weight="normal" text-decoration="normal" x="0" y="0" text-anchor="middle" dominant-baseline="hanging">1000</text><g transform="rotate(0,0,0) translate(-268,-352) translate(361,352) rotate(0,0,0)"><text fill="" stroke="none" font-family="helvetica" font-size="12pt" font-style="normal" font-weight="normal" text-decoration="normal" x="0" y="0" text-anchor="middle" dominant-baseline="hanging">1500</text><g transform="rotate(0,0,0) translate(-361,-352) translate(454,352) rotate(0,0,0)"><text fill="" stroke="none" font-family="helvetica" font-size="12pt" font-style="normal" font-weight="normal" text-decoration="normal" x="0" y="0" text-anchor="middle" dominant-baseline="hanging">2000</text><g transform="rotate(0,0,0) translate(-454,-352) translate(547,352) rotate(0,0,0)"><text fill="" stroke="none" font-family="helvetica" font-size="12pt" font-style="normal" font-weight="normal" text-decoration="normal" x="0" y="0" text-anchor="middle" dominant-baseline="hanging">2500</text><g transform="rotate(0,0,0) translate(-547,-352) translate(320,376) rotate(0,0,0)"><text fill="" stroke="none" font-family="helvetica" font-size="15pt" font-style="italic" font-weight="normal" text-decoration="normal" x="0" y="0" text-anchor="middle" dominant-baseline="hanging">Araival Traffic (mb/s)</text><g transform="rotate(0,0,0) translate(-320,-376)"/></g></g></g></g></g></g></g></g><g fill="#444444"><path fill="none" stroke="black" paint-order="fill stroke markers" d=" M 69 341 L 69 5" stroke-linejoin="bevel" stroke-miterlimit="10"/><path fill="none" stroke="black" paint-order="fill stroke markers" d=" M 63 341 L 71 341" stroke-linejoin="bevel" stroke-miterlimit="10"/><path fill="none" stroke="black" paint-order="fill stroke markers" d=" M 63 274 L 71 274" stroke-linejoin="bevel" stroke-miterlimit="10"/><path fill="none" stroke="black" paint-order="fill stroke markers" d=" M 63 207 L 71 207" stroke-linejoin="bevel" stroke-miterlimit="10"/><path fill="none" stroke="black" paint-order="fill stroke markers" d=" M 63 139 L 71 139" stroke-linejoin="bevel" stroke-miterlimit="10"/><path fill="none" stroke="black" paint-order="fill stroke markers" d=" M 63 72 L 71 72" stroke-linejoin="bevel" stroke-miterlimit="10"/><path fill="none" stroke="black" paint-order="fill stroke markers" d=" M 63 5 L 71 5" stroke-linejoin="bevel" stroke-miterlimit="10"/><path fill="none" stroke="black" paint-order="fill stroke markers" d=" M 65 341 L 69 341" stroke-linejoin="bevel" stroke-miterlimit="10"/><path fill="none" stroke="black" paint-order="fill stroke markers" d=" M 65 328 L 69 328" stroke-linejoin="bevel" stroke-miterlimit="10"/><path fill="none" stroke="black" paint-order="fill stroke markers" d=" M 65 314 L 69 314" stroke-linejoin="bevel" stroke-miterlimit="10"/><path fill="none" stroke="black" paint-order="fill stroke markers" d=" M 65 301 L 69 301" stroke-linejoin="bevel" stroke-miterlimit="10"/><path fill="none" stroke="black" paint-order="fill stroke markers" d=" M 65 287 L 69 287" stroke-linejoin="bevel" stroke-miterlimit="10"/><path fill="none" stroke="black" paint-order="fill stroke markers" d=" M 65 274 L 69 274" stroke-linejoin="bevel" stroke-miterlimit="10"/><path fill="none" stroke="black" paint-order="fill stroke markers" d=" M 65 260 L 69 260" stroke-linejoin="bevel" stroke-miterlimit="10"/><path fill="none" stroke="black" paint-order="fill stroke markers" d=" M 65 247 L 69 247" stroke-linejoin="bevel" stroke-miterlimit="10"/><path fill="none" stroke="black" paint-order="fill stroke markers" d=" M 65 233 L 69 233" stroke-linejoin="bevel" stroke-miterlimit="10"/><path fill="none" stroke="black" paint-order="fill stroke markers" d=" M 65 220 L 69 220" stroke-linejoin="bevel" stroke-miterlimit="10"/><path fill="none" stroke="black" paint-order="fill stroke markers" d=" M 65 207 L 69 207" stroke-linejoin="bevel" stroke-miterlimit="10"/><path fill="none" stroke="black" paint-order="fill stroke markers" d=" M 65 193 L 69 193" stroke-linejoin="bevel" stroke-miterlimit="10"/><path fill="none" stroke="black" paint-order="fill stroke markers" d=" M 65 180 L 69 180" stroke-linejoin="bevel" stroke-miterlimit="10"/><path fill="none" stroke="black" paint-order="fill stroke markers" d=" M 65 166 L 69 166" stroke-linejoin="bevel" stroke-miterlimit="10"/><path fill="none" stroke="black" paint-order="fill stroke markers" d=" M 65 153 L 69 153" stroke-linejoin="bevel" stroke-miterlimit="10"/><path fill="none" stroke="black" paint-order="fill stroke markers" d=" M 65 139 L 69 139" stroke-linejoin="bevel" stroke-miterlimit="10"/><path fill="none" stroke="black" paint-order="fill stroke markers" d=" M 65 126 L 69 126" stroke-linejoin="bevel" stroke-miterlimit="10"/><path fill="none" stroke="black" paint-order="fill stroke markers" d=" M 65 113 L 69 113" stroke-linejoin="bevel" stroke-miterlimit="10"/><path fill="none" stroke="black" paint-order="fill stroke markers" d=" M 65 99 L 69 99" stroke-linejoin="bevel" stroke-miterlimit="10"/><path fill="none" stroke="black" paint-order="fill stroke markers" d=" M 65 86 L 69 86" stroke-linejoin="bevel" stroke-miterlimit="10"/><path fill="none" stroke="black" paint-order="fill stroke markers" d=" M 65 72 L 69 72" stroke-linejoin="bevel" stroke-miterlimit="10"/><path fill="none" stroke="black" paint-order="fill stroke markers" d=" M 65 59 L 69 59" stroke-linejoin="bevel" stroke-miterlimit="10"/><path fill="none" stroke="black" paint-order="fill stroke markers" d=" M 65 45 L 69 45" stroke-linejoin="bevel" stroke-miterlimit="10"/><path fill="none" stroke="black" paint-order="fill stroke markers" d=" M 65 32 L 69 32" stroke-linejoin="bevel" stroke-miterlimit="10"/><path fill="none" stroke="black" paint-order="fill stroke markers" d=" M 65 18 L 69 18" stroke-linejoin="bevel" stroke-miterlimit="10"/><path fill="" stroke="black" paint-order="fill stroke markers" d=" M 65 5 L 69 5" stroke-linejoin="bevel" stroke-miterlimit="10"/><g transform="translate(58,341) rotate(0,0,0)"><text fill="" stroke="none" font-family="helvetica" font-size="12pt" font-style="normal" font-weight="normal" text-decoration="normal" x="0" y="0" text-anchor="end" dominant-baseline="central">0</text><g transform="rotate(0,0,0) translate(-58,-341) translate(58,274) rotate(0,0,0)"><text fill="" stroke="none" font-family="helvetica" font-size="12pt" font-style="normal" font-weight="normal" text-decoration="normal" x="0" y="0" text-anchor="end" dominant-baseline="central">20</text><g transform="rotate(0,0,0) translate(-58,-274) translate(58,207) rotate(0,0,0)"><text fill="" stroke="none" font-family="helvetica" font-size="12pt" font-style="normal" font-weight="normal" text-decoration="normal" x="0" y="0" text-anchor="end" dominant-baseline="central">40</text><g transform="rotate(0,0,0) translate(-58,-207) translate(58,139) rotate(0,0,0)"><text fill="" stroke="none" font-family="helvetica" font-size="12pt" font-style="normal" font-weight="normal" text-decoration="normal" x="0" y="0" text-anchor="end" dominant-baseline="central">60</text><g transform="rotate(0,0,0) translate(-58,-139) translate(58,72) rotate(0,0,0)"><text fill="" stroke="none" font-family="helvetica" font-size="12pt" font-style="normal" font-weight="normal" text-decoration="normal" x="0" y="0" text-anchor="end" dominant-baseline="central">80</text><g transform="rotate(0,0,0) translate(-58,-72) translate(58,5) rotate(0,0,0)"><text fill="" stroke="none" font-family="helvetica" font-size="12pt" font-style="normal" font-weight="normal" text-decoration="normal" x="0" y="0" text-anchor="end" dominant-baseline="central">100</text><g transform="rotate(0,0,0) translate(-58,-5) translate(24,173) rotate(-90,0,0)"><text fill="" stroke="none" font-family="helvetica" font-size="15pt" font-style="italic" font-weight="normal" text-decoration="normal" x="0" y="0" text-anchor="middle" dominant-baseline="alphabetic">Percentage of Cost (%)</text><g transform="rotate(90,0,0) translate(-24,-173)"/></g></g></g></g></g></g></g></g></g></g></g></svg>